<svg width="113" height="110" viewBox="0 0 113 110" fill="none" xmlns="http://www.w3.org/2000/svg">
<mask id="mask0_1_5359" style="mask-type:luminance" maskUnits="userSpaceOnUse" x="0" y="0" width="113" height="110">
<path d="M112.452 0.243164H0.843018V109.744H112.452V0.243164Z" fill="white"/>
</mask>
<g mask="url(#mask0_1_5359)">
<mask id="mask1_1_5359" style="mask-type:luminance" maskUnits="userSpaceOnUse" x="0" y="0" width="113" height="110">
<path d="M112.452 0.243164H0.843018V109.744H112.452V0.243164Z" fill="white"/>
</mask>
<g mask="url(#mask1_1_5359)">
<g style="mix-blend-mode:multiply">
<mask id="mask2_1_5359" style="mask-type:luminance" maskUnits="userSpaceOnUse" x="0" y="89" width="113" height="21">
<path d="M112.452 89.5508H0.843018V109.744H112.452V89.5508Z" fill="white"/>
</mask>
<g mask="url(#mask2_1_5359)">
<mask id="mask3_1_5359" style="mask-type:luminance" maskUnits="userSpaceOnUse" x="0" y="89" width="113" height="21">
<path d="M112.452 99.643C112.452 105.219 87.467 109.743 56.652 109.743C25.837 109.743 0.843018 105.224 0.843018 99.643C0.843018 94.062 25.827 89.543 56.648 89.543C87.469 89.543 112.448 94.064 112.448 99.643" fill="white"/>
</mask>
<g mask="url(#mask3_1_5359)">
<path d="M112.452 89.5508H0.843018V109.744H112.452V89.5508Z" fill="url(#paint0_radial_1_5359)"/>
</g>
</g>
</g>
</g>
<path d="M27.2661 0.243164L27.3951 0.553164L31.1671 0.243164H27.2661Z" fill="#474A52"/>
<path d="M34.823 0.243164L47.408 1.57316L46.518 0.243164H34.823Z" fill="#444950"/>
<path d="M46.5181 0.243164L47.4081 1.57216L56.9741 0.243164H46.5181Z" fill="#EFF7F9"/>
<path d="M56.974 0.243164L47.408 1.57316L61.592 4.57316L58.696 0.243164H56.974Z" fill="#808890"/>
<path d="M58.696 0.243164L61.596 4.56916L67.983 0.243164H58.696Z" fill="#475875"/>
<path d="M67.983 0.243164L61.592 4.57016L75.776 3.07016L74.352 0.243164H67.983Z" fill="white"/>
<path d="M74.3521 0.243164L75.776 3.07116L79.954 0.243164H74.3521Z" fill="#A3B1BC"/>
<path d="M79.9541 0.243164L75.7761 3.07216L84.5591 3.79416L83.9861 5.18016L83.9021 6.89616L84.0511 7.04416L89.0911 4.72416L87.3151 1.53016L86.0291 0.243164H79.9541Z" fill="white"/>
<path d="M31.167 0.243164L27.395 0.553164L28.076 2.19716L28.361 2.88416L29.525 5.69316L29.837 6.44216V6.45216H33.737L34.732 6.84216L34.688 6.45216H33.932L33.243 0.243164H31.167Z" fill="#7A8694"/>
<path d="M33.2429 0.243164L33.9349 6.45216H34.6919L34.7349 6.84216L35.6149 6.45216H40.2349L44.3659 4.61916L33.6429 0.243164H33.2429Z" fill="#EFF7F9"/>
<path d="M33.6431 0.243164L44.3651 4.62016L47.4081 1.57316L34.8231 0.243164H33.6431Z" fill="white"/>
<path d="M50.563 6.45324H53.134L47.408 1.57324L44.366 4.62024L50.563 6.45324Z" fill="#98A4B1"/>
<path d="M53.134 6.45331H57.21L61.592 4.57031L47.408 1.57031L53.134 6.45331Z" fill="#E1EBF0"/>
<path d="M43.4429 6.45312H42.8029L41.8269 8.39212L47.9119 11.3921L46.2509 6.45312H44.9819L44.3659 4.62012L43.4429 6.45312Z" fill="#75746B"/>
<path d="M44.982 6.45312H46.25L47.911 11.3891L53.703 6.45312H50.563L44.363 4.62012L44.982 6.45312Z" fill="#B6C1CE"/>
<path d="M57.21 6.45331H65.521L68.684 6.11931L61.592 4.57031L57.21 6.45331Z" fill="#E5EDF0"/>
<path d="M68.684 6.11829L75.776 3.07129L61.592 4.57129L68.684 6.11829Z" fill="#EFF7F9"/>
<path d="M68.6841 6.11829L70.7171 6.45229H82.0091L75.7761 3.07129L68.6841 6.11829Z" fill="white"/>
<path d="M82.0091 6.45327H83.4591L83.9861 5.17927L84.5591 3.79427L75.7761 3.07227L82.0091 6.45327Z" fill="#B6C1CE"/>
<path d="M68.7291 6.45316H68.9981L68.6841 6.11816L68.7291 6.45316Z" fill="#304350"/>
<path d="M68.9981 6.45316H70.7171L68.6841 6.11816L68.9981 6.45316Z" fill="#EFF7F9"/>
<mask id="mask4_1_5359" style="mask-type:luminance" maskUnits="userSpaceOnUse" x="0" y="0" width="113" height="110">
<path d="M112.452 0.243164H0.843018V109.744H112.452V0.243164Z" fill="white"/>
</mask>
<g mask="url(#mask4_1_5359)">
<path d="M89.0909 4.72427L89.6249 3.83927L87.3149 1.53027L89.0909 4.72427Z" fill="#444950"/>
<path d="M89.0911 4.72377L91.6911 5.90377L89.6251 3.84277L89.0911 4.72377Z" fill="#EFF7F9"/>
<path d="M89.0911 4.72461L91.8561 14.8496L91.9371 14.9316L95.2371 9.45461L91.6871 5.90461L89.0911 4.72461Z" fill="#808890"/>
<path d="M91.937 14.9311L91.98 14.9741L98.769 12.9841L95.243 9.4541L91.937 14.9311Z" fill="#475875"/>
<path d="M91.9799 14.9744L91.937 14.9314L91.8549 14.8504L90.2749 13.2694L85.7939 14.5824L90.503 17.1994L93.1199 16.1144L92.1399 15.1344L93.5689 15.9284L93.1199 16.1144V18.3574L95.7069 16.8354L94.395 15.5864L95.6369 15.0724L99.1809 13.6054L99.3289 13.5444L98.769 12.9844L91.9799 14.9744Z" fill="white"/>
<path d="M83.459 6.45271L83.618 6.61171L83.902 6.89571L83.986 5.17871L83.459 6.45271Z" fill="#EFF7F9"/>
<path d="M87.008 10.0026L89.09 4.72461L84.05 7.04361L87.008 10.0026Z" fill="#98A4B1"/>
<path d="M87.0081 10.0026L87.9731 10.9676L90.2731 13.2676L91.8541 14.8486L89.0901 4.72461L87.0081 10.0026Z" fill="#E1EBF0"/>
<path d="M93.5691 15.9278L92.1431 15.1338L93.1221 16.1138L93.5691 15.9278Z" fill="#EFF7F9"/>
<path d="M99.3289 14.768V13.543L99.1809 13.604L99.3289 14.768Z" fill="#CBD5DC"/>
<path d="M99.181 13.6055L95.637 15.0725L99.329 17.0585V14.7685L99.181 13.6055Z" fill="#DEE6E8"/>
<path d="M98.3921 25.1558L99.3291 23.9328V19.2148L98.3921 25.1558Z" fill="#7A8694"/>
<path d="M98.3921 25.1566L99.3291 27.0616V23.9336L98.3921 25.1566Z" fill="#EFF7F9"/>
<path d="M95.637 15.0723L94.395 15.5863L95.707 16.8353L99.329 17.1963V17.0593L95.637 15.0723Z" fill="#EFF7F9"/>
<path d="M95.707 16.834L98.393 25.155L99.33 19.214V17.195L95.707 16.834Z" fill="#98A4B1"/>
<path d="M98.3921 25.1562L99.3291 31.7983V27.0613L98.3921 25.1562Z" fill="#CBD5DC"/>
<path d="M97.096 28.724L98.396 25.156L95.71 16.835L97.096 28.724Z" fill="#474A52"/>
<path d="M98.392 25.1562L97.092 28.7243L99.326 34.4693V31.7983L98.392 25.1562Z" fill="#E1E6E5"/>
<path d="M97.1431 45.2371L99.3301 44.4631V37.9561L97.1431 45.2371Z" fill="#F3F6F1"/>
<path d="M97.1431 45.2369L99.3301 46.0109V44.4629L97.1431 45.2369Z" fill="#E7F0F4"/>
<path d="M97.096 28.7246L95.707 37.9736L99.329 36.2676V34.4676L97.096 28.7246Z" fill="#444950"/>
<path d="M95.707 37.9726L97.143 45.2376L99.33 37.9566V36.2676L95.707 37.9726Z" fill="#EFF7F9"/>
<path d="M97.1431 45.2373L99.3301 52.5183V46.0113L97.1431 45.2373Z" fill="#A3B1BC"/>
<path d="M93.1201 46.5827V47.1307L97.1431 45.2367L95.7081 37.9717L93.1201 46.5827Z" fill="#808890"/>
<path d="M97.1431 45.2373L93.1211 47.1313V47.4203L99.3301 53.8713V52.5183L97.1431 45.2373Z" fill="#475875"/>
<path d="M93.1201 47.4199V48.4969L94.3201 56.4689L99.3321 54.6949V53.8709L93.1201 47.4199Z" fill="white"/>
<path d="M94.3169 56.4703L99.3289 61.6773V54.6963L94.3169 56.4703Z" fill="#A3B1BC"/>
<path d="M94.3169 56.4697L93.1169 66.7187V68.2537L99.3259 64.8277V61.6767L94.3169 56.4697Z" fill="white"/>
<path d="M93.1201 68.2541V68.4871L98.1721 71.8281L99.1721 72.2441L99.3251 72.3071V64.8281L93.1201 68.2541Z" fill="#EFF7F9"/>
<path d="M93.1201 69.1233V69.7373L94.4311 70.2793L98.1721 71.8283L93.1201 68.4863V69.1233Z" fill="#4A4D53"/>
<path d="M93.1201 20.684V21.476L95.7071 16.835L93.1201 18.357V20.684Z" fill="#E1EBF0"/>
<path d="M93.1201 21.476V29.036L97.0961 28.724L95.7071 16.835L93.1201 21.476Z" fill="#7A8694"/>
<path d="M93.1201 29.0356V35.5786L97.0961 28.7236L93.1201 29.0356Z" fill="#EFF7F9"/>
<path d="M93.1201 35.5786V36.1556L95.7071 37.9726L97.0961 28.7236L93.1201 35.5786Z" fill="white"/>
<path d="M93.1201 36.1562V40.1083L95.7071 37.9733L93.1201 36.1562Z" fill="#98A4B1"/>
<path d="M93.1201 40.1067V46.5827L95.7071 37.9717L93.1201 40.1067Z" fill="#E1EBF0"/>
<path d="M93.1201 54.5088V58.0218L94.3201 56.4698L93.1201 54.5088Z" fill="white"/>
<path d="M93.1201 58.0236V66.7236L94.3201 56.4746L93.1201 58.0236Z" fill="#B6C1CE"/>
<path d="M83.7761 80.1543L84.9361 82.9543H86.3821L83.7761 80.1543Z" fill="#75746B"/>
<path d="M94.431 70.279L93.119 69.737L92.475 69.469L91.135 68.914L90.261 68.552L90.17 68.514L89.73 68.331L89.643 68.293L89.635 68.302L93.043 69.816L90.904 71.954L90.897 71.962L96.977 74.662L97.242 74.396L94.431 70.279Z" fill="white"/>
<path d="M99.1761 72.2433L98.1761 71.8283L94.4351 70.2793L97.2431 74.3963L98.8841 72.7553L99.1761 72.2433Z" fill="#B6C1CE"/>
<path d="M87.6519 75.2041L86.0769 76.7791L86.3819 82.9571H88.6729L89.9169 81.7151L87.6519 75.2041Z" fill="#304350"/>
<path d="M90.8941 71.9619L89.8631 72.9929L87.6521 75.2039L89.9171 81.7149C92.3171 79.3209 94.4171 77.2229 96.9731 74.6619L90.8941 71.9619Z" fill="#EFF7F9"/>
<path d="M98.8801 72.7552L99.3291 72.3062L99.1761 72.2432L98.8801 72.7552Z" fill="#E1EBF0"/>
<path d="M85.22 83.643L86.383 82.957H84.936L85.22 83.643Z" fill="white"/>
<path d="M86.382 82.957L85.219 83.643L85.9 85.288L86.028 85.598L87.22 84.408L86.382 82.957Z" fill="#E7F0F4"/>
<path d="M86.3821 82.957L87.2201 84.408L88.6731 82.957H86.3821Z" fill="#D1DADF"/>
<path d="M34.734 6.84312L33.734 6.45312H31.043L34.734 6.84312Z" fill="#E1EBF0"/>
<path d="M30.522 8.10315L34.735 6.84315L31.043 6.45215H29.843L30.522 8.10315Z" fill="#C2CBD4"/>
<path d="M30.522 8.10277L30.908 9.03677L31.231 9.81577L41.831 8.39077L34.735 6.84277L30.522 8.10277Z" fill="#EFF7F9"/>
<path d="M41.8271 8.39112L42.8031 6.45212H43.4431L44.3661 4.62012L40.2331 6.45212H35.6131L34.7341 6.84212L41.8271 8.39112Z" fill="white"/>
<path d="M70.1951 11.3881L57.7891 6.45215H53.7031L47.9111 11.3881H70.1951Z" fill="#182631"/>
<path d="M70.1951 11.3882L69.5361 6.45216H68.7291L68.6841 6.11816L65.5211 6.45216H57.7891L70.1951 11.3882Z" fill="#F0F7FB"/>
<path d="M69.5361 6.45312L70.1951 11.3891H76.2801L71.6431 6.45312H69.5431H69.5361Z" fill="#304350"/>
<path d="M76.2801 11.3881L82.4581 8.86815L83.4581 6.45215H71.6431L76.2801 11.3881Z" fill="#EFF7F9"/>
<path d="M76.28 11.388L81.788 10.488L82.458 8.87305L76.28 11.388Z" fill="#C6CED0"/>
<path d="M32.4061 12.6536H32.4761L45.1281 17.6136L44.5761 12.6536H35.1761L41.8251 8.39258L31.2251 9.81758L32.4061 12.6536Z" fill="#7A8694"/>
<path d="M35.178 12.6536H45.833L41.827 8.39258L35.178 12.6536Z" fill="white"/>
<path d="M45.8329 12.6536H48.1909L47.9109 11.3896L41.8259 8.38965L45.8329 12.6536Z" fill="#E3D6C0"/>
<path d="M48.192 12.6536H60.315L47.915 11.3896L48.192 12.6536Z" fill="#444950"/>
<path d="M60.3151 12.6536H64.4051L70.1951 11.3896H47.9121L60.3151 12.6536Z" fill="white"/>
<path d="M70.53 12.6536H72.168L70.195 11.3896L64.405 12.6536H70.53Z" fill="#E7F0F4"/>
<path d="M72.1681 12.6536H76.5611L76.2801 11.3896H70.1941L72.1681 12.6536Z" fill="#D1DADF"/>
<path d="M76.28 11.3877L76.56 12.6517H80.889L81.205 11.8897L76.28 11.3877Z" fill="#F0F7FB"/>
<path d="M76.28 11.3884L81.205 11.8884L81.788 10.4814L76.28 11.3884Z" fill="#9DABB9"/>
<path d="M92.4751 69.4691L93.1191 69.7361V69.1221L92.4751 69.4691Z" fill="#DEE6E8"/>
<path d="M93.1201 62.7433V61.1163L92.7981 60.6953L93.1201 62.7433Z" fill="#7A8694"/>
<path d="M92.7971 60.695L93.1191 61.116V60.043L92.7971 60.695Z" fill="#EFF7F9"/>
<path d="M93.12 69.1228V68.7158L91.136 68.9158L92.476 69.4718L93.12 69.1228Z" fill="#EFF7F9"/>
<path d="M93.12 62.7432L92.798 60.6992L90.262 68.5562L91.136 68.9182L93.12 68.7182V62.7432Z" fill="#98A4B1"/>
<path d="M92.7971 60.6952L93.1191 60.0402V58.4102L92.7971 60.6952Z" fill="#CBD5DC"/>
<path d="M92.797 60.695L91.497 57.127L90.167 68.514L90.258 68.552L92.797 60.695Z" fill="#474A52"/>
<path d="M91.501 57.1269L92.801 60.6949L93.123 58.4099V52.9629L91.501 57.1269Z" fill="#E1E6E5"/>
<path d="M91.543 40.6133L93.116 45.8483V41.1703L91.543 40.6133Z" fill="#F3F6F1"/>
<path d="M91.543 40.6136L93.116 41.1706V40.0566L91.543 40.6136Z" fill="#E7F0F4"/>
<path d="M91.5011 57.1269L93.1201 52.9629V49.2939L90.1121 47.8779L91.5011 57.1269Z" fill="#444950"/>
<path d="M93.1199 46.5833V45.8483L91.5429 40.6133L90.1079 47.8783L93.1159 49.2943V54.5093L94.3159 56.4703L93.1159 48.4973V46.5833H93.1199Z" fill="#EFF7F9"/>
<path d="M91.543 40.6129L93.116 40.0559V35.3779L91.543 40.6129Z" fill="#A3B1BC"/>
<path d="M87.333 38.6289L90.111 47.8779L91.543 40.6129L87.333 38.6289Z" fill="#808890"/>
<path d="M87.333 38.6292L91.543 40.6132L93.115 35.3782V32.6172L87.333 38.6292Z" fill="#475875"/>
<path d="M88.723 29.3799L87.334 38.6289L93.12 32.6169V30.9369L88.723 29.3799Z" fill="white"/>
<path d="M88.7229 29.3805L93.1229 30.9375V24.8115L88.7229 29.3805Z" fill="#A3B1BC"/>
<path d="M88.7229 29.3802L93.1229 24.8112V20.6832L88.3939 18.0742L87.4509 18.4652L88.7229 29.3802Z" fill="white"/>
<path d="M87.0849 67.2348L86.9199 67.1348V67.1638L87.0849 67.2348Z" fill="white"/>
<path d="M86.9199 63.2891V67.1431L87.0849 67.2431L89.5659 68.2711L89.6379 68.3011L89.7299 68.3391L86.9199 63.2891Z" fill="#E1EBF0"/>
<path d="M91.5009 57.1276L86.9199 56.7686V63.2896L89.7299 68.3326L90.1709 68.5146L91.5009 57.1276Z" fill="#7A8694"/>
<path d="M87.287 49.8623L86.92 50.4443V54.8703L84.5 56.4703L86.92 60.6423V56.7683L91.501 57.1273L87.287 49.8623Z" fill="#EFF7F9"/>
<path d="M87.2871 49.8619L91.5011 57.1269L90.1121 47.8779L87.2871 49.8619Z" fill="white"/>
<path d="M86.9199 50.4433L87.2869 49.8613L86.9199 49.9913V50.4433Z" fill="white"/>
<path d="M86.9199 45.2432V48.9882L87.2869 49.8612L90.1119 47.8772L86.9199 45.2432Z" fill="#98A4B1"/>
<path d="M87.3329 38.6289L86.9199 39.3059V45.2429L90.1109 47.8779L87.3329 38.6289Z" fill="#E1EBF0"/>
<path d="M86.9199 49.7754V49.9924L87.2869 49.8624L86.9199 49.7754Z" fill="#75746B"/>
<path d="M86.9199 49.7753L87.2869 49.8623L86.9199 48.9893V49.7753Z" fill="#B6C1CE"/>
<path d="M86.9199 37.2979V39.3059L87.3329 38.6299L86.9199 37.2979Z" fill="#E5EDF0"/>
<path d="M86.9199 32.3309V37.2969L87.3329 38.6289L88.7229 29.3799L86.9199 32.3309Z" fill="#EFF7F9"/>
<path d="M86.9199 32.1281V32.3281L88.7199 29.3771L86.9199 27.0391V32.1281Z" fill="white"/>
<path d="M86.92 19.7578V27.0428L88.72 29.3798L87.443 18.4648L86.916 18.6828L86.92 19.7578Z" fill="#B6C1CE"/>
<path d="M72.2121 12.6533H70.5291L72.4891 13.0673L72.2121 12.6533Z" fill="#808890"/>
<path d="M73.1009 12.6533H72.2119L72.4889 13.0673L73.1009 12.6533Z" fill="#475875"/>
<path d="M73.101 12.6533L72.489 13.0673L76.409 12.6533H73.101Z" fill="white"/>
<path d="M45.128 17.6123L32.476 12.6523H32.406L33.971 16.4333L45.128 17.6123Z" fill="#E1EBF0"/>
<path d="M36.833 18.8626H40.952L45.1279 17.6126L33.9709 16.4346L34.9759 18.8626H36.833Z" fill="#C2CBD4"/>
<path d="M55.2629 13.1173L54.1259 12.6533H44.5759L45.1279 17.6133L55.2629 13.1173Z" fill="#EFF7F9"/>
<path d="M55.263 13.1173L55.726 12.6533H54.126L55.263 13.1173Z" fill="white"/>
<path d="M40.952 18.8623H36.833L42.067 29.0903L50.22 18.8623H50.852L45.128 17.6123L40.952 18.8623Z" fill="#EFF7F9"/>
<path d="M50.8519 18.8622H52.3709L55.2629 13.1172L45.1289 17.6122L50.8519 18.8622Z" fill="white"/>
<path d="M55.2629 13.1173L65.3979 16.1173L61.3359 12.6533H55.7259L55.2629 13.1173Z" fill="#98A4B1"/>
<path d="M65.3969 16.1143L72.4889 13.0673L70.5289 12.6533H61.3359L65.3969 16.1143Z" fill="#E1EBF0"/>
<path d="M57.1961 18.8622L55.2631 13.1172L52.3711 18.8622H57.1961Z" fill="#75746B"/>
<path d="M57.1959 18.8623H62.1729L65.3969 16.1143L55.2629 13.1143L57.1959 18.8623Z" fill="#B6C1CE"/>
<path d="M65.397 16.1144L79.581 14.6144L72.489 13.0664L65.397 16.1144Z" fill="#E5EDF0"/>
<path d="M76.56 12.6533H76.409L72.489 13.0673L79.581 14.6163L80.181 14.3573L80.886 12.6573L76.56 12.6533Z" fill="#EFF7F9"/>
<path d="M62.1731 18.8623H72.3051L65.3981 16.1143L62.1731 18.8623Z" fill="#75746B"/>
<path d="M65.397 16.1141L72.304 18.8621H78.319L78.699 17.9441L79.699 15.5201L79.578 14.6201L65.397 16.1141Z" fill="#F0F7FB"/>
<path d="M80.184 14.3564L79.584 14.6154L80.047 14.6914L80.184 14.3564Z" fill="white"/>
<path d="M79.7021 15.5192L79.9251 14.9802L79.5811 14.6152L79.7021 15.5192Z" fill="#304350"/>
<path d="M80.0431 14.6912L79.5791 14.6152L79.9231 14.9812L80.0431 14.6912Z" fill="#EFF7F9"/>
<path d="M84.896 19.5216L86.92 19.7586V18.6836L84.896 19.5216Z" fill="#C6CED0"/>
<path d="M86.9199 25.1634V19.7634L84.8959 19.5264L84.6819 19.6144L84.5759 19.6584L86.9199 25.1634Z" fill="#C2CBD4"/>
<path d="M86.9201 32.1283V25.1633L84.5761 19.6543L84.5381 19.6703L86.9201 32.1283Z" fill="#EFF7F9"/>
<path d="M84.501 37.9726L86.921 37.3996V34.5176L84.501 37.9726Z" fill="#75746B"/>
<path d="M84.501 37.9723L86.921 39.9723V37.4023L84.501 37.9723Z" fill="#B6C1CE"/>
<path d="M84.501 37.9717V52.5017L86.921 48.2237V39.9687L84.501 37.9717Z" fill="#75746B"/>
<path d="M84.501 52.5026L86.921 52.2756V48.2256L84.501 52.5026Z" fill="#F0F7FB"/>
<path d="M84.501 52.5024V56.4704L86.921 54.8704V52.2754L84.501 52.5024Z" fill="#304350"/>
<path d="M84.501 56.4697L86.921 66.8237V60.6427L84.501 56.4697Z" fill="#C6CED0"/>
<path d="M83.0649 29.3802L84.4649 19.6982L80.7109 21.2532V21.5432L83.0649 29.3802Z" fill="#EFF7F9"/>
<path d="M83.0649 29.3799L86.9199 33.6099V32.1269L84.5379 19.6689L84.4679 19.6979L83.0649 29.3799Z" fill="#7A8694"/>
<path d="M83.0649 29.38L80.7109 21.543V26.217L83.0649 29.38Z" fill="#DEE6E8"/>
<path d="M80.7109 38.3492V38.5632L84.5009 37.9732L86.9199 34.5182V34.2432L80.7109 38.3492Z" fill="#E3D6C0"/>
<path d="M80.7109 38.3488L86.9199 34.2428V33.6118L83.0649 29.3818L80.7109 26.2178V38.3488Z" fill="white"/>
<path d="M80.7109 38.5636V40.0436L83.0649 47.8816L84.5009 37.9756L80.7109 38.5636Z" fill="#444950"/>
<path d="M83.0649 47.8777L84.5009 52.5017V37.9717L83.0649 47.8777Z" fill="white"/>
<path d="M83.0649 47.878L80.7109 40.043V44.827L83.0649 47.878Z" fill="#C6CED0"/>
<path d="M83.0649 47.8779L80.7109 55.7159V56.6619L84.5009 52.5019L83.0649 47.8779Z" fill="#E7F0F4"/>
<path d="M84.5009 52.502L80.7109 56.661V57.061L84.5009 56.471V52.502Z" fill="#D1DADF"/>
<path d="M80.7109 49.8212L83.0649 47.8782L80.7109 44.8252V49.8252V49.8212Z" fill="#EFF7F9"/>
<path d="M80.7109 49.8209V55.7149L83.0649 47.8779L80.7109 49.8209Z" fill="#525A66"/>
<path d="M80.7109 57.0607V58.5377L82.7889 65.4567L83.1749 65.6167L84.5009 56.4697L80.7109 57.0607Z" fill="#F0F7FB"/>
<path d="M84.501 56.4697L83.175 65.6157L84.0751 65.9877L86.275 66.8977L86.924 67.1667V66.8237L84.501 56.4697Z" fill="#9DABB9"/>
<path d="M80.7109 58.543V63.323L82.1539 65.194L82.7889 65.457L80.7109 58.543Z" fill="#444950"/>
<path d="M80.7109 63.3232V64.5972L82.1539 65.1972L80.7109 63.3232Z" fill="#475875"/>
<path d="M32.584 22.5183V25.2763L42.066 29.0903L36.833 18.8623H34.976L32.584 21.2543V22.5183Z" fill="#7A8694"/>
<path d="M32.584 30.1264V36.8964L42.066 29.0904L32.584 25.2764V30.1264Z" fill="#98A4B1"/>
<path d="M59.8999 22.6743L58.8499 18.8623H50.2199L42.0669 29.0903L59.8999 22.6743Z" fill="#CBD5DC"/>
<path d="M63.743 18.8623H58.843L59.893 22.6743L63.743 18.8623Z" fill="#E5EDF0"/>
<path d="M32.584 36.8948V39.1088L47.943 34.5328L42.069 29.0898L32.584 36.8948Z" fill="#474A52"/>
<path d="M47.9429 34.5328L59.8989 22.6738L42.0659 29.0898L47.9429 34.5328Z" fill="#E1E6E5"/>
<path d="M63.743 18.8623L59.8979 22.6743L75.1239 34.3433L72.976 18.8623H63.743Z" fill="#F3F6F1"/>
<path d="M75.1249 34.3433L77.2729 18.8623H72.9729L75.1249 34.3433Z" fill="#E7F0F4"/>
<path d="M63.1651 40.3648L59.8991 22.6738L47.9431 34.5328L63.1651 40.3648Z" fill="#444950"/>
<path d="M59.8999 22.6738L63.1659 40.3648L75.1249 34.3428L59.8999 22.6738Z" fill="#EFF7F9"/>
<path d="M77.273 18.8623L75.124 34.3433L80.711 30.0633V21.2543L78.319 18.8623H77.273Z" fill="#A3B1BC"/>
<path d="M63.165 40.3648L78.39 52.0298L75.124 34.3428L63.165 40.3648Z" fill="#808890"/>
<path d="M78.39 52.0306L80.71 46.3306V30.0596L75.124 34.3436L78.39 52.0306Z" fill="#475875"/>
<path d="M80.7111 51.143V46.334L78.3911 52.034L80.7111 51.143Z" fill="white"/>
<path d="M32.584 63.2783V64.4783L33.796 63.8873L32.584 63.2783Z" fill="#474A52"/>
<path d="M33.796 63.8877L32.584 64.4787V64.5867L32.836 64.8387L33.796 63.8877Z" fill="#DEE6E8"/>
<path d="M47.093 66.9794L32.584 46.3574V58.6354L33.796 63.8894L41.864 66.9794H47.093Z" fill="#E1EBF0"/>
<path d="M47.093 66.9792H48.938L47.938 34.5332L32.584 39.1092V46.3572L47.093 66.9792Z" fill="#7A8694"/>
<path d="M33.7959 63.8877L32.8359 64.8387L33.7119 65.7147L33.7959 63.8877Z" fill="#C6CED0"/>
<path d="M40.9899 66.9796H41.8639L33.7959 63.8896L33.7119 65.7166L34.9749 66.9796H40.9899Z" fill="#C2CBD4"/>
<path d="M48.9371 66.9792H50.7261L59.8991 52.2242L47.9431 34.5332L48.9371 66.9792Z" fill="#EFF7F9"/>
<path d="M59.9001 52.2242L63.1661 40.3652L47.9431 34.5332L59.9001 52.2242Z" fill="white"/>
<path d="M50.7261 66.9796H57.8511L59.9001 52.2246L50.7261 66.9796Z" fill="white"/>
<path d="M63.1649 40.3652L59.8989 52.2242L70.7779 63.8882L63.1649 40.3652Z" fill="#98A4B1"/>
<path d="M78.39 52.0302L63.165 40.3652L70.777 63.8892L78.39 52.0302Z" fill="#E1EBF0"/>
<path d="M59.9001 52.2246L57.8521 66.9796H56.0991L58.0331 72.7246L60.9251 66.9796H61.2691L59.9001 52.2246Z" fill="#75746B"/>
<path d="M59.8999 52.2246L61.2689 66.9796H69.7779L70.7779 63.8886L59.8999 52.2246Z" fill="#B6C1CE"/>
<path d="M80.7111 55.7153V53.8663L78.3911 52.0293L70.7781 63.8883L80.7111 60.0833V55.7153Z" fill="#E5EDF0"/>
<path d="M80.7111 53.8676V51.1436L78.3911 52.0326L80.7111 53.8676Z" fill="#EFF7F9"/>
<path d="M69.7781 66.9796H72.9201L70.7781 63.8896L69.7781 66.9796Z" fill="#75746B"/>
<path d="M80.7111 63.323V60.083L70.7781 63.889L72.9201 66.979H78.3201V66.988H78.3261L78.5261 66.788L80.7121 64.588L80.7111 63.323Z" fill="#F0F7FB"/>
<path d="M85.7939 14.5824L87.9729 10.9684L87.0079 10.0034L84.0499 7.04335L83.9019 6.89435L83.6179 6.61035L85.7939 14.5824Z" fill="#808890"/>
<path d="M87.9739 10.9678L85.7949 14.5818L90.2749 13.2688L87.9739 10.9678Z" fill="#475875"/>
<path d="M83.6181 6.61212L83.4591 6.45312L82.4591 8.86812L81.7901 10.4831L81.2071 11.8901L80.8911 12.6521L83.0261 14.7881L85.7961 14.5821L83.6181 6.61212Z" fill="#E1EBF0"/>
<path d="M83.0249 14.788L84.0639 15.827L84.7929 16.556L86.8289 18.592L85.7949 14.582L83.0249 14.788Z" fill="#E5EDF0"/>
<path d="M86.8279 18.592L86.92 18.683L87.4469 18.465L88.3899 18.074L93.1189 20.683V16.113L90.5019 17.198L85.7939 14.582L86.8279 18.592Z" fill="#EFF7F9"/>
<path d="M80.1841 14.3563L80.0451 14.6913L79.9261 14.9803L79.7031 15.5193L78.7031 17.9433L84.0681 15.8273C83.7201 15.4783 83.3681 15.1273 83.0291 14.7883L80.8931 12.6523L80.1841 14.3563Z" fill="#B6C1CE"/>
<path d="M78.6991 17.9432L78.3191 18.8612L80.7111 21.2532L84.4681 19.6982L84.5381 19.6692L84.5771 19.6532L84.6771 19.6092L84.7881 16.5552C84.5471 16.3142 84.3031 16.0712 84.0591 15.8262L78.6991 17.9432Z" fill="#75746B"/>
<path d="M84.6821 19.6106L84.8961 19.5216L86.9201 18.6846L86.8291 18.5926C86.2211 17.9856 85.5221 17.2856 84.7931 16.5566L84.6821 19.6106Z" fill="#F0F7FB"/>
<path d="M87.0849 67.235L86.9199 67.167L85.1659 68.921L84.7059 69.381L84.2859 69.801L84.2429 69.843L89.6259 68.306L89.5609 68.268L87.0849 67.235Z" fill="#E5EDF0"/>
<path d="M89.6309 68.3026L89.6379 68.2946L89.5659 68.2646L89.6309 68.3026Z" fill="#EFF7F9"/>
<path d="M85.9429 76.9171L81.713 72.373L80.8979 73.188V73.1981L82.3829 76.798L82.7739 77.7411L83.4589 79.3921V79.399L85.9429 76.9171Z" fill="#75746B"/>
<path d="M84.2431 69.8428L81.7131 72.3738L85.9431 76.9168L83.4661 79.3948L83.7801 80.1548L86.3861 82.9548L86.0811 76.7778L87.6561 75.2018L89.8671 72.9918L89.6351 68.2998L84.2431 69.8428Z" fill="#F0F7FB"/>
<path d="M89.8631 72.9928L90.8941 71.9618L90.9021 71.9538L89.6311 68.3008L89.8631 72.9928Z" fill="#304350"/>
<path d="M90.902 71.9538L93.043 69.8158L89.634 68.3008L90.902 71.9538Z" fill="#EFF7F9"/>
<path d="M78.3281 66.988L78.3661 67.08L78.5241 66.791L78.3281 66.988Z" fill="#475875"/>
<path d="M84.074 65.9878L83.174 65.6158L82.788 65.4558L82.153 65.1928L80.71 64.5928L78.524 66.7878L78.366 67.0768L80.001 71.0208L84.285 69.7978L84.705 69.3778L84.074 65.9878Z" fill="white"/>
<path d="M86.271 66.8983L84.071 65.9883L84.703 69.3813L85.164 68.9213L86.271 66.8983Z" fill="#A3B1BC"/>
<path d="M86.271 66.8984L85.166 68.9214L86.92 67.1664L86.271 66.8984Z" fill="white"/>
<path d="M80.001 71.0246L80.901 73.1886L81.716 72.3736L84.243 69.8436L84.28 69.8066L80.001 71.0246Z" fill="#EFF7F9"/>
<path d="M82.127 85.5971H86.027L85.898 85.2871L82.127 85.5971Z" fill="#474A52"/>
<path d="M65.887 84.2686L66.777 85.5975H78.472L65.887 84.2686Z" fill="#444950"/>
<path d="M65.8871 84.2686L56.3201 85.5975H66.7771L65.8871 84.2686Z" fill="#EFF7F9"/>
<path d="M65.8871 84.2686L51.7031 81.2686L54.6031 85.5946H56.3241L65.8871 84.2686Z" fill="#808890"/>
<path d="M51.703 81.2715L45.312 85.5985H54.599L51.703 81.2715Z" fill="#475875"/>
<path d="M51.703 81.2715L37.519 82.7715L38.943 85.5985H45.313L51.703 81.2715Z" fill="white"/>
<path d="M37.519 82.7695L33.343 85.5975H38.943L37.519 82.7695Z" fill="#A3B1BC"/>
<path d="M37.5191 82.7689L28.7361 82.0429L29.3091 80.6569L29.3931 78.9429L29.2441 78.7949L24.2051 81.1149L25.9801 84.3099L27.2661 85.5959H33.3431L37.5191 82.7689Z" fill="white"/>
<path d="M85.901 85.287L85.219 83.643L84.935 82.957L83.775 80.157L83.461 79.397V79.391H79.561L78.561 79.001L78.604 79.391H79.361L80.053 85.6H82.128L85.901 85.287Z" fill="#7A8694"/>
<path d="M79.361 79.3877H73.061L68.929 81.2207L79.656 85.5967H80.056L79.361 79.3877Z" fill="#182631"/>
<path d="M68.9299 81.2207L65.8879 84.2677L78.4729 85.5967H79.6579L68.9299 81.2207Z" fill="white"/>
<path d="M62.7321 79.3877H60.1611L65.8871 84.2677L68.9301 81.2207L62.7321 79.3877Z" fill="#98A4B1"/>
<path d="M60.1611 79.3877H56.0851L51.7031 81.2707L65.8871 84.2707L60.1611 79.3877Z" fill="#E1EBF0"/>
<path d="M69.8521 79.3882H70.4931L71.4681 77.4502L65.3831 74.4502L67.0431 79.3882H68.3131L68.9291 81.2212L69.8521 79.3882Z" fill="#75746B"/>
<path d="M68.3131 79.3881H67.0431L65.3831 74.4521L59.5911 79.3881H62.7311L68.9311 81.2211L68.3131 79.3881Z" fill="#B6C1CE"/>
<path d="M56.0851 79.3877H47.7741L44.6111 79.7217L51.7031 81.2707L56.0851 79.3877Z" fill="#E5EDF0"/>
<path d="M44.611 79.7217L37.519 82.7687L51.703 81.2687L44.611 79.7217Z" fill="#EFF7F9"/>
<path d="M44.6111 79.7217L42.5781 79.3877H31.2861L37.5191 82.7687L44.6111 79.7217Z" fill="white"/>
<path d="M31.2861 79.3877H29.8371L29.3091 80.6617L28.7361 82.0427L37.5191 82.7647L31.2861 79.3877Z" fill="#B6C1CE"/>
<path d="M44.5659 79.3877H44.2959L44.6109 79.7217L44.5659 79.3877Z" fill="#304350"/>
<path d="M44.2971 79.3877H42.5781L44.6111 79.7217L44.2971 79.3877Z" fill="#EFF7F9"/>
<path d="M24.2039 81.1172L23.6699 82.0022L25.9789 84.3112L24.2039 81.1172Z" fill="#444950"/>
<path d="M24.204 81.1175L21.604 79.9375L23.669 82.0025L24.204 81.1175Z" fill="#EFF7F9"/>
<path d="M24.204 81.1172L21.443 70.9922L21.362 70.9102L18.062 76.3872L21.612 79.9372L24.204 81.1172Z" fill="#808890"/>
<path d="M21.3581 70.9102L21.3151 70.8672L14.5261 72.8572L18.0551 76.3872L21.3581 70.9102Z" fill="#475875"/>
<path d="M21.3151 70.8674L21.3581 70.9104L21.4401 70.9924L23.0201 72.5724L27.5011 71.2594L22.7921 68.6434L20.1751 69.7284L21.1551 70.7084L19.7261 69.9144L20.1751 69.7284V67.4844L17.5881 69.0074L18.9001 70.2554L17.6581 70.7694L14.1141 72.2364L13.9661 72.2974L14.5261 72.8574L21.3151 70.8674Z" fill="white"/>
<path d="M29.8361 79.3884L29.6771 79.2294L29.3931 78.9434L29.3091 80.6604L29.8361 79.3884Z" fill="#EFF7F9"/>
<path d="M26.2861 75.8428L24.2041 81.1208L29.2441 78.8008L26.2861 75.8428Z" fill="#98A4B1"/>
<path d="M26.2861 75.8432L25.3211 74.8782L23.0211 72.5782L21.4431 70.9912L24.2081 81.1162L26.2861 75.8432Z" fill="#E1EBF0"/>
<path d="M19.7261 69.9135L21.1541 70.7075L20.1751 69.7275L19.7261 69.9135Z" fill="#EFF7F9"/>
<path d="M13.9661 71.0732V72.2972L14.1141 72.2362L13.9661 71.0732Z" fill="#CBD5DC"/>
<path d="M17.6581 70.7692L13.9661 68.7822V71.0732L14.1141 72.2362L17.6581 70.7692Z" fill="#DEE6E8"/>
<path d="M14.9031 60.6855L13.9661 61.9085V66.6265L14.9031 60.6855Z" fill="#7A8694"/>
<path d="M14.9031 60.6852L13.9661 58.7852V61.9132L14.9031 60.6852Z" fill="#EFF7F9"/>
<path d="M17.6581 70.7696L18.9001 70.2556L17.5891 69.0076L13.9661 68.6436V68.7806L17.6581 70.7696Z" fill="#EFF7F9"/>
<path d="M17.5881 69.0065L14.9021 60.6855L13.9651 66.6265V68.6435L17.5881 69.0065Z" fill="#98A4B1"/>
<path d="M14.9031 60.685L13.9661 54.043V58.78L14.9031 60.685Z" fill="#CBD5DC"/>
<path d="M16.1989 57.1172L14.8989 60.6852L17.5839 69.0062L16.1989 57.1172Z" fill="#474A52"/>
<path d="M14.903 60.6851L16.203 57.1171L13.97 51.3721V54.0431L14.903 60.6851Z" fill="#E1E6E5"/>
<path d="M16.1531 40.6035L13.9661 41.3775V47.8845L16.1531 40.6035Z" fill="#F3F6F1"/>
<path d="M16.1531 40.6031L13.9661 39.8291V41.3771L16.1531 40.6031Z" fill="#E7F0F4"/>
<path d="M16.1991 57.1172L17.5881 47.8682L13.9661 49.5742V51.3742L16.1991 57.1172Z" fill="#444950"/>
<path d="M17.5881 47.8685L16.1521 40.6035L13.9651 47.8845V49.5735L17.5881 47.8685Z" fill="#EFF7F9"/>
<path d="M16.1531 40.6033L13.9661 33.3223V39.8293L16.1531 40.6033Z" fill="#A3B1BC"/>
<path d="M17.5881 47.868L20.1751 39.257V38.709L16.1521 40.603L17.5881 47.868Z" fill="#808890"/>
<path d="M16.1531 40.6028L20.1751 38.7088V38.4198L13.9661 31.9678V33.3218L16.1531 40.6028Z" fill="#475875"/>
<path d="M20.1751 38.4201V37.3431L18.9751 29.3711L13.9661 31.1431V31.9671L20.1751 38.4201Z" fill="white"/>
<path d="M18.9781 29.3711L13.9661 24.1641V31.1431L18.9781 29.3711Z" fill="#A3B1BC"/>
<path d="M18.978 29.3709L20.178 19.1219V17.5879L13.968 21.0129V24.1639L18.978 29.3709Z" fill="white"/>
<path d="M20.175 17.5872V17.3542L15.122 14.0132L14.122 13.5972L13.969 13.5342V21.0132L20.175 17.5872Z" fill="#EFF7F9"/>
<path d="M20.1751 16.7177V16.1037L18.8641 15.5617L15.1221 14.0127L20.1751 17.3547V16.7177Z" fill="#4A4D53"/>
<path d="M20.1751 65.1572V64.3652L17.5881 69.0072L20.1751 67.4842V65.1572Z" fill="#E1EBF0"/>
<path d="M20.175 64.3647V56.8047L16.199 57.1167L17.588 69.0057L20.175 64.3647Z" fill="#7A8694"/>
<path d="M20.175 56.8047V50.2617L16.199 57.1167L20.175 56.8047Z" fill="#EFF7F9"/>
<path d="M20.175 50.2622V49.6852L17.588 47.8682L16.199 57.1172L20.175 50.2622Z" fill="white"/>
<path d="M20.1751 49.6854V45.7334L17.5881 47.8684L20.1751 49.6854Z" fill="#98A4B1"/>
<path d="M20.1751 45.7328V39.2568L17.5881 47.8678L20.1751 45.7328Z" fill="#E1EBF0"/>
<path d="M20.1751 31.3314V27.8184L18.9751 29.3714L20.1751 31.3314Z" fill="white"/>
<path d="M20.1751 27.8182V19.1182L18.9751 29.3672L20.1751 27.8182Z" fill="#B6C1CE"/>
<path d="M29.5251 5.69279L28.3611 2.88379H26.9131L29.5251 5.69279Z" fill="#75746B"/>
<path d="M18.8639 15.5617L20.1749 16.1037L20.8189 16.3717L22.1589 16.9267L23.0329 17.2887L23.1239 17.3267L23.5639 17.5097L23.6559 17.5477L23.6629 17.5387L20.2539 16.0247L22.3929 13.8867L22.3999 13.8787L16.3209 11.1787L16.0549 11.4447L18.8639 15.5617Z" fill="white"/>
<path d="M14.1189 13.5984L15.1189 14.0134L18.8609 15.5624L16.0559 11.4434L14.4149 13.0844L14.1189 13.5984Z" fill="#B6C1CE"/>
<path d="M25.643 10.6368L27.218 9.06179L26.913 2.88379H24.621L23.377 4.12679L25.643 10.6368Z" fill="#304350"/>
<path d="M22.401 13.879L23.433 12.843L25.643 10.637L23.379 4.12695C20.979 6.51995 18.879 8.61795 16.323 11.179L22.401 13.879Z" fill="#EFF7F9"/>
<path d="M14.4151 13.085L13.9661 13.534L14.1191 13.597L14.4151 13.085Z" fill="#E1EBF0"/>
<path d="M28.3611 2.88427L28.0761 2.19727L26.9131 2.88427H28.3611Z" fill="white"/>
<path d="M26.913 2.88416L28.077 2.19716L27.395 0.553164L27.267 0.243164L26.075 1.43316L26.913 2.88416Z" fill="#E7F0F4"/>
<path d="M26.9131 2.88459L26.0751 1.43359L24.6221 2.88459H26.9131Z" fill="#D1DADF"/>
<path d="M78.5601 78.998L79.5551 79.388H82.2551L78.5601 78.998Z" fill="#E1EBF0"/>
<path d="M82.775 77.7373L78.561 78.9983L82.253 79.3883H83.459L82.775 77.7373Z" fill="#C2CBD4"/>
<path d="M77.6809 79.388H78.6039L78.5599 78.998L77.6809 79.388Z" fill="#EFF7F9"/>
<path d="M82.7751 77.7374L82.3841 76.7944L82.0651 76.0244L71.4651 77.4504L78.5571 78.9984L82.7751 77.7374Z" fill="#EFF7F9"/>
<path d="M71.468 77.4502L70.492 79.3882H69.852L68.929 81.2212L73.061 79.3882H77.681L78.56 78.9982L71.468 77.4502Z" fill="white"/>
<path d="M43.1001 74.4521L55.5001 79.3881H59.5871L65.3781 74.4521H43.1001Z" fill="#75746B"/>
<path d="M43.1001 74.4531L43.7591 79.3891H44.5661L44.6111 79.7231L47.7751 79.3891H55.5051L43.1001 74.4531Z" fill="#F0F7FB"/>
<path d="M43.7591 79.3881L43.1001 74.4521H37.0151L41.6561 79.3881H43.7561H43.7591Z" fill="#304350"/>
<path d="M37.0149 74.4521L30.8369 76.9721L29.8369 79.3881H41.6569L37.0149 74.4521Z" fill="#EFF7F9"/>
<path d="M37.0149 74.4521L31.5069 75.3521L30.8369 76.9671L37.0149 74.4521Z" fill="#C6CED0"/>
<path d="M80.889 73.1885H80.819L68.167 68.2285L68.719 73.1885H78.119L71.47 77.4495L82.07 76.0245L80.889 73.1885Z" fill="#7A8694"/>
<path d="M78.1169 73.1885H67.4609L71.4679 77.4495L78.1169 73.1885Z" fill="white"/>
<path d="M67.462 73.1885H65.104L65.384 74.4525L71.469 77.4525L67.462 73.1885Z" fill="#E3D6C0"/>
<path d="M65.103 73.1885H52.98L65.38 74.4525L65.103 73.1885Z" fill="#444950"/>
<path d="M52.9801 73.1885H48.8911L43.1001 74.4525H65.3831L52.9801 73.1885Z" fill="white"/>
<path d="M42.765 73.1885H41.127L43.1 74.4525L48.89 73.1885H42.765Z" fill="#E7F0F4"/>
<path d="M41.1271 73.1885H36.7351L37.0151 74.4525H43.1001L41.1271 73.1885Z" fill="#D1DADF"/>
<path d="M37.0151 74.4525L36.7351 73.1885H32.4061L32.0901 73.9505L37.0151 74.4525Z" fill="#F0F7FB"/>
<path d="M37.0151 74.4521L32.0901 73.9521L31.5071 75.3591L37.0151 74.4521Z" fill="#9DABB9"/>
<path d="M20.819 16.3715L20.175 16.1045V16.7185L20.819 16.3715Z" fill="#DEE6E8"/>
<path d="M20.175 23.1025V24.7255L20.497 25.1465L20.175 23.1025Z" fill="#7A8694"/>
<path d="M20.497 25.1427L20.175 24.7217V25.7977L20.497 25.1427Z" fill="#EFF7F9"/>
<path d="M20.175 16.7181V17.1251L22.159 16.9251L20.819 16.3691L20.175 16.7181Z" fill="#EFF7F9"/>
<path d="M20.175 23.1018L20.497 25.1458L23.033 17.2888L22.159 16.9268L20.175 17.1268V23.1038V23.1018Z" fill="#98A4B1"/>
<path d="M20.497 25.1436L20.175 25.7986V27.4286L20.497 25.1436Z" fill="#CBD5DC"/>
<path d="M20.4971 25.1431L21.7971 28.7111L23.1271 17.3241L23.0361 17.2861L20.4971 25.1431Z" fill="#474A52"/>
<path d="M21.7941 28.7145L20.4941 25.1465L20.1721 27.4315V32.8785L21.7941 28.7145Z" fill="#E1E6E5"/>
<path d="M20.175 44.6712L21.748 45.2282L20.175 39.9932V44.6712Z" fill="#F3F6F1"/>
<path d="M20.175 44.6709V45.7849L21.748 45.2279L20.175 44.6709Z" fill="#E7F0F4"/>
<path d="M21.794 28.7139L20.175 32.8779V36.5429L23.183 37.9629L21.794 28.7139Z" fill="#444950"/>
<path d="M20.1751 39.2581V39.9931L21.7481 45.2281L23.1831 37.9631L20.1751 36.5431V31.3321L18.9751 29.3711L20.1751 37.3441V39.2581Z" fill="#EFF7F9"/>
<path d="M20.175 49.6855V50.4635L21.748 45.2285L20.175 45.7855V49.6855Z" fill="#A3B1BC"/>
<path d="M25.9609 47.2119L23.1829 37.9629L21.7429 45.2279L25.9609 47.2119Z" fill="#808890"/>
<path d="M20.175 50.4635V53.2245L25.961 47.2125L21.748 45.2285L20.175 50.4635Z" fill="#475875"/>
<path d="M24.572 56.4599L25.961 47.2109L20.175 53.2229V54.9029L24.572 56.4599Z" fill="white"/>
<path d="M24.5721 56.4603L20.1721 54.9033V61.0293L24.5721 56.4603Z" fill="#A3B1BC"/>
<path d="M24.5721 56.46L20.1721 61.029V65.157L24.9011 67.766L25.8431 67.375L24.5721 56.46Z" fill="white"/>
<path d="M26.21 18.6064L26.375 18.7064V18.6774L26.21 18.6064Z" fill="white"/>
<path d="M26.3749 22.5518V18.7028L26.2099 18.6028L23.7279 17.5738L23.6569 17.5448L23.5649 17.5068L26.3749 22.5518Z" fill="#E1EBF0"/>
<path d="M21.7939 28.7141L26.3749 29.0731V22.5521L23.5649 17.5091L23.1239 17.3271L21.7939 28.7141Z" fill="#7A8694"/>
<path d="M26.0079 35.9792L26.3749 35.3972V30.9712L28.7949 29.3712L26.3749 25.1992V29.0732L21.7939 28.7142L26.0079 35.9792Z" fill="#EFF7F9"/>
<path d="M26.0079 35.9789L21.7939 28.7139L23.1829 37.9629L26.0079 35.9789Z" fill="white"/>
<path d="M26.3751 35.3975L26.0081 35.9795L26.3751 35.8495V35.3975Z" fill="white"/>
<path d="M26.3751 40.5975V36.8525L26.0081 35.9795L23.1831 37.9635L26.3751 40.5975Z" fill="#98A4B1"/>
<path d="M25.9611 47.2119L26.3741 46.5349V40.5969L23.1831 37.9629L25.9611 47.2119Z" fill="#E1EBF0"/>
<path d="M26.3751 36.0666V35.8496L26.0081 35.9796L26.3751 36.0666Z" fill="#75746B"/>
<path d="M26.3751 36.0665L26.0081 35.9795L26.3751 36.8525V36.0665Z" fill="#B6C1CE"/>
<path d="M26.3749 48.5432V46.5342L25.9619 47.2112L26.3749 48.5432Z" fill="#E5EDF0"/>
<path d="M24.572 56.4599L26.372 53.5089V48.5429L25.958 47.2109L24.572 56.4599Z" fill="#EFF7F9"/>
<path d="M26.375 53.7127V53.5127L24.575 56.4637L26.375 58.8007V53.7127Z" fill="white"/>
<path d="M26.375 66.082V58.797L24.575 56.46L25.843 67.375L26.37 67.157L26.375 66.082Z" fill="#B6C1CE"/>
<path d="M41.0829 73.1884H42.7649L40.8059 72.7744L41.0829 73.1884Z" fill="#808890"/>
<path d="M40.1941 73.1884H41.0831L40.8061 72.7744L40.1941 73.1884Z" fill="#475875"/>
<path d="M40.194 73.1884L40.806 72.7744L36.886 73.1884H40.194Z" fill="white"/>
<path d="M68.167 68.2295L80.819 73.1895H80.889L79.324 69.4085L68.167 68.2295Z" fill="#E1EBF0"/>
<path d="M72.92 66.9795H72.343L68.167 68.2295L79.324 69.4075L78.324 66.9885V66.9795H72.92Z" fill="#C2CBD4"/>
<path d="M58.032 72.7245L59.169 73.1885H68.719L68.166 68.2285L58.032 72.7245Z" fill="#EFF7F9"/>
<path d="M57.5691 73.1886H59.1691L58.0311 72.7246L57.5691 73.1886Z" fill="white"/>
<path d="M72.3431 66.9795H62.4431L68.1661 68.2295L72.3431 66.9795Z" fill="#EFF7F9"/>
<path d="M62.443 66.9795H60.925L58.033 72.7245L68.167 68.2245L62.443 66.9795Z" fill="white"/>
<path d="M58.032 72.7246L47.897 69.7246L51.959 73.1856H57.569L58.032 72.7246Z" fill="#98A4B1"/>
<path d="M47.8979 69.7275L40.8059 72.7745L42.7659 73.1885H51.9589L47.8979 69.7275Z" fill="#E1EBF0"/>
<path d="M56.0989 66.9795H51.1219L47.8979 69.7275L58.0319 72.7275L56.0989 66.9795Z" fill="#B6C1CE"/>
<path d="M47.8981 69.7275L33.7141 71.2275L40.8061 72.7755L47.8981 69.7275Z" fill="#E5EDF0"/>
<path d="M36.7351 73.1886H36.8861L40.8061 72.7746L33.7131 71.2266L33.1131 71.4846L32.4131 73.1846L36.7351 73.1886Z" fill="#EFF7F9"/>
<path d="M51.122 66.9795H40.99L47.897 69.7275L51.122 66.9795Z" fill="#75746B"/>
<path d="M47.8979 69.7275L40.9909 66.9795H34.9759L34.5959 67.8975L33.5959 70.3215L33.7169 71.2215L47.8979 69.7275Z" fill="#F0F7FB"/>
<path d="M33.2501 71.1494L33.1111 71.4844L33.7111 71.2254L33.2501 71.1494Z" fill="white"/>
<path d="M33.5931 70.3213L33.3701 70.8603L33.7141 71.2253L33.5931 70.3213Z" fill="#304350"/>
<path d="M33.37 70.8604L33.25 71.1504L33.714 71.2264L33.37 70.8604Z" fill="#EFF7F9"/>
<path d="M28.399 66.319L26.375 66.082V67.157L28.399 66.319Z" fill="#C6CED0"/>
<path d="M26.375 60.6777V66.0777L28.399 66.3147L28.613 66.2257L28.713 66.1827L26.375 60.6777Z" fill="#C2CBD4"/>
<path d="M26.375 53.7129V60.6789L28.718 66.1879L28.757 66.1719L26.375 53.7129Z" fill="#EFF7F9"/>
<path d="M28.794 47.8682L26.375 48.4412V51.3232L28.794 47.8682Z" fill="#75746B"/>
<path d="M28.794 47.8682L26.375 45.8682V48.4432L28.794 47.8682Z" fill="#B6C1CE"/>
<path d="M28.794 47.8678V33.3428L26.375 37.6198V45.8758L28.794 47.8678Z" fill="#75746B"/>
<path d="M28.794 33.3428L26.375 33.5698V37.6198L28.794 33.3428Z" fill="#F0F7FB"/>
<path d="M28.794 33.3431V29.3701L26.375 30.9701V33.5701L28.794 33.3431Z" fill="#304350"/>
<path d="M28.794 29.3716L26.375 19.0176V25.2006L28.794 29.3716Z" fill="#C6CED0"/>
<path d="M32.5841 64.297L30.2301 56.46L28.8301 66.142L32.5871 64.587V64.297H32.5841Z" fill="#EFF7F9"/>
<path d="M30.23 56.4605L26.375 52.2295V53.7125L28.757 66.1715L28.827 66.1425L30.23 56.4605Z" fill="#7A8694"/>
<path d="M32.584 63.2779V59.6239L30.23 56.4609L32.584 64.2979V63.2779Z" fill="#DEE6E8"/>
<path d="M30.23 56.4602L32.584 59.6242V63.2772L33.797 63.8882L32.584 58.6342V47.4922L26.375 51.5982V52.2292L30.23 56.4602Z" fill="white"/>
<path d="M32.584 47.4923V47.2783L28.794 47.8683L26.375 51.3233V51.5993L32.584 47.4923Z" fill="#E3D6C0"/>
<path d="M32.5839 47.2779V45.7999L30.2299 37.9629L28.7939 47.8689L32.5839 47.2779Z" fill="#444950"/>
<path d="M30.2299 37.9628L28.7939 33.3428V47.8728L30.2299 37.9628Z" fill="white"/>
<path d="M32.584 41.0149L30.23 37.9619L32.584 45.7999V41.0149Z" fill="#C6CED0"/>
<path d="M30.2299 37.9627L32.5839 30.1257V29.1797L28.7939 33.3427L30.2299 37.9627Z" fill="#E7F0F4"/>
<path d="M28.7939 33.3432L32.5839 29.1842V28.7842L28.7939 29.3742V33.3432Z" fill="#D1DADF"/>
<path d="M32.584 41.0156V36.0156L30.23 37.9586L32.584 41.0156Z" fill="#EFF7F9"/>
<path d="M32.584 36.02V30.126L30.23 37.963L32.584 36.02Z" fill="#525A66"/>
<path d="M32.5839 28.7806V27.3026L30.5059 20.3846L30.1199 20.2246L28.7939 29.3716L32.5839 28.7806Z" fill="#F0F7FB"/>
<path d="M28.7941 29.3708L30.1201 20.2248L29.2201 19.8528L27.0201 18.9428L26.3721 18.6738V19.0168L28.7941 29.3708Z" fill="#9DABB9"/>
<path d="M32.5841 27.3019V22.5179L31.1431 20.6429L30.5081 20.3799L32.5841 27.3019Z" fill="#444950"/>
<path d="M32.5841 22.5186V21.2436L31.1431 20.6436L32.5841 22.5186Z" fill="#475875"/>
<path d="M27.5 71.2588L25.321 74.8728L26.286 75.8378L29.243 78.7958L29.391 78.9448L29.675 79.2288L27.5 71.2588Z" fill="#808890"/>
<path d="M25.321 74.8728L27.5 71.2588L23.02 72.5718L25.321 74.8728Z" fill="#475875"/>
<path d="M29.677 79.2287L29.836 79.3877L30.836 76.9727L31.506 75.3577L32.089 73.9507L32.405 73.1877L30.271 71.0527L27.501 71.2587L29.677 79.2287Z" fill="#E1EBF0"/>
<path d="M30.2701 71.0522L29.2311 70.0132C28.9861 69.7692 28.7431 69.5252 28.5021 69.2842L26.4661 67.2432L27.5001 71.2532L30.2701 71.0522Z" fill="#E5EDF0"/>
<path d="M26.4671 67.2492L26.3741 67.1572L25.8431 67.3762L24.9011 67.7672L20.1721 65.1572V69.7272L22.7921 68.6432L27.5001 71.2592L26.4671 67.2492Z" fill="#EFF7F9"/>
<path d="M33.111 71.4845L33.25 71.1495L33.369 70.8605L33.592 70.3215L34.592 67.8975L29.231 70.0135L30.27 71.0525L32.406 73.1885L33.111 71.4845Z" fill="#B6C1CE"/>
<path d="M34.5961 67.8969L34.9761 66.9789L33.7131 65.7149L32.8371 64.8399L32.5841 64.5869L28.8271 66.1429L28.7571 66.1719L28.7181 66.1879L28.6181 66.2319L28.5071 69.2859L29.2361 70.0139L34.5961 67.8969Z" fill="#75746B"/>
<path d="M28.613 66.2314L28.399 66.3204L26.375 67.1574L26.466 67.2494C27.074 67.8564 27.773 68.5564 28.502 69.2854L28.613 66.2314Z" fill="#F0F7FB"/>
<path d="M26.2101 18.606L26.3751 18.674C26.8991 18.15 27.5011 17.549 28.1291 16.92L28.5901 16.46C28.7291 16.321 28.8691 16.18 29.0101 16.04L29.0471 16.002L23.6641 17.543L23.7281 17.581L26.2101 18.606Z" fill="#E5EDF0"/>
<path d="M23.664 17.543L23.657 17.551L23.728 17.581L23.664 17.543Z" fill="#EFF7F9"/>
<path d="M27.356 8.92434L31.582 13.4683C31.867 13.1833 32.142 12.9073 32.397 12.6533V12.6433L30.908 9.03734L30.522 8.10334L29.843 6.45334V6.44434L27.356 8.92434Z" fill="#75746B"/>
<path d="M29.0431 16.0018L31.5781 13.4668L27.3561 8.92379L29.8361 6.44279L29.5251 5.69279L26.9131 2.88379L27.2181 9.06079L25.6431 10.6368L23.4321 12.8428L23.6641 17.5348L29.0431 16.0018Z" fill="#F0F7FB"/>
<path d="M23.4321 12.8428L22.4001 13.8738L22.3931 13.8818L23.6641 17.5428L23.4321 12.8428Z" fill="#304350"/>
<path d="M22.3931 13.8857L20.2551 16.0237L23.6641 17.5427L22.3931 13.8857Z" fill="#EFF7F9"/>
<path d="M34.967 18.8518L34.929 18.7598L34.771 19.0488L34.967 18.8518Z" fill="#475875"/>
<path d="M29.2211 19.8524L30.1211 20.2244L30.5081 20.3844L31.1431 20.6474L32.5861 21.2474L34.7721 19.0524L34.9301 18.7634L33.2931 14.8164L29.0091 16.0434L28.5891 16.4634L29.2211 19.8524Z" fill="white"/>
<path d="M27.0229 18.943L29.2229 19.853L28.5909 16.46L28.1299 16.921L27.0229 18.943Z" fill="#A3B1BC"/>
<path d="M28.129 16.9199L26.375 18.6739L27.024 18.9419L28.129 16.9199Z" fill="white"/>
<path d="M33.2941 14.8173L32.3941 12.6533C32.1391 12.9083 31.8631 13.1833 31.5791 13.4683L29.0431 16.0033L29.0051 16.0403L33.2941 14.8173Z" fill="#EFF7F9"/>
<g style="mix-blend-mode:screen">
<mask id="mask5_1_5359" style="mask-type:luminance" maskUnits="userSpaceOnUse" x="32" y="18" width="49" height="49">
<path d="M80.71 18.8623H32.584V66.9893H80.71V18.8623Z" fill="white"/>
</mask>
<g mask="url(#mask5_1_5359)">
<mask id="mask6_1_5359" style="mask-type:luminance" maskUnits="userSpaceOnUse" x="32" y="18" width="49" height="49">
<path d="M80.711 21.2543V64.5963L78.328 66.9883H34.976L32.584 64.5963V21.2543L34.976 18.8623H78.319L80.711 21.2543Z" fill="white"/>
</mask>
<g mask="url(#mask6_1_5359)">
<path d="M46.7197 -3.04228L10.6599 52.8438L66.5459 88.9035L102.606 33.0175L46.7197 -3.04228Z" fill="url(#paint1_linear_1_5359)"/>
</g>
</g>
</g>
</g>
</g>
<defs>
<radialGradient id="paint0_radial_1_5359" cx="0" cy="0" r="1" gradientUnits="userSpaceOnUse" gradientTransform="translate(10.9436 88.9043) scale(55.816 10.0986)">
<stop stop-color="#F9FAFB"/>
<stop offset="0.147" stop-color="#DEE5EC"/>
<stop offset="0.247" stop-color="#D2DCE6"/>
<stop offset="0.268" stop-color="#D4DDE7"/>
<stop offset="0.527" stop-color="#EBF0F4"/>
<stop offset="0.768" stop-color="#FAFBFC"/>
<stop offset="0.973" stop-color="white"/>
<stop offset="1" stop-color="white"/>
</radialGradient>
<linearGradient id="paint1_linear_1_5359" x1="82.4882" y1="126.023" x2="83.0291" y2="125.185" gradientUnits="userSpaceOnUse">
<stop stop-color="white"/>
<stop offset="1" stop-color="#231F20"/>
</linearGradient>
</defs>
</svg>
