<svg width="113" height="111" viewBox="0 0 113 111" fill="none" xmlns="http://www.w3.org/2000/svg">
<mask id="mask0_1_3597" style="mask-type:luminance" maskUnits="userSpaceOnUse" x="0" y="0" width="113" height="111">
<path d="M112.452 0.348633H0.843018V110.744H112.452V0.348633Z" fill="white"/>
</mask>
<g mask="url(#mask0_1_3597)">
<mask id="mask1_1_3597" style="mask-type:luminance" maskUnits="userSpaceOnUse" x="0" y="0" width="113" height="111">
<path d="M112.452 0.348633H0.843018V110.744H112.452V0.348633Z" fill="white"/>
</mask>
<g mask="url(#mask1_1_3597)">
<g style="mix-blend-mode:multiply">
<mask id="mask2_1_3597" style="mask-type:luminance" maskUnits="userSpaceOnUse" x="0" y="90" width="113" height="21">
<path d="M112.452 90.5508H0.843018V110.744H112.452V90.5508Z" fill="white"/>
</mask>
<g mask="url(#mask2_1_3597)">
<mask id="mask3_1_3597" style="mask-type:luminance" maskUnits="userSpaceOnUse" x="0" y="90" width="113" height="21">
<path d="M112.452 100.649C112.452 106.225 87.467 110.749 56.652 110.749C25.837 110.749 0.843018 106.224 0.843018 100.649C0.843018 95.0738 25.828 90.5488 56.648 90.5488C87.468 90.5488 112.448 95.0698 112.448 100.649" fill="white"/>
</mask>
<g mask="url(#mask3_1_3597)">
<path d="M112.452 90.5508H0.843018V110.744H112.452V90.5508Z" fill="url(#paint0_radial_1_3597)"/>
</g>
</g>
</g>
</g>
<path d="M58.773 14.8748L56.643 12.9648L54.743 14.6708L53.463 15.8208L52.707 16.4998L58.773 14.8748Z" fill="#CBD5DC"/>
<path d="M54.9899 19.9614L51.5239 17.5674L49.0099 19.8274L46.8479 21.7694L54.9899 19.9614Z" fill="#474A52"/>
<path d="M54.9899 19.962L60.1719 16.132L59.6989 15.707L58.7729 14.875L52.7129 16.5L51.6489 17.456L51.5239 17.568L54.9899 19.962Z" fill="#E1E6E5"/>
<path d="M65.1311 22.8578H65.9431L65.4431 20.8718L65.3571 20.7948L62.2171 17.9728L60.1691 16.1328L54.9871 19.9628L65.1311 22.8578Z" fill="#444950"/>
<path d="M65.9431 22.8581H66.6651L67.3651 22.5941L65.4431 20.8721L65.9431 22.8581Z" fill="#EFF7F9"/>
<path d="M66.6599 22.8568H67.6599L67.3669 22.5928L66.6599 22.8568Z" fill="#808890"/>
<path d="M50.53 22.8579H55.109L54.99 19.9629L46.848 21.7709L46.034 22.5029L45.634 22.8579H50.53Z" fill="#7A8694"/>
<path d="M55.109 22.8579H57.616L54.99 19.9629L55.109 22.8579Z" fill="#EFF7F9"/>
<path d="M57.616 22.8579H65.131L54.99 19.9629L57.616 22.8579Z" fill="white"/>
<path d="M47.593 0.348633L48.893 2.16263L53.726 0.348633H47.593Z" fill="#EFF7F9"/>
<path d="M53.725 0.348633L48.895 2.16263L52.643 7.38663L56.643 9.67163L54.337 0.348633H53.725Z" fill="#808890"/>
<path d="M54.3369 0.348633L56.6429 9.67163L61.7429 0.348633H54.3369Z" fill="#475875"/>
<path d="M61.7431 0.348633L56.6431 9.67163L59.6161 8.82263L61.2261 6.58063L65.3591 0.825633L69.4321 5.31563L71.0091 1.04863L65.7021 0.348633H61.7431Z" fill="white"/>
<path d="M55.358 11.1688L56.646 9.66879L52.646 7.38379L54.811 10.4008L55.358 11.1688Z" fill="#E1EBF0"/>
<path d="M58.3071 10.6483L59.6191 8.81934L56.6431 9.67134L58.3071 10.6483Z" fill="#EFF7F9"/>
<path d="M80.0429 3.63748L82.1969 2.77848L82.1299 2.50748L76.8479 1.81348L80.0429 3.63748Z" fill="#808890"/>
<path d="M58.999 12.0276L58.045 11.0176L56.645 12.9646L58.999 12.0276Z" fill="#E1EBF0"/>
<path d="M58.3069 10.6481L58.0449 11.0131L58.9989 12.0231L61.4139 11.0611L61.2289 6.57715L59.6189 8.81915L58.3069 10.6481Z" fill="#7A8694"/>
<path d="M61.414 11.0642L62.267 10.7242L63.534 10.2242L65.497 9.44219L66.242 9.14219L69.432 5.3182L65.359 0.825195L61.229 6.5802L61.414 11.0642Z" fill="#EFF7F9"/>
<path d="M66.2429 9.14041L68.8649 8.09541L68.9189 8.07341L69.4329 5.31641L66.2429 9.14041Z" fill="white"/>
<path d="M69.4321 5.31583L71.5631 7.01583L72.6231 6.59383L74.7561 5.74883L72.8171 1.28283L71.0101 1.04883L69.4321 5.31583Z" fill="#98A4B1"/>
<path d="M74.7549 5.7482L77.1699 4.7862L80.0429 3.6372L76.8509 1.8132L72.8169 1.2832L74.7549 5.7482Z" fill="#E1EBF0"/>
<path d="M68.918 8.07343L69.734 7.74743L69.434 5.31543L68.918 8.07343Z" fill="#75746B"/>
<path d="M69.7351 7.74836L71.5631 7.01836L69.4321 5.31836L69.7351 7.74836Z" fill="#B6C1CE"/>
<path d="M87.1431 5.88003L87.443 5.38003L82.696 2.58203V2.69103L87.1431 5.88003Z" fill="#CBD5DC"/>
<path d="M87.4431 5.375L87.1431 5.88L89.1621 6.389L87.4431 5.375Z" fill="#E5EDF0"/>
<path d="M82.696 2.69043L82.704 4.75743L87.1431 5.87943L82.696 2.69043Z" fill="#E1E6E5"/>
<path d="M87.1431 5.87988L88.6431 14.7379L91.3431 12.0489L91.7281 11.6639L94.0991 9.29288L89.1691 6.39288L87.1431 5.87988Z" fill="#F3F6F1"/>
<path d="M82.7041 4.75781V5.28881L82.7261 11.1358V11.7978L87.1431 5.87981L82.7041 4.75781Z" fill="#444950"/>
<path d="M82.73 11.7979V11.1359L76.866 11.0559L81.2 15.7489L82.741 14.7659V14.5999L86.571 16.8159L88.651 14.7359L87.143 5.87891L82.73 11.7979Z" fill="#EFF7F9"/>
<path d="M82.7499 17.0806L82.7629 20.6236L84.5789 18.8076L86.5699 16.8166L82.7429 14.6016V14.7666L82.7499 17.0806Z" fill="#808890"/>
<path d="M91.343 12.0491L92.043 11.8491L91.729 11.6641L91.343 12.0491Z" fill="#E5EDF0"/>
<path d="M91.7241 11.663L92.0381 11.848L94.1541 9.39199L94.0951 9.29199L91.7241 11.663Z" fill="#EFF7F9"/>
<path d="M82.7629 20.6246L83.9899 20.6296L86.2799 20.6376L84.5799 18.8086L82.7629 20.6246Z" fill="#75746B"/>
<path d="M86.5701 16.8176L84.5791 18.8086L86.2791 20.6376L88.8711 20.6476L92.0191 20.6586H92.4731L92.0381 11.8486L91.3381 12.0486L88.6481 14.7386L86.5701 16.8176Z" fill="#F0F7FB"/>
<path d="M92.043 11.8486L96.867 13.9916L94.159 9.3916L92.043 11.8486Z" fill="white"/>
<path d="M92.474 20.6606L95.108 20.6706L92.043 11.8486L92.474 20.6606Z" fill="#304350"/>
<path d="M92.043 11.8486L95.113 20.6706L98.728 20.6836L100.811 20.6916L96.867 13.9916L92.043 11.8486Z" fill="#EFF7F9"/>
<path d="M81.5759 20.8L82.6469 21.412L82.7629 20.624L81.5759 20.8Z" fill="#808890"/>
<path d="M68.458 23.6584L69.333 22.6094L67.657 22.8574L68.458 23.6584Z" fill="#EFF7F9"/>
<path d="M68.458 23.6591L69.423 24.6241L69.812 22.5391L69.333 22.6101L68.458 23.6591Z" fill="white"/>
<path d="M70.5969 22.4225L77.7969 28.1775L75.0149 21.7695L72.9419 22.0755L70.5969 22.4225Z" fill="#98A4B1"/>
<path d="M77.798 28.1778L82.443 22.7848L82.643 21.4118L81.572 20.7998L81.416 20.8228L79.887 21.0488L75.012 21.7698L77.798 28.1778Z" fill="#E1EBF0"/>
<path d="M70.597 22.4229L70.009 22.5099L70.393 25.5939L76.093 31.2939L76.335 31.5369L77.795 28.1749L70.597 22.4229Z" fill="#B6C1CE"/>
<path d="M77.7981 28.1772L81.8161 27.0302L82.1421 24.8232L82.4421 22.7842L77.7981 28.1772Z" fill="#E5EDF0"/>
<path d="M77.798 28.1777L76.343 31.5397L80.104 35.3007L80.534 35.7307L81.123 31.7477L77.798 28.1777Z" fill="#75746B"/>
<path d="M81.8161 27.0303L77.7981 28.1773L81.1191 31.7473L81.5611 28.7473L81.8161 27.0303Z" fill="#F0F7FB"/>
<path d="M84.3201 42.9414L86.2541 42.1014L85.5861 41.3574L84.3201 42.9414Z" fill="#98A4B1"/>
<path d="M84.3201 42.9416L89.6841 47.5616L89.8271 47.4026L90.4271 46.7396L88.1141 44.1646L86.2591 42.1016L84.3201 42.9416Z" fill="#E1EBF0"/>
<path d="M80.53 36.3295L81.014 36.2695L80.53 35.7305V36.3295Z" fill="#75746B"/>
<path d="M80.53 36.3295V41.2955L84.32 42.9405L85.586 41.3565L84.702 40.3735L81.053 36.3125L81.014 36.2695L80.53 36.3295Z" fill="#B6C1CE"/>
<path d="M84.3201 42.9414L86.6141 50.9774L89.6841 47.5614L84.3201 42.9414Z" fill="#E5EDF0"/>
<path d="M84.32 42.9419L80.53 41.2959V46.4669L84.32 42.9419Z" fill="#75746B"/>
<path d="M84.32 42.9414L80.53 46.4664V54.2934L83.779 54.1334L84.185 53.6814L86.614 50.9814L84.32 42.9414Z" fill="#F0F7FB"/>
<path d="M80.5299 55.1228V55.5928L80.3369 55.0368L80.4739 57.8048L80.5299 57.7488V56.3628L82.3409 55.7328L83.7789 54.1328L80.5299 54.2938V55.1228Z" fill="#304350"/>
<path d="M80.53 56.3624V57.7484L82.343 55.7324L80.53 56.3624Z" fill="#EFF7F9"/>
<path d="M100.285 39.6606L99.9439 39.9056L99.2439 40.4056L98.7089 40.7886L98.1499 42.7486L103.035 41.5386V37.6846L102.345 32.4326L100.285 39.6606Z" fill="#444950"/>
<path d="M100.491 21.4804L99.4511 24.0884L97.7391 28.3884L97.4011 29.2344L101.901 29.0484L100.801 20.6934L100.491 21.4804Z" fill="#7A8694"/>
<path d="M97.402 29.2319L95.987 32.7809L94.317 36.9699L94.196 37.2759L102.05 30.1519L101.904 29.0459L97.402 29.2319Z" fill="#EFF7F9"/>
<path d="M94.1951 37.2754L94.3171 36.9694L84.7761 37.0694L91.5821 43.8304L91.6281 43.7154L94.0191 37.7154L99.9431 39.9064L100.284 39.6614L102.348 32.4324L102.048 30.1514L94.1951 37.2754Z" fill="white"/>
<path d="M99.243 40.4058L99.943 39.9058L94.018 37.7158L91.627 43.7158L99.243 40.4058Z" fill="#98A4B1"/>
<path d="M91.1991 44.7923L90.4231 46.7393L92.6071 48.3073L94.2911 49.5153L98.1541 42.7483L92.6541 45.1353L96.7181 42.2183L98.7111 40.7883L99.2451 40.4043L91.6261 43.7133L91.5801 43.8283L91.1991 44.7923Z" fill="#E1EBF0"/>
<path d="M76.863 11.0552L77.1701 4.7832L74.7561 5.7482L72.623 6.5982L76.863 11.0552Z" fill="#808890"/>
<path d="M80.0431 3.63781L77.1701 4.78481L76.8621 11.0568L82.7061 5.28981V4.75781L82.6981 2.69081V2.58181L82.1361 2.50781L82.2031 2.77881L80.0431 3.63781Z" fill="#475875"/>
<path d="M82.728 11.1361L82.706 5.28906L76.863 11.0561L82.728 11.1361Z" fill="white"/>
<path d="M58.773 14.8746L59.699 15.7066L62.266 10.7246L61.414 11.0646L58.999 12.0266L56.647 12.9646L58.773 14.8746Z" fill="white"/>
<path d="M69.752 15.5938L68.8641 8.09375L66.243 9.13975L65.498 9.43975L69.752 15.5938Z" fill="#98A4B1"/>
<path d="M69.735 7.74868L68.919 8.07368L68.864 8.09568L69.752 15.5957L76.863 11.0577L72.623 6.59668L71.563 7.01868L69.735 7.74868Z" fill="#E1EBF0"/>
<path d="M59.699 15.7067L60.172 16.1317L62.22 17.9717L63.534 10.2197L62.267 10.7247L59.699 15.7067Z" fill="#75746B"/>
<path d="M62.22 17.9715L65.36 20.7935L69.752 15.5935L65.497 9.43652L63.534 10.2195L62.22 17.9715Z" fill="#B6C1CE"/>
<path d="M69.752 15.5937L81.2 15.7497L76.863 11.0557L69.752 15.5937Z" fill="#E5EDF0"/>
<path d="M65.3601 20.7937L65.4471 20.8718L67.3631 22.5938L67.6561 22.8567L69.3331 22.6097L69.8111 22.5388L69.4231 24.6237L70.3161 25.5167L70.3931 25.5938L70.0091 22.5097L70.5971 22.4227L72.9431 22.0757L69.7521 15.5938L65.3601 20.7937Z" fill="#75746B"/>
<path d="M69.752 15.5938L72.943 22.0757L75.016 21.7688L79.89 21.0488L81.2 15.7487L69.752 15.5938Z" fill="#F0F7FB"/>
<path d="M82.7501 17.0806L82.7431 14.7666L81.2031 15.7496L82.7501 17.0806Z" fill="white"/>
<path d="M79.8911 21.049L81.4201 20.823L81.2001 15.749L79.8911 21.049Z" fill="#304350"/>
<path d="M81.4189 20.823L81.575 20.8L82.7629 20.624L82.7499 17.081L81.2 15.749L81.4189 20.823Z" fill="#EFF7F9"/>
<path d="M100.491 21.4806L100.806 20.6916L98.7229 20.6836L100.491 21.4806Z" fill="#E5EDF0"/>
<path d="M92.4741 20.6602H92.0211L91.9431 30.3482L99.4541 24.0882L100.494 21.4802L98.7261 20.6802L95.1101 20.6672L92.4741 20.6602Z" fill="#F3F6F1"/>
<path d="M91.9431 30.3489L97.7431 28.3859L99.4561 24.0859L91.9431 30.3489Z" fill="#E7F0F4"/>
<path d="M83.99 20.6289L84.881 24.3909L88.873 20.6489L86.28 20.6389L83.99 20.6289Z" fill="#444950"/>
<path d="M84.8801 24.3914L91.9431 30.3484L92.0231 20.6574L88.8721 20.6484L84.8801 24.3914Z" fill="#EFF7F9"/>
<path d="M91.9431 30.3487L95.9891 32.7817L97.4041 29.2317L97.7411 28.3857L91.9431 30.3487Z" fill="#A3B1BC"/>
<path d="M91.943 30.3486L84.883 24.3906L84.783 37.0686L91.943 30.3486Z" fill="#808890"/>
<path d="M91.9431 30.3486L84.7791 37.0686L94.3191 36.9686L95.9891 32.7806L91.9431 30.3486Z" fill="#475875"/>
<path d="M83.99 20.6289H82.763L82.647 21.4169L82.447 22.7889L82.147 24.8289L84.886 24.3959L83.99 20.6289Z" fill="white"/>
<path d="M82.143 24.8237L81.817 27.0307L81.561 28.7487L84.88 24.3867L82.143 24.8237Z" fill="#98A4B1"/>
<path d="M84.8801 24.3916L81.5611 28.7486L81.1181 31.7486L80.5291 35.7326L81.0131 36.2706L81.0521 36.3136L84.7761 37.0706L84.8801 24.3916Z" fill="#E1EBF0"/>
<path d="M81.052 36.3125L84.702 40.3745L84.776 37.0685L81.052 36.3125Z" fill="#E5EDF0"/>
<path d="M84.7019 40.3734L85.5849 41.3564L86.2539 42.1004L88.1079 44.1644L91.1979 44.7914L91.5819 43.8284L84.7759 37.0684L84.7019 40.3734Z" fill="#EFF7F9"/>
<path d="M90.4219 46.74L91.1979 44.793L88.1079 44.165L90.4219 46.74Z" fill="white"/>
<path d="M101.402 51.3973L103.039 51.0973V48.5303L101.402 51.3973Z" fill="#F3F6F1"/>
<path d="M101.402 51.3979L103.039 51.6979V51.0889L101.402 51.3979Z" fill="#E7F0F4"/>
<path d="M98.1541 42.749L101.402 51.397L103.039 48.53V41.54L98.1541 42.749Z" fill="#EFF7F9"/>
<path d="M101.402 51.3975L103.039 54.2645V51.7025L101.402 51.3975Z" fill="#A3B1BC"/>
<path d="M94.29 49.516L97.981 52.165L98.064 52.224L101.402 51.398L98.154 42.749L94.29 49.516Z" fill="#808890"/>
<path d="M101.402 51.3975L98.064 52.2245L100.386 53.8905L103.039 55.7905V54.2605L101.402 51.3975Z" fill="#475875"/>
<path d="M96.72 42.22L98.153 42.75L98.713 40.79L96.72 42.22Z" fill="white"/>
<path d="M96.72 42.2197L92.656 45.1367L98.156 42.7497L96.72 42.2197Z" fill="#98A4B1"/>
<path d="M99.8159 61.87L102.267 61.67L102.711 58.293L99.8159 61.87Z" fill="#808890"/>
<path d="M99.8159 61.8699L102.016 63.5829L102.268 61.6699L99.8159 61.8699Z" fill="#475875"/>
<path d="M99.8159 61.8701L100.959 71.6261L102.015 63.5831L99.8159 61.8701Z" fill="white"/>
<path d="M94.3931 55.409L100.386 53.891L98.0641 52.224L97.9811 52.165L94.3931 55.409Z" fill="#98A4B1"/>
<path d="M100.386 53.8906L94.3931 55.4086L99.8161 61.8696L102.716 58.2926L103.044 55.7926L100.386 53.8906Z" fill="#E1EBF0"/>
<path d="M97.9821 52.1648L94.2911 49.5158L92.6071 48.3078L91.0241 48.2478L90.6461 47.3008L89.8271 47.4008L89.6841 47.5588L86.6151 50.9758L84.1851 53.6758L86.8851 54.8468L91.4051 49.1908L92.6571 52.3488L93.7011 54.9678L94.3941 55.4128L97.9821 52.1648Z" fill="#B6C1CE"/>
<path d="M94.608 57.2382L94.791 57.6982L95.619 59.7762L96.569 62.1582L97.542 64.5992L99.816 61.8692L94.394 55.4082L94.608 57.2382Z" fill="#E5EDF0"/>
<path d="M99.816 61.8701L97.543 64.6001L99.976 70.7001L100.807 72.7841L100.96 71.6221L99.816 61.8701Z" fill="#EFF7F9"/>
<path d="M93.9859 55.6799L94.3939 55.4089L93.7009 54.9639L93.9859 55.6799Z" fill="#75746B"/>
<path d="M93.9861 55.6792L94.6081 57.2382L94.3941 55.4082L93.9861 55.6792Z" fill="#F0F7FB"/>
<path d="M86.7869 72.8398L82.7629 72.8548L84.9179 75.0098L86.7869 72.8398Z" fill="#E1EBF0"/>
<path d="M93.408 72.8154L86.926 72.8394H86.787L84.918 75.0094L85.264 75.3544L85.864 75.9544L94.536 73.4784L93.408 72.8154Z" fill="#E5EDF0"/>
<path d="M94.298 72.8127H93.408L94.536 73.4787L95.116 72.8057L94.298 72.8127Z" fill="#EFF7F9"/>
<path d="M94.537 73.4814L85.865 75.9574L86.034 76.1264L87.85 77.9414L94.096 84.1874L94.991 82.6664L94.537 73.4814Z" fill="#F0F7FB"/>
<path d="M99.0281 72.7942L96.4161 71.3662L96.0971 72.8052H95.1161L94.5371 73.4782L99.1831 75.5482L100.806 72.7902L99.0281 72.7942Z" fill="white"/>
<path d="M94.5371 73.4814L94.9911 82.6664L96.7141 79.7394L94.5371 73.4814Z" fill="#304350"/>
<path d="M94.5371 73.4814L96.7141 79.7394L99.1831 75.5484L94.5371 73.4814Z" fill="#EFF7F9"/>
<path d="M57.1499 81.2146L57.4709 80.8427L56.6479 80.5146L57.1499 81.2146Z" fill="#E1EBF0"/>
<path d="M60.366 81.9967L58.118 81.0967L57.47 80.8387L57.15 81.2107L56.65 80.5107L55.25 82.4577L54.988 82.8227L56.649 83.8027L57.937 82.3027L58.486 83.0667L61.158 82.3047L60.366 81.9967Z" fill="#E5EDF0"/>
<path d="M65.7521 84.1484L65.6991 84.1274L61.1581 82.3174L58.4851 83.0804L60.6511 86.0974L64.4001 91.3214L65.7001 93.1354L66.1901 93.0714L65.7521 84.1484Z" fill="#F0F7FB"/>
<path d="M66.826 84.5714L65.752 84.1484L66.193 93.0714L69.625 92.6204L66.826 84.5714Z" fill="#304350"/>
<path d="M78.1569 89.0883L73.5209 87.2403L66.8259 84.5713L69.6259 92.6153L75.6809 91.8153L78.1569 89.0883Z" fill="#EFF7F9"/>
<path d="M78.8679 89.3728L78.1569 89.0898L75.6799 91.8208L82.6959 90.8988L78.8679 89.3728Z" fill="#C6CED0"/>
<path d="M50.5299 22.8574H45.6429L43.7529 24.7434L39.1429 29.3484L38.8879 29.6024L51.7459 26.1554L50.5299 22.8574Z" fill="#CBD5DC"/>
<path d="M56.214 22.8574H50.53L51.749 26.1574L56.214 22.8574Z" fill="#E5EDF0"/>
<path d="M32.7651 37.1156V37.1486L38.6521 35.8406L35.1071 33.3926L32.7651 35.7356V37.1156Z" fill="#474A52"/>
<path d="M35.1069 33.3882L38.6509 35.8362L51.7509 26.1572L38.8909 29.6042L37.8779 30.6172L35.2689 33.2262L35.1069 33.3882Z" fill="#E1E6E5"/>
<path d="M68.423 35.6774L66.035 22.8564H56.214L51.749 26.1564L68.423 35.6774Z" fill="#F3F6F1"/>
<path d="M66.6599 22.8574H66.0349L68.4229 35.6784L70.3159 25.5174L69.4229 24.6244L68.4579 23.6584L67.6579 22.8584L66.6599 22.8574Z" fill="#E7F0F4"/>
<path d="M55.3259 40.5963L51.7499 26.1562L38.6499 35.8352L55.3259 40.5963Z" fill="#444950"/>
<path d="M55.326 40.5963L68.426 35.6772L51.75 26.1562L55.326 40.5963Z" fill="#EFF7F9"/>
<path d="M68.4231 35.6775L76.0961 31.2965L70.3961 25.5965L70.3191 25.5195L68.4231 35.6775Z" fill="#A3B1BC"/>
<path d="M68.423 35.6777L55.323 40.5967L71.996 50.1177L68.423 35.6777Z" fill="#808890"/>
<path d="M76.0961 31.2969L68.4231 35.6779L72.0001 50.1179L80.1001 35.2999L76.3401 31.5399L76.0961 31.2969Z" fill="#475875"/>
<path d="M80.099 35.2998L71.999 50.1178L80.529 47.6818V35.7308L80.099 35.2998Z" fill="white"/>
<path d="M36.9561 61.9395L39.4701 64.4535L39.8361 64.5535L32.7651 57.0635V57.7485L36.9561 61.9395Z" fill="#E1EBF0"/>
<path d="M38.6521 35.8369L32.7651 37.1439V57.0679L39.8361 64.5579L38.6521 35.8369Z" fill="#7A8694"/>
<path d="M39.691 64.675L39.836 64.558L39.47 64.458L39.691 64.675Z" fill="#C2CBD4"/>
<path d="M51.7489 50.2769L38.6489 35.8369L39.8329 64.5579L51.7489 50.2769Z" fill="#EFF7F9"/>
<path d="M51.7491 50.2769L55.3251 40.5979L38.6521 35.8369L51.7491 50.2769Z" fill="white"/>
<path d="M48.1729 69.4764L51.7499 50.2764L39.8359 64.5574L48.1729 69.4764Z" fill="white"/>
<path d="M55.326 40.5967L51.75 50.2757L63.663 59.7967L55.326 40.5967Z" fill="#98A4B1"/>
<path d="M55.3259 40.5967L63.6629 59.7967L71.9999 50.1177L55.3259 40.5967Z" fill="#E1EBF0"/>
<path d="M48.1731 69.4764L49.0331 70.6214H54.2831L51.7501 50.2764L48.1731 69.4764Z" fill="#75746B"/>
<path d="M51.749 50.2764L54.282 70.6224H58.962L63.662 59.7974L51.749 50.2764Z" fill="#B6C1CE"/>
<path d="M63.6631 59.7972L80.3371 55.0372L72.0001 50.1172L63.6631 59.7972Z" fill="#E5EDF0"/>
<path d="M80.336 55.0366L80.529 54.8126V47.6826L71.999 50.1176L80.336 55.0366Z" fill="#EFF7F9"/>
<path d="M58.9619 70.6219H67.6559L71.8749 71.2459L69.5429 68.7359L70.8049 67.4749L63.6639 59.7969L58.9619 70.6219Z" fill="#75746B"/>
<path d="M80.4731 57.8051L80.3361 55.0371L63.6621 59.7971L70.8031 67.4751L69.5431 68.7371L71.8751 71.2491L72.0641 71.2771L74.1581 71.5861L74.5191 71.6401L74.1491 64.1331L75.4161 62.8651L78.0251 60.2491L80.4731 57.8051Z" fill="#F0F7FB"/>
<path d="M80.3359 55.0375L80.5289 55.1235V54.8125L80.3359 55.0375Z" fill="white"/>
<path d="M80.5299 55.5931V55.1231L80.3369 55.0381L80.5299 55.5931Z" fill="#EFF7F9"/>
<path d="M46.6349 70.6216H47.5119L48.1729 69.4766L45.4729 70.4576L45.6369 70.6216H46.6349Z" fill="#7A8694"/>
<path d="M48.5721 70.6216H49.0341L48.1731 69.4766L48.5721 70.6216Z" fill="#E3D6C0"/>
<path d="M85.2641 75.3558L82.7541 75.2158L82.7441 78.0368L86.0341 76.1258L85.8661 75.9578L85.2641 75.3558Z" fill="#EFF7F9"/>
<path d="M87.8499 77.9414L86.0329 76.1254L82.7429 78.0364L82.7539 75.2154L85.2629 75.3554L84.9169 75.0094L82.7619 72.8544L82.5329 72.8214L82.2329 72.7764L78.2749 77.3764L82.7429 79.3534L82.7319 82.3534L88.3249 87.5824L90.1749 86.4944L87.8499 77.9414Z" fill="white"/>
<path d="M87.8501 77.9414L90.1711 86.4984L94.0961 84.1874L87.8501 77.9414Z" fill="#B6C1CE"/>
<path d="M82.7279 82.358L82.7389 79.358L78.2749 77.375L82.6989 90.09V90.902L88.3239 87.591L82.7279 82.358Z" fill="#EFF7F9"/>
<path d="M72.064 71.2741L71.875 71.2461L67.656 70.6221L67.261 70.9781L72.77 74.1241L72.064 71.2741Z" fill="#808890"/>
<path d="M74.1589 71.5834L72.0649 71.2744L72.7709 74.1234L74.1589 71.5834Z" fill="#475875"/>
<path d="M74.52 71.637L74.159 71.584L72.77 74.124L79.106 72.315L78.684 72.253L74.52 71.637Z" fill="white"/>
<path d="M58.5431 78.8086L56.6431 80.5146L57.4661 80.8426L58.1141 81.1006L58.5431 78.8086Z" fill="white"/>
<path d="M64.285 73.6484L61.77 75.9084L61.645 76.0204L67.265 80.5114L64.285 73.6484Z" fill="#98A4B1"/>
<path d="M67.2609 70.9775L66.4469 71.7085L64.2849 73.6485L67.2649 80.5115L72.7649 74.1205L67.2609 70.9775Z" fill="#E1EBF0"/>
<path d="M58.543 78.8091L58.116 81.1011L60.364 82.0011L59.823 77.6621L58.543 78.8091Z" fill="#75746B"/>
<path d="M67.265 80.5144L61.643 76.0234L60.579 76.9794L59.824 77.6584L60.364 81.9964L61.155 82.3124L65.696 84.1224L67.265 80.5144Z" fill="#B6C1CE"/>
<path d="M72.7701 74.124L67.2651 80.515L78.2751 77.372L72.7701 74.124Z" fill="#E5EDF0"/>
<path d="M80.868 72.575L82.461 70.818L82.135 68.608L81.789 66.269L81.102 61.619L78.025 60.249L75.416 62.858L78.683 72.249L79.105 72.311L72.77 74.12L78.27 77.368L82.228 72.774L80.868 72.575Z" fill="#EFF7F9"/>
<path d="M67.265 80.5146L65.698 84.1227L65.752 84.1436L66.826 84.5726L73.521 87.2416L67.265 80.5146Z" fill="#75746B"/>
<path d="M67.2651 80.515L73.5211 87.242L78.1571 89.089L78.8671 89.373L78.2741 77.373L67.2651 80.515Z" fill="#F0F7FB"/>
<path d="M82.6989 90.0861L78.2749 77.3711L78.8679 89.3711L82.6959 90.8971L82.6989 90.0861Z" fill="#304350"/>
<path d="M80.9209 60.397L80.5299 57.749L80.4729 57.805L78.0249 60.249L81.1019 61.616L80.9209 60.397Z" fill="white"/>
<path d="M74.1489 64.1293L74.5199 71.6363L78.6839 72.2523L75.4169 62.8613L74.1489 64.1293Z" fill="#304350"/>
<path d="M82.7429 72.7274L82.4609 70.8174L80.8669 72.5744L82.2309 72.7744L82.5309 72.8184L82.7429 72.7274Z" fill="#C6CED0"/>
<path d="M82.5339 72.8215L82.7629 72.8555L82.7439 72.7275L82.5339 72.8215Z" fill="#9DABB9"/>
<path d="M93.2729 60.3572L95.6189 59.7762L94.7909 57.6992L93.2729 60.3572Z" fill="#808890"/>
<path d="M93.2729 60.3574L96.573 62.1574L95.6229 59.7744L93.2729 60.3574Z" fill="#475875"/>
<path d="M96.569 62.1584L93.269 60.3584L96.412 71.3684L99.971 70.7054L97.538 64.6054L96.569 62.1584Z" fill="white"/>
<path d="M99.975 70.7041L96.416 71.3671L99.028 72.7951L100.806 72.7881L99.975 70.7041Z" fill="#A3B1BC"/>
<path d="M92.6571 52.3482L91.4021 49.2002L86.8821 54.8482L92.6571 52.3482Z" fill="#98A4B1"/>
<path d="M93.2731 60.3576L94.7911 57.6996L94.6081 57.2386L93.9861 55.6796L93.7011 54.9636L92.6571 52.3486L86.8821 54.8486L93.2731 60.3576Z" fill="#E1EBF0"/>
<path d="M89.8269 47.4023L90.6459 47.3023L91.0239 48.2493L92.6069 48.3093L90.4229 46.7393L89.8269 47.4023Z" fill="#75746B"/>
<path d="M90.0251 65.8626L93.2731 60.3626L86.8821 54.8486L90.0251 65.8626Z" fill="#E5EDF0"/>
<path d="M93.2729 60.3574L90.0249 65.8624L96.4159 71.3624L93.2729 60.3574Z" fill="#EFF7F9"/>
<path d="M83.779 54.1327L82.341 55.7327L80.53 57.7487L80.921 60.3967L86.882 54.8487L84.182 53.6777L83.779 54.1327Z" fill="#75746B"/>
<path d="M80.9209 60.3966L81.1019 61.6196L81.7889 66.2696L90.0249 65.8626L86.8819 54.8486L80.9209 60.3966Z" fill="#F0F7FB"/>
<path d="M90.025 65.8623L86.925 72.8393L93.4071 72.8153H94.2971L96.415 71.3703L90.025 65.8623Z" fill="white"/>
<path d="M94.2981 72.813H95.1161H96.0971L96.4171 71.375L94.2981 72.813Z" fill="#B6C1CE"/>
<path d="M81.7891 66.2693L82.1351 68.6073L90.0251 65.8623L81.7891 66.2693Z" fill="#304350"/>
<path d="M86.787 72.8393H86.926L90.026 65.8623L82.136 68.6073L82.463 70.8183L82.745 72.7283L82.764 72.8553L86.787 72.8393Z" fill="#182631"/>
<path d="M54.522 78.6045L56.648 80.5145L58.548 78.8085L59.829 77.6585L60.584 76.9795L54.522 78.6045Z" fill="#CBD5DC"/>
<path d="M58.3049 73.518L61.7709 75.912L64.2849 73.652L66.4429 71.71L58.3049 73.518Z" fill="#474A52"/>
<path d="M58.305 73.5176L53.123 77.3486L53.596 77.7736L54.522 78.6056L60.582 76.9806L61.646 76.0246L61.771 75.9126L58.305 73.5176Z" fill="#E1E6E5"/>
<path d="M48.1639 70.6221H47.3569L47.8479 72.6081L47.9349 72.6851L51.0749 75.5071L53.1219 77.3491L58.3049 73.5191L48.1639 70.6221Z" fill="#444950"/>
<path d="M47.3571 70.6221H46.6351L45.9351 70.8861L47.8521 72.6081L47.3571 70.6221Z" fill="#EFF7F9"/>
<path d="M45.6431 70.6221L45.9361 70.8871L46.6361 70.6221H45.6431Z" fill="#808890"/>
<path d="M67.6561 70.6221H58.1851L58.3051 73.5171L66.4431 71.7091L67.2571 70.9771L67.6561 70.6221Z" fill="#7A8694"/>
<path d="M58.186 70.6221H55.679L58.305 73.5171L58.186 70.6221Z" fill="#EFF7F9"/>
<path d="M55.679 70.6216H48.572L48.172 69.4766L47.511 70.6216H48.164L58.304 73.5166L55.679 70.6216Z" fill="white"/>
<path d="M64.401 91.3164L59.571 93.1304H65.703L64.401 91.3164Z" fill="#EFF7F9"/>
<path d="M64.4011 91.3166L60.6511 86.0916L56.6511 83.8066L58.9601 93.1306H59.5731L64.4011 91.3166Z" fill="#808890"/>
<path d="M56.6481 83.8066L51.5481 93.1306H58.9541L56.6481 83.8066Z" fill="#475875"/>
<path d="M56.6479 83.8066L53.6749 84.6556L52.0659 86.8976L47.9349 92.6486L43.8629 88.1586L42.2849 92.4296L47.5919 93.1296H51.5509L56.6479 83.8066Z" fill="white"/>
<path d="M57.9369 82.3105L56.6489 83.8105L60.6489 86.0956L58.4839 83.0786L57.9369 82.3105Z" fill="#E1EBF0"/>
<path d="M54.988 82.8271L53.676 84.6562L56.649 83.8072L54.988 82.8271Z" fill="#EFF7F9"/>
<path d="M33.249 89.8418L31.095 90.7008L31.162 90.9718L36.443 91.6658L33.249 89.8418Z" fill="#808890"/>
<path d="M54.2959 81.4487L55.2499 82.4587L56.6499 80.5117L54.2959 81.4487Z" fill="#E1EBF0"/>
<path d="M54.9881 82.8271L55.2501 82.4622L54.2961 81.4521L51.8811 82.4142L52.0661 86.8982L53.6761 84.6562L54.9881 82.8271Z" fill="#7A8694"/>
<path d="M51.881 82.415L51.029 82.755L49.762 83.255L47.798 84.037L47.053 84.337L43.863 88.161L47.936 92.651L52.066 86.896L51.881 82.415Z" fill="#EFF7F9"/>
<path d="M47.053 84.3389L44.431 85.3839L44.377 85.4059L43.863 88.1629L47.053 84.3389Z" fill="white"/>
<path d="M43.863 88.1639L41.732 86.4639L40.673 86.8859L38.54 87.7369L40.478 92.1999L42.285 92.4379L43.863 88.1639Z" fill="#98A4B1"/>
<path d="M38.543 87.7324L36.129 88.6944L33.252 89.8414L36.443 91.6654L40.477 92.1954L38.543 87.7324Z" fill="#E1EBF0"/>
<path d="M43.561 85.7313L43.861 88.1633L44.375 85.4053L43.561 85.7313Z" fill="#75746B"/>
<path d="M43.5599 85.7314L41.7319 86.4604L43.8629 88.1604L43.5599 85.7314Z" fill="#B6C1CE"/>
<path d="M26.1491 87.5996L25.8491 88.0996L30.5951 90.8926V90.7886L26.1491 87.5996Z" fill="#CBD5DC"/>
<path d="M26.1491 87.5998L24.1301 87.0898L25.8531 88.1048L26.1491 87.5998Z" fill="#E5EDF0"/>
<path d="M26.1489 87.5996L30.5989 90.7886L30.5909 88.7216L26.1489 87.5996Z" fill="#E1E6E5"/>
<path d="M26.1491 87.5992L24.6491 78.7412L21.9601 81.4312L21.5751 81.8162L19.2041 84.1872L24.1341 87.0872L26.1491 87.5992Z" fill="#F3F6F1"/>
<path d="M30.5671 82.3436V81.6816L26.1511 87.6006L30.5931 88.7216V88.1906L30.5671 82.3436Z" fill="#444950"/>
<path d="M30.5429 76.3985L30.5299 72.8555L28.7139 74.6715L26.7229 76.6625L30.5519 78.8775V78.7125L30.5429 76.3985Z" fill="#808890"/>
<path d="M21.2571 81.6316L21.5711 81.8166L21.9551 81.4316L21.2571 81.6316Z" fill="#E5EDF0"/>
<path d="M21.5711 81.8168L21.2571 81.6318L19.1431 84.0878L19.2021 84.1878L21.5711 81.8168Z" fill="#EFF7F9"/>
<path d="M30.5321 72.8548L29.3051 72.8488L27.0151 72.8408L28.7151 74.6698L30.5321 72.8548Z" fill="#75746B"/>
<path d="M26.725 76.6613L28.716 74.6703L27.016 72.8413L24.424 72.8313L21.276 72.8203H20.822L21.258 81.6323L21.958 81.4323L24.648 78.7423L26.725 76.6613Z" fill="#F0F7FB"/>
<path d="M21.2571 81.6313L16.4341 79.4883L19.1411 84.0883L21.2571 81.6313Z" fill="white"/>
<path d="M20.821 72.8186L18.187 72.8086L21.256 81.6306L20.821 72.8186Z" fill="#304350"/>
<path d="M21.257 81.6321L18.187 72.8101L14.572 72.7971L12.489 72.7891L16.434 79.4891L21.257 81.6321Z" fill="#EFF7F9"/>
<path d="M30.532 72.8554L31.719 72.6794L30.648 72.0674L30.532 72.8554Z" fill="#808890"/>
<path d="M45.4739 70.4576L48.1739 69.4766L39.8369 64.5576L39.6919 64.6746L42.9029 67.8846L43.8729 68.8556L44.8379 69.8206L43.9629 70.8696L45.6389 70.6216L45.4739 70.4576Z" fill="#EFF7F9"/>
<path d="M44.8369 69.8205L43.8719 68.8555L43.4829 70.9405L43.9619 70.8695L44.8369 69.8205Z" fill="white"/>
<path d="M35.4971 65.3018L38.2791 71.7098L40.3521 71.4038L42.6981 71.0568L35.4971 65.3018Z" fill="#98A4B1"/>
<path d="M35.4971 65.3018L30.8521 70.6948L30.6521 72.0678L31.7231 72.6798L31.8791 72.6568L33.4081 72.4308L38.2821 71.7098L35.4971 65.3018Z" fill="#E1EBF0"/>
<path d="M39.6911 64.6744L39.4701 64.4535L36.9561 61.9395L35.4961 65.3015L42.6961 71.0565L43.2851 70.9695L42.9001 67.8845L39.6911 64.6744Z" fill="#B6C1CE"/>
<path d="M35.497 65.3018L31.479 66.4488L31.153 68.6558L30.853 70.6948L35.497 65.3018Z" fill="#E5EDF0"/>
<path d="M35.497 65.302L36.957 61.94L32.765 57.749L32.177 61.732L35.497 65.302Z" fill="#75746B"/>
<path d="M31.479 66.4484L35.497 65.3014L32.176 61.7314L31.734 64.7314L31.479 66.4484Z" fill="#F0F7FB"/>
<path d="M28.975 50.5381L27.04 51.3781L27.709 52.1221L28.975 50.5381Z" fill="#98A4B1"/>
<path d="M28.9749 50.538L23.6109 45.918L23.4679 46.077L22.8679 46.74L25.1819 49.315L27.0429 51.378L28.9749 50.538Z" fill="#E1EBF0"/>
<path d="M32.281 57.2095L32.765 57.7475V57.1475L32.281 57.2095Z" fill="#75746B"/>
<path d="M32.765 57.1491V52.1841L28.975 50.5381L27.709 52.1221L28.593 53.1061L32.243 57.1671L32.282 57.2101L32.765 57.1491Z" fill="#B6C1CE"/>
<path d="M28.9751 50.538L26.6811 42.502L23.6111 45.918L28.9751 50.538Z" fill="#E5EDF0"/>
<path d="M32.7651 47.0127L28.9751 50.5377L32.7651 52.1837V47.0127Z" fill="#75746B"/>
<path d="M28.9749 50.5375L32.7649 47.0125V39.1855L29.5159 39.3485L29.1099 39.8005L26.6809 42.5005L28.9749 50.5375Z" fill="#F0F7FB"/>
<path d="M32.7651 37.1491V37.1211L30.9541 37.7511L29.5161 39.3491L32.7651 39.1891V37.1491Z" fill="#304350"/>
<path d="M32.7651 37.1155V35.7305L30.9541 37.7485L32.7651 37.1155Z" fill="#EFF7F9"/>
<path d="M13.01 53.8175L13.351 53.5725L14.051 53.0725L14.586 52.6885L15.145 50.7285L10.26 51.9385V55.7935L10.943 61.0485L13.01 53.8175Z" fill="#444950"/>
<path d="M12.8041 71.9991L13.8431 69.3911L15.5551 65.0911L15.8931 64.2451L11.3931 64.4311L12.4931 72.7861L12.8041 71.9991Z" fill="#7A8694"/>
<path d="M15.8939 64.2491L17.3089 60.7001L18.9779 56.5111L19.0999 56.2051L11.2429 63.3281L11.3879 64.4341L15.8939 64.2491Z" fill="#EFF7F9"/>
<path d="M19.1001 56.2034L18.9781 56.5094L28.5191 56.4094L21.7131 49.6484L21.6671 49.7634L19.2761 55.7634L13.3511 53.5744L13.0101 53.8194L10.9431 61.0484L11.2431 63.3294L19.1001 56.2034Z" fill="white"/>
<path d="M14.043 53.0737L13.343 53.5737L19.268 55.7627L21.659 49.7627L14.043 53.0737Z" fill="#98A4B1"/>
<path d="M22.096 48.6869L22.872 46.7399L20.688 45.1719L19.004 43.9639L15.143 50.7299L20.643 48.3429L16.579 51.2599L14.586 52.6899L14.051 53.0739L21.671 49.7649L21.717 49.6499L22.096 48.6869Z" fill="#E1EBF0"/>
<path d="M36.432 82.4238L36.125 88.6958L38.539 87.7328L40.672 86.8828L36.432 82.4238Z" fill="#808890"/>
<path d="M33.2491 89.8419L36.1251 88.6949L36.4331 82.4229L30.5891 88.1899V88.7219L30.5971 90.7889V90.8979L31.1591 90.9719L31.0921 90.7009L33.2491 89.8419Z" fill="#475875"/>
<path d="M30.5671 82.3438L30.5891 88.1908L36.4321 82.4237L30.5671 82.3438Z" fill="white"/>
<path d="M54.5221 78.6045L53.5971 77.7725L51.0291 82.7545L51.8811 82.4145L54.2961 81.4525L56.6481 80.5145L54.5221 78.6045Z" fill="white"/>
<path d="M43.543 77.8857L44.431 85.3857L47.053 84.3407L47.798 84.0407L43.543 77.8857Z" fill="#98A4B1"/>
<path d="M43.5601 85.7318L44.3761 85.4068L44.4311 85.3848L43.5431 77.8848L36.4321 82.4228L40.6721 86.8818L41.7321 86.4598L43.5601 85.7318Z" fill="#E1EBF0"/>
<path d="M53.596 77.7728L53.123 77.3488L51.075 75.5098L49.761 83.2618L51.028 82.7618L53.596 77.7728Z" fill="#75746B"/>
<path d="M51.075 75.5075L47.935 72.6855L43.543 77.8856L47.798 84.0425L49.761 83.2596L51.075 75.5075Z" fill="#B6C1CE"/>
<path d="M43.543 77.8855L32.095 77.7295L36.433 82.4235L43.543 77.8855Z" fill="#E5EDF0"/>
<path d="M32.094 77.7301L30.553 78.7131V78.8781L26.724 76.6631L24.644 78.7431L26.144 87.6011L30.56 81.6821V82.3441L36.425 82.4241L32.094 77.7301Z" fill="#EFF7F9"/>
<path d="M47.9351 72.6857L47.8481 72.6077L45.9321 70.8857L45.6391 70.6227L43.9621 70.8697L43.4841 70.9407L43.8721 68.8557L42.9021 67.8857L43.2861 70.9697L42.6981 71.0567L40.3521 71.4037L43.5431 77.8857L47.9351 72.6857Z" fill="#75746B"/>
<path d="M40.352 71.4033L38.279 71.7093L33.404 72.4303L32.094 77.7303L43.543 77.8863L40.352 71.4033Z" fill="#F0F7FB"/>
<path d="M30.543 76.3984L30.552 78.7124L32.092 77.7294L30.543 76.3984Z" fill="white"/>
<path d="M33.405 72.4307L31.876 72.6567L32.095 77.7297L33.405 72.4307Z" fill="#304350"/>
<path d="M31.876 72.6562L31.72 72.6793L30.532 72.8553L30.543 76.3983L32.092 77.7292L31.876 72.6562Z" fill="#EFF7F9"/>
<path d="M12.489 72.7881L14.572 72.7961L12.804 71.9961L12.489 72.7881Z" fill="#E5EDF0"/>
<path d="M20.821 72.8189H21.274L21.354 63.1289L13.843 69.3899L12.803 71.9979L14.571 72.7979L18.187 72.8109L20.821 72.8189Z" fill="#F3F6F1"/>
<path d="M21.354 63.1309L15.554 65.0939L13.843 69.3909L21.354 63.1309Z" fill="#E7F0F4"/>
<path d="M29.3051 72.8489L28.4141 69.0869L24.4221 72.8309L27.0151 72.8409L29.3051 72.8489Z" fill="#444950"/>
<path d="M28.4149 69.0879L21.3549 63.1309L21.2749 72.8209L24.4229 72.8319L28.4149 69.0879Z" fill="#EFF7F9"/>
<path d="M21.3539 63.1303L17.3079 60.6973L15.8929 64.2483L15.5559 65.0943L21.3539 63.1303Z" fill="#A3B1BC"/>
<path d="M21.354 63.1302L28.414 69.0872L28.514 56.4102L21.354 63.1302Z" fill="#808890"/>
<path d="M21.3541 63.1302L28.5181 56.4102L18.9781 56.5102L17.3081 60.6982L21.3541 63.1302Z" fill="#475875"/>
<path d="M29.3049 72.8483L30.5319 72.8533L30.6479 72.0653L30.8479 70.6933L31.1479 68.6533L28.4099 69.0863L29.3049 72.8483Z" fill="white"/>
<path d="M31.153 68.6556L31.479 66.4486L31.734 64.7266L28.415 69.0886L31.153 68.6556Z" fill="#98A4B1"/>
<path d="M28.415 69.0872L31.734 64.7262L32.177 61.7312L32.766 57.7472L32.282 57.2092L32.243 57.1662L28.519 56.4102L28.415 69.0872Z" fill="#E1EBF0"/>
<path d="M32.243 57.1665L28.593 53.1045L28.519 56.4105L32.243 57.1665Z" fill="#E5EDF0"/>
<path d="M28.5931 53.1045L27.7101 52.1215L27.0411 51.3775L25.1871 49.3145L22.0971 48.6865L21.7131 49.6495L28.5191 56.4095L28.5931 53.1045Z" fill="#EFF7F9"/>
<path d="M22.8729 46.7393L22.0969 48.6863L25.1869 49.3143L22.8729 46.7393Z" fill="white"/>
<path d="M11.8931 42.082L10.2561 42.387V44.949L11.8931 42.082Z" fill="#F3F6F1"/>
<path d="M10.2561 42.3862L11.8931 42.0863L10.2561 41.7812V42.3862Z" fill="#E7F0F4"/>
<path d="M15.1431 50.73L11.8931 42.082L10.2561 44.949V51.94L15.1431 50.73Z" fill="#EFF7F9"/>
<path d="M11.8931 42.0818L10.2561 39.2148V41.7768L11.8931 42.0818Z" fill="#A3B1BC"/>
<path d="M19.0051 43.9639L15.3141 41.3149L15.2311 41.2559L11.8931 42.0819L15.1431 50.7309L19.0051 43.9639Z" fill="#808890"/>
<path d="M11.8931 42.0815L15.2311 41.2545L12.9091 39.5885L10.2561 37.6885V39.2185L11.8931 42.0815Z" fill="#475875"/>
<path d="M16.575 51.2595L15.141 50.7295L14.582 52.6895L16.575 51.2595Z" fill="white"/>
<path d="M16.5751 51.2596L20.6431 48.3486L15.1431 50.7346L16.5751 51.2596Z" fill="#98A4B1"/>
<path d="M13.479 31.6094L11.028 31.8094L10.584 35.1864L13.479 31.6094Z" fill="#808890"/>
<path d="M13.4791 31.6095L11.2791 29.8965L11.0271 31.8095L13.4791 31.6095Z" fill="#475875"/>
<path d="M13.479 31.6096L12.336 21.8486L11.28 29.8916L13.479 31.6096Z" fill="white"/>
<path d="M18.9019 38.0703L12.9089 39.5883L15.2309 41.2553L15.3139 41.3143L18.9019 38.0703Z" fill="#98A4B1"/>
<path d="M12.909 39.5884L18.902 38.0704L13.479 31.6094L10.579 35.1864L10.251 37.6864L12.909 39.5884Z" fill="#E1EBF0"/>
<path d="M15.313 41.3143L19.004 43.9633L20.688 45.1713L22.271 45.2313L22.649 46.1783L23.468 46.0783L23.611 45.9193L26.68 42.5033L29.11 39.8033L26.41 38.6323L21.89 44.2883L20.643 41.1343L19.599 38.5153L18.906 38.0703L15.313 41.3143Z" fill="#B6C1CE"/>
<path d="M18.687 36.2409L18.504 35.7809L17.676 33.7039L16.726 31.3209L15.753 28.8799L13.479 31.6099L18.901 38.0709L18.687 36.2409Z" fill="#E5EDF0"/>
<path d="M13.4789 31.6093L15.7529 28.8793L13.3199 22.7793L12.4889 20.6953L12.3359 21.8483L13.4789 31.6093Z" fill="#EFF7F9"/>
<path d="M18.9021 38.0708L19.5951 38.5158L19.3101 37.7998L18.9021 38.0708Z" fill="#75746B"/>
<path d="M18.902 38.0703L19.31 37.7993L18.688 36.2393L18.902 38.0703Z" fill="#F0F7FB"/>
<path d="M26.5081 20.6388L30.5321 20.6237L28.3771 18.4688L26.5081 20.6388Z" fill="#E1EBF0"/>
<path d="M19.887 20.6634L26.369 20.6394H26.508L28.377 18.4694L28.031 18.1244L27.431 17.5244L18.759 20.0004L19.887 20.6634Z" fill="#E5EDF0"/>
<path d="M18.179 20.6699H18.997H19.887L18.759 20.0039L18.179 20.6699Z" fill="#EFF7F9"/>
<path d="M18.7581 19.998L27.4301 17.522L27.2611 17.349L25.4431 15.538L19.1991 9.29199L18.2991 10.813L18.7581 19.998Z" fill="#F0F7FB"/>
<path d="M14.267 20.6845L16.879 22.1125L17.198 20.6735H18.179L18.758 20.0015L14.112 17.9375L12.489 20.6955L14.267 20.6845Z" fill="white"/>
<path d="M18.7581 19.9975L18.3041 10.8125L16.5811 13.7395L18.7581 19.9975Z" fill="#304350"/>
<path d="M18.7581 19.9973L16.5811 13.7393L14.1121 17.9333L18.7581 19.9973Z" fill="#EFF7F9"/>
<path d="M55.824 12.6366L56.648 12.9656L56.148 12.2656L55.824 12.6366Z" fill="#E1EBF0"/>
<path d="M52.928 11.4829L55.176 12.3829L55.824 12.6409L56.144 12.2689L56.644 12.9689L58.044 11.0219L58.306 10.6569L56.643 9.67285L55.355 11.1729L54.806 10.4089L52.134 11.1709L52.928 11.4829Z" fill="#E5EDF0"/>
<path d="M47.5931 0.348633L47.1021 0.413633L47.5431 9.33463L47.5961 9.35663L52.1371 11.1666L54.8091 10.4036L52.6431 7.38663L48.8931 2.16163L47.5931 0.348633Z" fill="#F0F7FB"/>
<path d="M43.6689 0.864086L46.4689 8.90709L47.5439 9.33609L47.1019 0.413086L43.6689 0.864086Z" fill="#304350"/>
<path d="M35.1379 4.39028L39.7739 6.23828L46.4689 8.90728L43.6699 0.863281L37.6149 1.66328L35.1379 4.39028Z" fill="#EFF7F9"/>
<path d="M34.4271 4.1062L35.1381 4.3892L37.6151 1.6582L30.5991 2.5802L34.4271 4.1062Z" fill="#C6CED0"/>
<path d="M28.031 18.1234L30.541 18.2634L30.551 15.4424L27.261 17.3484L27.429 17.5164L28.031 18.1234Z" fill="#EFF7F9"/>
<path d="M25.443 15.5376L27.262 17.3486L30.552 15.4386L30.541 18.2586L28.032 18.1196L28.377 18.4646L30.533 20.6206L30.762 20.6536L31.062 20.6986L35.02 16.1036L30.556 14.1216L30.567 11.1216L24.975 5.89258L23.125 6.98158L25.443 15.5376Z" fill="white"/>
<path d="M25.443 15.5374L23.125 6.98145L19.2 9.29145L25.443 15.5374Z" fill="#B6C1CE"/>
<path d="M30.5681 11.122L30.5571 14.122L35.0211 16.105L30.5961 3.39403V2.58203L24.9751 5.89303L30.5681 11.122Z" fill="#EFF7F9"/>
<path d="M41.231 22.2055L41.42 22.2335L45.639 22.8575L46.039 22.5015L40.53 19.3555L41.231 22.2055Z" fill="#808890"/>
<path d="M39.136 21.8955L41.23 22.2055L40.524 19.3555L39.136 21.8955Z" fill="#475875"/>
<path d="M38.7749 21.8425L39.1359 21.8955L40.5249 19.3555L34.1899 21.1645L34.6109 21.2265L38.7749 21.8425Z" fill="white"/>
<path d="M54.749 14.6709L56.649 12.9649L55.826 12.6369L55.178 12.3789L54.749 14.6709Z" fill="white"/>
<path d="M49.01 19.8278L51.525 17.5678L51.65 17.4558L46.03 12.9648L49.01 19.8278Z" fill="#98A4B1"/>
<path d="M46.0341 22.5018L46.8481 21.7698L49.0101 19.8278L46.0291 12.9648L40.5291 19.3558L46.0341 22.5018Z" fill="#E1EBF0"/>
<path d="M54.749 14.6705L55.176 12.3785L52.928 11.4785L53.469 15.8175L54.749 14.6705Z" fill="#75746B"/>
<path d="M46.03 12.9644L51.65 17.4554L52.714 16.4994L53.469 15.8204L52.929 11.4824L52.138 11.1664L47.597 9.35645L46.03 12.9644Z" fill="#B6C1CE"/>
<path d="M40.5251 19.3558L46.0251 12.9648L35.0151 16.1078L40.5251 19.3558Z" fill="#182631"/>
<path d="M46.0299 12.9643L47.5969 9.35628L47.5429 9.33528L46.4689 8.90628L39.7739 6.23828L46.0299 12.9643Z" fill="#75746B"/>
<path d="M46.03 12.9644L39.774 6.23845L35.138 4.38945L34.427 4.10645L35.02 16.1064L46.03 12.9644Z" fill="#F0F7FB"/>
<path d="M30.5959 3.39403L35.0199 16.109L34.4269 4.10903L30.5989 2.58203L30.5959 3.39403Z" fill="#304350"/>
<path d="M43.7531 24.7424L45.6431 22.8564L41.4231 22.2334L43.7531 24.7424Z" fill="#75746B"/>
<path d="M43.7529 24.7428L41.4189 22.2338L41.2309 22.2058L39.1359 21.8958L38.7749 21.8428L39.1429 29.3488L43.7529 24.7428Z" fill="#F0F7FB"/>
<path d="M32.3741 33.0824L32.7651 35.7304L35.1081 33.3884L35.2701 33.2264L32.1931 31.8594L32.3741 33.0824Z" fill="white"/>
<path d="M38.8909 29.6046L39.1429 29.3486L38.7719 21.8416L34.6079 21.2256L37.8749 30.6166L38.8909 29.6046Z" fill="#304350"/>
<path d="M30.551 20.7482L30.833 22.6582L32.427 20.9012L31.063 20.7012L30.763 20.6572L30.551 20.7482Z" fill="#C6CED0"/>
<path d="M30.551 20.7491L30.762 20.6551L30.532 20.6211L30.551 20.7491Z" fill="#9DABB9"/>
<path d="M20.022 33.1221L17.676 33.7031L18.504 35.7801L20.022 33.1221Z" fill="#808890"/>
<path d="M20.0219 33.1213L16.7219 31.3213L17.6719 33.7043L20.0219 33.1213Z" fill="#475875"/>
<path d="M16.726 31.3204L20.026 33.1204L16.882 22.1104L13.324 22.7734L15.757 28.8734L16.726 31.3204Z" fill="white"/>
<path d="M13.32 22.7746L16.879 22.1116L14.267 20.6846L12.489 20.6906L13.32 22.7746Z" fill="#A3B1BC"/>
<path d="M20.6431 41.134L21.8981 44.282L26.4181 38.626L20.6431 41.134Z" fill="#98A4B1"/>
<path d="M20.0219 33.1221L18.5039 35.7801L18.6869 36.2401L19.3089 37.8001L19.5939 38.5161L20.6379 41.1341L26.4129 38.6271L20.0219 33.1221Z" fill="#E1EBF0"/>
<path d="M23.468 46.0769L22.649 46.1769L22.271 45.2299L20.688 45.1699L22.872 46.7379L23.468 46.0769Z" fill="#75746B"/>
<path d="M23.27 27.6162L20.022 33.1212L26.413 38.6212L23.27 27.6162Z" fill="#E5EDF0"/>
<path d="M20.0219 33.1221L23.2699 27.6221L16.8789 22.1221L20.0219 33.1221Z" fill="#EFF7F9"/>
<path d="M29.5161 39.349L30.9541 37.749L32.7651 35.733L32.3741 33.085L26.4131 38.627L29.1131 39.798L29.5161 39.349Z" fill="#75746B"/>
<path d="M32.374 33.083L32.193 31.86L31.506 27.21L23.27 27.617L26.413 38.627L32.374 33.083Z" fill="#F0F7FB"/>
<path d="M23.2701 27.6166L26.3701 20.6396L19.8881 20.6636H18.9981L16.8801 22.1086L23.2701 27.6166Z" fill="white"/>
<path d="M18.9969 20.667H18.1789H17.1979L16.8779 22.105L18.9969 20.667Z" fill="#B6C1CE"/>
<path d="M31.506 27.2101L31.16 24.8721L23.27 27.6171L31.506 27.2101Z" fill="#304350"/>
<path d="M26.508 20.6384H26.369L23.269 27.6164L31.159 24.8714L31.505 27.2094L32.192 31.8594L35.269 33.2254L37.877 30.6164L34.61 21.2264L34.189 21.1644L40.524 19.3554L35.019 16.1074L31.063 20.7014L32.427 20.9014L30.833 22.6604L30.551 20.7504L30.532 20.6234L26.508 20.6384Z" fill="#EFF7F9"/>
<mask id="mask4_1_3597" style="mask-type:luminance" maskUnits="userSpaceOnUse" x="0" y="0" width="113" height="111">
<path d="M112.452 0.348633H0.843018V110.744H112.452V0.348633Z" fill="white"/>
</mask>
<g mask="url(#mask4_1_3597)">
<g style="mix-blend-mode:screen">
<mask id="mask5_1_3597" style="mask-type:luminance" maskUnits="userSpaceOnUse" x="32" y="22" width="49" height="49">
<path d="M80.5301 22.8574H32.7651V70.6224H80.5301V22.8574Z" fill="white"/>
</mask>
<g mask="url(#mask5_1_3597)">
<mask id="mask6_1_3597" style="mask-type:luminance" maskUnits="userSpaceOnUse" x="32" y="22" width="49" height="49">
<path d="M80.5301 35.7304V57.7484L67.6561 70.6214H45.6431L32.7651 57.7484V35.7304L45.6431 22.8564H67.6561L80.5301 35.7304Z" fill="white"/>
</mask>
<g mask="url(#mask6_1_3597)">
<path d="M43.9734 2.6151L12.5229 59.4141L69.3219 90.8646L100.772 34.0656L43.9734 2.6151Z" fill="url(#paint1_linear_1_3597)"/>
</g>
</g>
</g>
</g>
</g>
<defs>
<radialGradient id="paint0_radial_1_3597" cx="0" cy="0" r="1" gradientUnits="userSpaceOnUse" gradientTransform="translate(10.9436 89.9043) scale(55.816 10.0986)">
<stop stop-color="#F9FAFB"/>
<stop offset="0.147" stop-color="#DEE5EC"/>
<stop offset="0.247" stop-color="#D2DCE6"/>
<stop offset="0.268" stop-color="#D4DDE7"/>
<stop offset="0.527" stop-color="#EBF0F4"/>
<stop offset="0.768" stop-color="#FAFBFC"/>
<stop offset="0.973" stop-color="white"/>
<stop offset="1" stop-color="white"/>
</radialGradient>
<linearGradient id="paint1_linear_1_3597" x1="85.604" y1="126.597" x2="86.1072" y2="125.688" gradientUnits="userSpaceOnUse">
<stop stop-color="white"/>
<stop offset="1" stop-color="#231F20"/>
</linearGradient>
</defs>
</svg>
