<svg width="113" height="128" viewBox="0 0 113 128" fill="none" xmlns="http://www.w3.org/2000/svg">
<mask id="mask0_1_4592" style="mask-type:luminance" maskUnits="userSpaceOnUse" x="0" y="0" width="113" height="128">
<path d="M112.452 0.349609H0.843018V127.745H112.452V0.349609Z" fill="white"/>
</mask>
<g mask="url(#mask0_1_4592)">
<mask id="mask1_1_4592" style="mask-type:luminance" maskUnits="userSpaceOnUse" x="0" y="0" width="113" height="128">
<path d="M112.452 0.349609H0.843018V127.745H112.452V0.349609Z" fill="white"/>
</mask>
<g mask="url(#mask1_1_4592)">
<g style="mix-blend-mode:multiply">
<mask id="mask2_1_4592" style="mask-type:luminance" maskUnits="userSpaceOnUse" x="0" y="107" width="113" height="21">
<path d="M112.452 107.552H0.843018V127.745H112.452V107.552Z" fill="white"/>
</mask>
<g mask="url(#mask2_1_4592)">
<mask id="mask3_1_4592" style="mask-type:luminance" maskUnits="userSpaceOnUse" x="0" y="107" width="113" height="21">
<path d="M112.452 117.65C112.452 123.226 87.467 127.75 56.652 127.75C25.837 127.75 0.843018 123.225 0.843018 117.65C0.843018 112.075 25.827 107.55 56.648 107.55C87.469 107.55 112.448 112.071 112.448 117.65" fill="white"/>
</mask>
<g mask="url(#mask3_1_4592)">
<path d="M112.452 107.552H0.843018V127.745H112.452V107.552Z" fill="url(#paint0_radial_1_4592)"/>
</g>
</g>
</g>
</g>
<path d="M37.0281 0.349609L40.5431 5.46661L46.0141 0.349609H37.0281Z" fill="#EFF7F9"/>
<path d="M38.743 6.56927L40.543 5.46927L37.969 4.69727L37.978 4.71927L38.743 6.56927Z" fill="#98A4B1"/>
<path d="M46.013 0.349609L40.543 5.46661L51.843 2.43561L51.074 0.349609H46.013Z" fill="#CBD5DC"/>
<path d="M51.074 0.349609L51.843 2.43561L54.667 0.349609H51.074Z" fill="#E5EDF0"/>
<path d="M38.7429 6.5698L38.8989 6.9468H42.6829L40.5429 5.4668L38.7429 6.5698Z" fill="#474A52"/>
<path d="M42.683 6.94952H45.743L51.843 2.43652L40.543 5.46652L42.683 6.94952Z" fill="#E1E6E5"/>
<path d="M54.667 0.349609L51.843 2.43561L59.743 6.94961H55.016L49.989 8.77261L64.122 12.7396L61.927 6.94961H61.309L60.08 0.349609H54.667Z" fill="#F3F6F1"/>
<path d="M60.0801 0.349609L61.3091 6.94961H61.6811L62.9101 0.349609H60.0801Z" fill="#E7F0F4"/>
<path d="M45.7429 6.94952H52.9629L51.8429 2.43652L45.7429 6.94952Z" fill="#444950"/>
<path d="M52.962 6.94952H59.743L51.843 2.43652L52.962 6.94952Z" fill="#EFF7F9"/>
<path d="M62.9111 0.349609L61.6821 6.94961H63.2431L71.1431 2.43961L68.3241 0.349609H62.9111Z" fill="#A3B1BC"/>
<path d="M68.323 0.349609L71.143 2.43561L73.968 0.349609H68.323Z" fill="#4A4D53"/>
<path d="M66.3169 6.94952H68.6799L71.1429 2.43652L63.2429 6.94952H66.3169Z" fill="#475875"/>
<path d="M73.9681 0.349609L71.1431 2.43561L76.9431 0.778609L77.1271 0.349609H73.9681Z" fill="#E1EBF0"/>
<path d="M68.6799 6.94952H71.9859L71.1429 2.43652L68.6799 6.94952Z" fill="white"/>
<path d="M77.127 0.349609L76.95 0.778609L74.396 6.94961L74.769 7.32261L76.157 8.71061L80.466 7.47961L79.599 2.82561L77.127 0.349609Z" fill="white"/>
<path d="M80.4661 7.47627L81.8051 5.02727L79.5991 2.82227L80.4661 7.47627Z" fill="#A3B1BC"/>
<path d="M80.4661 7.47634L85.3351 8.55734L81.8051 5.02734L80.4661 7.47634Z" fill="white"/>
<path d="M77.317 9.86656L77.903 10.4526L80.467 7.47656L76.157 8.70656L77.317 9.86656Z" fill="#EFF7F9"/>
<path d="M77.9031 10.4496L82.1941 14.7406L83.7641 16.3106L84.4351 16.9816L88.0471 18.5816L80.4671 7.47656L77.9031 10.4496Z" fill="white"/>
<path d="M80.4661 7.47656L88.0431 18.5896L90.7221 13.9496L85.3351 8.55756L80.4661 7.47656Z" fill="#B6C1CE"/>
<path d="M84.4351 16.9844L86.4351 18.9844L87.0901 19.6394L88.0451 18.5864L84.4351 16.9844Z" fill="#EFF7F9"/>
<path d="M88.043 18.5892L93.743 16.9632L90.726 13.9492L88.043 18.5892Z" fill="#E1EBF0"/>
<path d="M87.092 19.6419L87.149 19.6989L88.782 19.0229L88.047 18.5889L87.092 19.6419Z" fill="#C6CED0"/>
<path d="M88.043 18.5899L88.778 19.0239L93.743 16.9689L93.738 16.9639L88.043 18.5899Z" fill="#D1DADF"/>
<path d="M88.7819 19.0228L87.1489 19.6988V24.0308L93.7489 19.4408V16.9678L88.7819 19.0228Z" fill="#F0F7FB"/>
<path d="M87.1489 24.0314V24.7994L93.7489 24.1114V19.4404L87.1489 24.0314Z" fill="#304350"/>
<path d="M87.1489 24.7994V27.8324L91.3599 37.2214L93.7429 26.1964V24.1104L87.1489 24.7994Z" fill="#EFF7F9"/>
<path d="M91.3601 37.2223L93.7431 38.9753V26.1973L91.3601 37.2223Z" fill="#7A8694"/>
<path d="M87.1489 33.432L91.3599 37.222L87.1489 27.832V33.432Z" fill="#DEE6E8"/>
<path d="M91.3599 37.2226L87.1489 33.4326V42.4146L84.1699 48.2936L87.1489 50.6886V48.9336L93.7489 46.0116V38.9756L91.3599 37.2226Z" fill="white"/>
<path d="M87.1489 48.9337V49.3737L93.7489 48.6847V46.0117L87.1489 48.9337Z" fill="#E3D6C0"/>
<path d="M87.1489 49.3736V52.4056L91.3599 61.7956L93.7429 50.7706V48.6846L87.1489 49.3736Z" fill="#444950"/>
<path d="M91.3601 61.7955L93.7431 66.9425V50.7705L91.3601 61.7955Z" fill="white"/>
<path d="M87.1489 58.1383L91.3599 61.7962L87.1489 52.4062V58.1383Z" fill="#C6CED0"/>
<path d="M91.3599 61.7959L87.1489 71.1859V73.1279L93.7489 68.2789V66.9429L91.3599 61.7959Z" fill="#E7F0F4"/>
<path d="M87.1489 73.1273V73.9492L93.7489 73.2613V68.2812L87.1489 73.1273Z" fill="#D1DADF"/>
<path d="M87.1489 58.1387V64.1247L91.3599 61.7967L87.1489 58.1387Z" fill="#EFF7F9"/>
<path d="M87.1489 64.1239V71.1859L91.3599 61.7959L87.1489 64.1239Z" fill="#525A66"/>
<path d="M87.1489 73.9498V76.9818L91.3599 86.3718L93.7429 75.3438V73.2578L87.1489 73.9498Z" fill="#F0F7FB"/>
<path d="M91.3601 86.3697L93.7451 87.1217V75.3447L91.3601 86.3697Z" fill="#9DABB9"/>
<path d="M87.1489 82.7115L91.3599 86.3695L87.1489 76.9795V82.7115Z" fill="#444950"/>
<path d="M91.36 86.3691L88.614 90.7431L92.06 92.1701L92.325 92.2791L93.743 91.6491V87.1211L91.36 86.3691Z" fill="#525A66"/>
<path d="M92.325 92.2794L93.7459 92.8674V91.6494L92.325 92.2794Z" fill="#EFF7F9"/>
<path d="M87.1489 82.7119V86.0389L91.3599 86.3699L87.1489 82.7119Z" fill="#475875"/>
<path d="M87.1489 86.0391V90.1391L88.3419 90.6331L88.6139 90.7461L91.3599 86.3721L87.1489 86.0391Z" fill="#9DABB9"/>
<path d="M78.7431 98.5498L78.7241 98.5688L77.9831 99.3098L77.5161 99.7768L80.7811 100.709L78.7431 98.5498Z" fill="#E1EBF0"/>
<path d="M80.6129 96.6738L80.4129 96.8738L78.7429 98.5498L80.7809 100.709L80.6129 96.6738Z" fill="#7A8694"/>
<path d="M77.514 99.7725L74.397 102.889L74.553 103.266L75.32 105.119L80.779 100.704L77.514 99.7725Z" fill="#C2CBD4"/>
<path d="M86.33 90.957L86.296 90.991L85.078 92.209L80.613 96.674L80.779 100.705L87.679 92.439L86.33 90.957Z" fill="#EFF7F9"/>
<path d="M87.1491 90.1367L86.3301 90.9557L87.6741 92.4387L88.3421 90.6307L87.1491 90.1367Z" fill="white"/>
<path d="M80.7791 100.705L75.3191 105.12L75.3291 105.141L76.1011 107.006L81.6101 105.006L84.0101 102.606L80.7791 100.705Z" fill="#EFF7F9"/>
<path d="M87.6739 92.4385L80.7739 100.704L83.9999 102.604L86.1809 100.423L87.6739 92.4385Z" fill="white"/>
<path d="M92.0601 92.1699L88.6141 90.7439L88.3421 90.6309L87.6741 92.4389L91.2871 95.3259L92.7821 93.8319L92.0601 92.1699Z" fill="#98A4B1"/>
<path d="M92.3251 92.2799L92.0601 92.1699L92.7821 93.8319L93.7461 92.8679L92.3251 92.2799Z" fill="#E1EBF0"/>
<path d="M87.674 92.4385L86.186 100.427L88.394 98.2195L87.674 92.4385Z" fill="#75746B"/>
<path d="M87.6741 92.4385L88.3941 98.2195L91.2871 95.3255L87.6741 92.4385Z" fill="#B6C1CE"/>
<path d="M76.0999 107.005L75.3279 105.14L72.7539 104.369L76.2669 109.485H77.1269L81.6089 105.003L76.0999 107.005Z" fill="#7A8694"/>
<path d="M39.4189 8.20322L42.1549 6.94922H38.8989L39.4189 8.20322Z" fill="#EFF7F9"/>
<path d="M48.6159 6.94922H42.1549L39.4189 8.20422L39.5099 8.42222L40.1889 10.0642L49.9889 8.77222L48.6159 6.94922Z" fill="#CBD5DC"/>
<path d="M52.962 6.94922H48.616L49.989 8.77522L55.016 6.94922H52.962Z" fill="#E5EDF0"/>
<path d="M40.189 10.0635L41.005 12.0355L49.989 8.77148L40.189 10.0635Z" fill="#E1E6E5"/>
<path d="M66.317 6.94922H61.926L64.126 12.7422L66.317 6.94922Z" fill="#E7F0F4"/>
<path d="M41.0051 12.0355L41.0241 12.0805L41.4741 13.1685L44.1381 13.5425H52.3921L49.9921 8.77246L41.0051 12.0355Z" fill="#444950"/>
<path d="M52.392 13.5425H59.772L64.122 12.7425L49.989 8.77246L52.392 13.5425Z" fill="#182631"/>
<path d="M73.0341 10.2373L74.2431 7.31432L73.2291 6.94932H74.3971L76.9501 0.77832L71.1431 2.43532L71.9831 6.94532H66.3171L64.1221 12.7393L73.0341 10.2373Z" fill="#A3B1BC"/>
<path d="M73.228 6.94922L74.243 7.31822L74.271 7.25122L74.396 6.95122L73.228 6.94922Z" fill="#4A4D53"/>
<path d="M59.772 13.5422H55.396L63.02 14.7782L61.943 13.5422H64.528L64.128 12.7422L59.772 13.5422Z" fill="#808890"/>
<path d="M43.622 13.5429L47.68 14.8129L49.333 13.5429H44.143L41.478 13.1689L41.633 13.5429H43.622Z" fill="white"/>
<path d="M86.4121 20.0042L87.1481 20.4582V19.6982L86.4121 20.0042Z" fill="#DEE6E8"/>
<path d="M86.4119 20.0049L85.2119 20.5049L87.1439 22.6109V20.4589L86.4119 20.0049Z" fill="#EFF7F9"/>
<path d="M84.2241 63.1714L87.1491 61.5954V52.0244L84.2241 63.1714Z" fill="#808890"/>
<path d="M87.1491 66.6497V61.5957L84.2241 63.1727L87.1491 66.6497Z" fill="#475875"/>
<path d="M87.1491 66.6499L84.2241 63.1709L85.8311 75.4209L87.1491 74.8869V66.6499Z" fill="white"/>
<path d="M85.8311 75.4226L87.1491 76.9896V74.8896L85.8311 75.4226Z" fill="#A3B1BC"/>
<path d="M84.4431 89.0179L85.3511 89.3939L86.3701 89.8159L87.1481 89.3239V76.9909L85.8301 75.4229L84.4431 89.0179Z" fill="white"/>
<path d="M86.3711 89.8142L86.3941 89.8242L87.1051 90.1182L87.1491 90.1362V89.3232L86.3711 89.8142Z" fill="#EFF7F9"/>
<path d="M85.2171 20.502L81.8891 21.885L80.9561 27.285L87.1491 23.113V22.602L85.2171 20.502Z" fill="white"/>
<path d="M80.552 26.103L80.952 27.291L80.552 24.876V26.103Z" fill="#DEE6E8"/>
<path d="M80.9559 27.2893L80.5559 30.3633V37.0633L87.1559 23.5123V23.1123L80.9559 27.2893Z" fill="#E1EBF0"/>
<path d="M80.553 37.0676V39.4326L87.153 38.8406V23.5176L80.553 37.0676Z" fill="#7A8694"/>
<path d="M80.552 27.2355L80.952 27.2905L80.552 26.1025V27.2355Z" fill="#C6CED0"/>
<path d="M80.552 30.3634L80.952 27.2894L80.552 27.2354V30.3634Z" fill="#C2CBD4"/>
<path d="M80.553 39.4328V41.7268L84.171 48.2938L87.149 42.4148V38.8408L80.553 39.4328Z" fill="#EFF7F9"/>
<path d="M80.553 41.7256V46.8256L84.171 48.2916L80.553 41.7256Z" fill="white"/>
<path d="M80.9561 57.05L87.1491 51.198V50.692L84.1711 48.292L80.9561 57.05Z" fill="#98A4B1"/>
<path d="M80.9561 57.0493L84.2241 63.1743L87.1491 52.0283V51.1973L80.9561 57.0493Z" fill="#E1EBF0"/>
<path d="M80.553 46.8262V49.2732L84.171 48.2922L80.553 46.8262Z" fill="#75746B"/>
<path d="M80.553 49.2739V56.6659L80.953 57.0469L84.168 48.2939L80.553 49.2739Z" fill="#B6C1CE"/>
<path d="M82.5631 69.2978L84.2241 63.1728L80.9561 57.0498L82.5631 69.2978Z" fill="#E5EDF0"/>
<path d="M82.563 69.2978L85.831 75.4228L84.224 63.1729L82.563 69.2978Z" fill="#EFF7F9"/>
<path d="M80.552 57.476V57.863L80.952 57.048L80.552 56.666V57.476Z" fill="#75746B"/>
<path d="M80.553 57.8628V69.5138L82.564 69.2968L80.956 57.0498L80.553 57.8628Z" fill="#F0F7FB"/>
<path d="M82.5629 69.2979L80.5519 79.1499V80.5879L77.5519 76.0879L76.7629 85.8389L77.5629 86.1719L77.9039 86.3129L78.0499 86.3739L80.5499 87.4089V83.2589L85.8289 75.4229L82.5629 69.2979Z" fill="white"/>
<path d="M80.553 83.259V86.559L81.56 87.824L80.553 87.407L79.977 87.983L79.377 88.583L80.41 96.877L80.61 96.677L85.075 92.212L85.823 90.488L83.503 88.628L84.444 89.018L85.832 75.418L80.553 83.259Z" fill="#B6C1CE"/>
<path d="M80.553 70.8199L82.564 69.2979L80.553 69.5139V70.8199Z" fill="#304350"/>
<path d="M80.553 70.8198V79.1498L82.564 69.2998L80.553 70.8198Z" fill="#EFF7F9"/>
<path d="M81.559 87.8236L80.552 86.5586V87.4066L81.559 87.8236Z" fill="#E1EBF0"/>
<path d="M76.8611 96.0863L73.7241 94.2354L72.5241 95.4353L71.6641 96.2953L71.8191 96.6693L72.2691 97.7573L76.8611 96.0863Z" fill="#EFF7F9"/>
<path d="M73.7229 94.236L76.8599 96.087L78.0019 89.957L73.7229 94.236Z" fill="white"/>
<path d="M85.352 89.3939L84.444 89.0179L83.502 88.6279L85.826 90.4849L85.352 89.3939Z" fill="#98A4B1"/>
<path d="M86.3941 89.8246L86.37 89.8146L85.3521 89.3936L85.826 90.4846L86.3941 89.8246Z" fill="#E1EBF0"/>
<path d="M79.3801 88.5801L78.2121 89.7501L78.0031 89.9591L76.8611 96.0901L78.7221 98.5671L78.7431 98.5501L80.4151 96.8781L79.3801 88.5801Z" fill="#75746B"/>
<path d="M85.8259 90.4842L87.1049 90.1192L86.3939 89.8242L85.8259 90.4842Z" fill="#E5EDF0"/>
<path d="M85.8259 90.4844L85.0769 92.2084L86.2959 90.9894L85.8259 90.4844Z" fill="#75746B"/>
<path d="M85.8259 90.4843L86.2959 90.9843L86.3289 90.9513L87.1479 90.1323L87.1049 90.1143L85.8259 90.4843Z" fill="#F0F7FB"/>
<path d="M76.861 96.0869L72.271 97.7549L72.29 97.7999L73.106 99.7719L73.786 101.413L76.861 96.0869Z" fill="#7A8694"/>
<path d="M76.8611 96.0869L73.7861 101.413L73.8761 101.632L74.3971 102.89L77.5141 99.7719L77.9811 99.3059L76.8611 96.0869Z" fill="white"/>
<path d="M76.8611 96.0869L77.9811 99.3059L78.7221 98.5639L76.8611 96.0869Z" fill="#E3D6C0"/>
<path d="M61.9431 13.5423L63.0211 14.7783L65.4011 13.5423H71.6671L72.2491 12.1363L72.7271 10.9823L73.0351 10.2373L64.1231 12.7373L64.5281 13.5373L61.9431 13.5423Z" fill="#475875"/>
<path d="M71.436 14.097L71.665 13.543H65.4L63.02 14.779L71.436 14.097Z" fill="white"/>
<path d="M42.8369 16.461L47.6799 14.813L43.6219 13.543H41.6289L42.8369 16.461Z" fill="#EFF7F9"/>
<path d="M43.91 19.0493L44.971 18.9393L43.782 18.7393L43.91 19.0493Z" fill="#EFF7F9"/>
<path d="M42.8369 16.4605L42.9369 16.6965L43.5609 18.2055L43.6469 18.4115L43.7839 18.7425L44.9729 18.9425L47.6819 14.8135L42.8369 16.4605Z" fill="white"/>
<path d="M47.6799 14.813L56.7049 16.861L51.6299 13.543H49.3299L47.6799 14.813Z" fill="#98A4B1"/>
<path d="M56.7051 16.861L63.0201 14.779L55.3951 13.543H51.6311L56.7051 16.861Z" fill="#E1EBF0"/>
<path d="M44.9709 18.9414L48.139 20.1414H50.0169L47.68 14.8154L44.9709 18.9414Z" fill="#75746B"/>
<path d="M50.0169 20.1395H51.6899L56.7049 16.8605L47.6809 14.8135L50.0169 20.1395Z" fill="#B6C1CE"/>
<path d="M56.7051 16.8603L69.3361 15.8363L63.0201 14.7783L56.7051 16.8603Z" fill="#E5EDF0"/>
<path d="M69.335 15.8367L70.935 15.3097L71.435 14.0967L63.019 14.7787L69.335 15.8367Z" fill="#EFF7F9"/>
<path d="M51.6899 20.1394H67.4429L56.7049 16.8604L51.6899 20.1394Z" fill="#75746B"/>
<path d="M67.4431 20.1399H68.9311L69.7401 18.1859L69.3321 15.8369L56.7051 16.8609L67.4431 20.1399Z" fill="#F0F7FB"/>
<path d="M69.3359 15.8366L70.6479 16.0026L70.9339 15.3096L69.3359 15.8366Z" fill="white"/>
<path d="M69.743 18.1849L70.366 16.6789L69.334 15.8369L69.743 18.1849Z" fill="#304350"/>
<path d="M70.3679 16.6789L70.4979 16.3619L70.6479 16.0029L69.3359 15.8369L70.3679 16.6789Z" fill="#EFF7F9"/>
<path d="M43.9099 19.0495L44.0509 19.3925L44.9709 18.9395L43.9099 19.0495Z" fill="#7A8694"/>
<path d="M44.051 19.3945L44.139 19.6075L44.359 20.1395H46.443L44.976 18.9395L44.051 19.3945Z" fill="white"/>
<path d="M46.4431 20.1395H48.1431L44.9751 18.9395L46.4431 20.1395Z" fill="#E3D6C0"/>
<path d="M79.854 22.7288L80.554 31.3508V24.8758L80.954 27.2908L81.887 21.8848L80.55 22.4398L79.854 22.7288Z" fill="#474A52"/>
<path d="M79.0791 46.7165L80.5531 45.7165V32.5625L79.0791 46.7165Z" fill="#444950"/>
<path d="M79.0791 46.7168L80.5531 57.4758V45.7158L79.0791 46.7168Z" fill="#EFF7F9"/>
<path d="M76.021 61.4008L80.553 58.3228V57.4758L79.079 46.7168L76.021 61.4008Z" fill="#808890"/>
<path d="M76.021 61.4003L80.553 68.1923V58.3223L76.021 61.4003Z" fill="#475875"/>
<path d="M76.021 61.4004L77.55 76.0844L80.55 74.5514V68.1924L76.021 61.4004Z" fill="white"/>
<path d="M80.553 74.5498L77.553 76.0838L80.553 80.5838V74.5498Z" fill="#A3B1BC"/>
<path d="M79.854 22.7285L79.303 22.9565L75.132 24.6835L74.532 24.9335L73.96 26.4145V32.7845L80.56 32.0385V31.3495L79.854 22.7285Z" fill="#7A8694"/>
<path d="M73.9561 32.7832V38.9592L75.9701 43.5662L80.5531 32.1662V32.0352L73.9561 32.7832Z" fill="#EFF7F9"/>
<path d="M75.97 43.5669L79.079 46.7169L80.553 32.5619V32.1699L75.97 43.5669Z" fill="white"/>
<path d="M73.9561 39.8329L69.8311 51.5079L73.9561 49.6859V42.5379L75.9701 43.5669L73.9561 38.9609V39.8329Z" fill="white"/>
<path d="M73.9561 50.4755V52.8145L79.0791 46.7145L75.9701 43.5645L73.9561 50.4755Z" fill="#98A4B1"/>
<path d="M73.9561 52.8158V56.5248L76.0211 61.4008L79.0791 46.7168L73.9561 52.8158Z" fill="#E1EBF0"/>
<path d="M73.9561 42.5381V44.2501L75.9701 43.5631L73.9561 42.5381Z" fill="#75746B"/>
<path d="M73.9561 44.2495V50.4715L75.9701 43.5625L73.9561 44.2495Z" fill="#B6C1CE"/>
<path d="M76.0211 61.4004L74.4431 68.7424L77.5521 76.0844L76.0211 61.4004Z" fill="#EFF7F9"/>
<path d="M73.956 64.0867V56.7617L64.606 60.8917L73.956 76.4427V68.8077L74.441 68.7427L73.956 64.0867Z" fill="#F0F7FB"/>
<path d="M74.4431 68.7422L73.9581 71.7352V79.5062H59.3821L70.5731 84.2742L73.9561 81.1862V82.8062L77.5501 76.0842L74.4431 68.7422Z" fill="white"/>
<path d="M73.9561 82.807V84.676L76.7561 85.837L77.5461 76.085L73.9561 82.807Z" fill="#B6C1CE"/>
<path d="M73.9561 68.8091V69.2091L74.4401 68.7461L73.9561 68.8091Z" fill="#304350"/>
<path d="M73.9561 69.2042V71.7342L74.4401 68.7412L73.9561 69.2042Z" fill="#EFF7F9"/>
<path d="M73.956 84.6758L73.468 85.1638L77.757 86.4498L77.564 86.1698L76.764 85.8368L73.956 84.6758Z" fill="#7A8694"/>
<path d="M77.757 86.4499L77.905 86.3109L77.564 86.1689L77.757 86.4499Z" fill="#EFF7F9"/>
<path d="M72.582 86.0501L71.402 87.2301L69.197 89.4351L69.155 90.2281L69.244 90.4421L69.386 90.7851L69.513 91.0931L69.65 91.4241L77.757 86.4501L73.468 85.1641L72.582 86.0501Z" fill="#98A4B1"/>
<path d="M77.7571 86.4495L78.0511 86.3706L77.9051 86.3105L77.7571 86.4495Z" fill="#CBD5DC"/>
<path d="M77.7569 86.4492L69.6499 91.4232L69.7359 91.6292L78.2119 89.7492L79.3799 88.5822L79.9799 87.9822L77.7569 86.4492Z" fill="#474A52"/>
<path d="M79.9761 87.9831L80.5521 87.4071L78.0521 86.3711L77.7581 86.4501L79.9761 87.9831Z" fill="#E1E6E5"/>
<path d="M70.3601 93.1396L70.4601 93.3746L71.6681 96.2936L72.5281 95.4336L70.3601 93.1396Z" fill="#E1EBF0"/>
<path d="M69.7361 91.6292L70.3611 93.1392L72.5261 95.4322L73.7261 94.2322L78.0051 89.9532L78.2141 89.7432L69.7361 91.6292Z" fill="#7A8694"/>
<path d="M54.0381 20.1394H44.3601L44.1401 19.6074L44.0981 20.4014L40.6731 23.8264L44.9021 33.3494L54.0381 20.1394Z" fill="#EFF7F9"/>
<path d="M44.901 33.3494L39.343 30.7754V38.6334L44.901 33.3494Z" fill="#98A4B1"/>
<path d="M57.1431 28.2776L55.1971 20.1396H54.0371L44.9011 33.3496L57.1431 28.2776Z" fill="#CBD5DC"/>
<path d="M57.143 28.2776L64.261 20.1396H55.197L57.143 28.2776Z" fill="#E5EDF0"/>
<path d="M39.343 38.6336V40.9576L48.937 37.6576L44.901 33.3496L39.343 38.6336Z" fill="#474A52"/>
<path d="M48.9331 37.6613L57.1431 28.2773L44.9021 33.3493L48.9331 37.6613Z" fill="#E1E6E5"/>
<path d="M57.1431 28.2776L67.5921 37.5076L65.4981 20.1396H64.2581L57.1431 28.2776Z" fill="#F3F6F1"/>
<path d="M67.59 37.5076L69.601 20.8076L68.936 20.1406H65.499L67.59 37.5076Z" fill="#E7F0F4"/>
<path d="M57.1431 28.2773L48.9331 37.6613L59.3821 42.2763L57.1431 28.2773Z" fill="#444950"/>
<path d="M57.1431 28.2773L59.3841 42.2773L67.5921 37.5083L57.1431 28.2773Z" fill="#EFF7F9"/>
<path d="M73.9561 25.1698L72.8871 24.0988L71.2951 22.4988L69.6011 20.7988L67.5901 37.4988L73.9561 31.8748V25.1698Z" fill="#A3B1BC"/>
<path d="M59.3821 42.2768L69.8311 51.5078L67.5901 37.5078L59.3821 42.2768Z" fill="#808890"/>
<path d="M67.5901 37.5078L69.8311 51.5078L73.9561 39.8338V31.8838L67.5901 37.5078Z" fill="#475875"/>
<path d="M48.9331 37.6611L39.3391 40.9611V48.5711L49.6751 65.5061L48.9331 37.6611Z" fill="#7A8694"/>
<path d="M49.675 65.5064L39.343 60.9414V78.4354L49.675 65.5064Z" fill="#C2CBD4"/>
<path d="M48.9331 37.6611L49.6751 65.5061L57.1431 51.6601L48.9331 37.6611Z" fill="#EFF7F9"/>
<path d="M59.3821 42.2761L48.9331 37.6611L57.1411 51.6611L59.3821 42.2761Z" fill="white"/>
<path d="M49.675 65.5068L39.343 78.4358V79.0258L54.904 70.2758L49.675 65.5068Z" fill="#EFF7F9"/>
<path d="M57.1431 51.6602L49.6741 65.5062L54.8991 70.2752L57.1431 51.6602Z" fill="white"/>
<path d="M64.6061 60.8914L59.3811 42.2764L57.1431 51.6614L64.6061 60.8914Z" fill="#98A4B1"/>
<path d="M59.3821 42.2764L64.6071 60.8914L69.8311 51.5074L59.3821 42.2764Z" fill="#E1EBF0"/>
<path d="M59.3819 79.5061L57.1429 51.6611L54.8989 70.2751L59.3819 79.5061Z" fill="#75746B"/>
<path d="M64.6061 60.8911L57.1431 51.6611L59.3841 79.5061L64.6061 60.8911Z" fill="#B6C1CE"/>
<path d="M64.606 60.8918L73.956 56.7618V64.0868L74.44 68.7428L76.02 61.4008L73.956 56.5248V55.2728L69.831 51.5078L64.606 60.8918Z" fill="#E5EDF0"/>
<path d="M73.9561 55.2725V49.6855L69.8311 51.5075L73.9561 55.2725Z" fill="#EFF7F9"/>
<path d="M73.9561 79.5066V76.4436L64.6061 60.8916L59.3821 79.5066H73.9561Z" fill="#75746B"/>
<path d="M39.343 84.6661L40.412 85.7371L42.004 87.3371L43.978 89.3151L49.678 84.2791L39.343 79.8711V84.6661Z" fill="#EFF7F9"/>
<path d="M43.9741 89.3104L44.3591 89.6964H47.1971L49.6741 84.2744L43.9741 89.3104Z" fill="#DEE6E8"/>
<path d="M59.2669 89.6964H59.9219L59.3819 79.5064L54.8989 70.2754L59.2669 89.6964Z" fill="#E3D6C0"/>
<path d="M47.197 89.6964H59.267L54.899 70.2754L49.674 84.2754L47.197 89.6964Z" fill="white"/>
<path d="M61.6051 89.6968H64.4351L70.5731 84.2748L59.3821 79.5068L59.9221 89.6968H61.6051Z" fill="#444950"/>
<path d="M64.4351 89.6964H68.1821L70.5721 84.2744L64.4351 89.6964Z" fill="#C6CED0"/>
<path d="M72.582 86.0495L73.468 85.1635L73.956 84.6755V81.1865L70.573 84.2745L72.582 86.0495Z" fill="#E7F0F4"/>
<path d="M68.1821 89.6964H68.9351L69.1551 90.2274L69.1971 89.4344L71.3971 87.2294L70.5681 84.2744L68.1821 89.6964Z" fill="#EFF7F9"/>
<path d="M71.402 87.2294L72.582 86.0494L70.573 84.2744L71.402 87.2294Z" fill="#525A66"/>
<path d="M74.271 7.24922L74.771 7.31922L74.396 6.94922L74.271 7.24922Z" fill="#EFF7F9"/>
<path d="M74.2711 7.25L74.2431 7.317L73.0331 10.238L72.7251 10.983L75.4561 12.983L77.3161 9.871L76.1561 8.712L74.7681 7.319L74.2711 7.25Z" fill="#CBD5DC"/>
<path d="M82.194 14.7433L77.903 10.4493L77.317 9.86328L75.457 12.9743L82.194 14.7433Z" fill="#E5EDF0"/>
<path d="M75.456 12.9774L72.7251 10.9824L72.248 12.1364L75.456 12.9774Z" fill="#E1E6E5"/>
<path d="M76.2901 18.1715L79.4551 21.3395L83.7641 16.3135L82.1941 14.7435L75.4561 12.9775L76.2901 18.1715Z" fill="#F3F6F1"/>
<path d="M79.4551 21.3404L80.3681 22.2544L86.4371 18.9874L84.4371 16.9874L83.7661 16.3154L79.4551 21.3404Z" fill="#E7F0F4"/>
<path d="M73.574 15.4496L75.506 17.3836L73.752 21.0616L79.303 22.9526L79.854 22.7246L80.554 22.4356L80.369 22.2506L79.456 21.3366L76.291 18.1686L75.457 12.9736L73.574 15.4496Z" fill="#EFF7F9"/>
<path d="M86.4369 18.9873L80.3679 22.2493L80.5519 22.4343L81.8889 21.8793L85.2169 20.4963L86.4119 19.9963L87.1489 19.6903L87.0919 19.6333L86.4369 18.9873Z" fill="#A3B1BC"/>
<path d="M71.436 14.0967L70.936 15.3097L70.649 16.0027L70.5 16.3617L73.754 21.0617L75.507 17.3827L73.574 15.4497L75.456 12.9737L72.243 12.1367L71.661 13.5427L71.436 14.0967Z" fill="#444950"/>
<path d="M75.132 24.6825L79.303 22.9555L73.752 21.0645L75.132 24.6825Z" fill="#808890"/>
<path d="M69.7431 18.1842L68.9341 20.1382L69.5991 20.8052L71.2931 22.5052L73.7511 21.0672L70.4981 16.3672L70.3661 16.6842L69.7431 18.1842Z" fill="white"/>
<path d="M71.2939 22.5033L72.8859 24.1033L73.7519 21.0703L71.2939 22.5033Z" fill="#98A4B1"/>
<path d="M72.887 24.0984L73.956 25.1694V26.4144L74.528 24.9324L75.128 24.6824L73.748 21.0654L72.887 24.0984Z" fill="#E1EBF0"/>
<path d="M72.754 104.369L67.281 109.486H76.267L72.754 104.369Z" fill="#EFF7F9"/>
<path d="M74.552 103.267L72.752 104.367L75.326 105.139L75.317 105.117L74.552 103.267Z" fill="#98A4B1"/>
<path d="M72.7541 104.369L61.4541 107.4L62.2251 109.486H67.2851L72.7541 104.369Z" fill="#CBD5DC"/>
<path d="M61.45 107.4L58.627 109.486H62.221L61.45 107.4Z" fill="#E5EDF0"/>
<path d="M74.5521 103.267L74.3961 102.89H70.6121L72.7541 104.37L74.5521 103.267Z" fill="#474A52"/>
<path d="M70.6121 102.89H67.5541L61.4541 107.4L72.7541 104.37L70.6121 102.89Z" fill="#E1E6E5"/>
<path d="M61.4501 107.401L53.5501 102.891H58.2781L63.3051 101.064L49.1731 97.0967L51.3681 102.891H51.9851L53.2141 109.491H58.6271L61.4501 107.401Z" fill="#F3F6F1"/>
<path d="M51.986 102.89H51.614L50.385 109.49H53.215L51.986 102.89Z" fill="#E7F0F4"/>
<path d="M67.554 102.89H60.334L61.451 107.4L67.554 102.89Z" fill="#444950"/>
<path d="M60.333 102.89H53.551L61.451 107.4L60.333 102.89Z" fill="#EFF7F9"/>
<path d="M51.6129 102.89H50.048L42.1479 107.4L44.9699 109.486H50.3829L51.6129 102.89Z" fill="#A3B1BC"/>
<path d="M44.9719 109.486L42.1499 107.4L39.3269 109.486H44.9719Z" fill="#4A4D53"/>
<path d="M50.0479 102.89H44.6139L42.1489 107.4L50.0479 102.89Z" fill="#475875"/>
<path d="M42.1491 107.4L36.3491 109.057L36.1721 109.486H39.3301L42.1491 107.4Z" fill="#E1EBF0"/>
<path d="M44.6141 102.89H41.3081L42.1491 107.4L44.6141 102.89Z" fill="white"/>
<path d="M41.309 102.89H46.978L49.173 97.0967L40.261 99.5967L39.051 102.52L40.067 102.889H38.899L36.343 109.057L42.143 107.4L41.309 102.89Z" fill="#A3B1BC"/>
<path d="M38.898 102.89L38.526 102.518L37.143 101.13L32.833 102.36L33.7 107.014L36.172 109.486L36.35 109.057L38.898 102.89Z" fill="white"/>
<path d="M32.829 102.359L31.49 104.808L33.696 107.013L32.829 102.359Z" fill="#A3B1BC"/>
<path d="M32.829 102.359L27.96 101.278L31.49 104.808L32.829 102.359Z" fill="white"/>
<path d="M35.9781 99.9698L35.3921 99.3838L32.8281 102.36L37.1381 101.13L35.9781 99.9698Z" fill="#EFF7F9"/>
<path d="M35.392 99.384L31.101 95.093L29.531 93.523L28.86 92.852L25.248 91.25L32.829 102.363L35.392 99.384Z" fill="white"/>
<path d="M32.829 102.36L25.243 91.25L22.564 95.89L27.955 101.282L32.829 102.36Z" fill="#B6C1CE"/>
<path d="M28.8599 92.8493L26.8599 90.8493L26.2049 90.1943L25.2429 91.2493L28.8599 92.8493Z" fill="#EFF7F9"/>
<path d="M25.2431 91.25L19.5491 92.876L22.5641 95.891L25.2431 91.25Z" fill="#E1EBF0"/>
<path d="M26.2029 90.1937L26.1459 90.1367L24.5129 90.8127L25.2479 91.2467L26.2029 90.1937Z" fill="#C6CED0"/>
<path d="M25.2429 91.2494L24.5079 90.8154L19.5439 92.8704L19.5489 92.8754L25.2429 91.2494Z" fill="#D1DADF"/>
<path d="M24.5129 90.8127L26.1459 90.1367V85.8047L19.5459 90.3957V92.8677L24.5129 90.8127Z" fill="#F0F7FB"/>
<path d="M26.143 85.8041V85.0361L19.543 85.7241V90.3951L26.143 85.8041Z" fill="#304350"/>
<path d="M26.1431 85.0353V82.0033L21.9321 72.6133L19.5491 83.6383V85.7243L26.1431 85.0353Z" fill="#EFF7F9"/>
<path d="M21.935 72.6133L19.55 70.8604V83.6384L21.935 72.6133Z" fill="#7A8694"/>
<path d="M26.1431 76.4043L21.9321 72.6143L26.1431 82.0043V76.4043Z" fill="#DEE6E8"/>
<path d="M21.935 72.6134L26.146 76.4034V67.4204L29.125 61.5424L26.143 59.1494V60.9044L19.543 63.8264V70.8624L21.935 72.6134Z" fill="white"/>
<path d="M26.143 60.9029V60.4629L19.543 61.1519V63.8249L26.143 60.9029Z" fill="#E3D6C0"/>
<path d="M26.1431 60.463V57.431L21.9321 48.041L19.5491 59.066V61.15L26.1431 60.463Z" fill="#444950"/>
<path d="M21.935 48.0406L19.55 42.8936V59.0656L21.935 48.0406Z" fill="white"/>
<path d="M26.1431 51.698L21.9321 48.041L26.1431 57.43V51.698Z" fill="#C6CED0"/>
<path d="M21.935 48.041L26.143 38.65V36.709L19.543 41.558V42.894L21.935 48.041Z" fill="#E7F0F4"/>
<path d="M26.143 36.7086V35.8896L19.543 36.5776V41.5576L26.143 36.7086Z" fill="#D1DADF"/>
<path d="M26.1431 51.6979V45.7119L21.9321 48.0409L26.1431 51.6979Z" fill="#EFF7F9"/>
<path d="M26.1431 45.7124V38.6494L21.9321 48.0394L26.1431 45.7124Z" fill="#525A66"/>
<path d="M26.1431 35.8898V32.8578L21.9321 23.4678L19.5491 34.4928V36.5778L26.1431 35.8898Z" fill="#F0F7FB"/>
<path d="M21.935 23.4668L19.55 22.7148V34.4918L21.935 23.4668Z" fill="#9DABB9"/>
<path d="M26.1431 32.8568V27.1248L21.9321 23.4668L26.1431 32.8568Z" fill="#444950"/>
<path d="M21.935 23.4666L24.681 19.0926L21.235 17.6656L20.97 17.5566L19.55 18.1856V22.7146L21.935 23.4666Z" fill="#525A66"/>
<path d="M20.9701 17.5568L19.5491 16.9688V18.1858L20.9701 17.5568Z" fill="#EFF7F9"/>
<path d="M26.1431 27.1248V23.7978L21.9321 23.4678L26.1431 27.1248Z" fill="#475875"/>
<path d="M26.1431 23.7978V19.6978L24.9501 19.2038L24.6781 19.0908L21.9321 23.4648L26.1431 23.7978Z" fill="#9DABB9"/>
<path d="M34.5541 11.2908L34.5731 11.2718L35.3141 10.5308L35.7811 10.0638L32.5161 9.13184L34.5541 11.2908Z" fill="#E1EBF0"/>
<path d="M32.6821 13.1628L32.8821 12.9628L34.5541 11.2908L32.5161 9.13184L32.6821 13.1628Z" fill="#7A8694"/>
<path d="M35.7811 10.0638L38.8981 6.9498L38.7431 6.5698L37.9761 4.7168L32.5161 9.1318L35.7811 10.0638Z" fill="#C2CBD4"/>
<path d="M26.965 18.8798L26.999 18.8458L28.217 17.6278L32.682 13.1628L32.516 9.13184L25.616 17.3978L26.965 18.8798Z" fill="#EFF7F9"/>
<path d="M26.143 19.6985L26.962 18.8795L25.618 17.3965L24.95 19.2045L26.143 19.6985Z" fill="white"/>
<path d="M32.5159 9.13205L37.9749 4.71705L37.9659 4.69605L37.1939 2.83105L31.6849 4.83105L29.2849 7.22605L32.5159 9.13205Z" fill="#EFF7F9"/>
<path d="M25.6211 17.3974L32.5161 9.13144L29.2901 7.23145L27.1091 9.40845L25.6211 17.3974Z" fill="white"/>
<path d="M21.2349 17.6658L24.6809 19.0918L24.9529 19.2048L25.6209 17.3968L22.0079 14.5098L20.5129 16.0038L21.2349 17.6658Z" fill="#98A4B1"/>
<path d="M20.9701 17.5569L21.2351 17.6669L20.5131 16.0049L19.5491 16.9689L20.9701 17.5569Z" fill="#E1EBF0"/>
<path d="M25.6211 17.3972L27.1091 9.4082L24.9011 11.6162L25.6211 17.3972Z" fill="#75746B"/>
<path d="M25.6211 17.3972L24.9011 11.6162L22.0081 14.5092L25.6211 17.3972Z" fill="#B6C1CE"/>
<path d="M36.1681 0.349609L31.6851 4.83261L37.1941 2.83261L37.9661 4.69761L40.5401 5.46961L37.0271 0.349609H36.1681Z" fill="#7A8694"/>
<path d="M73.8761 101.633L71.1431 102.891H74.4001L73.8761 101.633Z" fill="#EFF7F9"/>
<path d="M64.6791 102.889H71.1431L73.8791 101.631L73.7881 101.413L73.1091 99.7715L63.3091 101.063L64.6791 102.889Z" fill="#CBD5DC"/>
<path d="M60.3331 102.889H64.6791L63.3061 101.063L58.2791 102.889H60.3331Z" fill="#E5EDF0"/>
<path d="M73.1061 99.7718L72.2901 97.7998L63.3071 101.064L73.1061 99.7718Z" fill="#E1E6E5"/>
<path d="M46.978 102.89H51.369L49.169 97.0967L46.978 102.89Z" fill="#E7F0F4"/>
<path d="M72.2901 97.8L72.2711 97.755L71.8211 96.667L69.1571 96.293H60.9031L63.3031 101.064L72.2901 97.8Z" fill="#444950"/>
<path d="M60.9031 96.2939H53.5231L49.1731 97.0939L63.3071 101.061L60.9031 96.2939Z" fill="#EFF7F9"/>
<path d="M39.0239 102.588L38.8989 102.888H40.0669L39.0509 102.519L39.0239 102.588Z" fill="#4A4D53"/>
<path d="M53.5231 96.2936H57.9001L50.2751 95.0576L51.3531 96.2936H48.7681L49.1681 97.0936L53.5231 96.2936Z" fill="#808890"/>
<path d="M69.6729 96.2934L65.6149 95.0234L63.9619 96.2934H69.1569L71.8209 96.6674L71.6659 96.2934H69.6729Z" fill="white"/>
<path d="M26.1431 90.1379L26.8801 89.8319L26.1431 89.3779V90.1379Z" fill="#DEE6E8"/>
<path d="M26.8831 89.8305L28.0781 89.3305L26.1431 87.2285V89.3765L26.8831 89.8305Z" fill="#EFF7F9"/>
<path d="M29.0711 46.6641L26.1431 48.2401V57.8111L29.0711 46.6641Z" fill="#808890"/>
<path d="M26.1431 43.1846V48.2406L29.0681 46.6636L26.1431 43.1846Z" fill="#475875"/>
<path d="M26.1431 43.1851L29.0681 46.6641L27.4611 34.4141L26.1431 34.9501V43.1871V43.1851Z" fill="white"/>
<path d="M27.4641 34.4136L26.1431 32.8496V34.9496L27.4641 34.4136Z" fill="#A3B1BC"/>
<path d="M28.851 20.8185L27.943 20.4425L26.924 20.0205L26.146 20.5125V32.8495L27.464 34.4175L28.851 20.8185Z" fill="white"/>
<path d="M26.1431 20.5122L26.9221 20.0212L26.8981 20.0112L26.1871 19.7162L26.1431 19.6982V20.5122Z" fill="#EFF7F9"/>
<path d="M28.0781 89.3348L31.4061 87.9498L32.3431 82.5498L26.1431 86.7188V87.2298L28.0781 89.3348Z" fill="white"/>
<path d="M32.743 84.9608V83.7338L32.343 82.5498L32.743 84.9608Z" fill="#DEE6E8"/>
<path d="M32.3431 82.5494L32.7431 79.4754V72.7754L26.1431 86.3184V86.7184L32.3431 82.5494Z" fill="#E1EBF0"/>
<path d="M32.7431 72.7683V70.4033L26.1431 70.9953V86.3183L32.7431 72.7683Z" fill="#7A8694"/>
<path d="M32.743 83.7339V82.5999L32.343 82.5459L32.743 83.7339Z" fill="#C6CED0"/>
<path d="M32.343 82.5497L32.743 82.6037V79.4717L32.343 82.5497Z" fill="#C2CBD4"/>
<path d="M32.7431 70.404V68.111L29.1251 61.543L26.1431 67.422V70.996L32.7431 70.404Z" fill="#EFF7F9"/>
<path d="M32.743 68.11V63.01L29.125 61.543L32.743 68.11Z" fill="white"/>
<path d="M32.3431 52.79L26.1431 58.642V59.15L29.1211 61.55L32.3431 52.79Z" fill="#98A4B1"/>
<path d="M32.3431 52.79L29.0751 46.665L26.1431 57.811V58.642L32.3431 52.79Z" fill="#E1EBF0"/>
<path d="M32.743 63.0085V60.5615L29.125 61.5425L32.743 63.0085Z" fill="#75746B"/>
<path d="M32.7429 60.5621V53.1701L32.3429 52.7891L29.1279 61.5421L32.7429 60.5621Z" fill="#B6C1CE"/>
<path d="M30.732 40.5391L29.071 46.6641L32.343 52.7901L30.732 40.5391Z" fill="#E5EDF0"/>
<path d="M30.7321 40.5391L27.4641 34.4141L29.0711 46.6641L30.7321 40.5391Z" fill="#EFF7F9"/>
<path d="M32.343 52.7887L32.743 53.1707V51.9707L32.343 52.7887Z" fill="#75746B"/>
<path d="M32.7429 51.9723V40.3213L30.7319 40.5383L32.3429 52.7883L32.7429 51.9723Z" fill="#F0F7FB"/>
<path d="M30.7321 40.5387L32.7431 30.6887V29.2497L35.7431 33.7497L36.5321 23.9987L35.7321 23.6657L35.3911 23.5247L35.2451 23.4637L32.7431 22.4297V26.5777L27.4641 34.4137L30.7321 40.5387Z" fill="white"/>
<path d="M32.7431 26.578V23.278L31.7361 22.013L32.7431 22.43L33.3191 21.854L33.9191 21.254L32.8861 12.96L32.6861 13.16L28.2211 17.625L27.4691 19.35L29.7921 21.207L28.8511 20.817L27.4631 34.417L32.7431 26.578Z" fill="#B6C1CE"/>
<path d="M32.7429 39.0166L30.7319 40.5386L32.7429 40.3226V39.0166Z" fill="#304350"/>
<path d="M32.7429 39.0165V30.6885L30.7319 40.5385L32.7429 39.0165Z" fill="#EFF7F9"/>
<path d="M31.7351 22.0127L32.7431 23.2777V22.4297L31.7351 22.0127Z" fill="#E1EBF0"/>
<path d="M36.4341 13.7491L39.5711 15.6001L40.7711 14.4001L41.6311 13.5401L41.4761 13.1661L41.0261 12.0781L36.4341 13.7491Z" fill="#EFF7F9"/>
<path d="M39.572 15.601L36.435 13.75L35.293 19.88L39.572 15.601Z" fill="white"/>
<path d="M27.943 20.4426L28.851 20.8186L29.793 21.2086L27.469 19.3496L27.943 20.4426Z" fill="#98A4B1"/>
<path d="M26.9011 20.0116L26.9251 20.0216L27.9431 20.4426L27.4691 19.3496L26.9011 20.0116Z" fill="#E1EBF0"/>
<path d="M33.9151 21.2565L35.0831 20.0885L35.2921 19.8795L36.4341 13.7495L34.5731 11.2715L34.5541 11.2905L32.8821 12.9625L33.9151 21.2565Z" fill="#75746B"/>
<path d="M26.1899 19.7166L26.9009 20.0106L27.4689 19.3496L26.1899 19.7166Z" fill="#E5EDF0"/>
<path d="M27.469 19.35L28.218 17.626L26.999 18.85L27.469 19.35Z" fill="#75746B"/>
<path d="M26.965 18.8798L26.145 19.6988L26.189 19.7168L27.468 19.3498L26.998 18.8438L26.965 18.8798Z" fill="#F0F7FB"/>
<path d="M36.4341 13.7498L41.0241 12.0818L41.0051 12.0368L40.1891 10.0648L39.5091 8.42383L36.4341 13.7498Z" fill="#7A8694"/>
<path d="M36.434 13.7492L39.509 8.42322L39.419 8.20422L38.898 6.94922L35.781 10.0622L35.314 10.5292L36.434 13.7492Z" fill="white"/>
<path d="M36.434 13.7493L35.314 10.5303L34.573 11.2723L36.434 13.7493Z" fill="#E3D6C0"/>
<path d="M51.353 96.2936L50.275 95.0576L47.895 96.2936H41.629L41.043 97.6996L40.569 98.8496L40.261 99.5946L49.173 97.0946L48.768 96.2946L51.353 96.2936Z" fill="#475875"/>
<path d="M41.8579 95.7396L41.6289 96.2936H47.8949L50.2739 95.0576L41.8579 95.7396Z" fill="white"/>
<path d="M70.458 93.375L65.615 95.023L69.673 96.293H71.666L70.458 93.375Z" fill="#EFF7F9"/>
<path d="M68.324 90.8942L69.513 91.0942L69.385 90.7852L68.324 90.8942Z" fill="#EFF7F9"/>
<path d="M70.4581 93.3746L70.3581 93.1386L69.7331 91.6296L69.6471 91.4226L69.5111 91.0926L68.3211 90.8926L65.6121 95.0216L70.4581 93.3746Z" fill="white"/>
<path d="M65.6151 95.0236L56.5901 92.9756L61.6651 96.2936H63.9651L65.6151 95.0236Z" fill="#98A4B1"/>
<path d="M56.5899 92.9756L50.2749 95.0576L57.8999 96.2936H61.6639L56.5899 92.9756Z" fill="#E1EBF0"/>
<path d="M68.3241 90.8934L65.1561 89.6934H63.2781L65.6151 95.0194L68.3241 90.8934Z" fill="#75746B"/>
<path d="M63.2781 89.6963H61.6051L56.5901 92.9753L65.6141 95.0233L63.2781 89.6963Z" fill="#B6C1CE"/>
<path d="M56.59 92.9756L43.959 93.9996L50.275 95.0576L56.59 92.9756Z" fill="#E5EDF0"/>
<path d="M43.9601 94L42.3601 94.527L41.8601 95.74L50.2761 95.058L43.9601 94Z" fill="#EFF7F9"/>
<path d="M61.6049 89.6963H45.8479L56.5899 92.9753L61.6049 89.6963Z" fill="#75746B"/>
<path d="M45.843 89.6963H44.36L43.551 91.6493L43.96 93.9983L56.59 92.9743L45.843 89.6963Z" fill="#F0F7FB"/>
<path d="M42.3611 94.527L43.9611 94L42.6431 93.834L42.3611 94.527Z" fill="white"/>
<path d="M43.551 91.6494L42.927 93.1554L43.96 93.9974L43.551 91.6494Z" fill="#304350"/>
<path d="M42.7959 93.4743L42.6479 93.8333L43.9599 93.9993L42.9269 93.1562L42.7959 93.4743Z" fill="#EFF7F9"/>
<path d="M68.324 90.8944L69.385 90.7844L69.244 90.4414L68.324 90.8944Z" fill="#7A8694"/>
<path d="M69.2429 90.4413L69.1539 90.2273L68.9349 89.6963H66.8569L68.3239 90.8963L69.2429 90.4413Z" fill="white"/>
<path d="M66.857 89.6963H65.157L68.325 90.8963L66.857 89.6963Z" fill="#E3D6C0"/>
<path d="M33.443 87.1074L32.743 78.4854V84.9604L32.343 82.5493L31.406 87.9493L32.743 87.3943L33.443 87.1074Z" fill="#474A52"/>
<path d="M34.2159 63.1191L32.7419 64.1191V77.2731L34.2159 63.1191Z" fill="#444950"/>
<path d="M34.2159 63.1194L32.7429 52.3604V64.1203L34.2159 63.1194Z" fill="#EFF7F9"/>
<path d="M37.2739 48.4355L32.7429 51.5135V52.3605L34.2159 63.1195L37.2739 48.4355Z" fill="#808890"/>
<path d="M37.2739 48.4356L32.7429 41.6436V51.5136L37.2739 48.4356Z" fill="#475875"/>
<path d="M37.2739 48.436L35.7429 33.75L32.7429 35.283V41.642L37.2739 48.436Z" fill="white"/>
<path d="M32.7429 35.285L35.7429 33.751L32.7429 29.251V35.285Z" fill="#A3B1BC"/>
<path d="M33.4429 87.1075L33.9939 86.8795L38.1629 85.1495L38.7629 84.8995L39.3349 83.4185V79.8705L49.6709 84.2705L54.8949 70.2705L39.3429 79.0255V77.0495L32.7429 77.7945V78.4825L33.4429 87.1075Z" fill="#7A8694"/>
<path d="M39.3429 77.0496V70.8746L37.3289 66.2686L32.7429 77.6666V77.7976L39.3429 77.0496Z" fill="#EFF7F9"/>
<path d="M37.3249 66.2691L34.2159 63.1191L32.7429 77.2731V77.6661L37.3249 66.2691Z" fill="white"/>
<path d="M39.343 67.2975L37.325 66.2695L39.343 70.8755V67.2975Z" fill="white"/>
<path d="M39.343 59.3605V57.0215L34.22 63.1215L37.329 66.2715L39.343 59.3605Z" fill="#98A4B1"/>
<path d="M39.3431 57.0206V60.9416L49.6791 65.5066L39.3431 48.5676V53.3106L37.2781 48.4346L34.2161 63.1196L39.3431 57.0206Z" fill="#E1EBF0"/>
<path d="M39.3431 67.298V65.582L37.3291 66.27L39.3431 67.298Z" fill="#75746B"/>
<path d="M39.343 65.5814V59.3604L37.325 66.2693L39.343 65.5814Z" fill="#B6C1CE"/>
<path d="M39.3431 45.7498L38.8581 41.0938L37.2781 48.4357L39.3431 53.3107V45.7498Z" fill="#E5EDF0"/>
<path d="M37.2739 48.436L38.8539 41.094L35.7429 33.75L37.2739 48.436Z" fill="#EFF7F9"/>
<path d="M38.855 41.0933L39.343 45.7493V41.0273L38.855 41.0933Z" fill="#F0F7FB"/>
<path d="M38.8539 41.0933L39.3389 38.1003V27.0293L35.7429 33.7493L38.8539 41.0933Z" fill="white"/>
<path d="M39.3429 27.03V25.161L36.5429 24L35.7429 33.75L39.3429 27.03Z" fill="#B6C1CE"/>
<path d="M38.855 41.0939L39.339 41.0279V40.6279L38.855 41.0939Z" fill="#304350"/>
<path d="M38.855 41.0936L39.339 40.6306V38.1016L38.855 41.0936Z" fill="#EFF7F9"/>
<path d="M39.3431 25.1607V30.7757L44.9011 33.3497L40.6731 23.8267L39.8271 24.6727L35.5381 23.3867L35.7311 23.6667L36.5311 23.9997L39.3431 25.1607Z" fill="#7A8694"/>
<path d="M35.3901 23.5257L35.7311 23.6667L35.5391 23.3867L35.3901 23.5257Z" fill="#EFF7F9"/>
<path d="M44.0981 20.4011L44.1401 19.6081L44.0511 19.3941L43.9091 19.0521L43.7821 18.7431L43.6451 18.4131L35.5381 23.3861L39.8271 24.6721L40.6731 23.8261L44.0981 20.4011Z" fill="#98A4B1"/>
<path d="M35.2429 23.4657L35.3889 23.5257L35.5369 23.3867L35.2429 23.4657Z" fill="#CBD5DC"/>
<path d="M35.5429 23.387L43.6429 18.413L43.5569 18.207L35.0829 20.089L33.9149 21.257L33.3149 21.857L35.5429 23.387Z" fill="#474A52"/>
<path d="M33.3189 21.8496L32.7429 22.4256L35.2429 23.4616L35.5369 23.3826L33.3189 21.8496Z" fill="#E1E6E5"/>
<path d="M42.9351 16.697L42.8351 16.461L41.6271 13.543L40.7681 14.403L42.9351 16.697Z" fill="#E1EBF0"/>
<path d="M43.559 18.2063L42.934 16.6973L40.769 14.4023L39.569 15.6023L35.292 19.8793L35.083 20.0883L43.559 18.2063Z" fill="#7A8694"/>
<path d="M38.8989 102.89L39.0239 102.59L38.5239 102.519L38.8989 102.89Z" fill="#EFF7F9"/>
<path d="M39.0229 102.587L39.0509 102.52L40.2609 99.5974L40.5689 98.8524L37.8429 96.8584L35.9829 99.9694L37.1429 101.129L38.5309 102.516L39.0229 102.587Z" fill="#CBD5DC"/>
<path d="M31.1011 95.0928L35.3921 99.3838L35.9781 99.9698L37.8431 96.8588L31.1011 95.0928Z" fill="#E5EDF0"/>
<path d="M41.043 97.6994L37.843 96.8584L40.573 98.8584L41.043 97.6994Z" fill="#E1E6E5"/>
<path d="M37.0049 91.6641L33.8429 88.4961L29.5339 93.5221L31.1039 95.0921L37.8429 96.8591L37.0049 91.6641Z" fill="#F3F6F1"/>
<path d="M33.8429 88.496L32.9299 87.582L26.8579 90.85L28.8579 92.85L29.5289 93.522L33.8429 88.496Z" fill="#E7F0F4"/>
<path d="M41.0431 97.6994L41.6251 96.2934L41.8541 95.7394L42.3541 94.5264L42.6401 93.8334L42.7891 93.4744L39.5361 88.7744L37.7891 92.4494L39.7211 94.3824L37.8431 96.8584L41.0431 97.6994Z" fill="#444950"/>
<path d="M39.721 94.3829L37.789 92.4499L39.543 88.7709L33.992 86.8799L33.441 87.1079L32.741 87.3969L32.925 87.5819L33.838 88.4959L37.003 91.6639L37.843 96.8589L39.721 94.3829Z" fill="#EFF7F9"/>
<path d="M26.858 90.8495L32.927 87.5825L32.743 87.3975L31.406 87.9525L28.078 89.3355L26.883 89.8355L26.146 90.1415L26.203 90.1985L26.858 90.8495Z" fill="#A3B1BC"/>
<path d="M38.1629 85.1494L33.9919 86.8794L39.5429 88.7704L38.1629 85.1494Z" fill="#808890"/>
<path d="M43.551 91.65L44.36 89.696L43.975 89.31L42.001 87.332L39.543 88.771L42.796 93.471L42.927 93.154L43.551 91.65Z" fill="white"/>
<path d="M42.001 87.3324L40.409 85.7324L39.543 88.7704L42.001 87.3324Z" fill="#98A4B1"/>
<path d="M40.4079 85.7379L39.3429 84.6669V83.4219L38.7709 84.9039L38.1709 85.1539L39.5509 88.7709L40.4079 85.7379Z" fill="#E1EBF0"/>
<mask id="mask4_1_4592" style="mask-type:luminance" maskUnits="userSpaceOnUse" x="0" y="0" width="113" height="128">
<path d="M112.452 0.349609H0.843018V127.745H112.452V0.349609Z" fill="white"/>
</mask>
<g mask="url(#mask4_1_4592)">
<g style="mix-blend-mode:screen">
<mask id="mask5_1_4592" style="mask-type:luminance" maskUnits="userSpaceOnUse" x="39" y="20" width="35" height="70">
<path d="M73.9561 20.1396H39.3291V89.6966H73.9561V20.1396Z" fill="white"/>
</mask>
<g mask="url(#mask5_1_4592)">
<mask id="mask6_1_4592" style="mask-type:luminance" maskUnits="userSpaceOnUse" x="39" y="20" width="35" height="70">
<path d="M73.9561 25.1696V84.6756L68.9351 89.6966H44.3591L39.3291 84.6756V25.1696L44.3591 20.1396H68.9351L73.9561 25.1696Z" fill="white"/>
</mask>
<g mask="url(#mask6_1_4592)">
<path d="M43.4203 8.96155L16.875 81.4766L69.8642 100.874L96.4095 28.3591L43.4203 8.96155Z" fill="url(#paint1_linear_1_4592)"/>
</g>
</g>
</g>
</g>
</g>
<defs>
<radialGradient id="paint0_radial_1_4592" cx="0" cy="0" r="1" gradientUnits="userSpaceOnUse" gradientTransform="translate(10.9436 106.905) scale(55.816 10.0986)">
<stop stop-color="#F9FAFB"/>
<stop offset="0.147" stop-color="#DEE5EC"/>
<stop offset="0.247" stop-color="#D2DCE6"/>
<stop offset="0.268" stop-color="#D4DDE7"/>
<stop offset="0.527" stop-color="#EBF0F4"/>
<stop offset="0.768" stop-color="#FAFBFC"/>
<stop offset="0.973" stop-color="white"/>
<stop offset="1" stop-color="white"/>
</radialGradient>
<linearGradient id="paint1_linear_1_4592" x1="105.859" y1="132.388" x2="106.204" y2="131.446" gradientUnits="userSpaceOnUse">
<stop stop-color="white"/>
<stop offset="1" stop-color="#231F20"/>
</linearGradient>
</defs>
</svg>
