<svg width="38" height="16" viewBox="0 0 38 16" fill="none" xmlns="http://www.w3.org/2000/svg">
<path d="M31.3869 15.7938C31.6009 15.3308 31.8179 14.8678 32.0319 14.4048C32.3769 13.6568 32.7189 12.9128 33.0679 12.1648C33.0801 12.1399 33.0865 12.1125 33.0865 12.0848C33.0865 12.0571 33.0801 12.0297 33.0679 12.0048C32.0805 9.76146 31.0925 7.52046 30.1039 5.28179L30.0679 5.19379H31.4999C31.5211 5.19014 31.5429 5.19431 31.5613 5.20552C31.5797 5.21674 31.5934 5.23425 31.5999 5.25479C32.3085 6.97146 33.0195 8.68779 33.7329 10.4038L33.7579 10.4568C33.7719 10.4848 33.7899 10.4848 33.8039 10.4568L33.8249 10.4108C34.5135 8.69746 35.2009 6.98546 35.8869 5.27479C35.8938 5.24801 35.9104 5.22476 35.9335 5.20959C35.9566 5.19443 35.9846 5.18844 36.0119 5.19279C36.4539 5.19279 36.8949 5.19279 37.3369 5.19279H37.4259C37.3509 5.36379 37.2799 5.52779 37.2089 5.69279C35.7542 9.04146 34.2972 12.3908 32.8379 15.7408L32.8199 15.7938H31.3869Z" fill="#5F6368"/>
<path d="M23.2539 4.22716C23.1115 3.6377 22.7922 3.10591 22.3389 2.70316C21.7339 2.12219 20.9266 1.79941 20.0879 1.80316C18.8589 1.78516 17.6339 1.80316 16.4059 1.78516C16.3349 1.78516 16.3169 1.82116 16.3169 1.88516V12.4602C16.3169 12.5282 16.3349 12.5452 16.4059 12.5452H17.6169C17.6849 12.5452 17.7019 12.5272 17.7019 12.4602V8.29016C17.7019 8.19016 17.6839 8.19016 17.8019 8.19016C18.5639 8.19016 19.3399 8.20816 20.1199 8.19016C20.9355 8.18674 21.7203 7.87816 22.3199 7.32516C22.7508 6.94953 23.067 6.45989 23.2321 5.91256C23.3971 5.36522 23.4043 4.78241 23.2529 4.23116M21.4549 6.24516C21.17 6.57256 20.7773 6.78717 20.3479 6.85016C20.2621 6.86513 20.1749 6.87116 20.0879 6.86816H17.7879C17.7199 6.86816 17.7029 6.85016 17.7029 6.79716V3.18716C17.7029 3.13716 17.7209 3.11916 17.7709 3.11916H20.0879C20.5014 3.11106 20.9029 3.25844 21.2129 3.53216C21.5978 3.82903 21.8521 4.26407 21.9219 4.74516C21.9632 5.01423 21.9426 5.28918 21.8616 5.54909C21.7807 5.80901 21.6416 6.04706 21.4549 6.24516Z" fill="#5F6368"/>
<path d="M29.776 7.28581C29.6967 6.81036 29.491 6.36501 29.1802 5.99655C28.8695 5.62809 28.4652 5.35011 28.01 5.19181C27.2267 4.91466 26.3807 4.86644 25.571 5.05281C24.7772 5.21904 24.0744 5.67639 23.601 6.33481C23.583 6.37081 23.565 6.38781 23.619 6.41981C23.982 6.66181 24.36 6.88581 24.719 7.12881C24.772 7.14681 24.79 7.14681 24.808 7.11481C24.8891 7.00603 24.9759 6.90156 25.068 6.80181C25.3171 6.5502 25.6251 6.36474 25.964 6.26224C26.303 6.15974 26.6621 6.14344 27.009 6.21481C27.2821 6.26032 27.5418 6.36603 27.769 6.52429C27.9963 6.68255 28.1855 6.88938 28.323 7.12981C28.4889 7.46759 28.5545 7.84588 28.512 8.21981C28.444 8.18781 28.373 8.15181 28.305 8.11981C27.7805 7.89532 27.2164 7.77801 26.646 7.77481C26.0682 7.75765 25.4922 7.84575 24.946 8.03481C24.4916 8.19353 24.0899 8.4745 23.785 8.84681C23.5625 9.13683 23.4123 9.4757 23.3469 9.83534C23.2815 10.195 23.3028 10.565 23.409 10.9148C23.5073 11.2747 23.6883 11.6067 23.9374 11.8844C24.1865 12.1622 24.4969 12.378 24.844 12.5148C25.2361 12.6913 25.66 12.7859 26.09 12.7928C26.54 12.8132 26.9877 12.7175 27.39 12.5148C27.8056 12.2906 28.1621 11.9708 28.43 11.5818C28.448 11.5458 28.466 11.5288 28.498 11.5288C28.534 11.5468 28.516 11.5818 28.516 11.5998V12.4618C28.516 12.5328 28.534 12.5508 28.601 12.5508H29.762C29.83 12.5508 29.847 12.5328 29.847 12.4618V8.08381C29.85 7.81558 29.8272 7.54767 29.779 7.28381M27.924 10.8148C27.6112 11.1769 27.1838 11.4208 26.713 11.5058C26.4515 11.5744 26.1775 11.5805 25.9133 11.5235C25.649 11.4665 25.4019 11.3481 25.192 11.1778C25.0689 11.0838 24.9667 10.9654 24.8915 10.83C24.8164 10.6946 24.77 10.5452 24.7552 10.3911C24.7405 10.2369 24.7577 10.0814 24.8059 9.93425C24.854 9.78708 24.932 9.65144 25.035 9.53581C25.3254 9.2154 25.7154 9.00226 26.142 8.93081C26.3302 8.89775 26.5208 8.88003 26.712 8.87781C27.1595 8.87728 27.6039 8.95303 28.026 9.10181C28.1848 9.17155 28.3354 9.25876 28.475 9.36181C28.4832 9.36463 28.4908 9.36916 28.4971 9.3751C28.5035 9.38104 28.5085 9.38825 28.5119 9.39627C28.5153 9.40429 28.517 9.41294 28.5168 9.42164C28.5167 9.43035 28.5147 9.43892 28.511 9.44681C28.508 9.70224 28.4545 9.95457 28.3538 10.1893C28.2531 10.4241 28.107 10.6366 27.924 10.8148Z" fill="#5F6368"/>
<path d="M0.660889 4.34553C0.896612 3.8687 1.19491 3.42545 1.54789 3.02753C2.08993 2.41442 2.74819 1.91489 3.48457 1.55786C4.22094 1.20083 5.02081 0.993385 5.83789 0.947532C6.79157 0.88743 7.74594 1.05397 8.62289 1.43353C9.22693 1.69665 9.78287 2.05861 10.2679 2.50453C10.3139 2.54353 10.3069 2.56153 10.2679 2.59753C9.71589 3.14953 9.16089 3.69753 8.60889 4.25653C8.56589 4.29953 8.54489 4.30653 8.49489 4.26353C7.9963 3.79323 7.35957 3.4959 6.67889 3.41553C6.08548 3.33136 5.48042 3.3982 4.91969 3.60988C4.35895 3.82155 3.86066 4.17122 3.47089 4.62653C3.13159 5.00318 2.87355 5.44572 2.71289 5.92653C2.67389 5.93353 2.65189 5.90553 2.62789 5.88753C2.19322 5.54953 1.75656 5.2112 1.31789 4.87253C1.11789 4.71553 0.911891 4.56253 0.712891 4.40253C0.691891 4.38453 0.666888 4.37053 0.662888 4.34153" fill="#E94335"/>
<path d="M2.70892 8.30409C2.79942 8.55306 2.91151 8.79364 3.04391 9.02309C3.31125 9.49318 3.68132 9.8968 4.12651 10.2038C4.5717 10.5108 5.0805 10.7133 5.61491 10.7961C6.53131 10.9617 7.47643 10.7749 8.26091 10.2731L8.28591 10.2621C8.32491 10.2551 8.34992 10.2831 8.37492 10.3011C8.98392 10.7781 9.59591 11.2481 10.2049 11.7221C10.2339 11.7431 10.2689 11.7581 10.2729 11.8001C10.0133 12.0468 9.72646 12.2632 9.41792 12.4451C8.73475 12.8543 7.97463 13.1185 7.18491 13.2211C6.69812 13.2939 6.20468 13.3117 5.71391 13.2741C4.89204 13.2149 4.09096 12.9883 3.35992 12.6081C2.20025 12.0156 1.25867 11.0702 0.670914 9.90809L0.659912 9.88309C0.659912 9.85109 0.688915 9.83709 0.709915 9.82209C1.35092 9.32209 1.99191 8.82809 2.62891 8.33009C2.65391 8.31609 2.67192 8.29109 2.70692 8.29809" fill="#34A753"/>
<path d="M10.272 11.8011L8.95499 10.7721C8.73099 10.6011 8.51 10.4301 8.286 10.2561C8.59705 10.0461 8.86546 9.77908 9.077 9.46909C9.28402 9.1591 9.42933 8.8121 9.50499 8.44709C9.51899 8.38609 9.49799 8.37909 9.44399 8.37909H6.27699C6.16699 8.37909 6.17699 8.39709 6.17699 8.27909C6.17699 7.55309 6.17699 6.82309 6.17699 6.09609C6.17699 6.02509 6.18799 5.99609 6.26999 5.99609C8.15399 5.99943 10.0377 5.99943 11.921 5.99609C11.992 5.99609 12.021 6.01709 12.028 6.08509C12.1252 6.73595 12.1407 7.3964 12.074 8.05109C11.9952 8.85171 11.7644 9.62995 11.394 10.3441C11.1108 10.8822 10.7389 11.3686 10.294 11.7831L10.269 11.8011" fill="#4284F3"/>
<path d="M2.71009 8.3047L1.38909 9.3267C1.14709 9.5117 0.905088 9.7007 0.663088 9.8897C0.458967 9.49141 0.301265 9.07099 0.193087 8.6367C-0.172106 7.20347 -0.00917429 5.68667 0.652086 4.3637L0.663088 4.3457L2.63609 5.8737C2.66109 5.8947 2.68608 5.9097 2.71408 5.9307C2.63397 6.18271 2.57674 6.44142 2.54309 6.7037C2.4861 7.21402 2.53582 7.73062 2.68908 8.2207L2.71009 8.3047Z" fill="#FABB04"/>
</svg>
