<svg width="113" height="114" viewBox="0 0 113 114" fill="none" xmlns="http://www.w3.org/2000/svg">
<mask id="mask0_1_6087" style="mask-type:luminance" maskUnits="userSpaceOnUse" x="0" y="0" width="113" height="114">
<path d="M112.452 0.908203H0.843018V113.744H112.452V0.908203Z" fill="white"/>
</mask>
<g mask="url(#mask0_1_6087)">
<mask id="mask1_1_6087" style="mask-type:luminance" maskUnits="userSpaceOnUse" x="0" y="0" width="113" height="114">
<path d="M112.452 0.908203H0.843018V113.744H112.452V0.908203Z" fill="white"/>
</mask>
<g mask="url(#mask1_1_6087)">
<g style="mix-blend-mode:multiply">
<mask id="mask2_1_6087" style="mask-type:luminance" maskUnits="userSpaceOnUse" x="0" y="93" width="113" height="21">
<path d="M112.452 93.5508H0.843018V113.744H112.452V93.5508Z" fill="white"/>
</mask>
<g mask="url(#mask2_1_6087)">
<mask id="mask3_1_6087" style="mask-type:luminance" maskUnits="userSpaceOnUse" x="0" y="93" width="113" height="21">
<path d="M112.452 103.648C112.452 109.224 87.467 113.748 56.647 113.748C25.827 113.748 0.843018 109.224 0.843018 103.648C0.843018 98.0718 25.827 93.5479 56.643 93.5479C87.459 93.5479 112.448 98.0689 112.448 103.648" fill="white"/>
</mask>
<g mask="url(#mask3_1_6087)">
<path d="M112.452 93.5508H0.843018V113.744H112.452V93.5508Z" fill="url(#paint0_radial_1_6087)"/>
</g>
</g>
</g>
</g>
<path d="M45.6961 77.3982L51.1431 75.4202L50.7821 75.2842L48.5351 76.0502L45.6931 77.0202L45.5151 77.0802L45.6961 77.3982Z" fill="#474A52"/>
<path d="M51.143 75.4199L45.697 77.3979L45.997 77.9039L46.535 78.8249L51.143 75.4199Z" fill="#DEE6E8"/>
<path d="M56.843 73.3512L56.643 73.2832L54.482 74.0202L52.943 74.5442L51.062 75.1862L51.134 75.4202L61.623 78.4202L56.843 73.3512Z" fill="#E1EBF0"/>
<path d="M61.4841 74.9325L60.3431 74.5455L58.8041 74.0205L58.7031 71.4385L58.2881 71.8105L56.6431 73.2835L56.8431 73.3515L61.6231 78.4155L61.4841 74.9325Z" fill="#7A8694"/>
<path d="M51.1429 75.4199L46.5349 78.8249L49.9889 84.7329L50.5129 85.6329L51.1429 75.4199Z" fill="#C6CED0"/>
<path d="M51.1429 75.4199L50.5129 85.6309L51.2129 86.8309L61.6269 78.4109L51.1429 75.4199Z" fill="#C2CBD4"/>
<path d="M63.8569 75.7416L61.4829 74.9326L61.6269 78.4146L63.8569 75.7416Z" fill="#EFF7F9"/>
<path d="M67.655 77.3008L67.784 77.0798L67.702 77.0518L67.655 77.3008Z" fill="#75746B"/>
<path d="M51.8321 87.895L51.3891 87.137L64.7431 82.283L65.6251 80.774L61.6251 78.415L51.2131 86.836L50.5131 85.631L49.9881 84.731L47.1721 85.506L52.0801 88.306L55.4701 94.106L59.0161 92.081L60.1311 90.175L51.8321 87.895Z" fill="#EFF7F9"/>
<path d="M63.3109 84.7332L64.7429 82.2832L51.3889 87.1362L51.8329 87.8942L60.1269 90.1792L61.2189 88.3082L63.3109 84.7332Z" fill="#182631"/>
<path d="M67.655 77.3011L67.302 77.9011L67.983 77.6532L67.783 77.0771L67.655 77.3011Z" fill="#EFF7F9"/>
<path d="M63.311 84.7334L61.219 88.3084L66.127 85.5084L63.311 84.7334Z" fill="#EFF7F9"/>
<path d="M67.9831 77.6572L67.3031 77.9082L65.6251 80.7782L64.7431 82.2832L63.3101 84.7332L66.1261 85.5092L68.9841 80.5602L68.7841 79.9912L67.9831 77.6572Z" fill="#7A8694"/>
<mask id="mask4_1_6087" style="mask-type:luminance" maskUnits="userSpaceOnUse" x="0" y="0" width="113" height="114">
<path d="M112.452 0.908203H0.843018V113.744H112.452V0.908203Z" fill="white"/>
</mask>
<g mask="url(#mask4_1_6087)">
<path d="M56.6431 96.1314C56.6431 96.1314 56.7931 96.0535 57.0491 95.9165L56.9491 95.6064L56.6431 96.1314Z" fill="#808890"/>
<path d="M66.127 85.5078L61.219 88.3078L60.127 90.1748L59.013 92.0858L55.466 94.1078L52.076 88.3078L47.168 85.5078L53.385 94.3078C54.751 95.1078 55.73 95.6468 56.242 95.9208L56.342 95.6108L56.649 96.1348L56.955 95.6108L57.055 95.9208C57.567 95.6468 58.546 95.1108 59.912 94.3068L66.127 85.5078Z" fill="#DEE6E8"/>
<path d="M68.9839 80.5596L66.1259 85.5086L59.9089 94.3026C63.7824 92.0132 67.5363 89.5272 71.1559 86.8546L68.9839 80.5596Z" fill="white"/>
<path d="M70.4341 77.4922L69.9091 77.4102L68.7881 79.9912L68.9881 80.5602L71.1601 86.8602C72.6601 85.7602 74.2201 84.5602 75.8141 83.2762L70.4341 77.4922Z" fill="#75746B"/>
<path d="M82.0271 72.7542L82.1651 72.0762L75.8711 73.8762L80.7211 79.0902L74.0561 78.0562L70.4351 77.4942L75.8111 83.2742C77.4281 81.9742 79.0801 80.5742 80.7411 79.0942C81.2511 78.6362 81.7601 78.1552 82.2701 77.6812L82.0271 72.7542Z" fill="#F0F7FB"/>
<path d="M82.3981 70.9258L82.1651 72.0758L82.0271 72.7548L82.2701 77.6788C82.8921 77.0981 83.5124 76.5078 84.1311 75.9078L82.3981 70.9258Z" fill="#304350"/>
<path d="M82.6429 69.7285L82.3999 70.9285L84.1309 75.9085C85.3999 74.6745 86.6609 73.3985 87.8989 72.0645L82.6429 69.7285Z" fill="#EFF7F9"/>
<path d="M98.0771 55.876L97.5771 56.095L96.5971 56.521L95.2321 57.115L90.2091 59.301L87.5911 60.438L95.8281 62.268C96.8187 60.836 97.7591 59.3626 98.6491 57.848L98.0771 55.876Z" fill="white"/>
<path d="M98.0769 55.8761L98.6489 57.8481C99.2179 56.8841 99.7709 55.9091 100.291 54.9131L98.0769 55.8761Z" fill="#EFF7F9"/>
<path d="M87.029 60.6836L85.954 61.1516L84.772 62.5236L84.229 61.9016L84.169 62.1966L81.115 67.7846L83.153 67.2026L83.753 64.2496L85.773 63.6726L86.273 64.2516L82.973 68.0886L82.829 68.7966L82.64 69.7286L87.898 72.0646C88.786 71.1076 89.665 70.1316 90.526 69.1246C90.9447 68.6346 91.3597 68.1383 91.771 67.6356L87.029 60.6836Z" fill="white"/>
<path d="M87.5911 60.4395L87.0291 60.6845L91.7711 67.6365C93.1831 65.9145 94.5431 64.1255 95.8281 62.2685L87.5911 60.4395Z" fill="#B6C1CE"/>
<path d="M85.4841 30.5296L88.3221 29.7196L85.8151 27.7256L85.4841 30.5296Z" fill="#E5EDF0"/>
<path d="M104.616 36.2773H102.443L97.6311 41.5823L97.9541 43.1963L105.763 39.7273C105.928 38.894 106.072 38.054 106.195 37.2073L104.616 36.2773Z" fill="#C6CED0"/>
<path d="M104.616 36.2773L106.192 37.2073C106.237 36.8963 106.292 36.5903 106.333 36.2773H104.616Z" fill="#D1DADF"/>
<path d="M98.406 45.4736L98.815 47.5216L99.03 48.5996L99.33 50.1216L97.03 49.4876L97.572 56.0956L98.072 55.8766L100.287 54.9136L99.587 51.3906L102.78 49.5676C103.132 48.7056 103.463 47.834 103.774 46.9526L98.406 45.4736Z" fill="#F0F7FB"/>
<path d="M97.95 43.1956L98.4049 45.4736L103.774 46.9526C104.607 44.5944 105.271 42.1796 105.759 39.7266L97.95 43.1956Z" fill="#9DABB9"/>
<path d="M99.5881 51.3904L100.288 54.9134C101.203 53.1801 102.033 51.398 102.777 49.5674L99.5881 51.3904Z" fill="#444950"/>
<path d="M102.211 27.6431L101.457 26.5371L101.141 27.1681L102.211 27.6431Z" fill="white"/>
<path d="M103.952 21.5675L96.1011 19.8235L101.128 27.1935L101.141 27.1685L101.457 26.5385L102.211 27.6435L105.529 21.8965C105.321 21.1905 105.092 20.4965 104.829 19.8115L103.952 21.5675Z" fill="#B6C1CE"/>
<path d="M99.7809 29.8762L90.8569 25.9082L93.6569 33.9582L94.9429 34.9832L95.5959 36.8602L93.1649 38.3192L93.1499 38.3282L97.0329 49.4862L98.8159 47.5212L98.4069 45.4732L97.9509 43.1952L97.6289 41.5812L102.441 36.2762H96.5679L96.6259 36.5632L96.3189 36.4262L96.5679 36.2762L97.0229 35.3762L99.2799 30.8762L102.211 27.6442L101.141 27.1682L101.128 27.1932L99.7809 29.8762Z" fill="#EFF7F9"/>
<path d="M102.211 27.6435L106.482 26.4245C106.285 24.8922 105.966 23.3781 105.529 21.8965L102.211 27.6435Z" fill="#E1EBF0"/>
<path d="M102.211 27.6436L99.279 30.8756L97.022 35.3756L106.697 31.0756C106.702 30.8186 106.722 30.5656 106.723 30.3066L102.211 27.6436Z" fill="#C6CED0"/>
<path d="M102.211 27.6428L106.723 30.3078C106.723 30.2658 106.723 30.2258 106.723 30.1838C106.721 28.9275 106.64 27.6726 106.478 26.4268L102.211 27.6428Z" fill="#D1DADF"/>
<path d="M97.0231 35.3723L96.5691 36.2723H106.084L106.494 34.6163C106.604 33.4473 106.675 32.2663 106.694 31.0693L97.0231 35.3723Z" fill="#9DABB9"/>
<path d="M106.084 36.2771H106.334C106.404 35.7311 106.441 35.1771 106.493 34.6211L106.084 36.2771Z" fill="#525A66"/>
<path d="M90.962 8.51638L89.0829 12.0914L88.3459 13.4914L88.7359 13.6404L93.1799 5.50838C93.0199 5.40838 92.8699 5.29138 92.7079 5.19238L90.962 8.51638Z" fill="#A3B1BC"/>
<path d="M88.7359 13.6408L90.3009 14.2408L87.2059 19.9078V19.9378L86.7429 22.4938L96.0999 19.8228L95.4279 16.2078L97.6199 17.0478L96.1019 19.8248L103.952 21.5688L104.834 19.8118L100.843 18.2798L99.1129 17.6178L96.2499 7.75681C95.2768 6.94095 94.2512 6.18968 93.1799 5.50781L88.7359 13.6408Z" fill="white"/>
<path d="M99.1119 17.6178L100.841 18.2808L102.154 14.5068C100.545 11.9673 98.5555 9.69056 96.2539 7.75684L99.1119 17.6178Z" fill="#EFF7F9"/>
<path d="M100.843 18.2807L104.835 19.8107C104.126 17.9568 103.228 16.1808 102.156 14.5107L100.843 18.2807Z" fill="#4A4D53"/>
<path d="M74.7821 2.67289L74.3901 1.08789C73.9241 1.13789 73.4551 1.17889 72.9971 1.24889L74.7821 2.67289Z" fill="#444950"/>
<path d="M74.7821 2.67327L75.7821 3.47328L76.0711 3.70428L82.3631 1.33628C79.7315 0.867695 77.0458 0.784155 74.3901 1.08828L74.7821 2.67327Z" fill="#EFF7F9"/>
<path d="M76.0691 3.69896L80.0161 6.84696L85.6161 10.047L83.5061 1.53596C83.1291 1.45696 82.7431 1.39896 82.3631 1.33496L76.0691 3.69896Z" fill="#808890"/>
<path d="M85.6131 10.0431L89.2531 3.38313C87.4064 2.5696 85.48 1.95059 83.5051 1.53613L85.6131 10.0431Z" fill="#475875"/>
<path d="M85.613 10.0428L90.961 8.51581L92.707 5.19481C91.5977 4.51397 90.4437 3.9086 89.253 3.38281L85.613 10.0428Z" fill="white"/>
<path d="M82.9059 9.15277L83.7009 9.78677L84.8879 10.7338L84.9649 10.7948L85.6129 10.0428L80.0129 6.84277L82.9059 9.15277Z" fill="#E1EBF0"/>
<path d="M84.9651 10.795L88.3461 13.495L89.0831 12.095L85.6131 10.043L84.9651 10.795Z" fill="#E5EDF0"/>
<path d="M89.083 12.0916L90.962 8.5166L85.613 10.0446L89.083 12.0916Z" fill="#EFF7F9"/>
<path d="M71.1271 3.15602L71.7361 2.53502L72.9971 1.24902C71.7368 1.4483 70.4911 1.73058 69.2681 2.09402L71.1271 3.15602Z" fill="#F3F6F1"/>
<path d="M66.082 8.30188L66.674 7.70188L65.615 3.42188C63.6718 4.27773 61.8276 5.34267 60.115 6.59788L66.082 8.30188Z" fill="#444950"/>
<path d="M66.674 7.69873L67.233 7.12873L71.127 3.15573L69.268 2.09473C68.022 2.45535 66.8016 2.89901 65.615 3.42273L66.674 7.69873Z" fill="#EFF7F9"/>
<path d="M56.6431 12.464V17.928L56.8871 17.679L56.6431 11.75V12.464Z" fill="#7A8694"/>
<path d="M56.6431 11.75L56.8871 17.679L62.2171 12.241L62.3481 12.108L58.5141 7.87695C57.8691 8.42595 57.2421 8.99595 56.6471 9.59895V11.75H56.6431Z" fill="#EFF7F9"/>
<path d="M62.3521 12.1085L63.5091 10.9285L66.0821 8.30352L60.1151 6.60352C59.5651 7.00852 59.0341 7.43952 58.5151 7.88152L62.3521 12.1085Z" fill="white"/>
<path d="M27.5131 27.9977L37.5431 25.3077L37.1101 24.1367L31.9991 26.0367L31.3171 26.2907L27.4761 27.7217L27.5131 27.9977Z" fill="#CBD5DC"/>
<path d="M37.543 25.3081L41.179 22.6211L39.979 23.0701L38.889 23.4761L37.115 24.1361L37.543 25.3081Z" fill="#E5EDF0"/>
<path d="M37.5429 25.3086L27.5129 27.9996L27.8129 30.5296L28.0279 32.3456L37.5429 25.3086Z" fill="#E1E6E5"/>
<path d="M37.543 25.3078L52.217 33.6868L50.484 24.3868L43.607 21.7168L41.628 22.4528L41.179 22.6208L37.543 25.3078Z" fill="#F3F6F1"/>
<path d="M52.222 33.6867L53.722 25.6417L50.491 24.3867L52.222 33.6867Z" fill="#E7F0F4"/>
<path d="M40.6949 38.0166L37.5479 25.3086L28.0249 32.3466L28.2759 34.4706L40.6949 38.0166Z" fill="#444950"/>
<path d="M37.543 25.3086L40.69 38.0166L52.217 33.6876L37.543 25.3086Z" fill="#EFF7F9"/>
<path d="M53.72 25.6411L52.22 33.6861L66.895 25.3081L64.667 23.6611L62.682 24.4331L61.461 24.9081L57.513 26.4411L56.647 26.7771L53.72 25.6411Z" fill="#A3B1BC"/>
<path d="M64.667 23.6608L66.895 25.3078L71.06 22.2298L69.678 21.7148L67.835 22.4308L65.445 23.3598L64.667 23.6608Z" fill="#4A4D53"/>
<path d="M40.6951 38.0165L55.3691 46.3955L52.2211 33.6875L40.6951 38.0165Z" fill="#808890"/>
<path d="M55.3689 46.3946L66.895 25.3086L52.2209 33.6866L55.3689 46.3946Z" fill="#475875"/>
<path d="M66.895 25.3085L73.931 23.2995L73.315 23.0705L71.661 22.4545L71.061 22.2305L66.895 25.3085Z" fill="#E1EBF0"/>
<path d="M55.3691 46.3946L70.0431 42.2086L66.8951 25.3086L55.3691 46.3946Z" fill="white"/>
<path d="M66.895 25.3078L70.043 42.2078L79.288 25.2968L74.406 23.4788L73.932 23.3018L66.895 25.3078Z" fill="#A3B1BC"/>
<path d="M70.043 42.2079L82.943 45.0739L83.487 44.3969L83.907 43.8739L84.447 43.5499H83.947L85.013 34.5099L85.14 33.4299L83.203 26.7549L81.971 26.2969L81.289 26.0429L79.289 25.2959L70.043 42.2079Z" fill="white"/>
<path d="M85.1431 33.4269L85.4851 30.5269L85.8151 27.7269L83.2061 26.7549L85.1431 33.4269Z" fill="#EFF7F9"/>
<path d="M37.543 46.5339L28.521 36.5869L29.341 43.5469L29.38 43.8709L29.799 44.3939L31.31 46.2739L34.48 50.2079L37.543 46.5339Z" fill="#EFF7F9"/>
<path d="M40.6951 38.0157L28.2761 34.4697V34.5077L28.5211 36.5867L37.5441 46.5337L40.6951 38.0157Z" fill="white"/>
<path d="M37.543 46.5342L34.48 50.2082L36.414 52.6152L37.543 46.5342Z" fill="white"/>
<path d="M40.6951 38.0166L37.5481 46.5346L48.0321 54.9086L40.6951 38.0166Z" fill="#98A4B1"/>
<path d="M55.3691 46.3946L40.6951 38.0156L48.0321 54.9086L55.3691 46.3946Z" fill="#E1EBF0"/>
<path d="M37.5429 46.5342L36.4089 52.6192L38.4659 55.1782L38.6469 55.4042L37.5429 46.5342Z" fill="#75746B"/>
<path d="M48.0321 54.9082L37.5481 46.5342L38.6481 55.4052L40.7661 58.0402L43.6131 61.5822L43.7571 61.7122L44.2381 62.1432L44.7061 62.5642L48.0321 54.9082Z" fill="#B6C1CE"/>
<path d="M55.369 46.3945L48.032 54.9085L62.706 50.7195L55.369 46.3945Z" fill="#E5EDF0"/>
<path d="M70.0431 42.208L55.3691 46.394L62.7061 50.723L70.0431 42.208Z" fill="#EFF7F9"/>
<path d="M48.281 65.7701L54.593 71.4381L55.007 71.8101H58.288L58.702 71.4381L61.263 69.1381L48.032 54.9131L44.71 62.5641L45.37 63.1561L48.281 65.7701Z" fill="#75746B"/>
<path d="M48.032 54.9086L61.263 69.1396L63.516 67.1166L62.706 50.7246L48.032 54.9086Z" fill="#F0F7FB"/>
<path d="M70.0431 42.208L62.7061 50.726L74.2751 55.865L74.8241 55.181L77.0241 52.443L70.0431 42.208Z" fill="white"/>
<path d="M82.943 45.071L70.043 42.208L77.025 52.443L81.98 46.277L82.943 45.071Z" fill="#B6C1CE"/>
<path d="M63.5161 67.1156L65.0161 65.7706L67.2461 63.7706L62.7061 50.7236L63.5161 67.1156Z" fill="#304350"/>
<path d="M69.5331 61.7086L69.6771 61.5786L72.5241 58.0366L74.2741 55.8586L62.7051 50.7246L67.2431 63.7676L67.9231 63.1576L69.0521 62.1436L69.5331 61.7086Z" fill="#EFF7F9"/>
<path d="M55.0071 71.8086L56.6471 73.2816L58.2881 71.8086H55.0071Z" fill="white"/>
<path d="M62.2279 20.7894L62.6409 19.6704L60.7019 19.1084L62.2279 20.7894Z" fill="white"/>
<path d="M61.4609 24.9081L62.2279 20.7891L57.5129 26.4411L61.4609 24.9081Z" fill="white"/>
<path d="M62.228 20.7889L65.443 23.3599L67.833 22.4309L67.211 20.9989L64.989 20.3529L62.639 19.6699L62.228 20.7889Z" fill="#98A4B1"/>
<path d="M69.6781 21.714L67.2131 20.998L67.8351 22.43L69.6781 21.714Z" fill="#E1EBF0"/>
<path d="M61.4609 24.9081L62.6819 24.4341L62.2279 20.7891L61.4609 24.9081Z" fill="#75746B"/>
<path d="M62.682 24.433L64.667 23.662L65.445 23.362L62.228 20.792L62.682 24.433Z" fill="#B6C1CE"/>
<path d="M72.8739 5.61616L71.7359 2.53516L71.1269 3.15616L67.2329 7.12816L72.8739 5.61616Z" fill="#CBD5DC"/>
<path d="M71.7361 2.53502L72.8741 5.61602L75.7801 3.46902L74.7801 2.66902L72.9971 1.24902L71.7361 2.53502Z" fill="#E5EDF0"/>
<path d="M64.6349 11.7086L63.5089 10.9316L62.3519 12.1086L62.2219 12.2416L64.6349 11.7086Z" fill="#474A52"/>
<path d="M64.635 11.7081L72.874 5.61914L67.233 7.12914L66.674 7.69914L66.082 8.29914L63.509 10.9281L64.635 11.7081Z" fill="#E1E6E5"/>
<path d="M83.363 11.6078L82.906 9.15577L80.016 6.84977L76.069 3.69877L75.78 3.46777L72.874 5.61577L83.363 11.6078Z" fill="#F3F6F1"/>
<path d="M83.7011 9.78732L82.9011 9.15332L83.3571 11.6053L83.7011 9.78732Z" fill="#E7F0F4"/>
<path d="M64.635 11.708L75.124 14.708L72.874 5.62402L64.635 11.708Z" fill="#444950"/>
<path d="M75.124 14.6992L83.363 11.6082L72.874 5.61621L75.124 14.6992Z" fill="#EFF7F9"/>
<path d="M84.8881 10.7341L83.7011 9.78711L83.3621 11.6081L84.8881 10.7341Z" fill="#A3B1BC"/>
<path d="M79.688 17.3084L81.343 16.5784L86.678 19.6254L85.472 14.7584L84.272 15.2864L83.363 11.6084L75.124 14.7024L79.688 17.3084Z" fill="#808890"/>
<path d="M84.965 10.7954L84.888 10.7344L83.363 11.6084L84.274 15.2884L85.474 14.7614L86.679 19.6274L87.536 18.0594L87.288 19.4534L87.205 19.9084L90.305 14.2464L88.74 13.6464L88.35 13.4974L84.965 10.7954Z" fill="#475875"/>
<path d="M56.6431 17.928L60.7021 19.108L62.6411 19.672L64.9911 20.355L64.6351 11.708L62.2211 12.244L56.8911 17.682L56.6431 17.928Z" fill="#182631"/>
<path d="M67.213 20.998L69.678 21.714L71.06 22.229L71.66 22.453L73.788 19.908L73.088 20.217L72.563 20.448L64.635 11.708L64.991 20.355L67.213 20.998Z" fill="#EFF7F9"/>
<path d="M72.562 20.444L73.087 20.213L75.124 14.699L64.635 11.708L72.562 20.444Z" fill="white"/>
<path d="M73.0869 20.2131L73.7869 19.9041L73.9139 19.8481L73.9499 19.8321L74.0289 19.7971L81.4289 25.7131L78.0839 18.0131L76.8029 18.5781L75.1199 14.7021L73.0869 20.2131Z" fill="#98A4B1"/>
<path d="M76.806 18.5752L78.0881 18.0102L81.432 25.7102L86.677 19.6212L81.343 16.5782L79.689 17.3062L75.123 14.7002L76.806 18.5752Z" fill="#E1EBF0"/>
<path d="M87.286 19.4506L87.534 18.0566L86.677 19.6246L87.286 19.4506Z" fill="white"/>
<path d="M73.3151 23.0696L73.9151 19.8486L73.7881 19.9086L71.6611 22.4576L73.3151 23.0696Z" fill="white"/>
<path d="M73.3149 23.069L73.9309 23.298L74.4049 23.475L73.9519 19.832L73.9149 19.848L73.3149 23.069Z" fill="#75746B"/>
<path d="M74.0299 19.7969L73.9519 19.8319L74.4049 23.4749L79.2859 25.2929L81.2859 26.0389L81.4279 25.7129L74.0299 19.7969Z" fill="#B6C1CE"/>
<path d="M86.6771 19.624L81.4331 25.713L86.4251 24.287L85.8841 27.332L90.8571 25.908L86.5851 23.387L86.7441 22.487L87.2001 19.926L86.6771 19.624Z" fill="#E5EDF0"/>
<path d="M87.286 19.4502L86.677 19.6242L87.2 19.9322L87.205 19.9082L87.286 19.4502Z" fill="#EFF7F9"/>
<path d="M81.291 26.0399L81.973 26.2939L81.433 25.7129L81.291 26.0399Z" fill="#75746B"/>
<path d="M83.2039 26.7521L85.8139 27.7241L88.3209 29.7181L85.4829 30.5281L85.1409 33.4281L85.0139 34.5081L90.2089 40.0931L86.0919 42.5631L92.5319 49.4871L92.0139 39.0081L93.1489 38.3271L93.1639 38.3181L92.9189 33.3741L91.1559 31.9741L90.8559 25.9141L85.8829 27.3341L86.4239 24.2891L81.4309 25.7151L81.9709 26.2951L83.2039 26.7521Z" fill="#F0F7FB"/>
<path d="M97.619 17.0461L95.427 16.2061L96.101 19.8231L97.619 17.0461Z" fill="#A3B1BC"/>
<path d="M86.585 23.3923L90.857 25.9083L96.101 19.8193L86.743 22.4953L86.585 23.3923Z" fill="#EFF7F9"/>
<path d="M90.8569 25.9083L99.7809 29.8723L101.128 27.1883L96.1009 19.8193L90.8569 25.9083Z" fill="white"/>
<path d="M91.1559 31.9732L92.9189 33.3732L93.1639 38.3172L95.5949 36.8592L94.9429 34.9842L93.6579 33.9622L90.8569 25.9082L91.1559 31.9732Z" fill="#304350"/>
<path d="M86.092 42.5618L90.209 40.0918L85.014 34.5078L83.948 43.5478H84.448L83.908 43.8718L83.923 44.7158L83.931 45.1588L83.938 45.5658L84.007 49.4868H92.53L86.092 42.5618Z" fill="#75746B"/>
<path d="M96.3191 36.4264L96.6261 36.5624L96.5691 36.2764L96.3191 36.4264Z" fill="white"/>
<path d="M93.1501 38.3281L92.0151 39.0091L92.5331 49.4861H97.0331L93.1501 38.3281Z" fill="#304350"/>
<path d="M97.032 49.4865L99.032 48.5995L98.817 47.5215L97.032 49.4865Z" fill="#C6CED0"/>
<path d="M84.0491 51.6885L84.0971 54.4035L87.2891 52.5805L84.0491 51.6885Z" fill="#444950"/>
<path d="M84.0101 49.4864L83.9431 45.5664L76.0291 60.0404L84.1561 57.7204L84.1461 57.1874L84.0971 54.4084L84.0491 51.6934L87.2881 52.5854L92.5331 49.4914L84.0101 49.4864Z" fill="white"/>
<path d="M84.0969 54.4079L84.1459 57.1919L87.2879 52.5859L84.0969 54.4079Z" fill="#C6CED0"/>
<path d="M92.5321 49.4863L87.2881 52.5803L95.2291 57.1153L96.5941 56.5213L92.5321 49.4863Z" fill="#E7F0F4"/>
<path d="M92.532 49.4863L96.594 56.5213L97.573 56.0953L97.031 49.4863H92.532Z" fill="#D1DADF"/>
<path d="M87.2879 52.5811L84.1429 57.1871L84.1519 57.7201L76.0249 60.0411L78.9839 61.7871L79.6299 61.8011L82.3669 61.8611L84.1879 59.7461L84.2259 61.9021L84.7689 62.5241L85.9509 61.1511L87.0259 60.6831L87.5879 60.4391L90.2029 59.3011L87.2879 52.5811Z" fill="#EFF7F9"/>
<path d="M87.2881 52.5811L90.2061 59.3011L95.2291 57.1161L87.2881 52.5811Z" fill="#525A66"/>
<path d="M97.032 49.4866L99.332 50.1206L99.032 48.5996L97.032 49.4866Z" fill="#9DABB9"/>
<path d="M83.491 44.3945L82.947 45.0715L81.98 46.2715L83.934 45.1565L83.926 44.7125L83.491 44.3945Z" fill="#A3B1BC"/>
<path d="M83.491 44.3941L83.926 44.7151L83.911 43.8721L83.491 44.3941Z" fill="#4A4D53"/>
<path d="M74.8239 55.1777L74.2739 55.8617L72.5249 58.0387L76.0249 60.0387L74.8239 55.1777Z" fill="#808890"/>
<path d="M83.9429 45.5662L83.9359 45.1592L81.9829 46.2742L77.0269 52.4402L74.8269 55.1792L76.0269 60.0412L83.9429 45.5662Z" fill="#475875"/>
<path d="M72.525 58.04L69.678 61.582H69.898L70.579 61.597L71.11 61.609L74.61 61.686L76.031 60.036L72.525 58.04Z" fill="#E1EBF0"/>
<path d="M74.6069 61.6899L78.9869 61.7899L76.0279 60.0439L74.6069 61.6899Z" fill="#E5EDF0"/>
<path d="M84.1911 59.7461L82.3701 61.8601L84.2291 61.9011L84.1911 59.7461Z" fill="white"/>
<path d="M69.8979 61.5869L70.6259 61.7949L70.5789 61.6019L69.8979 61.5869Z" fill="#444950"/>
<path d="M70.5791 61.6025L70.6271 61.7955L71.1101 61.6145L70.5791 61.6025Z" fill="#EFF7F9"/>
<path d="M79.633 61.8004L78.987 61.7864L74.607 61.6864L71.107 61.6094L70.624 61.7904L81.113 67.7804L79.633 61.8004Z" fill="#808890"/>
<path d="M79.6331 61.7998L81.1151 67.7838L84.1691 62.1958L84.2291 61.8958L82.3701 61.8548L79.6331 61.7998Z" fill="#475875"/>
<path d="M69.8979 61.5869H69.6779L69.6539 61.7869L69.4869 63.1499L69.1699 65.7419L70.6259 61.8019L69.8979 61.5869Z" fill="white"/>
<path d="M70.626 61.7949L69.17 65.7359L69.487 63.1429L69.053 62.1429L67.924 63.1559L66.396 67.2939L68.75 69.1749L68.86 68.2749L75.87 73.8749L70.626 61.7949Z" fill="#98A4B1"/>
<path d="M70.626 61.7949L75.87 73.8729L81.115 67.7839L70.626 61.7949Z" fill="#E1EBF0"/>
<path d="M69.556 77.3551L68.643 70.0371L67.782 77.0801L69.556 77.3551Z" fill="#75746B"/>
<path d="M68.861 68.271L68.751 69.171L66.396 67.29L67.607 77.016L67.707 77.048L67.79 77.077L68.65 70.034L69.561 77.352L67.79 77.077L67.99 77.653L68.795 79.987L69.915 77.406L70.441 77.488L74.062 78.05L75.877 73.869L68.861 68.271Z" fill="#B6C1CE"/>
<path d="M75.8711 73.8733L82.1651 72.0733L82.3981 70.9233L82.6411 69.7233L82.8301 68.7913L81.1151 67.7793L75.8711 73.8733Z" fill="#E5EDF0"/>
<path d="M82.8301 68.7959L82.9741 68.0879L86.2741 64.2519L85.7691 63.6719L83.7491 64.2489L83.1491 67.2019L81.1111 67.7839L82.8301 68.7959Z" fill="#EFF7F9"/>
<path d="M74.0559 78.054L80.7209 79.088L75.8709 73.874L74.0559 78.054Z" fill="#75746B"/>
<path d="M69.6539 61.7801L69.6779 61.5801L69.5339 61.7091L69.6539 61.7801Z" fill="#808890"/>
<path d="M65.0139 65.7705L63.5139 67.1155L61.2629 69.1385L58.7019 71.4385L58.8089 74.0205L60.3479 74.5445L66.3959 67.2945L65.0139 65.7705Z" fill="#EFF7F9"/>
<path d="M67.2429 63.7673L65.0129 65.7673L66.3949 67.2913L67.9229 63.1533L67.2429 63.7673Z" fill="white"/>
<path d="M60.343 74.5448L61.479 74.9318L63.853 75.7418L61.623 78.4148L65.623 80.7738L67.302 77.9078L67.655 77.3078L67.701 77.0598L67.607 77.0268L64.764 76.0578L66.395 67.3008L60.343 74.5448Z" fill="white"/>
<path d="M69.654 61.7799L69.534 61.7109L69.054 62.1429L69.488 63.1429L69.654 61.7799Z" fill="#E1EBF0"/>
<path d="M64.7651 76.0509L67.6071 77.0199L66.3961 67.2939L64.7651 76.0509Z" fill="#75746B"/>
<path d="M45.6961 77.3981L45.5101 77.0801L45.3101 77.6571L45.9911 77.9041L45.6961 77.3981Z" fill="#EFF7F9"/>
<path d="M49.9841 84.7331L46.5301 78.8251L45.9921 77.9081L45.3111 77.6611L44.7891 79.1761L44.3101 80.5631L47.1681 85.5131L49.9841 84.7331Z" fill="#7A8694"/>
<path d="M56.2429 95.9174C56.4989 96.0544 56.6489 96.1324 56.6489 96.1324L56.3429 95.6084L56.2429 95.9174Z" fill="#808890"/>
<path d="M47.1679 85.5086L44.3099 80.5586L42.1379 86.8586C45.7578 89.5316 49.5117 92.0182 53.3849 94.3086L47.1679 85.5086Z" fill="white"/>
<path d="M45.3121 77.6571L45.5121 77.0801L43.7401 77.3551L41.9401 77.6341L39.4041 83.4751L44.7881 79.1751L45.3121 77.6571Z" fill="#98A4B1"/>
<path d="M41.943 77.6338L39.243 78.0528L35.27 78.6698L39.408 83.4748L41.943 77.6338Z" fill="#E1EBF0"/>
<path d="M44.3101 80.5589L44.7891 79.1719L39.4041 83.4719L40.2581 85.4389C40.8921 85.9219 41.5231 86.4009 42.1381 86.8529L44.3101 80.5589Z" fill="#B6C1CE"/>
<path d="M39.4049 83.4749L35.2659 78.6699L32.5739 79.0879H32.5549C33.9979 80.3779 35.4309 81.5879 36.8439 82.7409L39.4049 83.4749Z" fill="#E5EDF0"/>
<path d="M39.4051 83.4756L38.7051 84.2316C39.2281 84.6426 39.7491 85.0506 40.2621 85.4416L39.4051 83.4756Z" fill="#75746B"/>
<path d="M39.405 83.4751L36.843 82.7441C37.469 83.2551 38.087 83.7441 38.701 84.2311L39.405 83.4751Z" fill="#F0F7FB"/>
<path d="M30.6539 69.7286L30.4649 68.7966L30.3209 68.0886L27.0209 64.2516L27.5209 63.6726L29.5419 64.2496L30.1419 67.2026L32.1809 67.7846L29.1259 62.1976L29.0659 61.8976L28.5239 62.5206L27.3429 61.1516L26.2679 60.6836L21.5229 67.6366C21.9349 68.1373 22.3499 68.6333 22.7679 69.1246C23.6289 70.1316 24.5079 71.1076 25.3959 72.0646L30.6539 69.7286Z" fill="white"/>
<path d="M31.2681 72.7538L31.1301 72.0758L30.8971 70.9258L29.1641 75.9078C29.7834 76.5078 30.4037 77.0981 31.0251 77.6788L31.2681 72.7538Z" fill="#304350"/>
<path d="M30.897 70.9266L30.654 69.7266L25.396 72.0626C26.634 73.3966 27.896 74.6726 29.164 75.9076L30.897 70.9266Z" fill="#EFF7F9"/>
<path d="M25.7041 60.4394L25.1891 60.2154L29.1151 59.1334L29.1401 57.7204L37.2671 60.0414L29.3551 45.5664L29.3471 46.0014L29.1431 57.6734H19.3431L18.3431 57.2364L17.9671 57.0734L15.2181 55.8734L14.6431 57.8494C15.5331 59.3601 16.4734 60.8331 17.4641 62.2684L25.7041 60.4394Z" fill="white"/>
<path d="M15.218 55.8766L14.218 55.4396L18.685 42.6006L15.153 44.1696L14.892 45.4696L13.711 51.3866L13.011 54.9096C13.531 55.9096 14.084 56.8806 14.653 57.8446L15.218 55.8766Z" fill="#EFF7F9"/>
<path d="M27.343 61.1514L28.525 62.5244L29.068 61.9024L27.343 61.1514Z" fill="#EFF7F9"/>
<path d="M26.266 60.6835L25.704 60.4385L17.467 62.2685C18.751 64.1245 20.111 65.9145 21.523 67.6355L26.266 60.6835Z" fill="#B6C1CE"/>
<path d="M27.5129 27.9986L27.4809 27.7246L24.9729 29.7186L27.8109 30.5286L27.5129 27.9986Z" fill="#E5EDF0"/>
<path d="M28.843 43.5468H29.343L28.522 36.5868L28.277 34.5068L23.083 40.0918L25.867 41.7618L28.843 43.5468Z" fill="#75746B"/>
<path d="M28.28 34.5081V34.4711L28.029 32.3461L27.815 30.5291L24.977 29.7191L27.484 27.7251L31.326 26.2941L31.866 25.7141L26.869 24.2881L27.411 27.3321L22.443 25.9081L22.143 31.9691L20.38 33.3691L20.135 38.3131L20.463 38.5131L23.014 40.0431L23.091 40.0891L28.28 34.5081Z" fill="#F0F7FB"/>
<path d="M20.131 38.3191L20.375 33.3751L22.139 31.9751L22.439 25.9141L19.639 33.9641L18.353 34.9831L17.7 36.8601L20.131 38.3191Z" fill="#304350"/>
<path d="M28.843 43.5469L29.383 43.8709L29.345 43.5469H28.843Z" fill="white"/>
<path d="M15.343 43.1953L15.665 41.5813L10.853 36.2763H12.994L8.95402 31.8213L6.66602 33.1713C6.73268 34.2173 6.83268 35.2506 6.96602 36.2713H8.67902L7.10302 37.2083C7.22568 38.0563 7.36968 38.8963 7.53502 39.7283L15.343 43.1953Z" fill="#C6CED0"/>
<path d="M8.67891 36.2773H6.96191C7.00091 36.5903 7.06191 36.8963 7.10291 37.2073L8.67891 36.2773Z" fill="#D1DADF"/>
<path d="M13.707 51.3906L14.889 45.4736L9.52002 46.9526C9.83002 47.8346 10.1614 48.7063 10.514 49.5676L13.707 51.3906Z" fill="#F0F7FB"/>
<path d="M14.8889 45.4735L15.1489 44.1735L15.3489 43.1995L7.53491 39.7275C8.02321 42.1802 8.68657 44.5947 9.51991 46.9525L14.8889 45.4735Z" fill="#9DABB9"/>
<path d="M13.7069 51.3904L10.5139 49.5674C11.2612 51.3934 12.0909 53.1754 13.0029 54.9134L13.7069 51.3904Z" fill="#444950"/>
<path d="M9.30691 21.4948L9.34291 21.5668L17.1939 19.8228L15.6759 17.0458L17.8669 16.2058L17.1939 19.8228L26.5499 22.4948L26.0949 19.9328L26.0899 19.9078L22.9899 14.2448L24.5549 13.6448L20.1149 5.50781C19.0431 6.18994 18.017 6.9412 17.0429 7.75681L14.1829 17.6178L12.4539 18.2808L8.46191 19.8078C8.20991 20.4698 7.98891 21.1458 7.78491 21.8298L9.30691 21.4948Z" fill="white"/>
<path d="M13.4811 29.8084L13.5141 29.8744L22.4381 25.9084L17.1941 19.8184L12.1671 27.1884L12.1441 27.1424L8.95508 31.8224L13.4811 29.8084Z" fill="white"/>
<path d="M8.95502 31.8212L12.143 27.1462L12.166 27.1922L17.193 19.8232L9.34302 21.5662L9.30702 21.4942L7.78502 21.8322C7.20155 23.7954 6.82648 25.8145 6.66602 27.8562L8.95502 31.8212Z" fill="#B6C1CE"/>
<path d="M8.95492 31.8214L6.66592 27.8564C6.60492 28.6244 6.56592 29.3984 6.56592 30.1814C6.56592 30.5074 6.59192 30.8254 6.59792 31.1494L8.95492 31.8214Z" fill="#E1EBF0"/>
<path d="M8.9551 31.8214L6.6001 31.1494C6.6141 31.8254 6.6241 32.5044 6.6671 33.1714L8.9551 31.8214Z" fill="#D1DADF"/>
<path d="M24.559 13.6413L24.949 13.4923L24.686 12.9923L22.021 7.92231L20.587 5.19531C20.425 5.29531 20.275 5.40931 20.115 5.51131L24.559 13.6413Z" fill="#A3B1BC"/>
<path d="M12.4541 18.2808L14.1821 17.6178L17.0431 7.75684C14.7418 9.69086 12.7518 11.9675 11.1431 14.5068L12.4541 18.2808Z" fill="#EFF7F9"/>
<path d="M12.4541 18.2808L11.1431 14.5078C10.0717 16.1784 9.17437 17.9543 8.46509 19.8078L12.4541 18.2808Z" fill="#4A4D53"/>
<path d="M35.343 3.59947L36.143 4.55947L40.293 1.24947C39.454 1.11947 38.593 1.03647 37.722 0.980469L35.343 3.59947Z" fill="#EFF7F9"/>
<path d="M35.343 3.5992L37.722 0.980203C37.1 0.941203 36.475 0.908203 35.843 0.908203C35.349 0.908203 34.862 0.936203 34.374 0.960203L35.343 3.5992Z" fill="white"/>
<path d="M35.6071 4.99161L36.1491 4.55961L35.3491 3.59961L35.6071 4.99161Z" fill="white"/>
<path d="M27.853 9.58796L35.343 3.59896L34.372 0.959961C33.395 1.00796 32.429 1.09696 31.478 1.23896L27.853 9.58796Z" fill="#98A4B1"/>
<path d="M22.959 3.90826L27.853 9.58826L31.479 1.23926C28.5182 1.68362 25.6441 2.58396 22.959 3.90826Z" fill="#E1EBF0"/>
<path d="M35.126 5.37461L35.606 4.99161L35.343 3.59961L35.126 5.37461Z" fill="#75746B"/>
<path d="M28.365 10.7676L32.4 7.54961L33.426 6.73061L34.114 6.18161L35.126 5.37461L35.343 3.59961L27.853 9.58861L28.365 10.7676Z" fill="#B6C1CE"/>
<path d="M22.0221 7.9232L27.8531 9.5882L22.9591 3.9082C22.1491 4.3082 21.3531 4.7282 20.5881 5.1982L22.0221 7.9232Z" fill="#E5EDF0"/>
<path d="M24.687 12.9929L24.949 13.4929L28.008 11.0539L28.365 10.7679L27.853 9.58789L24.687 12.9929Z" fill="#75746B"/>
<path d="M22.022 7.92285L24.687 12.9929L27.853 9.58785L22.022 7.92285Z" fill="#F0F7FB"/>
<path d="M51.0659 5.61574L52.1659 5.91074C51.8429 5.69274 51.5279 5.46574 51.1959 5.26074L51.0659 5.61574Z" fill="#CBD5DC"/>
<path d="M51.066 5.61617L51.197 5.26117C50.428 4.78517 49.628 4.35517 48.814 3.95117L51.066 5.61617Z" fill="#E5EDF0"/>
<path d="M51.0659 5.61621L56.6429 9.74021V9.59921C55.2764 8.22419 53.7771 6.98782 52.1669 5.90821L51.0659 5.61621Z" fill="#E1E6E5"/>
<path d="M42.1541 3.14202L42.4291 1.66402C41.7291 1.50202 41.0191 1.36402 40.2981 1.24902L42.1541 3.14202Z" fill="#E7F0F4"/>
<path d="M49.7581 10.8992L49.9781 11.1242L52.2431 13.4312L52.4661 13.6582L56.6431 12.4642V9.74021L51.0631 5.61621L49.7581 10.8992Z" fill="#444950"/>
<path d="M48.433 9.54821L49.757 10.8992L51.066 5.61621L46.907 7.99121L48.433 9.54821Z" fill="#EFF7F9"/>
<path d="M55.0959 16.3448L56.6429 17.9268V14.6348L55.0959 16.3448Z" fill="#EFF7F9"/>
<path d="M55.0959 16.3449L56.6469 14.6349V12.4629L52.4619 13.6579L55.0959 16.3449Z" fill="white"/>
<path d="M52.5929 19.1077L51.0659 20.7877L55.7819 26.4407L56.6469 26.7777L57.5119 26.4407L62.2279 20.7877L60.7019 19.1077L56.6429 17.9277L52.5929 19.1077Z" fill="#EFF7F9"/>
<path d="M51.0661 20.7894L52.5921 19.1084L51.9981 19.2804L50.6531 19.6714L51.0661 20.7894Z" fill="white"/>
<path d="M51.8339 24.9081L55.7819 26.4421L51.0669 20.7881L51.8339 24.9081Z" fill="white"/>
<path d="M46.082 20.9979L45.46 22.4299L47.85 23.3589L51.067 20.7879L50.653 19.6689L46.932 20.7509L46.082 20.9979Z" fill="#98A4B1"/>
<path d="M45.4599 22.431L46.0819 20.999L44.9249 21.335L43.6839 21.695L43.6169 21.715L45.4599 22.431Z" fill="#E1EBF0"/>
<path d="M50.613 24.433L51.834 24.908L51.067 20.79L50.613 24.433Z" fill="#75746B"/>
<path d="M47.8501 23.3591L50.6131 24.4331L51.0671 20.7881L47.8501 23.3591Z" fill="#B6C1CE"/>
<path d="M36.1481 4.55902L35.6061 4.99102L35.1261 5.37402L34.1141 6.18102L33.7141 8.30202L42.3651 3.36202L43.6251 4.64702L46.9021 7.99102L51.0611 5.61602L48.8141 3.95102C46.7826 2.94137 44.6396 2.17378 42.4291 1.66402L42.1541 3.14202L40.2981 1.24902L36.1481 4.55902Z" fill="#F3F6F1"/>
<path d="M33.426 6.73064L33.719 8.30264L34.119 6.18164L33.426 6.73064Z" fill="#E7F0F4"/>
<path d="M41.958 11.3974L48.433 9.54844L46.907 7.99144L43.63 4.64844L41.958 11.3974Z" fill="#444950"/>
<path d="M41.958 11.3973L43.63 4.64828L42.37 3.36328L33.719 8.30328L41.958 11.3973Z" fill="#EFF7F9"/>
<path d="M33.4259 6.73047L32.3989 7.54947L33.7189 8.30247L33.4259 6.73047Z" fill="#A3B1BC"/>
<path d="M31.698 16.4637L30.734 16.0387L27.823 14.7577L26.623 19.6247L31.959 16.5777L32.485 16.8097L41.963 11.3967L33.719 8.30273L31.698 16.4637Z" fill="#808890"/>
<path d="M32.4001 7.54883L28.3651 10.7668L28.0081 11.0518L30.7341 16.0398L31.6981 16.4638L33.7201 8.30183L32.4001 7.54883Z" fill="#475875"/>
<path d="M27.823 14.7578L30.734 16.0398L28.007 11.0518L24.949 13.4918L27.823 14.7578Z" fill="white"/>
<path d="M51.998 19.2796L52.592 19.1066L56.643 17.9286L55.092 16.3466L52.458 13.6596L52.235 13.4316L51.998 19.2796Z" fill="#7A8694"/>
<path d="M44.208 17.486L46.932 20.752L50.653 19.67L51.999 19.279L52.24 13.431L49.978 11.124L44.208 17.486Z" fill="#EFF7F9"/>
<path d="M44.208 17.4859L49.978 11.1239L49.758 10.8999L48.434 9.54785L41.958 11.3969L44.208 17.4859Z" fill="white"/>
<path d="M44.925 21.3344L46.082 20.9984L46.932 20.7514L44.208 17.4854L44.925 21.3344Z" fill="white"/>
<path d="M38.464 19.4456L35.207 18.0086L31.863 25.7086L39.263 19.7936L39.341 19.8276L39.378 19.8436L39.505 19.8996L40.585 20.3756L44.206 17.4816L41.956 11.3926L38.464 19.4456Z" fill="#98A4B1"/>
<path d="M43.6841 21.6954L44.9251 21.3344L44.2081 17.4854L43.6841 21.6954Z" fill="#75746B"/>
<path d="M43.6169 21.7144L43.6839 21.6954L44.2079 17.4854L40.5859 20.3794L43.6169 21.7144Z" fill="#B6C1CE"/>
<path d="M25.761 18.0566L26.009 19.4506L26.618 19.6246L25.761 18.0566Z" fill="white"/>
<path d="M41.6331 22.4532L43.6111 21.7162H43.6171L40.5861 20.3812L39.5061 19.9082L41.6331 22.4532Z" fill="#EFF7F9"/>
<path d="M39.9789 23.0695L41.1789 22.6205L41.6289 22.4535L39.5059 19.9085L39.3789 19.8525L39.9789 23.0695Z" fill="white"/>
<path d="M31.8619 25.7134L35.2069 18.0134L38.4629 19.4484L41.9579 11.4004L32.4799 16.8084L31.9539 16.5764L26.6179 19.6234L31.8619 25.7134Z" fill="#E1EBF0"/>
<path d="M38.8889 23.4751L39.9789 23.0691L39.3789 19.8481L39.3429 19.8311L38.8889 23.4751Z" fill="#75746B"/>
<path d="M32.004 26.0398L37.115 24.1398L38.889 23.4798L39.343 19.8358L39.264 19.8018L31.864 25.7168L32.004 26.0398Z" fill="#B6C1CE"/>
<path d="M26.71 23.3921L22.438 25.9081L27.411 27.3271L26.869 24.2831L31.862 25.7091L26.618 19.6201L26.095 19.9281L26.55 22.4901L26.71 23.3921Z" fill="#E5EDF0"/>
<path d="M26.618 19.6242L26.009 19.4502L26.09 19.9032L26.095 19.9332L26.618 19.6242Z" fill="#EFF7F9"/>
<path d="M31.322 26.2939L32.004 26.0399L31.862 25.7139L31.322 26.2939Z" fill="#75746B"/>
<path d="M26.009 19.4502L25.761 18.0562L26.618 19.6242L27.818 14.7582L24.944 13.4922L24.554 13.6412L22.989 14.2412L26.09 19.9082L26.009 19.4502Z" fill="#475875"/>
<path d="M17.867 16.208L15.675 17.048L17.193 19.825L17.867 16.208Z" fill="#A3B1BC"/>
<path d="M22.4381 25.9084L26.7101 23.3874L26.5501 22.4874L17.1941 19.8164L22.4381 25.9084Z" fill="#EFF7F9"/>
<path d="M20.1311 38.3194L17.7001 36.8604L16.7271 36.2764L16.5051 37.3874L20.4591 38.5164L20.1311 38.3194Z" fill="white"/>
<path d="M29.1699 45.5952L29.3559 45.4462L29.3609 45.1592L29.1699 45.5952Z" fill="#98A4B1"/>
<path d="M29.3619 45.1547L29.3699 44.7157L29.3849 43.8717L28.8429 43.5477L25.8689 41.7637L29.1689 45.5957L29.3619 45.1547Z" fill="#E1EBF0"/>
<path d="M29.3569 45.4463L29.1709 45.5953L29.3469 46.0013L29.3549 45.5663L29.3569 45.4463Z" fill="#B6C1CE"/>
<path d="M29.1699 45.5949L25.8699 41.7629L23.0849 40.0919L23.0089 40.0469L18.6809 42.5999L29.1699 45.5949Z" fill="#E5EDF0"/>
<path d="M23.0101 40.0462L20.4591 38.5152L16.5051 37.3862L16.7271 36.2762L17.7001 36.8602L18.3531 34.9832L19.6381 33.9612L22.4381 25.9082L13.5141 29.8722L13.4811 29.8062L8.95508 31.8212L12.9961 36.2762H10.8551L15.6671 41.5812L16.0671 39.5662L18.6801 42.6002L23.0101 40.0462Z" fill="#EFF7F9"/>
<path d="M29.17 45.5947L18.343 57.2357L19.343 57.6727H29.143L29.343 46.0007L29.17 45.5947Z" fill="#75746B"/>
<path d="M29.1701 45.5956L18.6811 42.6006L17.9661 57.0736L18.3431 57.2366L29.1701 45.5956Z" fill="#F0F7FB"/>
<path d="M16.0689 39.5674L15.6689 41.5824L15.3429 43.1954L15.1489 44.1694L18.6809 42.6004L16.0689 39.5674Z" fill="white"/>
<path d="M18.6821 42.6006L14.2151 55.4406L15.2151 55.8766L17.9641 57.0766L18.6821 42.6006Z" fill="#304350"/>
<path d="M29.104 59.7458L29.115 59.1328L25.189 60.2138L25.704 60.4378L26.266 60.6828L27.341 61.1508L29.066 61.9008L29.104 59.7458Z" fill="#444950"/>
<path d="M29.8041 44.3945L29.3691 44.7155L29.3621 45.1545V45.1595L31.3151 46.2745L29.8041 44.3945Z" fill="#A3B1BC"/>
<path d="M29.3701 44.7151L29.8051 44.3941L29.3851 43.8711L29.3701 44.7151Z" fill="#4A4D53"/>
<path d="M40.77 58.0406L38.652 55.4086L38.471 55.1826L37.271 60.0446L40.77 58.0406Z" fill="#808890"/>
<path d="M38.4711 55.1782L36.4141 52.6192L34.4801 50.2082L31.3151 46.2692L29.3621 45.1582V45.4462V45.5652L37.2741 60.0402L38.4711 55.1782Z" fill="#475875"/>
<path d="M38.688 61.6901L42.188 61.6131L42.7189 61.6021L43.3989 61.5871L43.6189 61.5821L40.7729 58.0391L37.2729 60.0391L38.688 61.6901Z" fill="#E1EBF0"/>
<path d="M34.3081 61.7861L38.6881 61.6861L37.2671 60.0361L34.3081 61.7861Z" fill="#E5EDF0"/>
<path d="M29.104 59.7457L30.925 61.8597L33.662 61.7997L34.308 61.7857L37.267 60.0397L29.143 57.7197L29.118 59.1327L29.104 59.7457Z" fill="#EFF7F9"/>
<path d="M29.1039 59.7461L29.0659 61.9011L30.9249 61.8601L29.1039 59.7461Z" fill="white"/>
<path d="M43.397 61.5869L42.716 61.6019L42.668 61.7949L43.397 61.5869Z" fill="#444950"/>
<path d="M42.1851 61.6136L42.6681 61.7956L42.7161 61.6016L42.1851 61.6136Z" fill="#EFF7F9"/>
<path d="M42.669 61.7953L42.186 61.6133L38.686 61.6903L34.306 61.7903L33.66 61.8053L32.178 67.7883L42.669 61.7953Z" fill="#808890"/>
<path d="M33.6619 61.7998L30.9249 61.8598L29.0659 61.9008L29.1259 62.2008L32.1799 67.7888L33.6619 61.7998Z" fill="#475875"/>
<path d="M43.6429 61.7801L43.6189 61.5801L43.3989 61.5851L42.6699 61.7921L44.1259 65.7331L43.8099 63.1411L43.6429 61.7801Z" fill="white"/>
<path d="M44.4341 68.271L44.5451 69.171L46.8991 67.29L45.3701 63.153L44.7101 62.56L44.2421 62.139L43.8081 63.139L44.1241 65.731L42.6681 61.791L37.4241 73.873L44.4341 68.271Z" fill="#98A4B1"/>
<path d="M42.6689 61.7949L32.1799 67.7839L37.4249 73.8729L42.6689 61.7949Z" fill="#E1EBF0"/>
<path d="M44.6499 70.0381L43.7429 77.3551L45.5139 77.0801L44.6499 70.0381Z" fill="#75746B"/>
<path d="M39.2431 78.0539L41.9431 77.6349L43.7431 77.3559L44.6541 70.0379L45.5141 77.0809L45.6921 77.0199L46.9031 67.2939L44.5431 69.1759L44.4331 68.2759L37.4231 73.8759L39.2431 78.0539Z" fill="#B6C1CE"/>
<path d="M32.1801 67.7842L30.4651 68.7962L30.6541 69.7282L30.8971 70.9282L31.1311 72.0782L37.4241 73.8782L32.1801 67.7842Z" fill="#E5EDF0"/>
<path d="M32.1799 67.7839L30.1429 67.2019L29.5429 64.2489L27.5229 63.6719L27.0229 64.2509L30.3229 68.0879L30.4669 68.7959L32.1799 67.7839Z" fill="#EFF7F9"/>
<path d="M39.2431 78.054L37.4281 73.874L32.5781 79.088L35.2701 78.67L39.2431 78.054Z" fill="#75746B"/>
<path d="M37.4239 73.8732L31.1299 72.0732L31.2679 72.7512L31.0249 77.6752C31.5349 78.1492 32.0439 78.6302 32.5539 79.0882H32.5739L37.4239 73.8732Z" fill="#F0F7FB"/>
<path d="M43.7609 61.7081L43.6169 61.5781L43.6409 61.7781L43.7609 61.7081Z" fill="#808890"/>
<path d="M55.0071 71.8085L54.5931 71.4365L54.4861 74.0185L56.6471 73.2815L55.0071 71.8085Z" fill="#7A8694"/>
<path d="M52.943 74.5455L54.482 74.0205L54.588 71.4385L48.277 65.7715L46.895 67.2945L52.943 74.5455Z" fill="#EFF7F9"/>
<path d="M48.2811 65.7702L45.3701 63.1562L46.8991 67.2943L48.2811 65.7702Z" fill="white"/>
<path d="M48.5299 76.0509L50.7769 75.2849L51.1379 75.4199L51.0659 75.1859L52.9469 74.5449L46.8989 67.2939L48.5299 76.0509Z" fill="white"/>
<path d="M43.7611 61.708L43.6411 61.777L43.8071 63.139L44.2411 62.139L43.7611 61.708Z" fill="#E1EBF0"/>
<path d="M48.53 76.0509L46.899 67.2939L45.688 77.0199L48.53 76.0509Z" fill="#75746B"/>
<g style="mix-blend-mode:screen">
<mask id="mask5_1_6087" style="mask-type:luminance" maskUnits="userSpaceOnUse" x="27" y="21" width="59" height="53">
<path d="M85.814 21.7139H27.481V73.2829H85.814V21.7139Z" fill="white"/>
</mask>
<g mask="url(#mask5_1_6087)">
<mask id="mask6_1_6087" style="mask-type:luminance" maskUnits="userSpaceOnUse" x="27" y="21" width="59" height="53">
<path d="M85.814 27.7239L83.914 43.8709L69.678 61.5819L56.643 73.2829L43.613 61.5829L29.374 43.8709L27.481 27.7239L43.606 21.7139L56.643 26.7779L69.674 21.7139L85.814 27.7239Z" fill="white"/>
</mask>
<g mask="url(#mask6_1_6087)">
<path d="M38.0251 -0.68602L7.65503 63.9844L75.2685 95.7365L105.639 31.0662L38.0251 -0.68602Z" fill="url(#paint1_linear_1_6087)"/>
</g>
</g>
</g>
</g>
</g>
<defs>
<radialGradient id="paint0_radial_1_6087" cx="0" cy="0" r="1" gradientUnits="userSpaceOnUse" gradientTransform="translate(10.9436 92.9043) scale(55.816 10.0986)">
<stop stop-color="#F9FAFB"/>
<stop offset="0.147" stop-color="#DEE5EC"/>
<stop offset="0.247" stop-color="#D2DCE6"/>
<stop offset="0.268" stop-color="#D4DDE7"/>
<stop offset="0.527" stop-color="#EBF0F4"/>
<stop offset="0.768" stop-color="#FAFBFC"/>
<stop offset="0.973" stop-color="white"/>
<stop offset="1" stop-color="white"/>
</radialGradient>
<linearGradient id="paint1_linear_1_6087" x1="92.9685" y1="126.229" x2="93.3937" y2="125.323" gradientUnits="userSpaceOnUse">
<stop stop-color="white"/>
<stop offset="1" stop-color="#231F20"/>
</linearGradient>
</defs>
</svg>
