<svg width="40" height="15" viewBox="0 0 40 15" fill="none" xmlns="http://www.w3.org/2000/svg">
<path d="M8.61006 0.812166C7.21096 1.05576 5.89736 1.653 4.79405 2.54717C4.14073 3.10741 3.55841 3.74549 3.06006 4.44717C1.99219 5.82734 1.40375 7.51822 1.38405 9.26317C1.37126 9.68959 1.45752 10.1132 1.63606 10.5006C1.81461 10.8881 2.08057 11.2289 2.41305 11.4962C2.67246 11.7354 2.98755 11.906 3.32969 11.9925C3.67182 12.0789 4.03014 12.0785 4.37205 11.9912V11.9802C4.80225 10.8683 5.08955 9.70637 5.22706 8.52217C5.35206 7.38217 5.00306 7.13317 3.95206 7.57817C3.75206 7.66717 3.50305 7.88817 3.34305 7.67817C3.16905 7.44317 3.44306 7.24417 3.61706 7.07317C4.28828 6.4144 5.03672 5.83922 5.84606 5.36017C6.24532 5.06026 6.73616 4.90796 7.23506 4.92917C7.80506 5.01417 8.05005 5.36017 7.86505 5.91917C7.73005 6.36417 7.55505 6.79917 7.40605 7.24417C6.91239 8.58578 6.55231 9.97283 6.33106 11.3852C6.34603 11.4215 6.36661 11.4552 6.39205 11.4852C6.47705 11.5742 6.52706 11.5492 6.77706 11.4352C8.44158 10.5992 9.86543 9.3526 10.9141 7.81317C11.4749 7.0631 11.8917 6.21539 12.1431 5.31317C12.2799 4.82569 12.3306 4.31808 12.2931 3.81317C12.3051 3.35464 12.2118 2.89946 12.0205 2.48261C11.8291 2.06576 11.5446 1.69835 11.1891 1.40862C10.8335 1.11889 10.4162 0.914562 9.96924 0.811335C9.52233 0.708107 9.05769 0.708733 8.61106 0.813166M7.39406 4.34017C7.30276 4.34282 7.21201 4.32526 7.12828 4.28876C7.04456 4.25226 6.96993 4.19772 6.90974 4.12902C6.84955 4.06033 6.80528 3.97918 6.7801 3.89139C6.75491 3.8036 6.74943 3.71132 6.76406 3.62117C6.85157 3.18718 7.05919 2.78648 7.36328 2.46472C7.66736 2.14295 8.0557 1.91304 8.48406 1.80117C9.00406 1.72617 9.32805 1.96117 9.32805 2.44617C9.25303 2.9282 9.02418 3.37306 8.67564 3.71439C8.3271 4.05573 7.87755 4.27523 7.39406 4.34017Z" fill="#AE2A30"/>
<path d="M35.526 11.5777C35.3616 12.0804 35.0787 12.5362 34.7012 12.9067C34.3237 13.2772 33.8627 13.5516 33.357 13.7067C32.1781 14.1079 30.9108 14.173 29.697 13.8947C29.3874 13.8485 29.0917 13.7351 28.8306 13.5623C28.5696 13.3896 28.3495 13.1618 28.186 12.8949C28.0224 12.628 27.9193 12.3285 27.8839 12.0175C27.8485 11.7065 27.8816 11.3915 27.981 11.0947C28.1636 10.127 28.6573 9.24546 29.3869 8.58409C30.1165 7.92272 31.0421 7.51772 32.023 7.43066C32.9779 7.28544 33.9537 7.36907 34.87 7.67466C35.2239 7.77969 35.5262 8.01233 35.7183 8.32752C35.9105 8.6427 35.9788 9.01799 35.91 9.38066C35.878 9.60466 35.789 9.64766 35.59 9.64466C35.017 9.63366 34.44 9.63366 33.867 9.64466C33.689 9.64466 33.596 9.62666 33.579 9.40266C33.5746 9.23049 33.5046 9.06649 33.3835 8.94406C33.2624 8.82163 33.0991 8.74997 32.927 8.74366C32.5593 8.67912 32.1809 8.71668 31.833 8.85227C31.4851 8.98786 31.1811 9.21628 30.954 9.51266C30.4815 10.0937 30.2271 10.8218 30.235 11.5707C30.2239 11.7146 30.2429 11.8593 30.2905 11.9955C30.3382 12.1318 30.4136 12.2566 30.512 12.3623C30.6104 12.4679 30.7296 12.552 30.8622 12.6092C30.9947 12.6664 31.1377 12.6955 31.282 12.6947C31.6575 12.7676 32.0465 12.7139 32.3882 12.542C32.7299 12.37 33.0048 12.0896 33.17 11.7447C33.22 11.6447 33.27 11.5737 33.398 11.5737C34.098 11.5807 34.798 11.5737 35.531 11.5737" fill="#005B76"/>
<path d="M23.8101 11.5759C23.6023 12.1756 23.2343 12.7069 22.746 13.1123C22.2577 13.5178 21.6678 13.7818 21.0401 13.8759C20.0472 14.1077 19.0157 14.121 18.0171 13.9149C16.4861 13.5699 15.8631 12.3699 16.3471 10.7639C16.5925 9.83797 17.1275 9.01475 17.8739 8.41441C18.6203 7.81407 19.5391 7.46806 20.4961 7.42688C21.3893 7.3142 22.2963 7.4006 23.1521 7.67988C23.5002 7.78315 23.7987 8.00961 23.9919 8.31695C24.1852 8.62429 24.2599 8.99147 24.2021 9.34988C24.1841 9.54188 24.1451 9.64988 23.9021 9.64988C23.3181 9.63588 22.7301 9.64988 22.1431 9.64988C22.0151 9.64988 21.9011 9.67088 21.8581 9.47588C21.8489 9.3529 21.8128 9.23343 21.7526 9.12581C21.6923 9.0182 21.6093 8.92504 21.5093 8.85285C21.4093 8.78066 21.2947 8.73118 21.1736 8.70787C21.0525 8.68456 20.9278 8.68798 20.8081 8.71788C20.4021 8.73717 20.0093 8.86895 19.6738 9.09852C19.3383 9.32808 19.0732 9.64638 18.9081 10.0179C18.5996 10.5662 18.4712 11.1976 18.5411 11.8229C18.5624 12.0179 18.6426 12.2018 18.7711 12.3501C18.8995 12.4984 19.0701 12.604 19.2601 12.6529C19.6523 12.7867 20.0788 12.7801 20.4666 12.6341C20.8544 12.4882 21.1795 12.212 21.3861 11.8529C21.4204 11.7627 21.4834 11.6862 21.5655 11.6354C21.6476 11.5846 21.7441 11.5623 21.8401 11.5719C22.4771 11.5859 23.1151 11.5719 23.8061 11.5719" fill="#005B76"/>
<path d="M4.78807 2.55373C4.36107 3.10973 3.83007 3.57573 3.41007 4.13473C2.45065 5.31023 1.80702 6.71108 1.54007 8.20473C1.3924 8.75543 1.3916 9.33521 1.53775 9.88631C1.68391 10.4374 1.97191 10.9406 2.37307 11.3457C2.64615 11.5786 2.9628 11.7548 3.3046 11.8642C3.64641 11.9735 4.00655 12.0138 4.36407 11.9827C4.17699 12.5095 3.92219 13.0097 3.60607 13.4707C3.4682 13.6942 3.25871 13.8644 3.01175 13.9535C2.76478 14.0427 2.49489 14.0456 2.24607 13.9617C1.59029 13.8005 1.0096 13.4193 0.600876 12.8818C0.192148 12.3442 -0.0199094 11.6827 7.26969e-05 11.0077C-0.0047373 9.51646 0.388823 8.05097 1.14007 6.76273C1.99863 5.17837 3.17158 3.78594 4.58707 2.67073C4.65118 2.62721 4.71798 2.5878 4.78707 2.55273" fill="#F89C28"/>
<path d="M16.3479 7.36067C15.7679 9.54367 15.1979 11.6727 14.6319 13.8027C14.6276 13.8372 14.6162 13.8706 14.5986 13.9007C14.581 13.9307 14.5574 13.9569 14.5294 13.9776C14.5013 13.9982 14.4693 14.013 14.4354 14.0209C14.4014 14.0288 14.3662 14.0298 14.3319 14.0237C13.7479 14.0097 13.1599 14.0097 12.5729 14.0237C12.3489 14.0307 12.2809 13.9917 12.3489 13.7427C12.8976 11.7427 13.4366 9.739 13.9659 7.73167C14.0339 7.47167 14.1259 7.33967 14.4359 7.35467C15.0589 7.38667 15.6819 7.36567 16.3519 7.36567" fill="#005B76"/>
<path d="M25.174 14.0206C24.874 14.0206 24.574 14.0066 24.274 14.0206C24.032 14.0386 24.014 13.9316 24.067 13.7466C24.6243 11.6939 25.1796 9.63957 25.733 7.58357C25.776 7.41657 25.84 7.35257 26.021 7.35557C26.609 7.36957 27.193 7.36957 27.78 7.35557C28.015 7.35557 28.054 7.40557 27.99 7.64057C27.4273 9.69524 26.8753 11.7512 26.334 13.8086C26.281 14.0006 26.188 14.0226 26.034 14.0186C25.749 14.0186 25.461 14.0186 25.176 14.0186" fill="#005B76"/>
<path d="M39.7811 7.36157C39.2751 9.23457 38.7811 11.0616 38.2921 12.8956L38.2561 13.0056C38.1631 13.3296 38.1671 13.7636 37.9561 13.9456C37.7031 14.1626 37.2561 14.0066 36.8981 14.0136C36.5211 14.0246 35.9981 14.1486 35.8081 13.9566C35.6181 13.7646 35.9221 13.2766 36.0151 12.9236C36.4811 11.1536 36.9661 9.38757 37.4291 7.61757C37.4791 7.43257 37.5391 7.35357 37.7351 7.35757C38.4011 7.36857 39.0631 7.35757 39.7791 7.35757" fill="#005B76"/>
<path d="M6.32602 11.3855C6.39702 11.5705 6.50803 11.4675 6.60703 11.4215C7.95279 10.7674 9.14543 9.83682 10.107 8.69045C10.9695 7.68765 11.6562 6.54623 12.138 5.31445C12.0264 6.09874 11.7769 6.8571 11.401 7.55445C10.462 9.49334 9.05715 11.1693 7.31202 12.4325C6.70002 12.8885 6.37203 12.7525 6.29003 12.0015C6.25565 11.796 6.26796 11.5855 6.32602 11.3855Z" fill="#F89C28"/>
</svg>
