<svg width="113" height="145" viewBox="0 0 113 145" fill="none" xmlns="http://www.w3.org/2000/svg">
<mask id="mask0_1_5007" style="mask-type:luminance" maskUnits="userSpaceOnUse" x="0" y="0" width="113" height="145">
<path d="M112.452 0.481445H0.843018V144.744H112.452V0.481445Z" fill="white"/>
</mask>
<g mask="url(#mask0_1_5007)">
<mask id="mask1_1_5007" style="mask-type:luminance" maskUnits="userSpaceOnUse" x="0" y="0" width="113" height="145">
<path d="M112.452 0.481445H0.843018V144.744H112.452V0.481445Z" fill="white"/>
</mask>
<g mask="url(#mask1_1_5007)">
<g style="mix-blend-mode:multiply">
<mask id="mask2_1_5007" style="mask-type:luminance" maskUnits="userSpaceOnUse" x="0" y="124" width="113" height="21">
<path d="M112.452 124.552H0.843018V144.745H112.452V124.552Z" fill="white"/>
</mask>
<g mask="url(#mask2_1_5007)">
<mask id="mask3_1_5007" style="mask-type:luminance" maskUnits="userSpaceOnUse" x="0" y="124" width="113" height="21">
<path d="M112.452 134.649C112.452 140.225 87.467 144.749 56.652 144.749C25.837 144.749 0.843018 140.225 0.843018 134.649C0.843018 129.073 25.827 124.549 56.648 124.549C87.469 124.549 112.448 129.07 112.448 134.649" fill="white"/>
</mask>
<g mask="url(#mask3_1_5007)">
<path d="M112.452 124.552H0.843018V144.745H112.452V124.552Z" fill="url(#paint0_radial_1_5007)"/>
</g>
</g>
</g>
</g>
<path d="M87.1431 73.7348L90.3981 72.2348L91.2501 65.4668L87.1431 73.7348Z" fill="#7A8694"/>
<path d="M87.1431 73.7344L89.7171 77.6464L90.3981 72.2344L87.1431 73.7344Z" fill="#EFF7F9"/>
<path d="M88.9781 67.9815L86.1321 71.2065L87.1421 73.7315L91.2491 65.4635L91.2581 65.3975L88.9781 67.9815Z" fill="#98A4B1"/>
<path d="M87.1431 73.7344L88.1041 84.1344L88.8771 84.3164L89.7171 77.6434L87.1431 73.7344Z" fill="#CBD5DC"/>
<path d="M85.2751 72.181L84.9591 72.54L83.7891 73.866L83.4441 74.256L83.5951 77.356L87.1431 73.734L86.1331 71.21L85.2751 72.181Z" fill="#474A52"/>
<path d="M83.595 77.3613L86.861 83.8453L88.103 84.1373L87.143 73.7373L83.595 77.3613Z" fill="#E1E6E5"/>
<path d="M83.595 77.3613L81.127 82.4973L86.861 83.8453L83.595 77.3613Z" fill="#444950"/>
<path d="M83.443 74.2578L81.001 77.0258L83.594 77.3618L83.443 74.2578Z" fill="#7A8694"/>
<path d="M83.5951 77.3613L77.0381 81.5353L81.1271 82.4973L83.5951 77.3613Z" fill="white"/>
<path d="M84.4531 94.0536L85.0531 94.0686L86.1531 91.2686L84.4531 94.0536Z" fill="#444950"/>
<path d="M84.566 95.2957L85.048 94.0677L84.448 94.0527L84.566 95.2957Z" fill="#EFF7F9"/>
<path d="M84.453 94.0537L80.853 97.6397L81.908 102.064L84.565 95.2967L84.453 94.0537Z" fill="#808890"/>
<path d="M88.1031 84.1372L86.8611 83.8452L81.1271 82.4962L77.0371 81.5352L83.5951 77.3612L81.0011 77.0252L83.4431 74.2572L83.7881 73.8662L76.2371 75.7372V75.7492L77.9951 80.4302L77.0231 81.5302H77.0121V81.5412L77.8761 85.1652L78.1521 86.3222L79.0521 90.1112V90.1222L88.4521 85.3662L88.8641 84.3172L88.1031 84.1372Z" fill="#EFF7F9"/>
<path d="M79.061 90.1243L79.078 90.1973L84.453 94.0533L86.153 91.2643L88.468 85.3643L79.061 90.1243Z" fill="white"/>
<path d="M80.1161 94.5483L80.1371 94.6363L80.1441 94.6653L84.4531 94.0523L79.0781 90.1963L80.1161 94.5483Z" fill="#98A4B1"/>
<path d="M80.1431 94.6657L80.8521 97.6397L84.4521 94.0537L80.1431 94.6657Z" fill="#E1EBF0"/>
<path d="M81.7661 102.134L81.8441 102.154L81.9091 102.063L81.7661 102.134Z" fill="#444950"/>
<path d="M81.7661 102.135L78.8821 103.582L78.4031 107.028L81.8431 102.155L81.7661 102.135Z" fill="#EFF7F9"/>
<path d="M78.8821 103.581L76.5361 104.754L75.2181 105.413L70.8591 107.592L69.5081 108.268L76.2811 110.03L78.4031 107.03L78.8821 103.581Z" fill="#808890"/>
<path d="M69.508 108.264L68.927 108.555L72.933 114.761L76.281 110.026L69.508 108.264Z" fill="#475875"/>
<path d="M68.9259 108.555L68.6099 108.713L68.5379 107.348L66.8669 109.582L68.4069 108.811L67.1959 114.247L68.1179 115.089L68.9649 115.863L70.9019 117.632L72.9329 114.759L68.9259 108.555Z" fill="white"/>
<path d="M63.78 111.127L66.288 113.419L67.196 114.249L68.407 108.814L66.867 109.584L63.78 111.127Z" fill="#EFF7F9"/>
<path d="M68.9651 115.864L66.1431 121.871L70.9041 117.635L68.9651 115.864Z" fill="#EFF7F9"/>
<path d="M68.9651 115.865L68.1181 115.091L61.6891 116.755L61.2761 117.865L60.5581 119.797L65.2181 122.697L66.1411 121.875L68.9651 115.865Z" fill="#808890"/>
<path d="M60.558 119.798L59.082 123.77L60.061 127.283L65.218 122.693L60.558 119.798Z" fill="#475875"/>
<path d="M60.0611 127.281L59.0821 123.768L60.5581 119.796L61.2771 117.863L55.8081 114.873L58.6661 124.887L58.4951 125.348L53.0691 120.675L55.7331 127.852L58.1861 126.179L56.6481 130.319L60.0611 127.281Z" fill="white"/>
<path d="M66.288 113.42L63.78 111.128L63.373 112.228L66.288 113.42Z" fill="#98A4B1"/>
<path d="M66.288 113.42L63.373 112.225L63.054 113.081L61.688 116.756L68.118 115.092L67.196 114.25L66.288 113.42Z" fill="#E1EBF0"/>
<path d="M82.207 60.7425L85.284 58.6305L83.46 56.5635L82.207 60.7425Z" fill="#7A8694"/>
<path d="M85.284 58.6309L82.207 60.7429L88.978 67.9819L91.258 65.3989L85.284 58.6309Z" fill="#EFF7F9"/>
<path d="M78.6711 51.1355L77.0251 49.2705H77.0141L76.7781 51.0365L78.6711 51.1355Z" fill="#EFF7F9"/>
<path d="M82.2071 60.7422L83.4601 56.5632L78.6711 51.1352L76.7771 51.0352L76.6831 51.7352L82.2071 60.7422Z" fill="#98A4B1"/>
<path d="M85.275 72.1813L86.133 71.2093L88.979 67.9813L82.208 60.7393L85.275 72.1813Z" fill="#CBD5DC"/>
<path d="M79.3239 64.9172L82.2069 60.7432L76.6829 51.7432L76.5759 52.5432L79.3239 64.9172Z" fill="#474A52"/>
<path d="M79.324 64.9172L84.958 72.5412L85.275 72.1822L82.207 60.7432L79.324 64.9172Z" fill="#E1E6E5"/>
<path d="M84.9581 72.54L79.3241 64.916L76.2361 75.73V75.736L83.7871 73.866L84.9581 72.54Z" fill="#444950"/>
<path d="M77.0139 81.5311H77.0249L77.9969 80.431L76.2429 75.748L77.0139 81.5311Z" fill="#808890"/>
<path d="M79.3241 64.917L76.5761 52.542L74.8931 65.1L79.3241 64.917Z" fill="#7A8694"/>
<path d="M75.279 68.5811L79.3241 64.9121L74.8921 65.0951L74.8521 65.3951L75.279 68.5811Z" fill="#EFF7F9"/>
<path d="M79.324 64.917L75.279 68.581L75.535 70.49L75.662 71.437L75.783 72.343L74.583 82.423L75.971 82.723L77.016 81.539V81.528L76.243 75.749V75.737V75.731L79.324 64.917Z" fill="white"/>
<path d="M73.343 59.3574L69.02 68.6084L74.357 67.3934L74.857 65.4004L73.343 59.3574Z" fill="#F3F6F1"/>
<path d="M73.7781 69.6925L74.2311 67.8835L74.3531 67.3945L69.0161 68.6085L73.7781 69.6925Z" fill="#E7F0F4"/>
<path d="M64.822 54.9637L71.717 52.8767L68.403 39.6377L64.822 54.9637Z" fill="#444950"/>
<path d="M64.822 54.963L69.016 68.608L73.34 59.358L71.717 52.876L64.822 54.963Z" fill="#EFF7F9"/>
<path d="M72.2941 75.6214L72.8071 73.5714L73.7781 69.6924L69.0171 68.6084L72.2941 75.6214Z" fill="#A3B1BC"/>
<path d="M64.8221 54.9639L56.7041 72.3359L69.0161 68.6089L64.8221 54.9639Z" fill="#808890"/>
<path d="M56.7041 72.3344L70.7661 81.7264L71.9231 77.1024L72.2941 75.6214L69.0171 68.6084L56.7041 72.3344Z" fill="#475875"/>
<path d="M69.2521 87.774L70.3751 83.288L74.5821 82.427L71.9231 77.102L70.7661 81.726L56.7041 72.334L60.7631 89.706L69.2521 87.774Z" fill="white"/>
<path d="M66.4549 93.5074L68.3549 91.3524L68.4019 91.1684L69.2509 87.7744L60.7629 89.7064L66.4549 93.5074Z" fill="#A3B1BC"/>
<path d="M45.543 38.7676L66.811 37.6966L56.643 26.1816L45.543 38.7676Z" fill="#7A8694"/>
<path d="M56.569 51.2373L67.7879 38.8043L66.81 37.6963L45.5429 38.7673L44.9709 39.4153L56.569 51.2373Z" fill="#EFF7F9"/>
<path d="M56.5691 51.2377L64.8221 54.9637L68.4041 39.6377L68.3571 39.4497L67.7881 38.8047L56.5691 51.2377Z" fill="white"/>
<path d="M56.5689 51.237L44.9689 39.415L44.9489 39.438V39.449L42.7839 48.1L56.5689 51.237Z" fill="white"/>
<path d="M64.822 54.9633L56.569 51.2373L48.45 63.6493L64.822 54.9633Z" fill="#98A4B1"/>
<path d="M64.822 54.9639L48.45 63.6499L56.704 72.3359L64.822 54.9639Z" fill="#E1EBF0"/>
<path d="M56.5691 51.2376L42.7851 48.1006L41.4231 53.5426L56.5691 51.2376Z" fill="#75746B"/>
<path d="M48.45 63.6483L56.568 51.2363L41.422 53.5413L40.012 59.1713L48.45 63.6483Z" fill="#B6C1CE"/>
<path d="M48.45 63.6484L52.509 81.0204L56.704 72.3344L48.45 63.6484Z" fill="#E5EDF0"/>
<path d="M56.704 72.334L52.51 81.02L60.763 89.706L56.704 72.334Z" fill="#EFF7F9"/>
<path d="M48.4501 63.6489L40.0121 59.1719L38.4531 65.4009L40.3261 72.8819L48.4501 63.6489Z" fill="#75746B"/>
<path d="M52.5089 81.0204L48.4499 63.6484L40.3259 72.8814L42.5139 81.6244L52.5089 81.0204Z" fill="#F0F7FB"/>
<path d="M52.5091 81.0205L47.6431 94.4135L50.8111 98.0035L60.7661 89.7035L52.5091 81.0205Z" fill="white"/>
<path d="M58.4171 102.615L60.7631 89.7061L50.8091 98.0061L56.6481 104.623L58.4171 102.615Z" fill="#B6C1CE"/>
<path d="M52.509 81.0205L42.509 81.6205L43.334 84.9205L52.509 81.0205Z" fill="#304350"/>
<path d="M52.5091 81.0205L43.3391 84.9205L44.9491 91.3545V91.3655L47.6431 94.4135L52.5091 81.0205Z" fill="#EFF7F9"/>
<path d="M63.8511 110.822L64.0881 109.797L64.9171 106.216L59.4761 107.14L63.8511 110.822Z" fill="#F3F6F1"/>
<path d="M63.8511 110.822L59.4761 107.14L59.5431 107.262L59.9431 107.629L63.7781 111.129L63.8511 110.822Z" fill="#E7F0F4"/>
<path d="M66.154 100.87L66.27 100.37L66.716 98.4402L66.801 98.0762L64.022 99.2762L66.154 100.87Z" fill="#444950"/>
<path d="M64.9171 106.215L65.2831 104.633L69.6021 99.7582L66.2691 100.371L66.1541 100.871L64.0221 99.2812L59.4761 107.14L64.9171 106.215Z" fill="#EFF7F9"/>
<path d="M59.459 107.182L59.543 107.259L59.476 107.137L59.459 107.182Z" fill="#A3B1BC"/>
<path d="M57.9489 105.807L59.111 106.867L59.4759 107.139L64.0219 99.2812L60.8899 99.8132L58.417 102.613L56.6479 104.613L57.9489 105.807Z" fill="#808890"/>
<path d="M59.4591 107.181L59.4761 107.136L59.1111 106.863L59.4591 107.181Z" fill="#475875"/>
<path d="M68.078 92.5545L68.356 91.3545L66.456 93.5085L66.356 93.6235L67.784 93.8345L68.078 92.5545Z" fill="#EFF7F9"/>
<path d="M66.8 98.0819L67.782 93.8389L66.354 93.6279L66.454 93.5129L60.763 89.7129L58.416 102.622L60.89 99.8219L62.19 98.3499L63.273 97.1229L64.023 99.2899L66.8 98.0819Z" fill="white"/>
<path d="M63.272 97.1133L62.189 98.3403L64.022 99.2803L63.272 97.1133Z" fill="#98A4B1"/>
<path d="M62.1901 98.3408L60.8901 99.8128L64.0221 99.2808L62.1901 98.3408Z" fill="#E1EBF0"/>
<path d="M63.0541 113.081L63.3721 112.224L63.7801 111.124L59.9451 107.624L55.8071 114.871L63.0541 113.081Z" fill="#808890"/>
<path d="M61.6891 116.754L63.0551 113.079L55.8071 114.879L61.2771 117.869L61.6891 116.754Z" fill="#475875"/>
<path d="M57.9491 105.807L56.6491 104.62L52.9941 107.959L57.9491 105.807Z" fill="#98A4B1"/>
<path d="M59.9429 107.629L59.5429 107.262L59.4589 107.185L59.1109 106.868L57.9489 105.808L52.9929 107.96L50.4619 110.272L55.8069 114.872L59.9429 107.629Z" fill="#E1EBF0"/>
<path d="M50.4621 110.271L49.9021 110.783L51.5841 116.674L52.8041 119.963L55.8041 114.875L50.4621 110.271Z" fill="#E5EDF0"/>
<path d="M52.8049 119.963L53.0689 120.675L58.4949 125.349L58.6659 124.887L55.8079 114.874L52.8049 119.963Z" fill="#EFF7F9"/>
<path d="M49.9021 110.781L49.5261 111.125L51.5841 116.672L49.9021 110.781Z" fill="#F0F7FB"/>
<path d="M58.1859 126.182L55.7329 127.856L56.6479 130.322L58.1859 126.182Z" fill="#B6C1CE"/>
<path d="M75.3661 83.4107L75.9661 82.7277L74.5791 82.4277L75.3661 83.4107Z" fill="#A3B1BC"/>
<path d="M68.402 91.1687L68.356 91.3527L75.143 83.6617L75.365 83.4097L74.58 82.4277L68.402 91.1687Z" fill="white"/>
<path d="M74.353 67.3935L74.231 67.8825L75.531 70.4945L75.279 68.5815L74.852 65.3965L74.353 67.3935Z" fill="#E1EBF0"/>
<path d="M73.7781 69.6928L72.8071 73.5728L75.6621 71.4428L75.5351 70.4958L74.2351 67.8838L73.7781 69.6928Z" fill="#E5EDF0"/>
<path d="M72.8071 73.5714L72.2941 75.6214L71.9231 77.1024L74.5811 82.4274L75.7811 72.3484L75.6601 71.4414L72.8071 73.5714Z" fill="#EFF7F9"/>
<path d="M70.3751 83.2887L69.2521 87.7747L68.4021 91.1687L74.5821 82.4277L70.3751 83.2887Z" fill="#B6C1CE"/>
<path d="M80.8531 97.6397L80.1431 94.6657L80.1361 94.6367L76.5361 104.751L78.8821 103.578L81.7671 102.136L81.9091 102.064L80.8531 97.6397Z" fill="#A3B1BC"/>
<path d="M74.6431 94.6483L80.1141 94.5483L79.0761 90.1963L79.0591 90.1233V90.1123L74.6431 94.6483Z" fill="#808890"/>
<path d="M80.116 94.5488L74.645 94.6488L75.218 105.41L76.535 104.751L80.135 94.6378L80.116 94.5488Z" fill="#475875"/>
<path d="M74.6431 94.6484L68.5361 107.348L70.8571 107.589L75.2161 105.41L74.6431 94.6484Z" fill="white"/>
<path d="M68.5381 107.348L68.6111 108.713L68.9261 108.555L69.5081 108.264L70.8591 107.589L68.5381 107.348Z" fill="#A3B1BC"/>
<path d="M75.709 87.059L78.154 86.324L77.878 85.166L75.709 87.059Z" fill="#98A4B1"/>
<path d="M75.7091 87.0592L74.6431 94.6472L79.0561 90.1122L78.1561 86.3242L75.7091 87.0592Z" fill="#E1EBF0"/>
<path d="M75.9689 82.7279L75.3689 83.4109L75.1479 83.6619L75.713 87.0619L77.882 85.1699L77.017 81.5459L75.9689 82.7279Z" fill="#B6C1CE"/>
<path d="M69.6021 99.7585L74.6431 94.6485L75.707 87.0605L69.6021 99.7585Z" fill="#E5EDF0"/>
<path d="M74.6431 94.6484L69.6001 99.7594L68.5361 107.347L74.6431 94.6484Z" fill="#EFF7F9"/>
<path d="M68.3561 91.3532L68.0781 92.5532L75.7091 87.0592L75.1441 83.6592L68.3561 91.3532Z" fill="#75746B"/>
<path d="M68.0779 92.5546L67.7779 93.8336L66.7959 98.0766L66.7119 98.4416L69.5979 99.7596L75.7049 87.0596L68.0779 92.5546Z" fill="#F0F7FB"/>
<path d="M69.6021 99.7588L65.2831 104.634L64.9171 106.216L64.0881 109.797L68.5381 107.347L69.6021 99.7588Z" fill="white"/>
<path d="M64.088 109.797L63.851 110.822L63.78 111.127L66.867 109.584L68.538 107.347L64.088 109.797Z" fill="#B6C1CE"/>
<path d="M66.716 98.4414L66.269 100.371L69.602 99.7594L66.716 98.4414Z" fill="#304350"/>
<path d="M87.1431 57.0674L91.2501 65.3354L90.3981 58.5674L87.1431 57.0674Z" fill="#7A8694"/>
<path d="M87.1431 57.0673L90.3981 58.5673L89.7171 53.1553L87.1431 57.0673Z" fill="#EFF7F9"/>
<path d="M87.1431 57.0674L86.1331 59.5924L91.2591 65.4004L91.2501 65.3354L87.1431 57.0674Z" fill="#98A4B1"/>
<path d="M88.1031 46.6644L87.1421 57.0644L89.7161 53.1524L88.8761 46.4814L88.1031 46.6644Z" fill="#CBD5DC"/>
<path d="M83.5951 53.4404L83.4441 56.5404L86.1331 59.5884L87.1431 57.0634L83.5951 53.4404Z" fill="#474A52"/>
<path d="M83.595 53.44L87.143 57.067L88.103 46.667L86.861 46.959L83.595 53.44Z" fill="#E1E6E5"/>
<path d="M82.513 47.981L81.127 48.307L83.595 53.442L86.861 46.958L83.693 47.703L82.513 47.981Z" fill="#444950"/>
<path d="M83.595 53.4404L81.001 53.7754L83.443 56.5444L83.595 53.4404Z" fill="#7A8694"/>
<path d="M83.5949 53.4406L77.0379 49.2666H77.0249L81.0009 53.7726L83.5949 53.4406Z" fill="#EFF7F9"/>
<path d="M80.508 34.6106L80.324 35.3806L87.21 42.2406L84.177 34.5166L80.508 34.6106Z" fill="#808890"/>
<path d="M80.7801 33.469L80.5081 34.61L84.1771 34.516L82.9431 31.376L80.7801 33.469Z" fill="#475875"/>
<path d="M81.495 30.4723L80.78 33.4723L82.943 31.3753L81.907 28.7383L81.495 30.4723Z" fill="white"/>
<path d="M82.5129 47.981L83.6939 47.704L82.9619 47.334L82.5129 47.981Z" fill="#EFF7F9"/>
<path d="M82.9619 47.332L83.6929 47.702L86.8599 46.957L88.1029 46.665L88.8759 46.481L87.8359 43.833L82.9619 47.332Z" fill="white"/>
<path d="M80.8051 48.381L77.0371 49.267L83.5941 53.441L81.1261 48.305L82.5121 47.98L82.9621 47.332L80.8051 48.381Z" fill="white"/>
<path d="M78.7329 42.0537L78.7149 42.1317L78.2839 43.9317L82.9629 47.3317L87.8369 43.8317L87.6369 43.3157L78.7329 42.0537Z" fill="#98A4B1"/>
<path d="M80.3239 35.3818L80.2539 35.6818L79.5629 38.5768L78.7319 42.0608L87.6319 43.3258L87.2079 42.2468L80.3239 35.3818Z" fill="#E1EBF0"/>
<path d="M77.2761 48.1599L77.0381 49.1599V49.1699L77.0161 49.2609V49.2719H77.0271H77.0391L80.8071 48.3859L82.9641 47.3369L77.2761 48.1599Z" fill="#75746B"/>
<path d="M77.2761 48.1596L82.9621 47.3316L78.2841 43.9316L77.2761 48.1596Z" fill="#B6C1CE"/>
<path d="M81.7661 28.6675L81.9091 28.7385L81.8431 28.6475L81.7661 28.6675Z" fill="#444950"/>
<path d="M78.8821 27.2253L81.7661 28.6673L81.8441 28.6473L78.4031 23.7812L78.8821 27.2253Z" fill="#EFF7F9"/>
<path d="M69.5081 22.5382L73.8901 24.7292L74.9731 25.2703L78.8821 27.2253L78.4031 23.7812L76.2811 20.7812L69.5081 22.5382Z" fill="#808890"/>
<path d="M68.926 22.247L69.507 22.538L76.28 20.776L72.933 16.04L68.926 22.247Z" fill="#475875"/>
<path d="M68.965 14.9361L68.118 15.7101L67.196 16.5521L68.407 21.9871L63.78 19.6741L63.851 19.9791L64.917 24.5811L65.636 27.6871L68.755 22.1571L68.926 22.2431L72.933 16.0361L70.902 13.1621L68.965 14.9361Z" fill="white"/>
<path d="M66.288 17.3818L63.78 19.6738L68.407 21.9868L67.196 16.5518L66.288 17.3818Z" fill="#EFF7F9"/>
<path d="M68.9651 14.9367L70.9021 13.1667L66.1431 8.93066L68.9651 14.9367Z" fill="#EFF7F9"/>
<path d="M60.5581 11.0044L61.5231 13.6044L61.6891 14.0494L68.1181 15.7134L68.9651 14.9394L66.1431 8.93038L65.2201 8.10938L60.5581 11.0044Z" fill="#808890"/>
<path d="M59.082 7.03253L59.449 8.01853L60.558 11.0045L65.218 8.10953L60.061 3.51953L59.082 7.03253Z" fill="#475875"/>
<path d="M66.288 17.3818L63.373 18.5818L63.78 19.6818L66.288 17.3818Z" fill="#98A4B1"/>
<path d="M61.9821 14.8369L63.1951 18.1009L61.2241 14.6489L54.9431 20.0589L60.6431 22.5349L63.7781 19.6749L63.3711 18.5749L66.2881 17.3819L67.1961 16.5519L68.1181 15.7089L61.6891 14.0459L61.7961 14.3349L61.9821 14.8369Z" fill="#E1EBF0"/>
<path d="M59.4761 23.6614L64.9171 24.5854L63.8511 19.9814L59.4761 23.6614Z" fill="#F3F6F1"/>
<path d="M60.6431 22.5348L59.5431 23.5398L59.4761 23.6618L63.8511 19.9818L63.7801 19.6758L60.6431 22.5348Z" fill="#E7F0F4"/>
<path d="M66.8 32.7256L66.418 31.0736L66.153 29.9316L64.022 31.5216L66.8 32.7256Z" fill="#444950"/>
<path d="M59.4761 23.6611L64.0221 31.5201L66.1541 29.9301L65.6361 27.6911L64.9171 24.5811L59.4761 23.6611Z" fill="#EFF7F9"/>
<path d="M59.459 23.617L59.476 23.662L59.543 23.54L59.459 23.617Z" fill="#A3B1BC"/>
<path d="M60.8901 30.9881L64.0221 31.5201L59.4761 23.6611L59.1111 23.9331L58.4921 24.4981L56.6431 26.1811L60.8901 30.9881Z" fill="#808890"/>
<path d="M59.1111 23.9332L59.4761 23.6612L59.4591 23.6162L59.1111 23.9332Z" fill="#475875"/>
<path d="M67.782 36.9688L66.354 37.1808L68.354 39.4487L68.309 39.2568L67.782 36.9688Z" fill="#EFF7F9"/>
<path d="M64.022 31.5205L62.189 32.4605L63.272 33.6875L64.022 31.5205Z" fill="#98A4B1"/>
<path d="M64.0221 31.5203L60.8901 30.9883L62.1901 32.4603L64.0221 31.5203Z" fill="#E1EBF0"/>
<path d="M63.1951 18.0995L61.9821 14.8355L61.2241 14.6475L63.1951 18.0995Z" fill="#808890"/>
<path d="M61.2241 14.648L61.9821 14.835L61.7961 14.335L61.2241 14.648Z" fill="#475875"/>
<path d="M61.2241 14.6486L61.7961 14.3356L61.6881 14.0466L61.5231 13.6006L61.2241 14.6486Z" fill="white"/>
<path d="M59.4591 23.6165L59.5431 23.5395L60.6431 22.5395L54.9431 20.0635L58.4921 24.5035L59.1111 23.9385L59.4591 23.6165Z" fill="#98A4B1"/>
<path d="M58.4919 24.4996L54.9429 20.0586L51.5559 21.5296L56.6429 26.1816L58.4919 24.4996Z" fill="#B6C1CE"/>
<path d="M54.9431 20.0583L61.2241 14.6483L58.0321 9.23828L54.9431 20.0583Z" fill="#E5EDF0"/>
<path d="M61.224 14.6486L61.524 13.6016L60.559 11.0016L59.449 8.01562L58.033 9.23562L61.224 14.6486Z" fill="#EFF7F9"/>
<path d="M54.9431 20.0588L50.8101 16.2148L49.5261 19.6748L51.5561 21.5298L54.9431 20.0588Z" fill="#75746B"/>
<path d="M54.9431 20.0587L58.0321 9.23867L53.4821 9.01367L50.8101 16.2137L54.9431 20.0587Z" fill="#F0F7FB"/>
<path d="M56.6429 0.481445L55.5029 3.55445L58.0269 9.23744L59.4439 8.01845L59.0769 7.03145L60.0559 3.51945L56.6429 0.481445Z" fill="white"/>
<path d="M58.0321 9.23855L53.9321 7.81055L53.4861 9.01055L58.0321 9.23855Z" fill="#304350"/>
<path d="M58.032 9.23869L55.507 3.55469L53.928 7.81069L58.032 9.23869Z" fill="#EFF7F9"/>
<path d="M74.582 48.3746L75.969 48.0746L75.369 47.3916L74.582 48.3746Z" fill="#A3B1BC"/>
<path d="M74.582 48.3742L75.367 47.3912L70.443 41.8172L68.353 39.4482L68.399 39.6332L74.582 48.3742Z" fill="white"/>
<path d="M74.231 62.9186L74.852 65.4006L75.535 60.3066L74.231 62.9186Z" fill="#E1EBF0"/>
<path d="M72.8071 57.2295L74.2311 62.9185L75.5311 60.3065L75.6581 59.3595L72.8071 57.2295Z" fill="#E5EDF0"/>
<path d="M74.5821 48.374L71.9231 53.699L72.8071 57.23L75.6611 59.36L75.7831 58.453L74.5821 48.374Z" fill="#EFF7F9"/>
<path d="M74.582 48.3747L70.375 47.5137L71.924 53.6997L74.582 48.3747Z" fill="white"/>
<path d="M74.5821 48.3748L68.4031 39.6338L70.3751 47.5138L74.5821 48.3748Z" fill="#B6C1CE"/>
<path d="M75.2429 40.2583L78.7119 42.1313L78.7309 42.0533L79.5609 38.5693L75.2429 40.2583Z" fill="#F3F6F1"/>
<path d="M75.2429 40.2589L79.5609 38.5699L80.2519 35.6699L75.2429 40.2589Z" fill="#E7F0F4"/>
<path d="M77.0281 49.1603L77.0361 49.1673V49.1562L77.0281 49.1603Z" fill="#444950"/>
<path d="M75.2429 40.2588L77.0259 49.1588H77.0359L77.2739 48.1588L78.2819 43.9338L78.7119 42.1338L75.2429 40.2588Z" fill="#EFF7F9"/>
<path d="M75.2431 40.2587L80.2521 35.6747L80.3221 35.3797L80.5061 34.6107L80.7781 33.4697L81.4931 30.4697L74.7681 27.8047L75.2431 40.2587Z" fill="#A3B1BC"/>
<path d="M78.882 27.2255L74.9729 25.2715L74.7729 27.8075L81.4969 30.4735L81.9109 28.7385L81.768 28.6675L78.882 27.2255Z" fill="#4A4D53"/>
<path d="M75.3659 47.3918L75.9659 48.0748L76.8329 49.0578L77.0249 49.1578L75.2419 40.2578L70.4419 41.8168L75.3659 47.3918Z" fill="#808890"/>
<path d="M68.312 39.2566L68.356 39.4486L70.443 41.8176L75.243 40.2586L74.769 27.8076L68.312 39.2566Z" fill="#475875"/>
<path d="M74.77 27.8075L74.97 25.2705L73.887 24.7295L74.77 27.8075Z" fill="#E1EBF0"/>
<path d="M66.418 31.0736L66.8 32.7256L64.022 31.5256L63.272 33.6936L66.354 37.1816L67.782 36.9706L68.312 39.2586L74.77 27.8096L66.418 31.0736Z" fill="white"/>
<path d="M66.154 29.9301L66.418 31.0731L74.771 27.8061L73.89 24.7281L69.508 22.5371L68.927 22.2461L68.756 22.1611L65.636 27.6911L66.154 29.9301Z" fill="#A3B1BC"/>
<path d="M77.036 49.1672L77.028 49.1602L76.981 49.2202L76.94 49.1732L76.84 49.0572L75.972 48.0732L74.585 48.3732L75.785 58.4522L77.015 49.2692V49.2582L77.036 49.1672Z" fill="white"/>
<path d="M76.9431 49.1742L76.9841 49.2212L77.0311 49.1602L76.9431 49.1742Z" fill="#98A4B1"/>
<path d="M76.9431 49.1745L77.0311 49.1605L76.8391 49.0605L76.9431 49.1745Z" fill="#E1EBF0"/>
<path d="M26.153 73.7348L22.043 65.4668L22.894 72.2348L26.153 73.7348Z" fill="#7A8694"/>
<path d="M26.153 73.7344L22.897 72.2344L23.579 77.6464L26.153 73.7344Z" fill="#EFF7F9"/>
<path d="M26.1531 73.7344L27.1631 71.2104L29.8521 74.2574L32.2941 77.0254L32.3761 77.1194L34.3901 77.9934L28.2111 70.2624L26.7901 70.7874L22.0371 65.4014L22.0461 65.4664L26.1531 73.7344Z" fill="#98A4B1"/>
<path d="M25.1921 84.1373L26.1531 73.7373L23.5791 77.6493L24.4191 84.3223L25.1921 84.1373Z" fill="#CBD5DC"/>
<path d="M29.8511 74.257L27.1621 71.209L26.1521 73.734L29.7001 77.361L29.8511 74.257Z" fill="#474A52"/>
<path d="M26.1531 73.7344L25.1921 84.1344L26.4341 83.8424L29.7001 77.3584L26.1531 73.7344Z" fill="#E1E6E5"/>
<path d="M26.4341 83.8453L31.5791 82.6353L32.1681 82.4973L29.7001 77.3613L26.4341 83.8453Z" fill="#444950"/>
<path d="M32.294 77.0258L29.852 74.2578L29.7 77.3578L32.294 77.0258Z" fill="#7A8694"/>
<path d="M31.579 82.6357L26.434 83.8457L25.192 84.1377L24.418 84.3197L26.582 89.8297L31.579 82.6357Z" fill="#EFF7F9"/>
<path d="M35.2601 85.8213L35.9601 82.8703L34.9121 81.8513L36.2571 81.5353L29.7001 77.3613L32.1681 82.4973L31.5791 82.6353L26.5791 89.8293L26.6491 90.0073L35.2601 85.8213Z" fill="white"/>
<path d="M32.891 95.7549L33.041 95.1269L33.066 95.0199L26.843 90.5029L28.67 95.1559L32.891 95.7549Z" fill="#98A4B1"/>
<path d="M32.0001 99.4893L32.8911 95.7543L28.6731 95.1543L30.9731 101.015L32.0001 99.4893Z" fill="#E1EBF0"/>
<path d="M34.5111 88.9623L34.5811 88.6703L35.2601 85.8203L26.6521 90.0063L26.6891 90.1063L34.5111 88.9623Z" fill="#75746B"/>
<path d="M33.066 95.0199L33.731 92.2319L34.511 88.9629L26.689 90.1009L26.846 90.5009L33.066 95.0199Z" fill="#B6C1CE"/>
<path d="M31.8001 100.328L32.0001 99.4893L30.9751 101.015L31.3861 102.063L31.8001 100.328Z" fill="#E5EDF0"/>
<path d="M31.451 102.154L31.529 102.134L31.386 102.063L31.451 102.154Z" fill="#444950"/>
<path d="M34.4129 103.582L31.5289 102.14L31.4509 102.16L34.8919 107.028L34.4129 103.582Z" fill="#EFF7F9"/>
<path d="M43.7871 108.263L39.4051 106.072L38.3221 105.531L34.4131 103.581L34.8921 107.027L37.0141 110.027L43.7871 108.263Z" fill="#808890"/>
<path d="M44.3691 108.555L43.7881 108.264L37.0151 110.026L40.3621 114.762L44.3691 108.555Z" fill="#475875"/>
<path d="M44.3301 115.865L45.1771 115.091L46.0991 114.249L44.8881 108.814L44.5401 108.64L44.3691 108.554L40.3621 114.761L42.3931 117.635L44.3301 115.865Z" fill="white"/>
<path d="M44.887 108.813L46.098 114.248L47.006 113.418L49.514 111.126L44.887 108.813Z" fill="#EFF7F9"/>
<path d="M44.3301 115.864L42.3931 117.634L47.1541 121.87L44.3301 115.864Z" fill="#EFF7F9"/>
<path d="M52.7371 119.798L51.6061 116.756L45.1771 115.092L44.3301 115.866L47.1541 121.872L48.0771 122.694L52.7371 119.798Z" fill="#808890"/>
<path d="M54.2129 123.77L52.7369 119.797L48.0769 122.697L53.2339 127.287L54.2129 123.77Z" fill="#475875"/>
<path d="M54.2131 123.77L53.2341 127.283L56.6471 130.32L54.2131 123.77Z" fill="white"/>
<path d="M47.0071 113.418L49.9221 112.223L49.5151 111.123L47.0071 113.418Z" fill="#98A4B1"/>
<path d="M47.007 113.419L46.099 114.249L45.177 115.091L51.606 116.755L49.922 112.224L47.007 113.419Z" fill="#E1EBF0"/>
<path d="M34.3081 51.4936L34.3901 51.7096L34.5811 51.1846L34.3081 51.4936Z" fill="#474A52"/>
<path d="M34.175 51.6432L34.389 51.7092L34.307 51.4932L34.175 51.6432Z" fill="white"/>
<path d="M34.3889 51.7105L35.7949 49.8105L34.5799 51.1815L34.3889 51.7105Z" fill="#DEE6E8"/>
<path d="M37.479 62.5306L34.39 51.7106L34.176 51.6436L30.436 55.8816L37.479 62.5306Z" fill="#E1EBF0"/>
<path d="M37.479 62.5308L30.4359 55.8818L25.0229 62.0178L37.479 62.5308Z" fill="#7A8694"/>
<path d="M34.3889 51.7104L36.5889 51.5744L36.2799 49.2744H36.2689L35.7949 49.8114L34.3889 51.7104Z" fill="#C6CED0"/>
<path d="M34.3889 51.7102L37.4779 62.5302L37.9779 61.9162L36.5889 51.5742L34.3889 51.7102Z" fill="#C2CBD4"/>
<path d="M37.4789 62.5306L25.0229 62.0176L22.3999 64.9906L28.2109 70.2616L37.4789 62.5306Z" fill="#EFF7F9"/>
<path d="M26.7891 70.7862L28.2101 70.2612L22.3991 64.9902L22.0371 65.4002L26.7891 70.7862Z" fill="white"/>
<path d="M37.478 62.53L38.228 63.8L37.975 61.915L37.478 62.53Z" fill="#EFF7F9"/>
<path d="M38.036 68.4313L38.442 65.4003L38.228 63.8003L37.478 62.5303L28.21 70.2613L38.036 68.4313Z" fill="white"/>
<path d="M33.684 78.6002L34.39 77.9922L32.376 77.1182L33.684 78.6002Z" fill="#E1EBF0"/>
<path d="M37.6339 71.4356L37.7599 70.4956L38.0359 68.4326L28.2109 70.2626L37.6339 71.4356Z" fill="#75746B"/>
<path d="M36.9009 76.9027L37.5109 72.3497L37.6329 71.4427V71.4357L28.2109 70.2617L34.3889 77.9937L36.9009 76.9027Z" fill="#B6C1CE"/>
<path d="M33.6841 78.6002L34.0841 79.0552L34.3891 77.9932L33.6841 78.6002Z" fill="#E5EDF0"/>
<path d="M36.4929 79.9493L36.9009 76.9023L34.3889 77.9933L36.4929 79.9493Z" fill="#75746B"/>
<path d="M36.27 81.5312H36.281L36.493 79.9482L34.393 77.9922L34.093 79.0562L36.27 81.5312Z" fill="#F0F7FB"/>
<path d="M48.3779 106.216L49.4429 110.822L53.8179 107.14L48.3779 106.216Z" fill="#F3F6F1"/>
<path d="M49.4431 110.822L49.5141 111.128L53.7511 107.262L53.8181 107.14L49.4431 110.822Z" fill="#E7F0F4"/>
<path d="M46.4951 98.0811L46.8771 99.7331L47.1421 100.875L49.2731 99.2811L46.4951 98.0811Z" fill="#444950"/>
<path d="M47.1431 100.87L47.6611 103.109L48.3801 106.215L53.8211 107.139L49.2731 99.2812L47.1431 100.87Z" fill="#EFF7F9"/>
<path d="M53.752 107.262L53.836 107.185L53.819 107.14L53.752 107.262Z" fill="#A3B1BC"/>
<path d="M52.4049 99.8122L49.2729 99.2812L53.819 107.14L54.1839 106.868L56.6479 104.62L52.4049 99.8122Z" fill="#808890"/>
<path d="M53.8191 107.139L53.8361 107.184L54.1841 106.867L53.8191 107.139Z" fill="#475875"/>
<path d="M45.5129 93.8335L46.9409 93.6225L44.9409 91.3535L44.9849 91.5455L45.5129 93.8335Z" fill="#EFF7F9"/>
<path d="M49.2729 99.2813L51.1059 98.3413L50.0229 97.1133L49.2729 99.2813Z" fill="#98A4B1"/>
<path d="M49.2729 99.2818L52.4049 99.8138L51.1049 98.3418L49.2729 99.2818Z" fill="#E1EBF0"/>
<path d="M36.356 81.6276L36.456 81.7446L37.323 82.7276L38.711 82.4276L37.511 72.3486L36.901 76.9026L36.492 79.9496L36.28 81.5316V81.5426L36.259 81.6336L36.266 81.6406L36.313 81.5806L36.356 81.6276Z" fill="white"/>
<path d="M37.3259 82.7277L37.9259 83.4107L38.7099 82.4277L37.3259 82.7277Z" fill="#A3B1BC"/>
<path d="M38.713 82.4277L37.928 83.4107L42.848 88.9847L44.938 91.3537L44.892 91.1687L38.713 82.4277Z" fill="white"/>
<path d="M38.036 68.4314L37.759 70.4944L39.059 67.8824L38.443 65.4004L38.036 68.4314Z" fill="#E1EBF0"/>
<path d="M37.76 70.4948L37.634 71.4348V71.4418L40.489 73.5718L39.064 67.8818L37.76 70.4948Z" fill="#E5EDF0"/>
<path d="M37.633 71.4424L37.511 72.3494L38.711 82.4284L41.37 77.1024L40.486 73.5724L37.633 71.4424Z" fill="#EFF7F9"/>
<path d="M38.7131 82.4275L42.9201 83.2885L41.3711 77.1025L38.7131 82.4275Z" fill="white"/>
<path d="M38.7131 82.4277L44.8921 91.1687L42.9201 83.2887L38.7131 82.4277Z" fill="#B6C1CE"/>
<path d="M38.0499 90.5439L34.5809 88.6709L34.5109 88.9629L33.7319 92.2329L38.0499 90.5439Z" fill="#F3F6F1"/>
<path d="M38.05 90.543L33.732 92.232L33.067 95.02L33.041 95.126L38.05 90.543Z" fill="#E7F0F4"/>
<path d="M36.2561 81.6437H36.2671L36.2591 81.6367L36.2561 81.6437Z" fill="#444950"/>
<path d="M38.05 90.5434L36.267 81.6434H36.257V81.6324L36.279 81.5424V81.5314H36.268L34.084 79.0554L33.684 78.5994L32.376 77.1174L32.294 77.0244L29.7 77.3604L36.258 81.5344L34.912 81.8504L35.965 82.8694L35.265 85.8204L34.585 88.6694L38.05 90.5434Z" fill="#EFF7F9"/>
<path d="M38.05 90.543L33.043 95.126L32.893 95.755L32.003 99.489L31.803 100.329L38.528 102.994L38.05 90.543Z" fill="#A3B1BC"/>
<path d="M34.413 103.581L38.322 105.535L38.522 102.999L31.798 100.333L31.384 102.068L31.527 102.139L34.413 103.581Z" fill="#4A4D53"/>
<path d="M37.929 83.4105L37.329 82.7275L36.461 81.7445L36.27 81.6445L38.053 90.5445L42.843 88.9815L37.929 83.4105Z" fill="#808890"/>
<path d="M44.9831 91.5454L44.9391 91.3534L42.8481 88.9814L38.0481 90.5404L38.5221 102.991L44.9831 91.5454Z" fill="#475875"/>
<path d="M38.524 102.994L38.324 105.531L39.407 106.073L38.524 102.994Z" fill="#E1EBF0"/>
<path d="M46.8771 99.7289L46.4951 98.0769L49.2731 99.2819L50.0231 97.1139L46.9431 93.6229L45.5151 93.8339L44.9851 91.5459L38.5271 102.995L46.8771 99.7289Z" fill="white"/>
<path d="M47.6589 103.11L47.1409 100.871L46.8759 99.7285L38.5239 102.995L39.4049 106.073L43.7869 108.264L44.3679 108.555L44.5389 108.64L47.6589 103.11Z" fill="#A3B1BC"/>
<path d="M49.4431 110.821L48.3771 106.215L47.6581 103.109L44.5391 108.639L44.8871 108.813L49.5141 111.127L49.4431 110.821Z" fill="#182631"/>
<path d="M36.2671 81.6411L36.3551 81.6271L36.3141 81.5811L36.2671 81.6411Z" fill="#98A4B1"/>
<path d="M36.2671 81.6411L36.4591 81.7411L36.3591 81.623L36.2671 81.6411Z" fill="#E1EBF0"/>
<path d="M26.153 57.0674L22.897 58.5674L22.043 65.3354L26.153 57.0674Z" fill="#7A8694"/>
<path d="M26.153 57.0673L23.579 53.1553L22.897 58.5673L26.153 57.0673Z" fill="#EFF7F9"/>
<path d="M27.1619 59.5924L26.1519 57.0684L22.0429 65.3354L22.0349 65.4014L27.1619 59.5924Z" fill="#98A4B1"/>
<path d="M26.1531 57.0673L25.1921 46.6673L26.4101 46.9533L26.4461 41.3223L24.4191 46.4813L23.5791 53.1543L26.1531 57.0673Z" fill="#CBD5DC"/>
<path d="M29.7001 53.4404L26.1531 57.0674L27.1621 59.5914L29.8511 56.5444L29.7001 53.4404Z" fill="#474A52"/>
<path d="M32.1681 48.3051L30.2601 47.8561L30.0701 47.8121L26.4341 46.9561L29.7001 53.4401L32.1681 48.3051Z" fill="#444950"/>
<path d="M29.7 53.4404L29.851 56.5404L32.294 53.7714L29.7 53.4404Z" fill="#7A8694"/>
<path d="M29.7 53.4405L32.294 53.7755L36.2699 49.2695H36.257L29.7 53.4405Z" fill="#EFF7F9"/>
<path d="M36.2579 49.2667L32.1679 48.3047L29.7009 53.4407L36.2579 49.2667Z" fill="white"/>
<path d="M30.0701 47.8116L30.2611 47.8566L30.2721 47.6426L30.0701 47.8116Z" fill="#474A52"/>
<path d="M26.4091 46.9501L25.1921 46.6641L26.1521 57.0641L29.7001 53.4371L26.4341 46.9531L30.0701 47.8081L30.2701 47.6391L27.1441 39.5391L26.4441 41.3211L26.4091 46.9501Z" fill="#E1E6E5"/>
<path d="M32.1851 32.0863L31.8001 30.4723L31.3861 28.7383L28.7131 35.5453L32.1851 32.0863Z" fill="#F3F6F1"/>
<path d="M30.2711 47.6423L34.3111 41.0013L33.7311 38.5693L33.5871 37.9693L27.8221 37.8213L27.1431 39.5383L30.2711 47.6423Z" fill="#444950"/>
<path d="M33.587 37.9649L33.041 35.6749L32.185 32.0869L28.713 35.5459L27.821 37.8169L33.587 37.9649Z" fill="#EFF7F9"/>
<path d="M36.2589 49.1686V49.1586L36.2269 49.0206L30.2739 47.6436L30.2629 47.8576L32.1709 48.3056L36.2599 49.2676H36.2729H36.2839V49.2566L36.2589 49.1686Z" fill="#7A8694"/>
<path d="M36.224 49.0198L36.257 49.1578H36.267L38.05 40.2578L34.581 42.1318L35.29 45.1048L30.271 47.6438L36.224 49.0198Z" fill="#EFF7F9"/>
<path d="M35.29 45.104L34.581 42.131L34.311 41.001L30.271 47.642L35.29 45.104Z" fill="white"/>
<path d="M31.386 28.7385L31.529 28.6675L31.451 28.6475L31.386 28.7385Z" fill="#444950"/>
<path d="M34.4129 27.2253L34.8919 23.7793L31.4509 28.6473L31.5289 28.6673L34.4129 27.2253Z" fill="#EFF7F9"/>
<path d="M34.4131 27.2254L38.3221 25.2714L39.4051 24.7294L43.7871 22.5384L37.0141 20.7764L34.8921 23.7764L34.4131 27.2254Z" fill="#808890"/>
<path d="M43.7869 22.538L44.3679 22.247L40.3609 16.041L37.0139 20.776L43.7869 22.538Z" fill="#475875"/>
<path d="M44.3691 22.247L44.5401 22.162L47.6601 27.692L48.3781 24.586L49.4431 19.981L49.5141 19.675L44.8871 21.989L46.0981 16.553L45.1761 15.711L44.3291 14.937L42.3931 13.167L40.3621 16.04L44.3691 22.247Z" fill="white"/>
<path d="M47.0069 17.3818L46.0989 16.5518L44.8879 21.9868L49.5149 19.6738L47.0069 17.3818Z" fill="#EFF7F9"/>
<path d="M44.3301 14.9367L47.1541 8.93066L42.3931 13.1667L44.3301 14.9367Z" fill="#EFF7F9"/>
<path d="M44.3301 14.9365L45.1771 15.7105L51.6061 14.0465L52.7371 11.0045L48.0771 8.10449L47.1541 8.92649L44.3301 14.9365Z" fill="#808890"/>
<path d="M52.7369 11.0045L54.2129 7.03253L53.2339 3.51953L48.0769 8.10853L52.7369 11.0045Z" fill="#475875"/>
<path d="M53.2329 3.51945L54.2119 7.03145L56.6429 0.481445L53.2329 3.51945Z" fill="white"/>
<path d="M49.9221 18.5818L47.0071 17.3818L49.5151 19.6728L49.9221 18.5818Z" fill="#98A4B1"/>
<path d="M47.007 17.3818L49.922 18.5818L51.606 14.0508L45.177 15.7148L46.099 16.5568L47.007 17.3818Z" fill="#E1EBF0"/>
<path d="M53.8189 23.6614L49.4429 19.9814L48.3779 24.5814L53.8189 23.6614Z" fill="#F3F6F1"/>
<path d="M53.8191 23.6618L53.7521 23.5398L49.5151 19.6748L49.4431 19.9818L53.8191 23.6618Z" fill="#E7F0F4"/>
<path d="M47.1431 29.9307L46.8791 31.0737L46.4961 32.7247L49.2751 31.5247L47.1431 29.9307Z" fill="#444950"/>
<path d="M47.1431 29.9301L49.2751 31.5201L53.8211 23.6611L48.3801 24.5851L47.6611 27.6911L47.1431 29.9301Z" fill="#EFF7F9"/>
<path d="M53.819 23.662L53.836 23.617L53.752 23.54L53.819 23.662Z" fill="#A3B1BC"/>
<path d="M53.819 23.6611L49.2729 31.5201L52.4049 30.9881L56.6429 26.1811L54.18 23.9331L53.819 23.6611Z" fill="#808890"/>
<path d="M53.8191 23.6622L54.1841 23.9342L53.8361 23.6172L53.8191 23.6622Z" fill="#475875"/>
<path d="M45.513 36.9688L44.983 39.2568L44.939 39.4487L46.939 37.1808L45.513 36.9688Z" fill="#EFF7F9"/>
<path d="M49.2729 31.5205L50.0229 33.6875L51.1059 32.4605L49.2729 31.5205Z" fill="#98A4B1"/>
<path d="M49.2729 31.5203L51.1059 32.4603L52.4059 30.9883L49.2729 31.5203Z" fill="#E1EBF0"/>
<path d="M38.713 48.3742L37.326 48.0742L36.458 49.0582L36.358 49.1742L36.316 49.2212L36.269 49.1612L36.262 49.1682L36.283 49.2592V49.2702L37.514 58.4532L38.713 48.3742Z" fill="white"/>
<path d="M37.3259 48.0746L38.7129 48.3746L37.9289 47.3916L37.3259 48.0746Z" fill="#A3B1BC"/>
<path d="M42.848 41.8172L37.929 47.3912L38.713 48.3742L44.893 39.6322L44.939 39.4482L42.848 41.8172Z" fill="white"/>
<path d="M39.0639 62.9196L37.7639 60.3076L38.4429 65.4016L39.0639 62.9196Z" fill="#E1EBF0"/>
<path d="M39.0641 62.9195L40.4881 57.2305L37.6331 59.3605L37.7601 60.3075L39.0641 62.9195Z" fill="#E5EDF0"/>
<path d="M40.4879 57.229L41.3719 53.698L38.7139 48.373L37.5139 58.452L37.6349 59.359L40.4879 57.229Z" fill="#EFF7F9"/>
<path d="M38.7131 48.3747L41.3711 53.6997L42.9201 47.5137L38.7131 48.3747Z" fill="white"/>
<path d="M38.7131 48.3748L42.9201 47.5138L44.8921 39.6338L38.7131 48.3748Z" fill="#B6C1CE"/>
<path d="M34.5809 42.1313L38.0499 40.2583L33.7319 38.5693L34.3119 41.0013L34.5809 42.1313Z" fill="#F3F6F1"/>
<path d="M38.05 40.2588L33.043 35.6748L33.589 37.9648L33.734 38.5698L38.05 40.2588Z" fill="#E7F0F4"/>
<path d="M36.2591 49.1681L36.2671 49.1611H36.2561L36.2591 49.1681Z" fill="#444950"/>
<path d="M38.05 40.2586L38.525 27.8076L31.8 30.4726L32.185 32.0866L33.041 35.6746L38.05 40.2586Z" fill="#A3B1BC"/>
<path d="M31.8 30.4725L38.524 27.8065L38.324 25.2705L34.413 27.2245L31.529 28.6665L31.386 28.7385L31.8 30.4725Z" fill="#4A4D53"/>
<path d="M37.929 47.3918L42.843 41.8178L38.043 40.2588L36.26 49.1588L36.451 49.0588L37.319 48.0758L37.929 47.3918Z" fill="#808890"/>
<path d="M38.05 40.2586L42.843 41.8176L44.943 39.4486L44.987 39.2566L38.525 27.8076L38.05 40.2586Z" fill="#475875"/>
<path d="M39.406 24.7285L38.323 25.2705L38.523 27.8065L39.406 24.7285Z" fill="#E1EBF0"/>
<path d="M44.9831 39.2566L45.5131 36.9686L46.9431 37.1816L50.0251 33.6906L49.2751 31.5226L46.4961 32.7276L46.8791 31.0756L38.5261 27.8096L44.9831 39.2566Z" fill="white"/>
<path d="M46.8771 31.0731L47.1411 29.9301L47.6601 27.6911L44.5431 22.1621L44.3721 22.2471L43.7911 22.5381L39.4091 24.7281L38.5281 27.8071L46.8771 31.0731Z" fill="#A3B1BC"/>
<path d="M36.3141 49.2211L36.3551 49.1741L36.2671 49.1611L36.3141 49.2211Z" fill="#98A4B1"/>
<path d="M36.2671 49.1606L36.3551 49.1746L36.4551 49.0566L36.2671 49.1606Z" fill="#E1EBF0"/>
<mask id="mask4_1_5007" style="mask-type:luminance" maskUnits="userSpaceOnUse" x="0" y="0" width="113" height="145">
<path d="M112.452 0.481445H0.843018V144.744H112.452V0.481445Z" fill="white"/>
</mask>
<g mask="url(#mask4_1_5007)">
<g style="mix-blend-mode:screen">
<mask id="mask5_1_5007" style="mask-type:luminance" maskUnits="userSpaceOnUse" x="38" y="26" width="37" height="79">
<path d="M74.8531 26.1816H38.4541V104.621H74.8531V26.1816Z" fill="white"/>
</mask>
<g mask="url(#mask5_1_5007)">
<mask id="mask6_1_5007" style="mask-type:luminance" maskUnits="userSpaceOnUse" x="38" y="26" width="37" height="79">
<path d="M56.6431 104.621L44.9431 91.3646V91.3536L38.4431 65.4006L44.9431 39.4486V39.4376L56.6431 26.1816L68.3561 39.4486L74.8561 65.4006L68.3561 91.3536L56.6431 104.621Z" fill="white"/>
</mask>
<g mask="url(#mask6_1_5007)">
<path d="M40.1523 18.5038L21.9099 100.96L73.1538 112.297L91.3962 29.8408L40.1523 18.5038Z" fill="url(#paint1_linear_1_5007)"/>
</g>
</g>
</g>
</g>
</g>
<defs>
<radialGradient id="paint0_radial_1_5007" cx="0" cy="0" r="1" gradientUnits="userSpaceOnUse" gradientTransform="translate(10.9436 123.905) scale(55.816 10.0986)">
<stop stop-color="#F9FAFB"/>
<stop offset="0.147" stop-color="#DEE5EC"/>
<stop offset="0.247" stop-color="#D2DCE6"/>
<stop offset="0.268" stop-color="#D4DDE7"/>
<stop offset="0.527" stop-color="#EBF0F4"/>
<stop offset="0.768" stop-color="#FAFBFC"/>
<stop offset="0.973" stop-color="white"/>
<stop offset="1" stop-color="white"/>
</radialGradient>
<linearGradient id="paint1_linear_1_5007" x1="122.076" y1="137.046" x2="122.295" y2="136.056" gradientUnits="userSpaceOnUse">
<stop stop-color="white"/>
<stop offset="1" stop-color="#231F20"/>
</linearGradient>
</defs>
</svg>
