<svg width="30" height="19" viewBox="0 0 30 19" fill="none" xmlns="http://www.w3.org/2000/svg">
<path fill-rule="evenodd" clip-rule="evenodd" d="M5.74404 9.17852L5.91804 8.49452C6.58404 8.29452 7.94104 8.20252 8.19704 8.92152C8.1852 9.82549 8.06569 10.7248 7.84104 11.6005L7.19304 11.6075C7.04704 11.4255 7.16804 11.7645 7.06504 11.3155C6.44504 11.8715 5.12404 11.7815 5.22404 10.6605C5.32404 9.53952 6.29204 9.69152 7.33904 9.53152C7.32104 8.81952 6.42704 9.01152 5.73904 9.17552L5.74404 9.17852ZM10.623 9.06852C10.028 9.06852 9.93904 8.94052 9.42304 9.16852C9.48704 9.81352 9.82304 9.56052 10.288 9.86852C11.171 10.4525 10.224 12.2545 8.11904 11.4815L8.23704 10.8265C8.83204 10.9445 9.13104 11.0615 9.58704 10.8055C9.69704 9.88652 8.06304 10.4885 8.51904 9.01052C8.76504 8.21052 9.85104 8.31652 10.745 8.39852L10.617 9.06452L10.623 9.06852ZM1.54204 7.67652L2.94204 7.72252L3.08804 9.90852L3.84304 8.15652C4.09904 7.52952 3.92504 7.66552 5.53104 7.68252L4.80704 11.6005L4.02004 11.5895L4.45104 8.77952L3.29404 11.6005L2.35404 11.5755C2.34588 10.6266 2.27204 9.67929 2.13304 8.74052L1.66004 11.5865L0.841041 11.5795L1.54204 7.67652ZM14.842 15.9765L15.227 15.5205C14.458 15.4205 14.327 15.6385 13.977 15.0205L15.736 15.0025C15.8768 14.8235 16.0042 14.6343 16.117 14.4365C14.117 14.3015 13.546 14.8105 13.229 13.9365H16.448L16.804 13.3805L12.826 13.3625L12.644 12.8995L16.928 12.8815C17.177 12.7425 17.177 12.5815 17.238 12.3045L13.183 12.3005C12.453 12.3075 12.41 12.4715 12.271 11.8055H17.377L17.541 11.2425L16.041 11.2245L15.966 11.6055L15.111 11.5695L15.649 8.38552L16.461 8.49552C16.461 8.51352 16.479 8.57752 16.479 8.60552L16.486 8.65852L16.532 8.82252C16.6221 8.66781 16.755 8.54244 16.9147 8.46153C17.0743 8.38062 17.254 8.34763 17.432 8.36652L17.158 9.10752C17.001 9.30752 16.546 9.07952 16.358 9.62352L17.248 9.66252C17.3291 9.24568 17.4545 8.8387 17.622 8.44852L17.633 8.17452L12.046 8.18552L12.028 8.38552C12.328 8.38552 12.32 8.33252 12.491 8.47852L12.409 9.01652C11.843 9.15552 11.861 8.81652 11.809 9.55452C11.891 9.68952 11.791 9.61852 11.966 9.66452L12.322 9.67152C12.358 9.37724 12.4772 9.09935 12.6658 8.87056C12.8543 8.64177 13.1043 8.47161 13.3863 8.3801C13.6683 8.28859 13.9705 8.27954 14.2575 8.35402C14.5444 8.42851 14.8042 8.58342 15.006 8.80052C15.216 9.11052 15.426 10.1285 14.906 10.2105L13.165 10.2285C13.247 11.1505 14.305 10.9585 14.988 10.7285C14.96 11.1135 14.988 11.4225 14.632 11.5515C14.2427 11.637 13.8394 11.637 13.45 11.5515C13.1165 11.5137 12.8105 11.3483 12.5962 11.0899C12.3818 10.8316 12.2757 10.5003 12.3 10.1655L11.972 10.1545C11.672 10.0195 11.908 10.1545 11.751 9.78052C11.623 10.5465 11.277 11.0375 12.225 10.9305C12.172 11.3865 12.236 11.5395 11.734 11.5965C10.278 11.7675 10.751 10.7965 10.986 9.48852C11.36 7.40852 11.068 7.66552 12.126 7.68352L17.56 7.69452L17.45 7.12852L12.2 7.11052L12.3 6.65452L17.268 6.62652C17.14 5.85352 17.115 6.04652 15.309 6.04652H12.556C12.745 5.37752 12.645 5.56252 14.433 5.56252H16.847L16.594 4.98552L13.094 4.97852L13.329 4.50052L16.256 4.48252C15.882 3.71652 15.9 3.93452 13.831 3.89852C14.095 3.24352 14.561 3.40752 15.373 3.40752C15.145 3.04052 14.973 3.06952 14.842 2.75952C14.5025 2.5397 14.1766 2.2996 13.866 2.04052C12.6633 1.21753 11.2762 0.703854 9.82751 0.544996C8.37884 0.386138 6.91335 0.587001 5.56085 1.12979C4.20835 1.67259 3.01059 2.54055 2.07366 3.65681C1.13673 4.77307 0.489547 6.10317 0.189443 7.52929C-0.110661 8.95541 -0.0544259 10.4335 0.353168 11.8327C0.760761 13.2319 1.50713 14.509 2.52617 15.5508C3.54521 16.5927 4.80545 17.3671 6.19529 17.8056C7.58512 18.2441 9.06163 18.333 10.494 18.0645C13.101 17.6195 13.756 16.5645 14.831 15.9645L14.842 15.9765Z" fill="#E41D2C"/>
<path fill-rule="evenodd" clip-rule="evenodd" d="M20.792 8.46686C23.619 7.89386 23.153 9.28986 22.925 10.4179C22.854 10.7559 22.854 11.4179 22.59 11.6039C22.432 11.6094 22.2737 11.6058 22.116 11.5929C21.86 11.4929 21.977 11.7929 21.942 11.3289C21.176 11.7669 19.962 11.8669 20.108 10.6449C20.226 9.66886 21.208 9.51586 22.216 9.55886C22.177 8.83986 21.522 8.95886 20.61 9.18486L20.802 8.46586L20.792 8.46686ZM23.584 8.38486L24.339 8.39586C24.35 8.4144 24.3561 8.43535 24.357 8.45686L24.475 8.79486C24.5633 8.66706 24.6823 8.56347 24.821 8.49358C24.9597 8.4237 25.1138 8.38975 25.269 8.39486L25.159 9.03986L24.789 9.18586C24.041 9.43186 24.084 10.3719 23.889 11.6039H23.041L23.584 8.38486ZM27.601 7.69086H28.374L27.708 11.6119C26.843 11.6229 27.053 11.6689 26.779 11.3409C26.216 12.1779 24.518 11.4019 25.038 9.67086C25.423 8.37786 26.715 8.02886 27.353 8.79486L27.609 7.68386L27.601 7.69086ZM14.849 2.76986C14.988 3.07986 15.159 3.05086 15.38 3.41786C14.568 3.41786 14.102 3.24386 13.838 3.90886C15.907 3.94486 15.889 3.72686 16.263 4.49286L13.336 4.51086L13.101 4.98486L16.601 4.99586L16.854 5.56886H14.44C12.663 5.56886 12.752 5.39486 12.563 6.05286H15.316C17.121 6.05286 17.146 5.86086 17.275 6.63286L12.307 6.66086L12.207 7.11686L17.456 7.13486L17.566 7.70086L12.132 7.69086L12.061 8.20386L17.648 8.19286L17.637 8.46686C18.057 8.06686 17.986 7.85786 18.769 7.62986C19.3328 7.49966 19.9219 7.5305 20.469 7.71886L20.334 8.55886C19.234 8.23086 18.529 8.31286 18.272 9.44186C17.991 10.6529 18.949 11.1119 19.96 10.6279C19.867 11.5109 19.721 11.7279 18.682 11.5929C18.4171 11.5635 18.1634 11.4694 17.9433 11.3189C17.7232 11.1684 17.5435 10.9661 17.42 10.7299H16.12L16.049 11.2299L17.541 11.2479L17.377 11.8109H12.274C12.409 12.4799 12.456 12.3109 13.186 12.3059L17.242 12.3129C17.167 12.5869 17.178 12.7509 16.932 12.8899L12.648 12.9079L12.83 13.3709L16.804 13.3919L16.448 13.9479H13.225C13.545 14.8129 14.112 14.3109 16.117 14.4479C16.0007 14.6435 15.8721 14.8315 15.732 15.0109L13.974 15.0299C14.312 15.6419 14.458 15.4299 15.224 15.5299L14.839 15.9859C16.0953 17.0794 17.6233 17.8139 19.262 18.1119C21.1178 18.4103 23.0205 18.1333 24.714 17.3179C26.1983 16.583 27.4469 15.4467 28.318 14.0381C29.1891 12.6294 29.6479 11.0048 29.6423 9.34853C29.6367 7.69229 29.1669 6.07079 28.2862 4.66808C27.4055 3.26537 26.1493 2.13763 24.66 1.41286C23.4222 0.829745 22.0692 0.531883 20.7009 0.541229C19.3326 0.550575 17.9838 0.866891 16.754 1.46686C16.0816 1.8425 15.4473 2.28257 14.86 2.78086L14.849 2.76986Z" fill="#F8B02B"/>
<path fill-rule="evenodd" clip-rule="evenodd" d="M0.840088 11.5847L1.65909 11.5957L2.13309 8.75368C2.2724 9.69242 2.34624 10.6397 2.35409 11.5887L3.29409 11.6167L4.45109 8.78568L4.02009 11.5957L4.80709 11.6027L5.52609 7.69268C3.92009 7.67168 4.09409 7.53568 3.83809 8.16668L3.08309 9.91468L2.93709 7.72868L1.53709 7.68268L0.840088 11.5847Z" fill="#FEFEFE"/>
<path fill-rule="evenodd" clip-rule="evenodd" d="M26.2339 10.8674C25.5499 10.1674 26.1339 8.99736 26.7719 9.15436C27.4099 9.31136 27.2809 10.8544 26.2339 10.8674ZM27.3489 8.79836C26.7119 8.03236 25.4259 8.37436 25.0339 9.67436C24.5139 11.3974 26.2089 12.1814 26.7759 11.3404C27.0499 11.6684 26.8399 11.6144 27.7049 11.6144L28.3709 7.69336H27.5949L27.3339 8.80936L27.3489 8.79836Z" fill="#FEFEFE"/>
<path fill-rule="evenodd" clip-rule="evenodd" d="M21.088 10.8748C20.96 10.2628 21.526 10.0268 22.064 10.1378C22.0895 10.2631 22.0789 10.3931 22.0337 10.5127C21.9884 10.6323 21.9102 10.7366 21.8082 10.8137C21.7061 10.8907 21.5843 10.9374 21.4569 10.9482C21.3295 10.959 21.2016 10.9336 21.088 10.8748ZM20.796 8.47481L20.604 9.19381C21.516 8.97681 22.182 8.85581 22.21 9.56781C21.21 9.52181 20.223 9.67781 20.102 10.6538C19.947 11.8788 21.17 11.7788 21.935 11.3418C21.971 11.8048 21.853 11.5058 22.109 11.6058C22.2667 11.6187 22.425 11.6224 22.583 11.6168C22.857 11.4428 22.857 10.7658 22.918 10.4308C23.157 9.29081 23.612 7.90581 20.785 8.47981L20.796 8.47481Z" fill="#FEFEFE"/>
<path fill-rule="evenodd" clip-rule="evenodd" d="M7.19297 10.1091C7.21703 10.2365 7.20766 10.368 7.16577 10.4907C7.12388 10.6133 7.05091 10.7231 6.95397 10.8091C6.81897 10.9091 6.40897 11.0301 6.24497 10.8731C5.73197 10.4101 6.68997 10.1001 7.18197 10.1071L7.19297 10.1091ZM5.74397 9.17915C6.43797 9.01515 7.32897 8.82315 7.34398 9.53515C6.29698 9.69915 5.33197 9.55315 5.23197 10.6641C5.13197 11.7751 6.44297 11.8781 7.07297 11.3231C7.17297 11.7681 7.05497 11.4301 7.20097 11.6151L7.84597 11.6041C8.06982 10.731 8.18932 9.83442 8.20197 8.93315C7.94897 8.20315 6.60197 8.29615 5.92297 8.50615L5.75197 9.19015L5.74397 9.17915Z" fill="#FEFEFE"/>
<path fill-rule="evenodd" clip-rule="evenodd" d="M13.3009 9.6354C13.3072 9.53545 13.3362 9.43826 13.3858 9.35124C13.4354 9.26423 13.5042 9.1897 13.587 9.13336C13.6698 9.07701 13.7643 9.04033 13.8635 9.02612C13.9626 9.01192 14.0637 9.02056 14.1589 9.0514C14.3509 9.3254 14.3509 9.2434 14.3869 9.6354H13.3009ZM12.3359 9.6814L12.2999 10.1724C12.278 10.5059 12.3845 10.8352 12.5976 11.0927C12.8107 11.3502 13.1142 11.5165 13.4459 11.5574C13.8365 11.6447 14.2414 11.6447 14.6319 11.5574C14.9879 11.4394 14.9599 11.1194 14.9879 10.7384C14.3039 10.9664 13.2469 11.1584 13.1649 10.2384L14.9069 10.2204C15.4269 10.1384 15.2169 9.1274 15.0069 8.8064C14.8039 8.5917 14.544 8.4391 14.2576 8.36636C13.9712 8.29362 13.67 8.30373 13.3891 8.39551C13.1082 8.48729 12.8591 8.65697 12.6709 8.8848C12.4827 9.11262 12.3631 9.38922 12.3259 9.6824L12.3359 9.6814Z" fill="#FEFEFE"/>
<path fill-rule="evenodd" clip-rule="evenodd" d="M17.6411 8.46704C17.4719 8.85663 17.3465 9.26379 17.2671 9.68104V10.181L17.4181 10.738C17.5423 10.9738 17.722 11.1757 17.9417 11.3264C18.1614 11.4771 18.4145 11.5721 18.6791 11.603C19.7191 11.738 19.8651 11.521 19.9541 10.634C18.9321 11.118 17.9851 10.662 18.2701 9.45204C18.5341 8.31204 19.2461 8.23804 20.3281 8.56504L20.4671 7.72804C19.9185 7.548 19.3321 7.51592 18.7671 7.63504C17.9841 7.85604 18.0581 8.07304 17.6381 8.47504L17.6411 8.46704Z" fill="#FEFEFE"/>
<path fill-rule="evenodd" clip-rule="evenodd" d="M10.7361 8.40689C9.84211 8.33189 8.75611 8.21489 8.51011 9.01889C8.05411 10.4929 9.67811 9.89089 9.57811 10.8139C9.11211 11.0699 8.82011 10.9489 8.22811 10.8319L8.11011 11.4869C10.2101 12.2629 11.1551 10.4689 10.2791 9.87389C9.81311 9.56389 9.47911 9.82789 9.41411 9.17389C9.93411 8.93489 10.0141 9.07389 10.6141 9.07389L10.7421 8.40789L10.7361 8.40689Z" fill="#FEFEFE"/>
<path fill-rule="evenodd" clip-rule="evenodd" d="M11.763 9.79178L11.827 9.57478C11.88 8.83378 11.863 9.17478 12.427 9.03678L12.509 8.49878C12.335 8.35278 12.345 8.40578 12.043 8.40578L12.061 8.20578L12.136 7.69678C11.078 7.67878 11.37 7.42278 10.996 9.50178C10.757 10.8018 10.284 11.7808 11.744 11.6018C12.235 11.5488 12.182 11.3918 12.235 10.9398C11.295 11.0468 11.644 10.5548 11.761 9.78978" fill="#FEFEFE"/>
<path fill-rule="evenodd" clip-rule="evenodd" d="M16.046 11.2416L16.117 10.7416L16.21 10.1966L16.377 9.64657C16.577 9.09857 17.032 9.32657 17.177 9.12657L17.448 8.38957C17.2697 8.36765 17.0889 8.39931 16.9286 8.48052C16.7683 8.56173 16.6358 8.68881 16.548 8.84557L16.502 8.68157L16.491 8.62457C16.491 8.60657 16.473 8.53557 16.473 8.51757L15.661 8.40757L15.123 11.5876L15.981 11.6266L16.056 11.2416H16.046Z" fill="#FEFEFE"/>
<path fill-rule="evenodd" clip-rule="evenodd" d="M23.0349 11.6038H23.8829C24.0829 10.3718 24.0399 9.43477 24.7829 9.18977L25.1529 9.04377L25.2629 8.39577C25.1076 8.3902 24.9534 8.42394 24.8146 8.49387C24.6758 8.56379 24.5569 8.66763 24.4689 8.79577L24.3559 8.45977C24.3516 8.438 24.3456 8.4166 24.3379 8.39577L23.5829 8.38477L23.0349 11.6038Z" fill="#FEFEFE"/>
<path fill-rule="evenodd" clip-rule="evenodd" d="M26.2371 10.8673C27.2951 10.8493 27.4121 9.30732 26.7751 9.15432C26.1381 9.00132 25.5531 10.1663 26.2371 10.8673Z" fill="#F8B02B"/>
<path fill-rule="evenodd" clip-rule="evenodd" d="M7.19299 10.1097C6.70199 10.0987 5.74399 10.4097 6.25299 10.8757C6.41699 11.0217 6.82999 10.9037 6.96499 10.8117C7.05979 10.724 7.13127 10.6141 7.173 10.4919C7.21472 10.3697 7.22537 10.239 7.20399 10.1117L7.19299 10.1097Z" fill="#E41D2C"/>
<path fill-rule="evenodd" clip-rule="evenodd" d="M16.1179 10.7296L17.4179 10.7406L17.2649 10.1816H16.2109L16.1179 10.7296Z" fill="#E41D2C"/>
<path fill-rule="evenodd" clip-rule="evenodd" d="M21.0879 10.8745C21.2014 10.9326 21.3289 10.9574 21.4558 10.9463C21.5827 10.9351 21.7039 10.8883 21.8054 10.8113C21.907 10.7344 21.9847 10.6303 22.0297 10.5111C22.0748 10.3919 22.0852 10.2624 22.0599 10.1375C21.5149 10.0375 20.9599 10.2725 21.0879 10.8745Z" fill="#F8B02B"/>
<path fill-rule="evenodd" clip-rule="evenodd" d="M16.21 10.1827H17.268V9.68272L16.374 9.63672L16.21 10.1827Z" fill="#F8B02B"/>
<path fill-rule="evenodd" clip-rule="evenodd" d="M13.3 9.63935H14.386C14.358 9.25835 14.35 9.32935 14.158 9.05535C14.0628 9.02452 13.9617 9.01588 13.8626 9.03008C13.7634 9.04428 13.6689 9.08096 13.5861 9.13731C13.5033 9.19366 13.4345 9.26819 13.3849 9.3552C13.3353 9.44221 13.3063 9.53941 13.3 9.63935Z" fill="#E41D2C"/>
<path fill-rule="evenodd" clip-rule="evenodd" d="M11.759 9.79145C11.912 10.1655 11.677 10.0305 11.976 10.1655L12.307 10.1765L12.343 9.68145L11.987 9.67445C11.805 9.63545 11.905 9.69945 11.83 9.56445L11.769 9.78145L11.759 9.79145Z" fill="#F8B02B"/>
</svg>
