<svg width="113" height="143" viewBox="0 0 113 143" fill="none" xmlns="http://www.w3.org/2000/svg">
<mask id="mask0_1_2929" style="mask-type:luminance" maskUnits="userSpaceOnUse" x="0" y="0" width="113" height="143">
<path d="M112.452 0.280273H0.843018V142.744H112.452V0.280273Z" fill="white"/>
</mask>
<g mask="url(#mask0_1_2929)">
<mask id="mask1_1_2929" style="mask-type:luminance" maskUnits="userSpaceOnUse" x="0" y="0" width="113" height="143">
<path d="M112.452 0.280273H0.843018V142.744H112.452V0.280273Z" fill="white"/>
</mask>
<g mask="url(#mask1_1_2929)">
<g style="mix-blend-mode:multiply">
<mask id="mask2_1_2929" style="mask-type:luminance" maskUnits="userSpaceOnUse" x="0" y="122" width="113" height="21">
<path d="M112.452 122.552H0.843018V142.745H112.452V122.552Z" fill="white"/>
</mask>
<g mask="url(#mask2_1_2929)">
<mask id="mask3_1_2929" style="mask-type:luminance" maskUnits="userSpaceOnUse" x="0" y="122" width="113" height="21">
<path d="M112.452 132.648C112.452 138.224 87.467 142.748 56.647 142.748C25.827 142.748 0.843018 138.224 0.843018 132.648C0.843018 127.072 25.827 122.548 56.643 122.548C87.459 122.548 112.448 127.069 112.448 132.648" fill="white"/>
</mask>
<g mask="url(#mask3_1_2929)">
<path d="M112.452 122.552H0.843018V142.745H112.452V122.552Z" fill="url(#paint0_radial_1_2929)"/>
</g>
</g>
</g>
</g>
<path d="M39.0081 87.3239L39.1251 87.7449L39.1681 87.8979L40.1971 91.5979L41.6371 92.4869L42.2791 92.8869L43.3371 93.5399L39.9991 79.2139L37.0991 80.4479L39.0081 87.3239Z" fill="#CBD5DC"/>
<path d="M46.9039 95.7428L48.3039 96.6098L48.9299 96.9968L47.8619 91.4648L45.7329 95.0198L46.9039 95.7428Z" fill="#474A52"/>
<path d="M43.336 93.5389L45.736 95.0189L47.869 91.4649L39.998 79.2129L43.336 93.5389Z" fill="#E1E6E5"/>
<path d="M33.4991 66.6693L33.3801 67.0963L33.4681 67.4123L34.2681 70.2933L39.9971 79.2143L47.7361 63.6143L33.4991 66.6693Z" fill="#F3F6F1"/>
<path d="M33.988 64.9122L33.499 66.6692L47.738 63.6172L35.102 60.9082L34.184 64.2082L33.988 64.9122Z" fill="#E7F0F4"/>
<path d="M39.999 79.2142L47.867 91.4652L51.737 75.8652L39.999 79.2142Z" fill="#444950"/>
<path d="M39.999 79.2142L51.737 75.8692L47.737 63.6172L39.999 79.2142Z" fill="#ABB9CA"/>
<path d="M37.4231 52.5636L36.8431 54.6526L35.7751 58.4916L35.2341 60.4366L35.1021 60.9096L47.7431 63.6176L40.0031 48.0176L37.6891 51.6176L37.4231 52.5636Z" fill="#A3B1BC"/>
<path d="M37.6851 51.6236L39.9991 48.0236L39.0841 46.5986L37.6851 51.6236Z" fill="#4A4D53"/>
<path d="M51.7359 75.8686L59.4749 60.2686L47.7429 63.6176L51.7359 75.8686Z" fill="#808890"/>
<path d="M59.475 60.2715L39.998 48.0205L47.737 63.6205L59.475 60.2715Z" fill="#475875"/>
<path d="M39.154 46.3423L39.083 46.5953L39.998 48.0203L39.38 45.5283L39.154 46.3423Z" fill="#E1EBF0"/>
<path d="M59.475 60.2709L55.605 44.6709L39.998 48.0199L59.475 60.2709Z" fill="#F6FBFB"/>
<path d="M42.7851 40.9933L42.6851 41.0573L40.2001 42.5913L39.4121 45.4263L39.3831 45.5263L40.0021 48.0183L55.6091 44.6733L46.3041 38.8203L43.0701 40.8203L42.7851 40.9933Z" fill="#A3B1BC"/>
<path d="M50.62 36.1546L50.55 36.1976L46.301 38.8216L55.606 44.6746L57.828 33.1656L56.643 32.4346L56.43 32.5656L50.62 36.1546Z" fill="#475875"/>
<path d="M66.0681 95.9464L70.5051 93.2104L71.2131 90.3574L66.0681 95.9464Z" fill="#E1EBF0"/>
<path d="M47.8669 91.4654L48.9339 96.9965L51.1689 98.3764L52.5619 99.2365L55.4789 101.036L55.7239 101.188L56.3049 101.546L56.6429 101.755L66.0679 95.9445L71.2129 90.3564L47.8669 91.4654Z" fill="#7A8694"/>
<path d="M70.5051 93.2114L72.3981 92.0444L71.2131 90.3584L70.5051 93.2114Z" fill="#C2CBD4"/>
<path d="M47.8669 91.4652L71.2129 90.3582L59.6049 79.2142L51.7369 75.8682L47.8669 91.4652Z" fill="#D1DADF"/>
<path d="M71.2131 90.3576L72.3981 92.0436L73.0981 91.6126L75.4251 83.2336L75.2121 82.5596L71.2131 90.3576Z" fill="#98A4B1"/>
<path d="M75.212 82.5589L59.605 79.2139L71.214 90.3569L75.212 82.5589Z" fill="#E7F0F4"/>
<path d="M59.6041 79.2143L67.3431 68.0703L51.7361 75.8703L59.6041 79.2143Z" fill="#98A4B1"/>
<path d="M51.7361 75.8685L67.3431 68.0705L59.4751 60.2705L51.7361 75.8685Z" fill="#E1EBF0"/>
<path d="M75.212 82.5595L75.739 82.1045L77.239 76.6865L59.605 79.2145L75.212 82.5595Z" fill="#7A8694"/>
<path d="M59.604 79.2143L77.243 76.6863L78.138 73.4643L67.343 68.0703L59.604 79.2143Z" fill="#B6C1CE"/>
<path d="M67.3429 68.0707L63.4729 52.4707L59.4729 60.2707L67.3429 68.0707Z" fill="#E5EDF0"/>
<path d="M63.474 52.4729L55.606 44.6729L59.476 60.2729L63.474 52.4729Z" fill="#808890"/>
<path d="M78.138 73.4635L79.906 67.0955L77.236 57.4805L67.343 68.0695L78.138 73.4635Z" fill="#808890"/>
<path d="M67.3431 68.0703L77.2361 57.4803L75.6511 51.7803L63.4741 52.4723L67.3431 68.0703Z" fill="#9DABB9"/>
<path d="M63.474 52.4729L68.406 39.6949L64.792 37.4639L55.606 44.6749L63.474 52.4729Z" fill="#304350"/>
<path d="M64.792 37.4641L57.828 33.1641L55.606 44.6741L64.792 37.4641Z" fill="#B6C1CE"/>
<path d="M75.6511 51.7806L74.6051 48.0166L63.4741 52.4736L75.6511 51.7806Z" fill="#304350"/>
<path d="M74.6051 48.0163L73.0981 42.5913L72.3341 42.1203L68.4061 39.6953L63.4741 52.4733L74.6051 48.0163Z" fill="#ABB9CA"/>
<path d="M75.4239 83.2336L75.5489 82.7836L75.2119 82.5596L75.4239 83.2336Z" fill="#7A8694"/>
<path d="M75.2119 82.5588L75.5489 82.7828L75.6619 82.3828L75.2119 82.5588Z" fill="#CBD5DC"/>
<path d="M75.2119 82.5595L75.6619 82.3795L75.7389 82.1045L75.2119 82.5595Z" fill="#E3D6C0"/>
<path d="M19.9571 53.4438L19.8831 53.9968L20.0981 53.4268L19.9571 53.4438Z" fill="#444950"/>
<path d="M21.059 45.1904L19.959 53.4434L20.101 53.4264L21.059 45.1904Z" fill="#ABB9CA"/>
<path d="M23.5541 46.6798L24.0451 46.9798L25.2981 45.2028L21.7061 44.7158L21.6061 45.4728L21.3061 45.2878L21.0681 45.1398L21.0621 45.1868L20.1011 53.4228L23.5541 46.6798Z" fill="#808890"/>
<path d="M18.135 67.0949L18.224 66.9479L18.158 66.9199L18.135 67.0949Z" fill="#7A8694"/>
<path d="M18.437 66.5928L18.545 66.4128L18.678 66.1918L22.163 60.4018L22.33 60.1248L22.017 57.7248L20.098 53.4248L19.883 53.9958L18.158 66.9198L18.223 66.9478L18.437 66.5928Z" fill="#D1DADF"/>
<path d="M22.3301 60.1266L23.0111 58.9946L22.0181 57.7236L22.3301 60.1266Z" fill="#E7F0F4"/>
<path d="M20.0979 53.4261L22.0169 57.7261L26.9959 49.8721L20.0979 53.4261Z" fill="#98A4B1"/>
<path d="M26.8579 48.719L26.4579 48.471L25.7059 48.007L25.2999 45.207L24.0429 46.98L23.5519 46.68L20.0959 53.427L26.9959 49.87L26.8579 48.719Z" fill="#E1EBF0"/>
<path d="M23.5931 58.0266L22.0171 57.7266L23.0111 58.9976L23.5931 58.0266Z" fill="#75746B"/>
<path d="M24.4611 56.5803L25.9981 54.0253L27.5741 51.4073L26.9961 49.8643L22.0171 57.7193L23.5931 58.0193L24.4611 56.5803Z" fill="#B6C1CE"/>
<path d="M26.9959 49.8697L27.1409 48.8947L26.8569 48.7207L26.9959 49.8697Z" fill="#E5EDF0"/>
<path d="M28.6071 48.5283L27.7211 49.2533L27.5661 49.1533L26.9961 49.8653L27.5741 51.4083L28.5621 49.7683L28.6071 48.5283Z" fill="#75746B"/>
<path d="M26.9961 49.8695L27.5661 49.1575L27.1411 48.8945L26.9961 49.8695Z" fill="#9DABB9"/>
<path d="M21.0649 45.1433L21.3029 45.2913L21.7029 44.7193L21.3029 44.6143L21.0649 45.1433Z" fill="#F3F6F1"/>
<path d="M21.302 44.6137L21.702 44.7187L21.417 44.3477L21.302 44.6137Z" fill="#E7F0F4"/>
<path d="M21.304 45.2907L21.604 45.4748L21.704 44.7188L21.304 45.2907Z" fill="#EFF7F9"/>
<path d="M21.4221 44.3474L21.7071 44.7194L21.7701 43.5684L21.4221 44.3474Z" fill="#A3B1BC"/>
<path d="M25.298 45.2062L23.543 39.6162L21.772 43.5692L21.708 44.7192L25.298 45.2062Z" fill="#475875"/>
<path d="M26.819 36.6229L25.086 36.1689L23.543 39.6169L25.301 45.2059L26.819 36.6229Z" fill="white"/>
<path d="M26.02 34.0801L25.085 36.1661L26.818 36.6201L26.02 34.0801Z" fill="#A3B1BC"/>
<path d="M29.236 31.2801L29.387 27.1351L29.138 27.1221L26.02 34.0801L26.82 36.6201L29.236 31.2801Z" fill="white"/>
<path d="M29.1431 27.1246L29.3921 27.1386L29.4151 26.5176L29.1431 27.1246Z" fill="#EFF7F9"/>
<path d="M26.456 48.4717L27.6 42.0137L25.3 45.2067L25.706 48.0067L26.456 48.4717Z" fill="#E5EDF0"/>
<path d="M26.8191 36.623L25.2991 45.206L27.5991 42.014L26.8191 36.623Z" fill="#EFF7F9"/>
<path d="M27.5661 49.1564L27.7211 49.2564L28.6071 48.5314L28.5621 49.7754L29.5021 49.1954L33.0361 47.0144L33.8511 46.5144L30.1571 42.5564L28.7021 45.9204L28.7781 43.8334L28.8191 42.7334L27.6001 42.0244L26.4561 48.4824L26.8561 48.7304L27.1391 48.9044L27.5661 49.1564Z" fill="#F0F7FB"/>
<path d="M28.9241 39.8271L28.9051 40.3491L31.0141 35.4721L29.1231 34.3721L29.0861 35.3901L26.8181 36.6241L27.6001 42.0151L28.9241 39.8271Z" fill="white"/>
<path d="M29.1231 34.3713L29.2361 31.2803L26.8181 36.6213L29.0861 35.3863L29.1231 34.3713Z" fill="#B6C1CE"/>
<path d="M27.6001 42.0132L28.8191 42.7222L28.8431 41.9482L27.6001 42.0132Z" fill="#304350"/>
<path d="M36.454 19.5117L34.21 21.7437L39.255 20.3957L36.454 19.5117Z" fill="#E1EBF0"/>
<path d="M38.4201 17.5557L36.4531 19.5117L39.2531 20.3967L38.4201 17.5557Z" fill="#7A8694"/>
<path d="M31.5969 26.3402L31.3199 24.6172L29.4099 26.5172L30.7809 26.4062L31.5969 26.3402Z" fill="#C6CED0"/>
<path d="M35.4231 26.0315L39.2541 20.3965L34.2101 21.7435L31.3201 24.6185L31.5971 26.3415L35.4231 26.0315Z" fill="#C2CBD4"/>
<path d="M42.0519 14.594L41.9099 14.083L38.4199 17.554L39.2539 20.395L42.0519 14.594Z" fill="#EFF7F9"/>
<path d="M43.6281 20.3174L39.2551 20.3964L35.4231 26.0314L37.5431 25.8604L43.6281 20.3174Z" fill="#EFF7F9"/>
<path d="M43.627 20.2577L42.843 17.4457L42.05 14.5947L39.25 20.3947L43.623 20.3167L43.627 20.2577Z" fill="white"/>
<path d="M43.628 20.3168L43.645 20.3248L43.626 20.2568L43.628 20.3168Z" fill="#75746B"/>
<path d="M38.143 25.8104L38.943 25.7454L41.973 25.5004L43.623 20.3174L37.543 25.8594L38.143 25.8104Z" fill="#7A8694"/>
<path d="M43.6511 20.3454L43.6281 20.3164L41.9771 25.5004L42.2591 25.4774L43.1861 25.4024L45.0161 25.2544L44.6651 23.9934L43.6511 20.3454Z" fill="white"/>
<path d="M43.6509 20.3454L43.6449 20.3254L43.6279 20.3174L43.6509 20.3454Z" fill="#E3D6C0"/>
<path d="M48.4839 12.1367L45.0339 13.1587L49.3979 14.8637L48.4839 12.1367Z" fill="#808890"/>
<path d="M50.9041 11.4189L48.4841 12.1359L49.3981 14.8629L50.9041 11.4189Z" fill="#475875"/>
<path d="M54.548 12.5185L55.9359 10.6635L55.7539 9.98047L50.9039 11.4175L49.3979 14.8615L54.548 12.5185Z" fill="white"/>
<path d="M55.7539 9.9798L55.9369 10.6608L56.6429 9.7168L55.7539 9.9798Z" fill="#A3B1BC"/>
<path d="M42.843 17.4453L46.202 19.4593L43.071 13.7393L41.908 14.0843L42.05 14.5953L42.843 17.4453Z" fill="#98A4B1"/>
<path d="M49.398 14.8631L45.035 13.1631L43.073 13.7441L46.204 19.4641L49.398 14.8631Z" fill="#E1EBF0"/>
<path d="M43.643 20.3253L43.649 20.3453L44.663 23.9933L46.202 19.4583L42.843 17.4443L43.625 20.2573L43.643 20.3253Z" fill="#B6C1CE"/>
<path d="M46.2041 19.4594L50.9821 17.2804L51.9981 15.9224L49.3981 14.8604L46.2041 19.4594Z" fill="#E5EDF0"/>
<path d="M51.9979 15.9256L54.548 12.5186L49.3979 14.8636L51.9979 15.9256Z" fill="#EFF7F9"/>
<path d="M44.665 23.993L45.016 25.254L48.135 21.087L46.204 19.458L44.665 23.993Z" fill="#75746B"/>
<path d="M48.1351 21.0873L50.9821 17.2803L46.2041 19.4563L48.1351 21.0873Z" fill="#F0F7FB"/>
<path d="M18.437 66.5933L18.224 66.9483L18.135 67.0953L18.301 67.3723L18.414 67.5603L18.778 66.4863L18.437 66.5933Z" fill="#F3F6F1"/>
<path d="M18.437 66.5931L18.778 66.4861L18.546 66.4131L18.437 66.5931Z" fill="#E7F0F4"/>
<path d="M18.415 67.5603L18.77 68.1504L19.37 69.1504L18.776 66.4854L18.415 67.5603Z" fill="#ABB9CA"/>
<path d="M18.543 66.4134L18.775 66.4864L18.675 66.1924L18.543 66.4134Z" fill="#A3B1BC"/>
<path d="M25.6521 63.6162L18.7781 66.4862L19.3721 69.1512L20.0141 70.2172L22.1911 73.8342L25.6521 63.6162Z" fill="#808890"/>
<path d="M22.164 60.4023L18.679 66.1923L18.779 66.4863L25.652 63.6163L22.164 60.4023Z" fill="#475875"/>
<path d="M24.4611 56.5801L23.5931 58.0221L23.0111 58.9901L22.3301 60.1211L22.1631 60.3971L25.6521 63.6121L24.4611 56.5801Z" fill="#F6FBFB"/>
<path d="M26.332 80.7148L28.562 84.4198L28.676 84.0108L26.332 80.7148Z" fill="#D1DADF"/>
<path d="M29.499 81.0503L25.843 79.9023L26.332 80.7153L28.676 84.0153L29.499 81.0503Z" fill="#E7F0F4"/>
<path d="M23.1841 75.4808L23.2121 75.5268L25.7651 79.7688V79.7748L30.2561 70.3018L23.1841 75.4808Z" fill="#98A4B1"/>
<path d="M25.6519 63.6162L22.1909 73.8342L22.2999 74.0172L23.1839 75.4842L30.2599 70.3062L25.6519 63.6162Z" fill="#E1EBF0"/>
<path d="M32.111 71.6616L30.26 70.3066L25.769 79.7806L25.81 79.8496L30.083 78.9496L30.367 77.9296L32.111 71.6616Z" fill="#B6C1CE"/>
<path d="M27.9941 56.9277L25.6521 63.6177L30.2601 70.3067L27.9941 56.9277Z" fill="#E5EDF0"/>
<path d="M25.9989 54.0303L24.4609 56.5803L25.6519 63.6113L27.9929 56.9223L25.9989 54.0303Z" fill="#808890"/>
<path d="M32.2801 71.0518L32.3211 70.9058L33.3801 67.0948L33.0551 65.9238L30.2551 70.3058L32.1061 71.6598L32.2341 71.1978L32.2801 71.0518Z" fill="#75746B"/>
<path d="M33.0431 65.8807L32.7881 64.9637L32.3531 63.3988L30.4951 56.7188L27.9951 56.9268L30.2611 70.3058L33.0561 65.9247L33.0431 65.8807Z" fill="#9DABB9"/>
<path d="M29.243 52.2045L28.566 49.7725L27.579 51.4125L25.998 54.0305L27.998 56.9305L29.243 52.2045Z" fill="#304350"/>
<path d="M30.4799 56.6687L30.1929 55.6377L27.9929 56.9277L30.4929 56.7197L30.4799 56.6687Z" fill="#304350"/>
<path d="M29.4209 52.8611L29.3499 52.6041L29.3279 52.5251L29.2739 52.3341L29.2379 52.2041L27.9939 56.9271L30.1939 55.6371L29.4209 52.8611Z" fill="#ABB9CA"/>
<path d="M43.4871 30.7553L43.5611 30.7613L43.5151 30.6553L43.4871 30.7553Z" fill="#F3F6F1"/>
<path d="M43.5151 30.6548L43.5611 30.7608L43.5791 30.4248L43.5151 30.6548Z" fill="#E7F0F4"/>
<path d="M43.4661 30.8299L43.5601 30.7619L43.4871 30.7549L43.4661 30.8299Z" fill="#EFF7F9"/>
<path d="M43.75 29.8099L43.579 30.4249L43.561 30.7609L47.735 26.9319L45.016 25.2539L44.822 25.9539L43.75 29.8099Z" fill="#A3B1BC"/>
<path d="M43.2509 31.6047L42.1809 35.4537L46.2489 35.7857L43.5609 30.7617L43.4609 30.8297L43.2509 31.6047Z" fill="#808890"/>
<path d="M49.371 27.9436L47.734 26.9326L43.561 30.7616L46.249 35.7856L49.371 27.9436Z" fill="#475875"/>
<path d="M53.954 30.8804L53.89 30.7344L49.371 27.9434L46.249 35.7854L53.954 30.8804Z" fill="white"/>
<path d="M53.9539 30.8804L53.9879 30.7944L53.8879 30.7334L53.9539 30.8804Z" fill="#A3B1BC"/>
<path d="M53.9541 30.8799L54.0861 30.8549L53.9861 30.7939L53.9541 30.8799Z" fill="white"/>
<path d="M42.6821 41.0576L42.7821 40.9936L41.1571 39.1406L41.1061 39.3226L40.7561 40.5816L42.6821 41.0576Z" fill="#98A4B1"/>
<path d="M43.067 40.8191L46.249 35.7861L42.181 35.4541L41.156 39.1401L42.785 40.9931L43.067 40.8191Z" fill="#E1EBF0"/>
<path d="M40.756 40.5801L40.197 42.5901L42.682 41.0561L40.756 40.5801Z" fill="#B6C1CE"/>
<path d="M46.3011 38.8212L50.5501 36.1972L46.2501 35.7852L43.0681 40.8182L46.3011 38.8212Z" fill="#E5EDF0"/>
<path d="M50.62 36.1539L53.954 30.8799L46.249 35.7799L50.549 36.1919L50.62 36.1539Z" fill="#EFF7F9"/>
<path d="M56.4311 32.5649L53.9541 30.8799L50.6201 36.1539L56.4311 32.5649Z" fill="white"/>
<path d="M56.4311 32.5655L56.6431 32.4345L54.0861 30.8555L53.9541 30.8805L56.4311 32.5655Z" fill="#B6C1CE"/>
<path d="M28.562 49.7714L29.238 52.2044L29.274 52.3334L29.502 49.1904L28.562 49.7714Z" fill="#EFF7F9"/>
<path d="M29.3281 52.5257L34.4281 47.4857L33.0281 47.0117L29.4941 49.1917L29.2671 52.3347L29.3281 52.5257Z" fill="#808890"/>
<path d="M33.9509 46.4453L33.8509 46.5073L33.0349 47.0073L34.4349 47.4813L33.9509 46.4453Z" fill="#475875"/>
<path d="M33.9509 46.4452L34.4319 47.4852L34.6179 46.0342L33.9509 46.4452Z" fill="white"/>
<path d="M32.7871 64.963L33.0421 65.88L33.9221 64.459L32.7871 64.963Z" fill="#E1EBF0"/>
<path d="M32.3521 63.3994L32.7871 64.9644L33.922 64.4644L32.3521 63.3994Z" fill="#7A8694"/>
<path d="M33.043 65.88L33.056 65.924L33.381 67.095L33.5 66.668L33.989 64.912L33.923 64.458L33.043 65.88Z" fill="#C2CBD4"/>
<path d="M31.531 56.2344L30.48 56.6674L30.494 56.7184L32.352 63.3984L33.922 64.4594L31.531 56.2344Z" fill="#EFF7F9"/>
<path d="M29.4209 52.8613L30.1929 55.6373L30.4799 56.6683L31.5309 56.2353L29.4209 52.8613Z" fill="white"/>
<path d="M33.9221 64.4579L33.9881 64.9119L34.1831 64.2119L33.9221 64.4579Z" fill="#EFF7F9"/>
<path d="M33.922 64.4593L34.184 64.2093L35.102 60.9093L35.233 60.4373L31.533 56.2373L33.922 64.4593Z" fill="white"/>
<path d="M36.0151 53.1725L29.3501 52.6045L29.4211 52.8615L31.5311 56.2355L36.0151 53.1725Z" fill="#98A4B1"/>
<path d="M34.4319 47.4805L29.3269 52.5205L29.3489 52.5995L36.0149 53.1675L34.4319 47.4805Z" fill="#E1EBF0"/>
<path d="M35.233 60.4363L35.774 58.4913L31.531 56.2354L35.233 60.4363Z" fill="#75746B"/>
<path d="M31.531 56.2339L35.774 58.4909L36.843 54.6509L36.016 53.1709L31.531 56.2339Z" fill="#B6C1CE"/>
<path d="M37.0671 44.9629L34.4331 47.4799L36.0151 53.1679L37.0671 44.9629Z" fill="#E5EDF0"/>
<path d="M37.0671 44.9629L36.9621 44.5869L34.6191 46.0339L34.4331 47.4799L37.0671 44.9629Z" fill="#EFF7F9"/>
<path d="M36.8431 54.6525L37.4241 52.5635L36.0161 53.1725L36.8431 54.6525Z" fill="#75746B"/>
<path d="M37.4231 52.5629L37.6841 51.6239L39.0841 46.5949L39.1541 46.3419L37.0671 44.9629L36.0161 53.1719L37.4231 52.5629Z" fill="#F0F7FB"/>
<path d="M37.7099 44.1273L37.2189 44.4273L36.9619 44.5863L37.0619 44.9613L37.7919 44.0713L37.7099 44.1273Z" fill="white"/>
<path d="M39.1539 46.3418L39.3809 45.5278L39.4089 45.4278L37.0669 44.9648L39.1539 46.3418Z" fill="#304350"/>
<path d="M39.4091 45.4258L40.1981 42.5908L37.7981 44.0718L37.0681 44.9628L39.4091 45.4258Z" fill="#EFF7F9"/>
<path d="M29.236 31.2803L29.123 34.3693L31.014 35.4693L30.78 26.4033L29.41 26.5143L29.387 27.1333L29.236 31.2803Z" fill="#A3B1BC"/>
<path d="M37.543 25.8595L35.426 26.0305L31.599 26.3405L30.783 26.4065L31.017 35.4725L38.143 25.8105L37.543 25.8595Z" fill="white"/>
<path d="M30.1569 42.5488L28.7779 43.8258L28.7019 45.9128L30.1569 42.5488Z" fill="#E5EDF0"/>
<path d="M28.9241 39.8278L27.6001 42.0138L28.8431 41.9497L28.8141 42.7228L28.7741 43.8228L30.1531 42.5457L31.0101 35.4688L28.9011 40.3457L28.9241 39.8278Z" fill="#EFF7F9"/>
<path d="M39.002 33.0127L31.014 35.4737L30.157 42.5507L39.002 33.0127Z" fill="white"/>
<path d="M38.943 25.7451L38.143 25.8101L31.01 35.4721L38.997 33.0111L38.943 25.7451Z" fill="#B6C1CE"/>
<path d="M33.951 46.4448L34.618 46.0328L36.962 44.5868L37.218 44.4288L37.507 43.9368L30.157 42.5488L33.851 46.5068L33.951 46.4448Z" fill="#304350"/>
<path d="M39.002 33.0127L30.157 42.5507L37.508 43.9377L39.002 33.0127Z" fill="#EFF7F9"/>
<path d="M39.002 33.0125L42.26 25.4805L41.978 25.5035L38.948 25.7485L39.002 33.0125Z" fill="#E1EBF0"/>
<path d="M37.5071 43.9374L42.6761 29.6084L39.0011 33.0084L37.5071 43.9374Z" fill="#C6CED0"/>
<path d="M42.677 29.6082L43.186 25.4082L42.26 25.4832L39.002 33.0172L42.677 29.6082Z" fill="#D1DADF"/>
<path d="M42.677 29.6079L44.822 25.9549L45.016 25.2549L43.186 25.4039L42.677 29.6079Z" fill="#B6C1CE"/>
<path d="M37.218 44.4295L37.709 44.1295L37.509 43.9395L37.218 44.4295Z" fill="#D1DADF"/>
<path d="M37.7971 44.0723L40.1971 42.5913L40.7561 40.5813L41.1061 39.3213L37.5061 43.9373L37.7061 44.1263L37.7971 44.0723Z" fill="#F0F7FB"/>
<path d="M41.1061 39.3225L41.1571 39.1405L42.1811 35.4545L43.2511 31.6055L42.6771 29.6055L37.5071 43.9345L41.1061 39.3225Z" fill="#9DABB9"/>
<path d="M43.466 30.8303L43.487 30.7563L43.514 30.6563L43.579 30.4253L43.749 29.8113L42.676 29.6113L43.251 31.6113L43.466 30.8303Z" fill="#525A66"/>
<path d="M44.821 25.9551L42.676 29.6081L43.749 29.8081L44.821 25.9551Z" fill="#EFF7F9"/>
<path d="M47.48 121.758L47.853 121.869L47.469 121.548L47.48 121.758Z" fill="#444950"/>
<path d="M41.937 120.115L47.481 121.758L47.469 121.547L41.937 120.115Z" fill="#ABB9CA"/>
<path d="M42.943 116.398L43.143 115.667L41.95 113.799L41.623 119.151L42.131 119.305L42.007 119.751L41.907 120.107L41.933 120.115L47.466 121.547L42.943 116.398Z" fill="#808890"/>
<path d="M56.5249 124.438L56.6429 124.473L56.5429 124.341L56.5249 124.438Z" fill="#7A8694"/>
<path d="M56.505 124.289L54.033 120.989L51.965 118.225L50.353 118.691L47.469 121.551L47.853 121.871L56.526 124.441L56.545 124.341L56.505 124.289Z" fill="#D1DADF"/>
<path d="M50.353 118.689L51.965 118.223L51.206 117.209L50.353 118.689Z" fill="#E7F0F4"/>
<path d="M47.469 121.549L50.353 118.69L45.082 111.271L47.469 121.549Z" fill="#98A4B1"/>
<path d="M44.3099 111.481L44.1439 112.081L43.8319 113.201L41.9519 113.801L43.1449 115.668L42.9449 116.4L47.4729 121.549L45.0819 111.271L44.3099 111.481Z" fill="#E1EBF0"/>
<path d="M50.353 118.689L51.206 117.209L50.711 116.548L50.631 116.44L50.556 116.34L50.353 118.689Z" fill="#75746B"/>
<path d="M50.377 116.101L47.635 107.32L46.935 107.753L46.535 108.002L45.564 108.602L45.021 108.937L46.121 110.409L45.085 111.27L50.357 118.689L50.557 116.34L50.377 116.101Z" fill="#B6C1CE"/>
<path d="M44.3101 111.481L45.0811 111.275L44.4271 111.059L44.3101 111.481Z" fill="#E5EDF0"/>
<path d="M44.427 111.054L45.081 111.27L44.603 110.42L44.427 111.054Z" fill="#9DABB9"/>
<path d="M41.554 119.754L41.909 120.108L42.009 119.752L41.626 119.152L41.554 119.754Z" fill="#F3F6F1"/>
<path d="M41.376 119.58L41.554 119.757L41.625 119.157L41.376 119.58Z" fill="#E7F0F4"/>
<path d="M42.009 119.752L42.133 119.306L41.626 119.152L42.009 119.752Z" fill="#EFF7F9"/>
<path d="M41.376 119.581L41.625 119.156L40.853 119.062L41.376 119.581Z" fill="#A3B1BC"/>
<path d="M41.9519 113.8L38.2009 116.418L40.8529 119.057L41.6249 119.157L41.9519 113.8Z" fill="#475875"/>
<path d="M36.191 111.534L35.886 114.116L38.2 116.416L41.951 113.797L36.191 111.534Z" fill="white"/>
<path d="M34.4871 112.724L35.8871 114.117L36.1921 111.534L34.4871 112.724Z" fill="#A3B1BC"/>
<path d="M32.6069 107.933L29.8249 107.708L29.8159 108.079L34.4869 112.724L36.1869 111.535L32.6069 107.933Z" fill="white"/>
<path d="M29.8169 108.08L29.8259 107.709L29.4099 107.675L29.8169 108.08Z" fill="#EFF7F9"/>
<path d="M44.1431 112.075L39.8091 110.375L41.9511 113.805L43.8321 113.205L44.1431 112.075Z" fill="#E5EDF0"/>
<path d="M36.1909 111.534L41.9509 113.799L39.8089 110.37L36.1909 111.534Z" fill="#EFF7F9"/>
<path d="M44.6681 110.189L44.6041 110.421L45.0821 111.27L46.1171 110.409L45.0171 108.937L44.1821 108.87L44.6681 110.189Z" fill="#75746B"/>
<path d="M42.975 101.595L42.826 101.057L40.17 106.557L42.427 108.724L41.027 108.611L40.287 108.551L39.811 110.366L44.145 112.066L44.311 111.466L44.428 111.045L44.605 110.411L44.669 110.179L44.183 108.86L45.017 108.928L44.894 108.485L42.975 101.595Z" fill="#F0F7FB"/>
<path d="M38.3429 108.397L38.6929 108.425L35.4189 105.28L34.6799 108.097L35.3629 108.153L36.1909 111.531L39.8089 110.367L38.3429 108.397Z" fill="white"/>
<path d="M34.6799 108.102L32.6069 107.934L36.1909 111.534L35.3629 108.155L34.6799 108.102Z" fill="#B6C1CE"/>
<path d="M39.8091 110.371L40.2851 108.555L39.7661 108.513L39.8091 110.371Z" fill="#304350"/>
<path d="M24.707 97.1798L26.207 100.524L25.307 93.0068L24.707 97.1798Z" fill="#E1EBF0"/>
<path d="M23.394 94.2468L24.707 97.1798L25.301 93.0068L23.394 94.2468Z" fill="#7A8694"/>
<path d="M29.291 104.415L28.135 104.828L29.41 107.674L29.335 105.631L29.291 104.415Z" fill="#C6CED0"/>
<path d="M29.083 98.7139L25.301 93.0049L26.201 100.522L28.13 104.828L29.287 104.415L29.083 98.7139Z" fill="#C2CBD4"/>
<path d="M21.4079 88.8369L21.0649 89.0489L23.3949 94.2489L25.3009 93.0059L21.4079 88.8369Z" fill="#EFF7F9"/>
<path d="M25.248 86.4893L25.301 93.0053L29.083 98.7143L28.968 95.5593L25.248 86.4893Z" fill="#EFF7F9"/>
<path d="M25.208 86.4903L23.32 87.6553L21.407 88.8363L25.301 93.0053L25.248 86.4883L25.208 86.4903Z" fill="white"/>
<path d="M25.208 86.4899H25.248L25.254 86.4639L25.208 86.4899Z" fill="#75746B"/>
<path d="M25.248 86.4893L28.968 95.5593L28.935 94.6593L28.891 93.4673L28.727 88.9523L25.248 86.4893Z" fill="#7A8694"/>
<path d="M28.7111 88.5269L28.6611 87.1469L28.5611 84.4199L27.7151 84.9419L25.2671 86.4539L25.2471 86.4879L28.7261 88.9479L28.7111 88.5269Z" fill="white"/>
<path d="M25.254 86.4631L25.249 86.4891L25.267 86.4551L25.254 86.4631Z" fill="#E3D6C0"/>
<path d="M19.7571 79.2536L20.4431 84.3936L21.5871 77.8936L19.7571 79.2536Z" fill="#808890"/>
<path d="M19.2761 75.6475L19.7571 79.2525L21.5881 77.8915L19.2761 75.6475Z" fill="#475875"/>
<path d="M20.0139 70.2174L19.3729 69.1514L18.7729 68.1514L18.3159 68.4234L19.2799 75.6494L21.5919 77.8934L20.0139 70.2174Z" fill="white"/>
<path d="M18.312 68.4217L18.769 68.1497L18.415 67.5607L18.301 67.3727L18.135 67.0957L18.312 68.4217Z" fill="#A3B1BC"/>
<path d="M23.321 87.6564L24.673 82.6504L20.833 87.3164L21.064 89.0494L21.407 88.8374L23.321 87.6564Z" fill="#98A4B1"/>
<path d="M21.5881 77.8916L20.4441 84.3916L20.8341 87.3146L24.6721 82.6496L21.5881 77.8916Z" fill="#E1EBF0"/>
<path d="M25.254 86.4624L25.267 86.4544L27.716 84.9424L24.672 82.6504L23.321 87.6504L25.208 86.4854L25.254 86.4624Z" fill="#B6C1CE"/>
<path d="M23.1841 75.4807L22.3011 74.0127L21.5881 77.8867L24.6721 82.6457L23.2121 75.5267L23.1841 75.4807Z" fill="#E5EDF0"/>
<path d="M22.1909 73.8357L20.0139 70.2188L21.5879 77.8927L22.3009 74.0177L22.1909 73.8357Z" fill="#EFF7F9"/>
<path d="M28.5621 84.4202L26.3321 80.7152L25.8431 79.9012L29.5001 81.0502L29.6891 80.3702L30.0891 78.9512L25.8161 79.8512L25.7751 79.7822V79.7762L24.6721 82.6502L27.7161 84.9422L28.5621 84.4202Z" fill="#75746B"/>
<path d="M23.2119 75.5312L24.6719 82.6503L25.7649 79.7732L23.2119 75.5312Z" fill="#F0F7FB"/>
<path d="M57.1489 123.798L57.2489 123.668L57.1279 123.515L57.1489 123.798Z" fill="#F3F6F1"/>
<path d="M57.095 123.871L57.149 123.798L57.126 123.516L57.095 123.871Z" fill="#E7F0F4"/>
<path d="M57.125 123.516L57.247 123.668L57.736 123.014L57.125 123.516Z" fill="#ABB9CA"/>
<path d="M56.5039 124.289L56.5439 124.342L56.6439 124.474L57.0949 123.874L57.1259 123.519L56.5039 124.289Z" fill="#A3B1BC"/>
<path d="M57.1251 123.515L57.7371 123.015L60.6521 119.122L55.9641 113.275L57.1251 123.515Z" fill="#808890"/>
<path d="M56.505 124.288L57.125 123.514L55.964 113.272L54.033 120.986L56.505 124.288Z" fill="#475875"/>
<path d="M51.2059 117.208L51.9649 118.222L54.0329 120.986L55.9639 113.272L50.7119 116.547L51.2059 117.208Z" fill="#F6FBFB"/>
<path d="M66.564 111.228L68.272 108.947L66.5 107.847L66.564 111.228Z" fill="#7A8694"/>
<path d="M65.5609 107.272L64.9369 106.887L62.5369 113.161L61.7849 117.604L66.5599 111.228L66.4959 107.852L65.5609 107.272Z" fill="#D1DADF"/>
<path d="M63.168 105.794L62.543 113.16L64.943 106.886L63.93 106.26L63.168 105.794Z" fill="#E7F0F4"/>
<path d="M58.6709 106.407L61.0839 118.544L61.7839 117.603L62.5359 113.16L58.6709 106.407Z" fill="#98A4B1"/>
<path d="M55.9641 113.273L60.6531 119.12L61.0841 118.544L58.6721 106.407L55.9641 113.273Z" fill="#E1EBF0"/>
<path d="M62.082 105.123L62.54 113.16L63.168 105.794L62.082 105.123Z" fill="#75746B"/>
<path d="M59.4049 103.471L59.3049 103.411L59.2699 103.389L58.6699 106.408L62.5429 113.161L62.0849 105.124L59.4049 103.471Z" fill="#B6C1CE"/>
<path d="M55.9641 113.273L58.6721 106.407L53.2561 109.78L55.9641 113.273Z" fill="#E5EDF0"/>
<path d="M50.6311 116.44L50.7121 116.548L55.9641 113.273L53.2561 109.78L50.6311 116.44Z" fill="#808890"/>
<path d="M59.209 103.35L56.709 101.808L58.668 106.408L59.268 103.388L59.209 103.35Z" fill="#75746B"/>
<path d="M56.652 101.771H56.658L56.644 101.763L56.16 102.063L55.777 102.299L55.124 102.699L53.124 103.934L53.257 109.787L58.672 106.41L56.713 101.81L56.652 101.771Z" fill="#9DABB9"/>
<path d="M48.2431 106.948L47.6431 107.321L50.3851 116.102L50.5641 116.341L50.6391 116.441L53.2641 109.785L49.5261 106.159L48.2431 106.948Z" fill="#304350"/>
<path d="M52.395 104.381L53.256 109.781L53.124 103.928L52.395 104.381Z" fill="#304350"/>
<path d="M49.722 106.031L49.522 106.157L53.26 109.783L52.4 104.383L49.722 106.031Z" fill="#ABB9CA"/>
<path d="M32.186 86.6569L32.254 86.6979V86.5889L32.186 86.6569Z" fill="#F3F6F1"/>
<path d="M32.186 86.6575L32.257 86.5895L32.031 86.5625L32.186 86.6575Z" fill="#E7F0F4"/>
<path d="M32.2539 86.6979L32.3029 86.7289L32.2579 86.5879L32.2539 86.6979Z" fill="#EFF7F9"/>
<path d="M31.62 86.3071L32.032 86.5621L32.258 86.5881L29.688 80.3701L29.499 81.0501L28.675 84.0111L28.561 84.4201L29.032 84.7101L31.62 86.3071Z" fill="#A3B1BC"/>
<path d="M32.8241 87.05L35.4071 88.644L35.6301 82.583L32.2581 86.588L32.3041 86.729L32.8241 87.05Z" fill="#808890"/>
<path d="M35.63 82.5807L30.367 77.9287L30.083 78.9487L29.689 80.3677L32.258 86.5857L35.63 82.5807Z" fill="#475875"/>
<path d="M32.2431 71.1986L32.1141 71.6606L30.3701 77.9316L35.6291 82.5806L32.3371 71.1006L32.2431 71.1986Z" fill="white"/>
<path d="M32.2429 71.1997L32.3429 71.1047L32.2849 71.0537L32.2429 71.1997Z" fill="#A3B1BC"/>
<path d="M32.28 71.0533L32.338 71.1033L32.32 70.9033L32.28 71.0533Z" fill="white"/>
<path d="M39.1251 87.7451L37.8811 90.1711L38.0031 90.2471L38.8481 90.7681L39.1681 87.8991L39.1251 87.7451Z" fill="#98A4B1"/>
<path d="M37.881 90.1711L39.125 87.7451L39.008 87.3241L35.63 82.5801L35.407 88.6401L37.881 90.1711Z" fill="#E1EBF0"/>
<path d="M38.8479 90.7684L40.1969 91.6004L39.1669 87.9004L38.8479 90.7684Z" fill="#B6C1CE"/>
<path d="M37.0951 80.448L39.9951 79.213L34.2661 70.293L35.8731 76.07L35.9021 76.175L35.6301 82.58L39.0081 87.321L37.0951 80.448Z" fill="#E5EDF0"/>
<path d="M35.8769 76.0715L32.3369 71.1045L35.6299 82.5805L35.9059 76.1725L35.8769 76.0715Z" fill="#EFF7F9"/>
<path d="M32.3369 71.1031L35.8769 76.0701L34.2699 70.2931L33.4699 67.4121L32.3369 71.1031Z" fill="white"/>
<path d="M33.3801 67.0967L32.3201 70.9077L32.3371 71.1077L33.4681 67.4157L33.3801 67.0967Z" fill="#B6C1CE"/>
<path d="M45.0161 108.937L45.5601 108.601L44.8931 108.494L45.0161 108.937Z" fill="#EFF7F9"/>
<path d="M42.9751 101.594L44.8931 108.494L45.5601 108.601L46.5311 108.001L43.1561 100.412L42.9751 101.594Z" fill="#808890"/>
<path d="M42.76 100.819L42.826 101.056L42.975 101.593L43.156 100.412L42.76 100.819Z" fill="#475875"/>
<path d="M42.7599 100.819L43.1599 100.412L42.6069 100.255L42.7599 100.819Z" fill="white"/>
<path d="M55.7759 102.293L56.1589 102.056L55.5659 101.241L55.7759 102.293Z" fill="#E1EBF0"/>
<path d="M55.124 102.696L55.776 102.296L55.567 101.244L55.124 102.696Z" fill="#7A8694"/>
<path d="M55.5669 101.241L56.1599 102.056L56.6429 101.756L56.3049 101.547L55.7249 101.188L55.5669 101.241Z" fill="#C2CBD4"/>
<path d="M49.553 105.122L49.722 106.031L52.396 104.38L53.124 103.93L55.124 102.695L55.566 101.24L49.553 105.122Z" fill="#EFF7F9"/>
<path d="M49.5181 106.157L49.7181 106.031L49.5491 105.122L48.2341 106.947L49.5181 106.157Z" fill="white"/>
<path d="M55.567 101.241L55.725 101.19L55.48 101.039L55.567 101.241Z" fill="#EFF7F9"/>
<path d="M55.566 101.241L55.479 101.041L52.561 99.2412L49.553 105.127L55.566 101.241Z" fill="white"/>
<path d="M49.5531 105.123L47.3141 97.8438L46.9341 107.754L47.6341 107.321L48.2341 106.948L49.5531 105.123Z" fill="#98A4B1"/>
<path d="M43.155 100.413L46.53 108.003L46.93 107.754L47.31 97.8438L43.155 100.413Z" fill="#E1EBF0"/>
<path d="M52.561 99.236L51.169 98.376L49.552 105.122L52.561 99.236Z" fill="#75746B"/>
<path d="M47.314 97.8433L49.553 105.122L51.169 98.3803L48.935 97.0003L48.308 96.6133L47.314 97.8433Z" fill="#B6C1CE"/>
<path d="M41.723 97.0907L43.155 100.413L47.314 97.8437L41.47 96.1807L41.723 97.0907Z" fill="#E5EDF0"/>
<path d="M42.6029 100.255L43.1559 100.412L41.7229 97.0898L42.6029 100.255Z" fill="#EFF7F9"/>
<path d="M46.9041 95.7432L47.3131 97.8432L48.3131 96.6092L46.9041 95.7432Z" fill="#75746B"/>
<path d="M45.733 95.0197L43.333 93.5397L42.276 92.8867L41.384 95.8867L41.427 96.0427L41.467 96.1857L47.31 97.8477L46.901 95.7477L45.733 95.0197Z" fill="#F0F7FB"/>
<path d="M41.343 95.7384L41.383 95.8834L42.275 92.8834L41.632 92.4834L41.343 95.7384Z" fill="#304350"/>
<path d="M40.197 91.6006L41.227 95.3076L41.347 95.7386L41.636 92.4896L40.197 91.6006Z" fill="#EFF7F9"/>
<path d="M32.607 107.933L34.68 108.101L35.419 105.28L29.335 105.629L29.409 107.671L29.825 107.705L32.607 107.933Z" fill="#A3B1BC"/>
<path d="M28.9681 95.5593L29.0831 98.7143L29.2911 104.414L29.3351 105.63L35.4201 105.28L28.9351 94.6553L28.9681 95.5593Z" fill="white"/>
<path d="M40.1689 106.561L41.0259 108.615L42.4259 108.729L40.1689 106.561Z" fill="#E5EDF0"/>
<path d="M38.3429 108.397L39.8099 110.37L39.7669 108.512L40.2859 108.554L41.0269 108.614L40.1699 106.56L35.4189 105.28L38.6919 108.422L38.3429 108.397Z" fill="#EFF7F9"/>
<path d="M33.7681 93.3799L35.4201 105.28L40.1691 106.557L33.7681 93.3799Z" fill="white"/>
<path d="M28.8911 93.4629L28.9351 94.6549L35.4191 105.28L33.7681 93.3799L28.8911 93.4629Z" fill="#182631"/>
<path d="M42.7599 100.819L42.6029 100.255L41.7229 97.0904L41.4709 96.1814L41.4309 96.0394L41.1009 95.6084L40.1699 106.56L42.8259 101.06L42.7599 100.819Z" fill="#304350"/>
<path d="M33.7681 93.3799L40.1681 106.559L41.0991 95.6069L33.7681 93.3799Z" fill="#EFF7F9"/>
<path d="M28.7269 88.9483L28.8919 93.4633L33.7679 93.3823L28.7119 88.5273L28.7269 88.9483Z" fill="#E1EBF0"/>
<path d="M31.4841 87.9062L33.7681 93.3802L41.1011 95.6073L31.4841 87.9062Z" fill="#C6CED0"/>
<path d="M28.6611 87.1475L28.7111 88.5275L33.7681 93.3805L31.4831 87.9065L28.6611 87.1475Z" fill="#D1DADF"/>
<path d="M31.484 87.906L29.033 84.706L28.562 84.416L28.662 87.143L31.484 87.906Z" fill="#B6C1CE"/>
<path d="M41.1001 95.6086L41.4311 96.0386L41.3871 95.8826L41.3471 95.7386L41.2281 95.3076L41.1001 95.6086Z" fill="#D1DADF"/>
<path d="M40.1969 91.6001L38.8479 90.7681L38.0029 90.2461L41.1029 95.6081L41.2299 95.3081L40.1969 91.6001Z" fill="#F0F7FB"/>
<path d="M37.8811 90.1708L35.4071 88.6438L32.8241 87.0498L31.4841 87.9058L41.1011 95.6058L38.0011 90.2438L37.8811 90.1708Z" fill="#9DABB9"/>
<path d="M32.3041 86.7297L32.2541 86.6987L32.1871 86.6577L32.0321 86.5577L31.6201 86.3037L31.4841 87.9037L32.8241 87.0477L32.3041 86.7297Z" fill="#525A66"/>
<path d="M29.032 84.7109L31.483 87.9109L31.619 86.3109L29.032 84.7109Z" fill="#EFF7F9"/>
<path d="M93.197 80.78L93.338 80.763L93.412 80.208L93.197 80.78Z" fill="#444950"/>
<path d="M92.2361 89.0147L93.3361 80.7617L93.1941 80.7787L92.2361 89.0147Z" fill="#ABB9CA"/>
<path d="M89.743 87.5243L89.252 87.2243L87.999 89.0013L91.591 89.4883L91.691 88.7312L91.991 88.9163L92.229 89.0642L92.235 89.0173L93.196 80.7812L89.743 87.5243Z" fill="#808890"/>
<path d="M95.071 67.2564L95.137 67.2844L95.16 67.1084L95.071 67.2564Z" fill="#7A8694"/>
<path d="M93.2071 70.353L91.2191 73.653L90.9651 74.075L91.2781 76.475L93.1971 80.775L93.4121 80.2029L95.1371 67.28L95.0721 67.252L93.2071 70.353Z" fill="#D1DADF"/>
<path d="M90.2839 75.2101L91.2779 76.481L90.9639 74.0811L90.2839 75.2101Z" fill="#E7F0F4"/>
<path d="M93.1971 80.7805L91.2781 76.4805L86.2991 84.3345L93.1971 80.7805Z" fill="#98A4B1"/>
<path d="M86.4371 85.4803L86.8371 85.7283L87.5891 86.1923L87.9951 88.9923L89.2481 87.2163L89.7391 87.5163L93.1971 80.7803L86.2971 84.3373L86.4371 85.4803Z" fill="#E1EBF0"/>
<path d="M89.8779 75.8801L89.7009 76.1731L91.2769 76.4732L90.2839 75.2021L89.8779 75.8801Z" fill="#75746B"/>
<path d="M86.7909 81.0147L85.7209 82.7937L86.299 84.3357L91.2769 76.4807L89.701 76.1807L86.7909 81.0147Z" fill="#B6C1CE"/>
<path d="M86.1541 85.311L86.4371 85.486L86.2991 84.335L86.1541 85.311Z" fill="#E5EDF0"/>
<path d="M84.733 84.4328L84.688 85.6798L85.573 84.9558L85.729 85.0558L86.299 84.3428L85.721 82.7998L84.794 84.3388L84.733 84.4328Z" fill="#75746B"/>
<path d="M85.729 85.048L86.154 85.311L86.299 84.335L85.729 85.048Z" fill="#9DABB9"/>
<path d="M91.5881 89.4802L91.9881 89.5862L92.2261 89.0562L91.9871 88.9092L91.5881 89.4802Z" fill="#F3F6F1"/>
<path d="M91.874 89.8564L91.993 89.5904L91.593 89.4844L91.874 89.8564Z" fill="#E7F0F4"/>
<path d="M91.5881 89.4806L91.9881 88.9096L91.6881 88.7246L91.5881 89.4806Z" fill="#EFF7F9"/>
<path d="M91.5239 90.6354L91.8729 89.8563L91.5879 89.4854L91.5239 90.6354Z" fill="#A3B1BC"/>
<path d="M87.9971 88.998L89.7541 94.588L91.5251 90.635L91.5891 89.485L87.9971 88.998Z" fill="#475875"/>
<path d="M86.4761 97.5801L88.2091 98.0341L89.7541 94.5861L87.9961 88.9971L86.4761 97.5801Z" fill="white"/>
<path d="M87.275 100.121L88.21 98.0351L86.4771 97.5801L87.275 100.121Z" fill="#A3B1BC"/>
<path d="M84.059 102.922L83.908 107.067L84.157 107.08L87.275 100.121L86.475 97.5811L84.059 102.922Z" fill="white"/>
<path d="M83.885 107.686L84.157 107.08L83.908 107.067L83.885 107.686Z" fill="#EFF7F9"/>
<path d="M86.843 85.7334L85.699 92.1914L87.999 88.9984L87.593 86.1984L86.843 85.7334Z" fill="#E5EDF0"/>
<path d="M86.4761 97.5801L87.996 88.9971L85.696 92.1891L86.4761 97.5801Z" fill="#EFF7F9"/>
<path d="M85.7291 85.0487L85.5731 84.9487L84.6881 85.6737L84.7331 84.4297L84.1941 84.7627L79.9761 87.3627L79.4441 87.6907L83.1381 91.6487L84.5931 88.2847L84.5161 90.3807L84.4761 91.4807L85.6951 92.1897L86.8431 85.7337L86.4431 85.4857L86.1601 85.3117L85.7291 85.0487Z" fill="#F0F7FB"/>
<path d="M84.371 94.3805L84.39 93.8585L82.281 98.7355L84.172 99.8355L84.209 98.8175L86.477 97.5805L85.695 92.1895L84.371 94.3805Z" fill="white"/>
<path d="M84.1721 99.8331L84.0591 102.922L86.4771 97.5801L84.2091 98.8151L84.1721 99.8331Z" fill="#B6C1CE"/>
<path d="M84.4431 92.2555L85.6901 92.1915L84.4771 91.4805L84.4431 92.2555Z" fill="#304350"/>
<path d="M76.843 114.693L79.087 112.461L74.043 113.809L76.843 114.693Z" fill="#E1EBF0"/>
<path d="M74.874 116.65L76.843 114.694L74.043 113.809L74.874 116.65Z" fill="#7A8694"/>
<path d="M81.698 107.865L81.975 109.588L83.885 107.688L82.514 107.799L81.698 107.865Z" fill="#C6CED0"/>
<path d="M77.872 108.173L74.043 113.808L79.088 112.46L81.977 109.586L81.7 107.863L77.872 108.173Z" fill="#C2CBD4"/>
<path d="M71.2429 119.611L71.3849 120.121L74.8739 116.651L74.0409 113.81L71.2429 119.611Z" fill="#EFF7F9"/>
<path d="M69.667 113.887L74.04 113.808L77.872 108.173L75.754 108.344L69.667 113.887Z" fill="#EFF7F9"/>
<path d="M69.668 113.948L70.45 116.76L71.243 119.611L74.043 113.811L69.67 113.889L69.668 113.948Z" fill="white"/>
<path d="M69.6691 113.947V113.888L69.6511 113.879L69.6691 113.947Z" fill="#75746B"/>
<path d="M75.1431 108.395L74.3431 108.46L71.3131 108.705L69.6631 113.888L75.7501 108.346L75.1431 108.395Z" fill="#7A8694"/>
<path d="M69.6431 113.859L69.6661 113.888L71.3171 108.704L71.0351 108.727L70.1081 108.802L68.2781 108.95L68.6291 110.211L69.6431 113.859Z" fill="white"/>
<path d="M69.649 113.88L69.667 113.889L69.644 113.86L69.649 113.88Z" fill="#E3D6C0"/>
<path d="M64.81 122.068L68.26 121.046L63.896 119.341L64.81 122.068Z" fill="#808890"/>
<path d="M62.3911 122.785L64.8111 122.068L63.8971 119.341L62.3911 122.785Z" fill="#475875"/>
<path d="M58.743 121.686L57.355 123.541L57.537 124.222L62.387 122.785L63.893 119.341L58.743 121.686Z" fill="white"/>
<path d="M56.6521 124.486L57.5411 124.222L57.3581 123.541L56.6521 124.486Z" fill="#A3B1BC"/>
<path d="M70.4501 116.759L67.0911 114.745L70.2211 120.465L71.3851 120.12L71.2431 119.61L70.4501 116.759Z" fill="#98A4B1"/>
<path d="M63.897 119.341L68.26 121.046L70.222 120.465L67.091 114.745L63.897 119.341Z" fill="#E1EBF0"/>
<path d="M69.6491 113.88L69.6431 113.86L68.6291 110.212L67.0901 114.747L70.4501 116.76L69.6681 113.948L69.6491 113.88Z" fill="#B6C1CE"/>
<path d="M67.0911 114.745L62.3131 116.921L61.2971 118.28L63.8971 119.342L67.0911 114.745Z" fill="#E5EDF0"/>
<path d="M61.2971 118.28L58.7471 121.687L63.8971 119.342L61.2971 118.28Z" fill="#EFF7F9"/>
<path d="M68.6289 110.211L68.2779 108.95L65.1599 113.117L67.0899 114.746L68.6289 110.211Z" fill="#75746B"/>
<path d="M65.16 113.117L62.313 116.917L67.091 114.741L65.16 113.117Z" fill="#F0F7FB"/>
<path d="M89.1431 71.9062L93.2081 70.3542L95.0731 67.2542L95.1611 67.1072L92.5361 62.7422L89.1431 71.9062Z" fill="#808890"/>
<path d="M93.2071 70.3535L89.1431 71.9055L91.2201 73.6565L93.2071 70.3535Z" fill="#475875"/>
<path d="M90.2841 75.2103L90.9651 74.0793L91.2191 73.6572L89.1431 71.9062L89.8791 75.8842L90.2841 75.2103Z" fill="#F6FBFB"/>
<path d="M85.6081 51.2255L84.7341 49.7715L84.4231 50.8805L85.6081 51.2255Z" fill="#E7F0F4"/>
<path d="M90.2599 58.961L87.7259 54.748L83.0349 63.797L90.2599 58.961Z" fill="#98A4B1"/>
<path d="M89.1431 71.9059L92.5361 62.7439L90.2621 58.9609L83.0371 63.7979L89.1431 71.9059Z" fill="#E1EBF0"/>
<path d="M83.7739 53.2227L86.4949 52.7007L85.6069 51.2257L84.4239 50.8857L83.7739 53.2227Z" fill="#75746B"/>
<path d="M81.1799 62.5562L83.0349 63.7982L87.7259 54.7482L86.4949 52.7002L83.7739 53.2232L81.1799 62.5562Z" fill="#B6C1CE"/>
<path d="M86.0431 80.0139L89.1431 71.9059L83.0371 63.7969L86.0431 80.0139Z" fill="#E5EDF0"/>
<path d="M86.791 81.0143L89.701 76.1783L89.878 75.8842L89.143 71.9062L86.043 80.0143L86.791 81.0143Z" fill="#808890"/>
<path d="M83.0351 63.7986L81.1801 62.5566L79.9141 67.1096L80.1461 67.9416L83.0351 63.7986Z" fill="#75746B"/>
<path d="M80.1671 68.0148L80.3621 68.7148L80.6951 69.9148L82.7951 77.4678L83.5571 80.2058L86.0391 80.0168L83.0391 63.7998L80.1431 67.9398L80.1671 68.0148Z" fill="#9DABB9"/>
<path d="M85.7209 82.7927L86.7909 81.0137L86.0389 80.0137L84.7949 84.3307L85.7209 82.7927Z" fill="#304350"/>
<path d="M83.577 80.2806L83.833 81.2016L86.043 80.0146L83.562 80.2036L83.577 80.2806Z" fill="#304350"/>
<path d="M83.943 81.5807L84.055 81.9806L84.326 82.9547L84.735 84.4246L84.796 84.3246L86.043 80.0146L83.843 81.1976L83.943 81.5807Z" fill="#ABB9CA"/>
<path d="M69.7799 103.548L69.8079 103.448L69.7329 103.443L69.7799 103.548Z" fill="#F3F6F1"/>
<path d="M69.7161 103.78L69.7801 103.55L69.7331 103.444L69.7161 103.78Z" fill="#E7F0F4"/>
<path d="M69.7341 103.443H69.8091L69.8291 103.37L69.7341 103.443Z" fill="#EFF7F9"/>
<path d="M69.5431 104.394L69.7141 103.779L69.7321 103.443L65.5581 107.272L66.4981 107.852L68.2701 108.946H68.2771L68.4711 108.246L69.5431 104.394Z" fill="#A3B1BC"/>
<path d="M70.043 102.599L71.113 98.75L67.043 98.418L69.731 103.442L69.831 103.374L70.043 102.599Z" fill="#808890"/>
<path d="M63.9241 106.26L64.9371 106.885L65.5611 107.271L69.7341 103.442L67.0431 98.418L63.9241 106.26Z" fill="#475875"/>
<path d="M59.405 103.47L62.082 105.123L63.168 105.794L63.924 106.26L67.043 98.4189L59.343 103.319L59.405 103.47Z" fill="white"/>
<path d="M59.3071 103.41L59.4071 103.47L59.3431 103.325L59.3071 103.41Z" fill="#A3B1BC"/>
<path d="M59.209 103.349L59.272 103.388L59.307 103.409L59.341 103.324L59.209 103.349Z" fill="white"/>
<path d="M72.1889 94.8805L72.5389 93.6215L70.6129 93.1455L70.5129 93.2095L72.1429 95.0645L72.1889 94.8805Z" fill="#98A4B1"/>
<path d="M71.114 98.7509L72.143 95.0639L70.514 93.2109L70.232 93.3859L67.043 98.4189L71.114 98.7509Z" fill="#E1EBF0"/>
<path d="M73.098 91.6133L70.614 93.1473L72.539 93.6233L73.098 91.6133Z" fill="#B6C1CE"/>
<path d="M70.2279 93.3857L62.7429 98.0067L67.0429 98.4187L70.2279 93.3857Z" fill="#E5EDF0"/>
<path d="M67.043 98.4188L62.743 98.0068L62.673 98.0498L59.343 103.324L67.043 98.4188Z" fill="#EFF7F9"/>
<path d="M62.675 98.0498L56.864 101.639L59.341 103.324L62.675 98.0498Z" fill="white"/>
<path d="M56.7121 101.808L59.2121 103.35L59.3441 103.325L56.8671 101.639L56.6601 101.767H56.6541L56.7121 101.808Z" fill="#B6C1CE"/>
<path d="M84.1941 84.7659L84.7331 84.4329L84.3251 82.9619L84.1941 84.7659Z" fill="#EFF7F9"/>
<path d="M79.9761 87.3681L84.1941 84.7681L84.3241 82.9681L84.0541 81.9941L78.9541 87.0281L79.9761 87.3681Z" fill="#808890"/>
<path d="M79.3071 87.7805L79.4441 87.6965L79.9761 87.3685L78.9561 87.0215L79.3071 87.7805Z" fill="#475875"/>
<path d="M78.8201 88.0805L79.3071 87.7805L78.9561 87.0225L78.8201 88.0805Z" fill="white"/>
<path d="M79.4941 69.1026L80.3621 68.7176L80.1621 68.0176L79.4941 69.1026Z" fill="#E1EBF0"/>
<path d="M80.3621 68.7158L79.4941 69.1008L80.6941 69.9118L80.3621 68.7158Z" fill="#7A8694"/>
<path d="M79.448 68.7805L79.494 69.0975L80.166 68.0105L80.145 67.9365L79.914 67.1035L79.448 68.7805Z" fill="#C2CBD4"/>
<path d="M80.6941 69.9126L79.4941 69.1016L82.0181 77.7806L82.7951 77.4606L80.6941 69.9126Z" fill="#EFF7F9"/>
<path d="M83.557 80.2028L82.795 77.4648L82.019 77.7848L83.577 80.2798L83.557 80.2028Z" fill="white"/>
<path d="M79.311 69.2801L79.494 69.1041L79.448 68.7881L79.311 69.2801Z" fill="#EFF7F9"/>
<path d="M79.4941 69.1025L79.3111 69.2805L78.1621 73.4115L82.0191 77.7805L79.4941 69.1025Z" fill="white"/>
<path d="M83.8329 81.1973L83.5769 80.2803L82.0189 77.7803L77.2849 81.0133L83.9429 81.5803L83.8329 81.1973Z" fill="#98A4B1"/>
<path d="M84.0529 81.9895L83.9409 81.5895L77.2839 81.0225L78.9549 87.0225L84.0529 81.9895Z" fill="#E1EBF0"/>
<path d="M78.1619 73.4082L77.5979 75.4342L82.0189 77.7852L78.1619 73.4082Z" fill="#75746B"/>
<path d="M82.019 77.7807L77.599 75.4297L76.457 79.5297L77.285 81.0107L82.019 77.7807Z" fill="#B6C1CE"/>
<path d="M77.285 81.0186L76.175 89.6806L78.956 87.0186L77.285 81.0186Z" fill="#E5EDF0"/>
<path d="M78.82 88.0805L78.956 87.0205L76.175 89.6805L76.182 89.7065L78.82 88.0805Z" fill="#EFF7F9"/>
<path d="M76.457 79.5371L75.875 81.6281L77.285 81.0181L76.457 79.5371Z" fill="#75746B"/>
<path d="M77.2851 81.0186L75.8761 81.6276L74.0291 88.2666L76.1751 89.6806L77.2851 81.0186Z" fill="#F0F7FB"/>
<path d="M76.124 89.7455L76.182 89.7105L76.174 89.6855L76.124 89.7455Z" fill="white"/>
<path d="M74.0291 88.2666L73.7671 89.2086L76.1751 89.6846L74.0291 88.2666Z" fill="#304350"/>
<path d="M76.0769 89.774L76.1249 89.745L76.1749 89.684L73.7669 89.208L73.0979 91.608L75.5859 90.08L76.0769 89.774Z" fill="#EFF7F9"/>
<path d="M84.059 102.922L84.172 99.8334L82.281 98.7334L82.515 107.799L83.885 107.688L83.908 107.069L84.059 102.922Z" fill="#A3B1BC"/>
<path d="M75.7541 108.345L77.8711 108.174L81.6981 107.864L82.5141 107.798L82.2801 98.7324L75.1431 108.394L75.7541 108.345Z" fill="white"/>
<path d="M83.1379 91.655L84.5169 90.38L84.5929 88.292L83.1379 91.655Z" fill="#E5EDF0"/>
<path d="M84.371 94.3807L85.695 92.1947L84.448 92.2587L84.477 91.4857L84.517 90.3857L83.138 91.6627L82.281 98.7397L84.39 93.8627L84.371 94.3807Z" fill="#EFF7F9"/>
<path d="M74.293 101.192L82.281 98.7313L83.138 91.6543L74.293 101.192Z" fill="white"/>
<path d="M74.3431 108.459L75.1431 108.394L82.2761 98.7324L74.2891 101.193L74.3431 108.459Z" fill="#B6C1CE"/>
<path d="M79.3071 87.7803L78.8201 88.0803L76.1821 89.7073L76.1251 89.7433L76.0771 89.7723L75.7881 90.2653L83.1381 91.6523L79.4431 87.6973L79.3071 87.7803Z" fill="#304350"/>
<path d="M74.293 101.193L83.143 91.6546L75.792 90.2676L74.293 101.193Z" fill="#EFF7F9"/>
<path d="M74.2929 101.192L71.0349 108.726L71.3169 108.703L74.3469 108.458L74.2929 101.192Z" fill="#E1EBF0"/>
<path d="M75.7881 90.2676L70.6191 104.597L74.2941 101.197L75.7881 90.2676Z" fill="#C6CED0"/>
<path d="M70.6181 104.596L70.1091 108.802L71.0351 108.727L74.2931 101.192L70.6181 104.596Z" fill="#D1DADF"/>
<path d="M70.6181 104.597L68.4731 108.249L68.2791 108.949L70.1091 108.801L70.6181 104.597Z" fill="#B6C1CE"/>
<path d="M75.585 90.0803L75.785 90.2693L76.073 89.7773L75.585 90.0803Z" fill="#D1DADF"/>
<path d="M72.189 94.8802L75.789 90.2652L75.589 90.0752L73.101 91.6112L72.542 93.6212L72.189 94.8802Z" fill="#F0F7FB"/>
<path d="M72.1889 94.8805L72.1389 95.0625L71.114 98.7505L70.0439 102.6L70.6189 104.6L75.7879 90.2705L72.1889 94.8805Z" fill="#9DABB9"/>
<path d="M69.8279 103.375L69.8069 103.449L69.7799 103.549L69.7149 103.78L69.5449 104.394L70.6179 104.594L70.0429 102.594L69.8279 103.375Z" fill="#525A66"/>
<path d="M68.4741 108.249L70.6191 104.597L69.5461 104.397L68.4741 108.249Z" fill="#EFF7F9"/>
<path d="M70.15 18.5246L71.343 20.3916L71.669 15.0406L71.162 14.8866L71.286 14.4396L71.386 14.0846L67.791 13.0186L70.743 16.3806L70.15 18.5246Z" fill="#808890"/>
<path d="M59.4711 13.4867L59.9031 14.0647L61.5371 13.5927L63.4201 11.7247L56.6511 9.71973L57.3181 10.6097L59.4711 13.4867Z" fill="#D1DADF"/>
<path d="M61.5371 13.5908L59.9041 14.0628L60.6731 15.0908L61.5371 13.5908Z" fill="#E7F0F4"/>
<path d="M68.1351 22.8806L65.7011 12.4006L63.4201 11.7246L61.5371 13.5916L68.1351 22.8806Z" fill="#98A4B1"/>
<path d="M69.0041 22.6454L69.1511 22.1174L69.4621 20.9974L71.3421 20.3924L70.1501 18.5254L70.7501 16.3814L67.7941 13.0194L65.7051 12.4004L68.1351 22.8804L69.0041 22.6454Z" fill="#E1EBF0"/>
<path d="M60.6731 15.0918L61.3311 15.9698L61.5371 13.5918L60.6731 15.0918Z" fill="#75746B"/>
<path d="M61.6341 16.3807L63.5581 18.9517L67.1271 23.7197L68.1351 22.8817L61.5351 13.5957L61.3281 15.9747L61.6341 16.3807Z" fill="#B6C1CE"/>
<path d="M68.135 22.8804L68.872 23.1234L69.004 22.6484L68.135 22.8804Z" fill="#E5EDF0"/>
<path d="M68.279 25.254L69.114 25.322L68.627 24.002L68.674 23.834L68.135 22.877L67.127 23.715L68.279 25.254Z" fill="#75746B"/>
<path d="M68.674 23.833L68.874 23.119L68.137 22.876L68.674 23.833Z" fill="#9DABB9"/>
<path d="M71.2861 14.4399L71.6691 15.0399L71.7401 14.4399L71.3851 14.0869L71.2861 14.4399Z" fill="#F3F6F1"/>
<path d="M71.6689 15.0405L71.9179 14.6145L71.74 14.4375L71.6689 15.0405Z" fill="#E7F0F4"/>
<path d="M71.1621 14.8864L71.6701 15.0404L71.2861 14.4404L71.1621 14.8864Z" fill="#EFF7F9"/>
<path d="M71.6689 15.0403L72.4409 15.1343L71.9179 14.6143L71.6689 15.0403Z" fill="#A3B1BC"/>
<path d="M71.343 20.3922L75.094 17.7742L72.443 15.1352L71.671 15.0352L71.343 20.3922Z" fill="#475875"/>
<path d="M77.103 22.6574L77.403 20.0754L75.089 17.7754L71.343 20.3924L77.103 22.6574Z" fill="white"/>
<path d="M78.808 21.4672L77.408 20.0742L77.103 22.6572L78.808 21.4672Z" fill="#A3B1BC"/>
<path d="M80.6879 26.2598L83.4699 26.4848L83.4789 26.1138L78.8079 21.4688L77.1079 22.6578L80.6879 26.2598Z" fill="white"/>
<path d="M83.469 26.4803L83.885 26.5133L83.478 26.1133L83.469 26.4803Z" fill="#EFF7F9"/>
<path d="M71.3431 20.3926L69.4631 20.9976L69.1511 22.1176L73.4861 23.8176L71.3431 20.3926Z" fill="#E5EDF0"/>
<path d="M77.103 22.6576L71.343 20.3926L73.485 23.8216L77.103 22.6576Z" fill="#EFF7F9"/>
<path d="M68.6741 23.834L68.6271 24.003L69.1141 25.322L68.2791 25.254L68.5631 26.28L70.2061 32.191L70.4701 33.139L73.1261 27.639L70.8681 25.471L72.2681 25.584L73.0091 25.644L73.4851 23.829L69.1501 22.124L69.0041 22.652L68.8721 23.127L68.6741 23.834Z" fill="#F0F7FB"/>
<path d="M74.9521 25.7942L74.6021 25.7662L77.8751 28.9082L78.6141 26.0912L77.9321 26.0352L77.1031 22.6572L73.4851 23.8212L74.9521 25.7942Z" fill="white"/>
<path d="M78.615 26.0912L80.688 26.2592L77.104 22.6592L77.932 26.0382L78.615 26.0912Z" fill="#B6C1CE"/>
<path d="M73.009 25.6373L73.528 25.6793L73.485 23.8223L73.009 25.6373Z" fill="#304350"/>
<path d="M88.5881 37.0129L87.0881 33.6689L87.9881 41.1859L88.5881 37.0129Z" fill="#E1EBF0"/>
<path d="M89.9011 39.9447L88.5881 37.0137L87.9941 41.1867L89.9011 39.9447Z" fill="#7A8694"/>
<path d="M84.004 29.7805L85.16 29.3675L83.885 26.5215L83.96 28.5645L84.004 29.7805Z" fill="#C6CED0"/>
<path d="M84.2121 35.4802L87.9941 41.1892L87.0941 33.6722L85.1641 29.3662L84.0081 29.7792L84.2121 35.4802Z" fill="#C2CBD4"/>
<path d="M91.8871 45.3554L92.2301 45.1434L89.9001 39.9434L87.9941 41.1864L91.8871 45.3554Z" fill="#EFF7F9"/>
<path d="M88.0429 47.7035L87.9899 41.1875L84.2119 35.4805L84.3269 38.6355L88.0429 47.7035Z" fill="#EFF7F9"/>
<path d="M88.0871 47.7015L89.9751 46.5365L91.8881 45.3555L87.9941 41.1865L88.0471 47.7035L88.0871 47.7015Z" fill="white"/>
<path d="M88.0431 47.7032L88.0381 47.7292L88.0831 47.7012L88.0431 47.7032Z" fill="#75746B"/>
<path d="M84.36 39.5368L84.404 40.7288L84.568 45.2438L88.043 47.7028L84.323 38.6318L84.36 39.5368Z" fill="#7A8694"/>
<path d="M88.0281 47.7372L88.0471 47.7022L84.5681 45.2432L84.5841 45.6632L84.6341 47.0442L84.7341 49.7712L85.5811 49.2482L88.0281 47.7372Z" fill="white"/>
<path d="M88.0281 47.7371L88.0421 47.7291V47.7031L88.0281 47.7371Z" fill="#E3D6C0"/>
<path d="M93.538 54.9388L92.852 49.7988L91.708 56.2988L93.538 54.9388Z" fill="#808890"/>
<path d="M94.019 58.5455L93.538 54.9395L91.707 56.3015L94.019 58.5455Z" fill="#475875"/>
<path d="M93.281 63.9738L94.526 66.0428L94.983 65.7708L94.019 58.5448L91.707 56.2998L93.281 63.9738Z" fill="white"/>
<path d="M94.5261 66.0425L95.1611 67.0955L94.9831 65.7705L94.5261 66.0425Z" fill="#A3B1BC"/>
<path d="M89.9741 46.5365L88.6221 51.5425L92.4611 46.8805L92.2301 45.1475L91.8871 45.3595L89.9741 46.5365Z" fill="#98A4B1"/>
<path d="M91.707 56.3L92.8511 49.8L92.461 46.877L88.623 51.541L91.707 56.3Z" fill="#E1EBF0"/>
<path d="M88.0431 47.729L88.0301 47.737L85.5811 49.249L88.6251 51.541L89.9761 46.541L88.0891 47.706L88.0431 47.729Z" fill="#B6C1CE"/>
<path d="M88.623 51.541L90.083 58.66L90.995 60.174L91.707 56.3L88.623 51.541Z" fill="#E5EDF0"/>
<path d="M90.9941 60.1738L93.2811 63.9738L91.7071 56.2998L90.9941 60.1738Z" fill="#EFF7F9"/>
<path d="M85.5801 49.249L84.7341 49.771L87.5341 54.418L88.6261 51.542L85.5801 49.249Z" fill="#75746B"/>
<path d="M87.53 54.418L90.083 58.66L88.623 51.541L87.53 54.418Z" fill="#F0F7FB"/>
<path d="M57.318 10.6098L56.651 9.71875L54.002 13.2568L58.214 18.5088L57.318 10.6098Z" fill="#808890"/>
<path d="M57.3181 10.6094L58.2181 18.5094L59.4751 13.4874L57.3181 10.6094Z" fill="#475875"/>
<path d="M61.3311 15.9703L60.6731 15.0913L59.9041 14.0633L59.4721 13.4863L58.2141 18.5083L61.6351 16.3803L61.3311 15.9703Z" fill="#F6FBFB"/>
<path d="M48.6781 20.3652L45.0161 25.2542L46.4681 26.1542L48.6781 20.3652Z" fill="#D1DADF"/>
<path d="M48.579 27.4535L49.248 19.6035L48.678 20.3655L46.468 26.1505L48.579 27.4535Z" fill="#E7F0F4"/>
<path d="M52.1571 15.7197L49.6001 19.1347L54.5561 27.7847L52.1571 15.7197Z" fill="#98A4B1"/>
<path d="M58.214 18.5089L54.002 13.2559L52.157 15.7189L54.557 27.7849L58.214 18.5089Z" fill="#E1EBF0"/>
<path d="M49.876 28.2535L49.376 19.4375L49.252 19.6035L48.582 27.4535L49.876 28.2535Z" fill="#75746B"/>
<path d="M53.962 30.7738L54.556 27.7838L49.6 19.1338L49.373 19.4338L49.873 28.2508L53.962 30.7738Z" fill="#B6C1CE"/>
<path d="M58.2139 18.5088L54.5559 27.7798L61.8719 23.2178L58.2139 18.5088Z" fill="#E5EDF0"/>
<path d="M63.5581 18.9469L61.6341 16.3799L58.2141 18.5129L61.8721 23.2259L63.5581 18.9469Z" fill="#808890"/>
<path d="M53.9619 30.7743L56.4949 32.3373L54.5559 27.7803L53.9619 30.7743Z" fill="#75746B"/>
<path d="M57.8601 31.6887L58.7531 31.1367L62.0061 29.1287L61.8731 23.2227L54.5571 27.7807L56.4961 32.3337L56.6521 32.4337L57.3361 32.0107L57.8601 31.6887Z" fill="#9DABB9"/>
<path d="M65.7511 26.8153L66.3711 26.4323L66.5621 26.3143L67.0241 26.0293L68.2791 25.2543L67.1271 23.7153L63.5581 18.9473L61.8721 23.2223L65.6431 26.8803L65.7511 26.8153Z" fill="#304350"/>
<path d="M62.0061 29.1287L62.7401 28.6747L61.8721 23.2227L62.0061 29.1287Z" fill="#304350"/>
<path d="M63.6201 28.1317L65.6431 26.8807L61.8711 23.2217L62.7401 28.6737L63.6201 28.1317Z" fill="#ABB9CA"/>
<path d="M81.0381 47.6032L81.1091 47.5342L81.0421 47.4922L81.0381 47.6032Z" fill="#F3F6F1"/>
<path d="M81.0381 47.6032L81.2631 47.6292L81.1091 47.5342L81.0381 47.6032Z" fill="#E7F0F4"/>
<path d="M81.038 47.6029V47.4919L80.988 47.4619L81.038 47.6029Z" fill="#EFF7F9"/>
<path d="M81.6751 47.8806L81.2631 47.6256L81.0371 47.5996L83.6061 53.8176L84.7331 49.7676L84.2621 49.4776L81.6751 47.8806Z" fill="#A3B1BC"/>
<path d="M80.471 47.1409L77.888 45.5469L77.665 51.6079L81.037 47.6079L80.991 47.4669L80.471 47.1409Z" fill="#808890"/>
<path d="M82.928 56.2605L83.606 53.8215L81.037 47.6035L77.665 51.6085L82.928 56.2605Z" fill="#475875"/>
<path d="M80.957 63.0884L81.057 62.9934L82.93 56.2604L77.667 51.6084L80.957 63.0884Z" fill="white"/>
<path d="M80.957 63.0891L81.015 63.1391L81.055 62.9941L80.957 63.0891Z" fill="#A3B1BC"/>
<path d="M80.975 63.2859L81.015 63.1389L80.958 63.0889L80.975 63.2859Z" fill="white"/>
<path d="M75.2919 43.9448L74.4469 43.4238L74.1279 46.2928L74.1699 46.4468L75.4139 44.0198L75.2919 43.9448Z" fill="#98A4B1"/>
<path d="M77.8879 45.5475L75.4139 44.0205L74.1699 46.4465L74.2869 46.8675L77.6649 51.6085L77.8879 45.5475Z" fill="#E1EBF0"/>
<path d="M73.0979 42.5908L74.1279 46.2908L74.4469 43.4218L73.0979 42.5908Z" fill="#B6C1CE"/>
<path d="M74.2871 46.8672L77.3871 58.0162L77.6631 51.6082L74.2871 46.8672Z" fill="#E5EDF0"/>
<path d="M77.6649 51.6084L77.3879 58.0164L77.4179 58.1164L80.9569 63.0834L77.6649 51.6084Z" fill="#EFF7F9"/>
<path d="M77.418 58.1211L79.827 66.7801L80.958 63.0901L77.418 58.1211Z" fill="white"/>
<path d="M79.8259 66.7799L79.9139 67.0969L80.9739 63.2859L80.9569 63.0859L79.8259 66.7799Z" fill="#B6C1CE"/>
<path d="M68.5629 26.2798L68.2789 25.2578L67.0239 26.0328L68.5629 26.2798Z" fill="#EFF7F9"/>
<path d="M66.563 26.3142L69.943 33.9142L70.207 32.1882L68.563 26.2802L67.024 26.0332L66.563 26.3142Z" fill="#808890"/>
<path d="M69.9431 33.9135L70.5221 33.3195L70.4701 33.1355L70.2071 32.1885L69.9431 33.9135Z" fill="#475875"/>
<path d="M69.9431 33.9133L70.7501 34.1433L70.5221 33.3193L69.9431 33.9133Z" fill="white"/>
<path d="M57.3359 32.0125L58.1479 33.1275L57.8599 31.6895L57.3359 32.0125Z" fill="#E1EBF0"/>
<path d="M57.8601 31.6897L58.1481 33.1277L58.7481 31.1377L57.8601 31.6897Z" fill="#7A8694"/>
<path d="M57.3361 32.0117L56.6521 32.4347L57.9011 33.2057L58.1481 33.1267L57.3361 32.0117Z" fill="#C2CBD4"/>
<path d="M62.7431 28.6739L62.0081 29.1279L58.7531 31.1369L58.1531 33.1259L63.8681 29.4369L63.6251 28.1309L62.7431 28.6739Z" fill="#EFF7F9"/>
<path d="M65.6431 26.8805L63.6191 28.1305L63.8621 29.4365L65.7501 26.8145L65.6431 26.8805Z" fill="white"/>
<path d="M57.9011 33.206L58.2841 33.442L58.1481 33.127L57.9011 33.206Z" fill="#EFF7F9"/>
<path d="M58.1431 33.1265L58.2791 33.4415L60.9641 35.0995L63.8581 29.4375L58.1431 33.1265Z" fill="white"/>
<path d="M65.7511 26.8156L63.8621 29.4376L65.9901 36.3556L66.3711 26.4326L65.7511 26.8156Z" fill="#98A4B1"/>
<path d="M66.563 26.3145L66.372 26.4325L65.991 36.3555L69.943 33.9145L66.563 26.3145Z" fill="#E1EBF0"/>
<path d="M60.968 35.1005L62.308 35.9275L63.862 29.4385L60.968 35.1005Z" fill="#75746B"/>
<path d="M63.8621 29.4375L62.3071 35.9275L64.9961 37.5885L65.9901 36.3545L63.8621 29.4375Z" fill="#B6C1CE"/>
<path d="M65.991 36.3551L71.691 37.9771L69.943 33.9141L65.991 36.3551Z" fill="#E5EDF0"/>
<path d="M70.7501 34.1431L69.9431 33.9131L71.6951 37.9801L71.7951 37.9171L70.7501 34.1431Z" fill="#EFF7F9"/>
<path d="M64.9971 37.5885L66.3971 38.4545L65.9881 36.3545L64.9971 37.5885Z" fill="#75746B"/>
<path d="M65.991 36.3555L66.4 38.4555L70.753 41.1435L71.695 37.9775L65.991 36.3555Z" fill="#F0F7FB"/>
<path d="M71.6951 37.98L71.9401 38.425L71.8641 38.155L71.7981 37.916L71.6951 37.98Z" fill="white"/>
<path d="M70.752 41.1435L71.378 41.5295L71.694 37.9785L70.752 41.1435Z" fill="#304350"/>
<path d="M73.0979 42.5916L72.0679 38.8806L71.9389 38.4186L71.6949 37.9736L71.3779 41.5256L72.3339 42.1156L73.0979 42.5916Z" fill="#EFF7F9"/>
<path d="M80.688 26.2588L78.615 26.0908L77.876 28.9088L83.96 28.5598L83.885 26.5178L83.47 26.4838L80.688 26.2588Z" fill="#A3B1BC"/>
<path d="M84.327 38.6325L84.212 35.4805L84.004 29.7805L83.96 28.5645L77.875 28.9125L84.36 39.5415L84.327 38.6325Z" fill="white"/>
<path d="M70.8679 25.4639L73.1259 27.6319L72.2689 25.5799L70.8679 25.4639Z" fill="#E5EDF0"/>
<path d="M74.9521 25.7943L73.4851 23.8213L73.5281 25.6793L73.0091 25.6373L72.2681 25.5773L73.1251 27.6313L77.8751 28.9083L74.6021 25.7663L74.9521 25.7943Z" fill="#EFF7F9"/>
<path d="M79.527 40.8098L77.875 28.9098L73.126 27.6338L79.527 40.8098Z" fill="white"/>
<path d="M84.404 40.7292L84.36 39.5372L77.876 28.9082L79.527 40.8082L84.404 40.7292Z" fill="#182631"/>
<path d="M70.75 34.1429L71.798 37.9139L71.864 38.1519L72.195 38.5829L73.126 27.6309L70.47 33.1309L70.521 33.3149L70.75 34.1429Z" fill="#304350"/>
<path d="M79.5271 40.8098L73.1271 27.6318L72.1951 38.5798L79.5271 40.8098Z" fill="#EFF7F9"/>
<path d="M79.5271 40.8105L84.5831 45.6645L84.5681 45.2445L84.4041 40.7295L79.5271 40.8105Z" fill="#E1EBF0"/>
<path d="M72.1951 38.5801L81.8121 46.2801L79.5261 40.8101L72.1951 38.5801Z" fill="#C6CED0"/>
<path d="M81.8111 46.2855L84.6331 47.0445L84.5831 45.6645L79.5271 40.8105L81.8111 46.2855Z" fill="#D1DADF"/>
<path d="M81.811 46.2852L84.262 49.4852L84.733 49.7752L84.633 47.0482L81.811 46.2852Z" fill="#B6C1CE"/>
<path d="M71.9429 38.4223L72.0709 38.8843L72.1979 38.5843L71.8669 38.1533L71.9429 38.4223Z" fill="#D1DADF"/>
<path d="M75.292 43.945L72.192 38.583L72.064 38.883L73.095 42.59L74.444 43.423L75.292 43.945Z" fill="#F0F7FB"/>
<path d="M75.2921 43.945L75.4141 44.02L77.8881 45.547L80.4711 47.141L81.8111 46.285L72.1951 38.585L75.2921 43.945Z" fill="#9DABB9"/>
<path d="M80.991 47.4621L81.0409 47.4931L81.1079 47.5341L81.2629 47.6341L81.6749 47.8881L81.811 46.2881L80.4709 47.1441L80.991 47.4621Z" fill="#525A66"/>
<path d="M84.263 49.4803L81.812 46.2803L81.676 47.8803L84.263 49.4803Z" fill="#EFF7F9"/>
<mask id="mask4_1_2929" style="mask-type:luminance" maskUnits="userSpaceOnUse" x="0" y="0" width="113" height="143">
<path d="M112.452 0.280273H0.843018V142.744H112.452V0.280273Z" fill="white"/>
</mask>
<g mask="url(#mask4_1_2929)">
<g style="mix-blend-mode:screen">
<mask id="mask5_1_2929" style="mask-type:luminance" maskUnits="userSpaceOnUse" x="33" y="32" width="47" height="70">
<path d="M79.9061 32.4346H33.3801V101.758H79.9061V32.4346Z" fill="white"/>
</mask>
<g mask="url(#mask5_1_2929)">
<mask id="mask6_1_2929" style="mask-type:luminance" maskUnits="userSpaceOnUse" x="33" y="32" width="47" height="70">
<path d="M56.6431 32.4346L73.0981 42.5916L79.9061 67.0916L73.0981 91.6136L56.6431 101.758L40.1971 91.6136L33.3801 67.0966L40.1971 42.5966L56.6431 32.4346Z" fill="white"/>
</mask>
<g mask="url(#mask6_1_2929)">
<path d="M50.3473 10.0173L0.00390625 76.4473L62.935 124.139L113.278 57.7092L50.3473 10.0173Z" fill="url(#paint1_linear_1_2929)"/>
</g>
</g>
</g>
<g style="mix-blend-mode:screen">
<mask id="mask7_1_2929" style="mask-type:luminance" maskUnits="userSpaceOnUse" x="4" y="0" width="46" height="99">
<path d="M49.7661 0.280273H4.46411V98.5313H49.7661V0.280273Z" fill="white"/>
</mask>
<g mask="url(#mask7_1_2929)">
<mask id="mask8_1_2929" style="mask-type:luminance" maskUnits="userSpaceOnUse" x="18" y="45" width="11" height="23">
<path d="M21.065 45.1436L28.565 49.7716L18.135 67.0966L21.065 45.1436Z" fill="white"/>
</mask>
<g mask="url(#mask8_1_2929)">
<path d="M26.7309 41.1755L9.78198 48.998L19.9659 71.0633L36.9148 63.2408L26.7309 41.1755Z" fill="url(#paint2_linear_1_2929)"/>
</g>
<mask id="mask9_1_2929" style="mask-type:luminance" maskUnits="userSpaceOnUse" x="18" y="45" width="11" height="23">
<path d="M21.065 45.1436L28.565 49.7716L18.135 67.0966L21.065 45.1436Z" fill="white"/>
</mask>
<g mask="url(#mask9_1_2929)">
<mask id="mask10_1_2929" style="mask-type:luminance" maskUnits="userSpaceOnUse" x="15" y="42" width="7" height="12">
<path d="M15.4501 53.9922L15.4431 42.2412L21.3881 42.4112L15.4501 53.9922Z" fill="white"/>
</mask>
<g mask="url(#mask10_1_2929)">
<path d="M20.339 39.9802L10.967 44.3057L16.4822 56.2553L25.8542 51.9298L20.339 39.9802Z" fill="url(#paint3_linear_1_2929)"/>
</g>
</g>
<mask id="mask11_1_2929" style="mask-type:luminance" maskUnits="userSpaceOnUse" x="19" y="53" width="2" height="1">
<path d="M19.9571 53.4438L19.8831 53.9998L20.0981 53.4268L19.9571 53.4438Z" fill="white"/>
</mask>
<g mask="url(#mask11_1_2929)">
<path d="M20.06 53.3451L19.665 53.5273L19.9206 54.0812L20.3156 53.899L20.06 53.3451Z" fill="url(#paint4_linear_1_2929)"/>
</g>
<mask id="mask12_1_2929" style="mask-type:luminance" maskUnits="userSpaceOnUse" x="19" y="45" width="3" height="9">
<path d="M19.957 53.4435L20.098 53.4265L21.059 45.1895L19.957 53.4435Z" fill="white"/>
</mask>
<g mask="url(#mask12_1_2929)">
<path d="M20.8645 44.7701L16.8159 46.6387L20.1499 53.8624L24.1985 51.9938L20.8645 44.7701Z" fill="url(#paint5_linear_1_2929)"/>
</g>
<mask id="mask13_1_2929" style="mask-type:luminance" maskUnits="userSpaceOnUse" x="20" y="45" width="4" height="9">
<path d="M21.0589 45.1895L20.0979 53.4265L23.5539 46.6805L21.0649 45.1445L21.0589 45.1895Z" fill="white"/>
</mask>
<g mask="url(#mask13_1_2929)">
<path d="M22.9468 43.8291L16.946 46.5986L20.7046 54.7421L26.7053 51.9726L22.9468 43.8291Z" fill="url(#paint6_linear_1_2929)"/>
</g>
<mask id="mask14_1_2929" style="mask-type:luminance" maskUnits="userSpaceOnUse" x="18" y="66" width="1" height="2">
<path d="M18.135 67.0949L18.223 66.9479L18.158 66.9199L18.135 67.0949Z" fill="white"/>
</mask>
<g mask="url(#mask14_1_2929)">
<path d="M18.207 66.8871L18.0681 66.9512L18.1502 67.1291L18.2892 67.065L18.207 66.8871Z" fill="url(#paint7_linear_1_2929)"/>
</g>
<mask id="mask15_1_2929" style="mask-type:luminance" maskUnits="userSpaceOnUse" x="18" y="57" width="5" height="10">
<path d="M18.872 61.5716L18.158 66.9206L18.223 66.9486L22.33 60.1256L22.017 57.7256L18.872 61.5716Z" fill="white"/>
</mask>
<g mask="url(#mask15_1_2929)">
<path d="M21.5975 56.1363L14.6479 59.3438L18.8905 68.5359L25.84 65.3285L21.5975 56.1363Z" fill="url(#paint8_linear_1_2929)"/>
</g>
<mask id="mask16_1_2929" style="mask-type:luminance" maskUnits="userSpaceOnUse" x="18" y="53" width="5" height="9">
<path d="M19.8831 53.9989L18.8721 61.5709L22.0171 57.7229L20.0981 53.4229L19.8831 53.9989Z" fill="white"/>
</mask>
<g mask="url(#mask16_1_2929)">
<path d="M21.4652 52.2297L15.7729 54.8564L19.4237 62.7678L25.1159 60.1411L21.4652 52.2297Z" fill="url(#paint9_linear_1_2929)"/>
</g>
<mask id="mask17_1_2929" style="mask-type:luminance" maskUnits="userSpaceOnUse" x="22" y="57" width="2" height="4">
<path d="M22.3301 60.1256L23.0111 58.9946L22.0171 57.7236L22.3301 60.1256Z" fill="white"/>
</mask>
<g mask="url(#mask17_1_2929)">
<path d="M22.8364 57.3456L21.103 58.1455L22.1912 60.5036L23.9245 59.7037L22.8364 57.3456Z" fill="url(#paint10_linear_1_2929)"/>
</g>
<mask id="mask18_1_2929" style="mask-type:luminance" maskUnits="userSpaceOnUse" x="20" y="49" width="7" height="9">
<path d="M20.0979 53.4261L22.0169 57.7261L26.9959 49.8711L20.0979 53.4261Z" fill="white"/>
</mask>
<g mask="url(#mask18_1_2929)">
<path d="M25.7851 47.2435L17.1091 51.2471L21.3088 60.348L29.9847 56.3444L25.7851 47.2435Z" fill="url(#paint11_linear_1_2929)"/>
</g>
<mask id="mask19_1_2929" style="mask-type:luminance" maskUnits="userSpaceOnUse" x="20" y="46" width="7" height="8">
<path d="M20.0979 53.4267L26.9979 49.8687L26.8599 48.7197L23.5599 46.6797L20.0979 53.4267Z" fill="white"/>
</mask>
<g mask="url(#mask19_1_2929)">
<path d="M25.7847 44.0555L17.531 47.8643L21.3091 56.0517L29.5628 52.243L25.7847 44.0555Z" fill="url(#paint12_linear_1_2929)"/>
</g>
<mask id="mask20_1_2929" style="mask-type:luminance" maskUnits="userSpaceOnUse" x="22" y="57" width="2" height="2">
<path d="M23.0111 58.9946L23.5941 58.0266L22.0171 57.7266L23.0111 58.9946Z" fill="white"/>
</mask>
<g mask="url(#mask20_1_2929)">
<path d="M23.3162 57.1233L21.533 57.9463L22.2935 59.5942L24.0768 58.7712L23.3162 57.1233Z" fill="url(#paint13_linear_1_2929)"/>
</g>
<mask id="mask21_1_2929" style="mask-type:luminance" maskUnits="userSpaceOnUse" x="22" y="49" width="6" height="10">
<path d="M22.0171 57.7232L23.5941 58.0232L27.5741 51.4092L26.9961 49.8652L22.0171 57.7232Z" fill="white"/>
</mask>
<g mask="url(#mask21_1_2929)">
<path d="M26.5981 47.7549L18.9131 51.3018L22.993 60.1417L30.678 56.5948L26.5981 47.7549Z" fill="url(#paint14_linear_1_2929)"/>
</g>
<mask id="mask22_1_2929" style="mask-type:luminance" maskUnits="userSpaceOnUse" x="26" y="48" width="2" height="2">
<path d="M26.9959 49.8687L27.1409 48.8947L26.8579 48.7197L26.9959 49.8687Z" fill="white"/>
</mask>
<g mask="url(#mask22_1_2929)">
<path d="M27.091 48.6117L26.4209 48.9209L26.9078 49.976L27.5779 49.6668L27.091 48.6117Z" fill="url(#paint15_linear_1_2929)"/>
</g>
<mask id="mask23_1_2929" style="mask-type:luminance" maskUnits="userSpaceOnUse" x="26" y="49" width="3" height="3">
<path d="M26.9961 49.8683L27.5741 51.4123L28.5621 49.7713L27.5621 49.1562L26.9961 49.8683Z" fill="white"/>
</mask>
<g mask="url(#mask23_1_2929)">
<path d="M28.2872 48.561L26.1379 49.5527L27.2713 52.0089L29.4206 51.0171L28.2872 48.561Z" fill="url(#paint16_linear_1_2929)"/>
</g>
<mask id="mask24_1_2929" style="mask-type:luminance" maskUnits="userSpaceOnUse" x="26" y="48" width="2" height="2">
<path d="M26.9961 49.8685L27.5661 49.1565L27.1411 48.8945L26.9961 49.8685Z" fill="white"/>
</mask>
<g mask="url(#mask24_1_2929)">
<path d="M27.4658 48.6774L26.625 49.0654L27.0956 50.0851L27.9364 49.697L27.4658 48.6774Z" fill="url(#paint17_linear_1_2929)"/>
</g>
</g>
</g>
</g>
</g>
<defs>
<radialGradient id="paint0_radial_1_2929" cx="0" cy="0" r="1" gradientUnits="userSpaceOnUse" gradientTransform="translate(10.9436 121.905) scale(55.816 10.0986)">
<stop stop-color="#F9FAFB"/>
<stop offset="0.147" stop-color="#DEE5EC"/>
<stop offset="0.247" stop-color="#D2DCE6"/>
<stop offset="0.268" stop-color="#D4DDE7"/>
<stop offset="0.527" stop-color="#EBF0F4"/>
<stop offset="0.768" stop-color="#FAFBFC"/>
<stop offset="0.973" stop-color="white"/>
<stop offset="1" stop-color="white"/>
</radialGradient>
<linearGradient id="paint1_linear_1_2929" x1="83.2494" y1="157.209" x2="83.8536" y2="156.411" gradientUnits="userSpaceOnUse">
<stop stop-color="white"/>
<stop offset="1" stop-color="#231F20"/>
</linearGradient>
<linearGradient id="paint2_linear_1_2929" x1="39.2442" y1="144.282" x2="40.1594" y2="143.86" gradientUnits="userSpaceOnUse">
<stop stop-color="white"/>
<stop offset="1" stop-color="#231F20"/>
</linearGradient>
<linearGradient id="paint3_linear_1_2929" x1="42.1138" y1="141.398" x2="43.0229" y2="140.978" gradientUnits="userSpaceOnUse">
<stop stop-color="white"/>
<stop offset="1" stop-color="#231F20"/>
</linearGradient>
<linearGradient id="paint4_linear_1_2929" x1="40.063" y1="142.877" x2="40.9703" y2="142.458" gradientUnits="userSpaceOnUse">
<stop stop-color="white"/>
<stop offset="1" stop-color="#231F20"/>
</linearGradient>
<linearGradient id="paint5_linear_1_2929" x1="41.8542" y1="142.493" x2="42.7651" y2="142.073" gradientUnits="userSpaceOnUse">
<stop stop-color="white"/>
<stop offset="1" stop-color="#231F20"/>
</linearGradient>
<linearGradient id="paint6_linear_1_2929" x1="41.8732" y1="142.796" x2="42.7793" y2="142.377" gradientUnits="userSpaceOnUse">
<stop stop-color="white"/>
<stop offset="1" stop-color="#231F20"/>
</linearGradient>
<linearGradient id="paint7_linear_1_2929" x1="34.3755" y1="143.421" x2="35.2821" y2="143.002" gradientUnits="userSpaceOnUse">
<stop stop-color="white"/>
<stop offset="1" stop-color="#231F20"/>
</linearGradient>
<linearGradient id="paint8_linear_1_2929" x1="36.3635" y1="143.563" x2="37.2738" y2="143.143" gradientUnits="userSpaceOnUse">
<stop stop-color="white"/>
<stop offset="1" stop-color="#231F20"/>
</linearGradient>
<linearGradient id="paint9_linear_1_2929" x1="38.4696" y1="143.347" x2="39.3803" y2="142.927" gradientUnits="userSpaceOnUse">
<stop stop-color="white"/>
<stop offset="1" stop-color="#231F20"/>
</linearGradient>
<linearGradient id="paint10_linear_1_2929" x1="37.9825" y1="144.168" x2="38.8908" y2="143.749" gradientUnits="userSpaceOnUse">
<stop stop-color="white"/>
<stop offset="1" stop-color="#231F20"/>
</linearGradient>
<linearGradient id="paint11_linear_1_2929" x1="40.1711" y1="144.006" x2="41.0734" y2="143.589" gradientUnits="userSpaceOnUse">
<stop stop-color="white"/>
<stop offset="1" stop-color="#231F20"/>
</linearGradient>
<linearGradient id="paint12_linear_1_2929" x1="41.7493" y1="143.694" x2="42.6573" y2="143.275" gradientUnits="userSpaceOnUse">
<stop stop-color="white"/>
<stop offset="1" stop-color="#231F20"/>
</linearGradient>
<linearGradient id="paint13_linear_1_2929" x1="38.1055" y1="143.908" x2="39.0132" y2="143.489" gradientUnits="userSpaceOnUse">
<stop stop-color="white"/>
<stop offset="1" stop-color="#231F20"/>
</linearGradient>
<linearGradient id="paint14_linear_1_2929" x1="40.2682" y1="144.632" x2="41.1751" y2="144.214" gradientUnits="userSpaceOnUse">
<stop stop-color="white"/>
<stop offset="1" stop-color="#231F20"/>
</linearGradient>
<linearGradient id="paint15_linear_1_2929" x1="42.2986" y1="144.838" x2="43.2059" y2="144.419" gradientUnits="userSpaceOnUse">
<stop stop-color="white"/>
<stop offset="1" stop-color="#231F20"/>
</linearGradient>
<linearGradient id="paint16_linear_1_2929" x1="41.8857" y1="145.138" x2="42.7949" y2="144.718" gradientUnits="userSpaceOnUse">
<stop stop-color="white"/>
<stop offset="1" stop-color="#231F20"/>
</linearGradient>
<linearGradient id="paint17_linear_1_2929" x1="42.1793" y1="144.772" x2="43.0874" y2="144.353" gradientUnits="userSpaceOnUse">
<stop stop-color="white"/>
<stop offset="1" stop-color="#231F20"/>
</linearGradient>
</defs>
</svg>
