<svg width="40" height="12" viewBox="0 0 40 12" fill="none" xmlns="http://www.w3.org/2000/svg">
<path d="M26.943 0.768363H23.87C23.7702 0.785758 23.6763 0.828173 23.5973 0.891651C23.5183 0.955129 23.4566 1.0376 23.418 1.13136L22.15 9.08336C22.1446 9.12034 22.1478 9.15809 22.1594 9.19361C22.1711 9.22914 22.1908 9.26147 22.2171 9.28805C22.2434 9.31463 22.2755 9.33473 22.3109 9.34676C22.3463 9.35879 22.384 9.36242 22.4211 9.35736H24.052C24.0891 9.36242 24.1268 9.35879 24.1622 9.34676C24.1976 9.33473 24.2297 9.31463 24.256 9.28805C24.2823 9.26147 24.302 9.22914 24.3137 9.19361C24.3253 9.15809 24.3285 9.12034 24.3231 9.08336L24.6831 6.82536C24.6961 6.71806 24.7508 6.62018 24.8354 6.55284C24.9199 6.48549 25.0275 6.45408 25.135 6.46536H26.135C26.5653 6.51728 27.0016 6.47982 27.4166 6.35533C27.8317 6.23084 28.2166 6.022 28.5472 5.74189C28.8778 5.46177 29.147 5.11641 29.338 4.72744C29.529 4.33847 29.6376 3.91425 29.6571 3.48136C29.7471 3.14344 29.7615 2.78982 29.6993 2.44569C29.637 2.10155 29.4997 1.77537 29.2971 1.49036C28.6209 0.984917 27.7904 0.729421 26.9471 0.767363M27.3101 3.75136C27.1251 4.83436 26.31 4.83436 25.501 4.83436H24.956L25.316 2.75436C25.316 2.66936 25.4091 2.57636 25.5901 2.57636H25.7681C26.3131 2.57636 26.858 2.57636 27.125 2.93936C27.31 3.02836 27.3101 3.29936 27.3101 3.75136Z" fill="#139AD6"/>
<path d="M4.79795 0.768019H1.71995C1.62008 0.785413 1.52624 0.827829 1.4472 0.891307C1.36816 0.954785 1.30649 1.03726 1.26795 1.13102L-0.00205181 9.08302C-0.00751394 9.12 -0.00429973 9.15775 0.00733998 9.19327C0.0189797 9.2288 0.0387303 9.26112 0.0650182 9.2877C0.0913061 9.31428 0.123412 9.33438 0.158806 9.34641C0.194201 9.35844 0.231912 9.36207 0.268952 9.35702H1.71795C1.81727 9.3393 1.91061 9.29711 1.98953 9.23425C2.06845 9.1714 2.13047 9.08986 2.16995 8.99702L2.52995 6.82502C2.54301 6.71771 2.5977 6.61984 2.68226 6.55249C2.76681 6.48515 2.87444 6.45373 2.98195 6.46502H3.98195C4.41169 6.51605 4.84734 6.47793 5.26169 6.35303C5.67604 6.22813 6.06018 6.01914 6.39013 5.73912C6.72008 5.45909 6.98875 5.11404 7.17936 4.72552C7.36997 4.33699 7.47842 3.91334 7.49795 3.48102C7.58797 3.14309 7.60239 2.78947 7.54016 2.44534C7.47794 2.10121 7.3406 1.77503 7.13795 1.49002C6.47114 0.973879 5.63965 0.717325 4.79795 0.768019ZM5.16095 3.75202C4.97595 4.83502 4.16095 4.83502 3.35195 4.83502H2.89795L3.25795 2.75502C3.25795 2.67002 3.35095 2.57702 3.53195 2.57702H3.70995C4.25495 2.57702 4.79595 2.57702 5.06695 2.94002C5.14144 3.0601 5.18841 3.1952 5.20449 3.33559C5.22057 3.47599 5.20636 3.6182 5.16095 3.75202Z" fill="#263B80"/>
<path d="M14.105 3.66342H12.655C12.57 3.66342 12.388 3.75642 12.388 3.84542L12.295 4.29742L12.206 4.11542C11.9852 3.88868 11.7165 3.7141 11.4197 3.60441C11.1228 3.49473 10.8052 3.45271 10.49 3.48142C9.66984 3.50337 8.88397 3.81512 8.27182 4.36137C7.65967 4.90762 7.2608 5.65306 7.14598 6.46542C7.06121 6.85856 7.06553 7.26568 7.15862 7.65692C7.25172 8.04817 7.43123 8.41361 7.68398 8.72642C7.92312 8.98577 8.21919 9.18605 8.5489 9.31151C8.8786 9.43698 9.23293 9.48418 9.58398 9.44942C9.96744 9.45862 10.3489 9.39128 10.706 9.25134C11.0632 9.11141 11.3888 8.90168 11.664 8.63442L11.571 9.08642C11.5654 9.1233 11.5685 9.16097 11.5802 9.1964C11.5918 9.23183 11.6116 9.26404 11.638 9.29041C11.6644 9.31678 11.6966 9.33658 11.732 9.34823C11.7674 9.35987 11.8051 9.36302 11.842 9.35742H13.196C13.2955 9.34032 13.3892 9.29835 13.4682 9.23542C13.5472 9.17249 13.609 9.09063 13.648 8.99742L14.46 3.93342C14.375 3.84442 14.193 3.66242 14.1 3.66242M12.02 6.56242C11.9481 6.96445 11.7376 7.32854 11.4249 7.5913C11.1123 7.85406 10.7174 7.99884 10.309 8.00042C9.9421 8.01132 9.58474 7.88267 9.30898 7.64042C9.11454 7.31375 9.02031 6.93717 9.03798 6.55742C9.06791 6.26794 9.17547 5.99191 9.34928 5.75848C9.5231 5.52506 9.75673 5.3429 10.0255 5.23126C10.2943 5.11962 10.5882 5.08263 10.8762 5.12419C11.1643 5.16576 11.4357 5.28435 11.662 5.46742C11.9132 5.77344 12.0415 6.16199 12.022 6.55742" fill="#263B80"/>
<path d="M36.157 3.66347H34.711C34.622 3.66347 34.44 3.75647 34.44 3.84547L34.347 4.29747L34.262 4.11547C34.0396 3.88855 33.7696 3.71394 33.4714 3.60429C33.1732 3.49463 32.8544 3.45268 32.538 3.48147C31.7184 3.50519 30.9335 3.81756 30.3217 4.36349C29.7099 4.90942 29.3105 5.65384 29.194 6.46547C29.1112 6.85916 29.1171 7.26635 29.2114 7.65746C29.3057 8.04856 29.4859 8.41375 29.739 8.72647C29.9778 8.98625 30.2738 9.18683 30.6036 9.31233C30.9334 9.43782 31.2879 9.48478 31.639 9.44947C32.0223 9.45788 32.4036 9.39019 32.7606 9.25029C33.1176 9.1104 33.4434 8.90109 33.719 8.63447L33.63 9.08647C33.6241 9.12304 33.6269 9.16048 33.6382 9.19576C33.6495 9.23104 33.6689 9.26318 33.6949 9.28956C33.7209 9.31595 33.7527 9.33584 33.7878 9.34764C33.8229 9.35944 33.8603 9.3628 33.897 9.35747H35.257C35.3569 9.34145 35.4511 9.29989 35.5302 9.23682C35.6094 9.17375 35.671 9.09131 35.709 8.99747L36.524 3.93347C36.431 3.84447 36.346 3.66247 36.161 3.66247M34.085 6.56247C34.0124 6.96614 33.8005 7.33156 33.4862 7.59507C33.1719 7.85857 32.7751 8.00345 32.365 8.00447C32.0003 8.01458 31.6454 7.88591 31.372 7.64447C31.1759 7.31849 31.0815 6.9414 31.101 6.56147C31.1306 6.27218 31.2379 5.99628 31.4114 5.76292C31.5849 5.52957 31.8183 5.34743 32.0868 5.23577C32.3553 5.1241 32.649 5.08706 32.9368 5.12855C33.2247 5.17003 33.4959 5.28852 33.722 5.47147C33.8822 5.59791 34.002 5.76849 34.0665 5.96217C34.131 6.15586 34.1374 6.36518 34.085 6.56247Z" fill="#139AD6"/>
<path d="M21.9669 3.6592H20.4319C20.3616 3.66002 20.2926 3.67715 20.2301 3.70926C20.1676 3.74137 20.1134 3.78757 20.0719 3.8442L18.0779 6.9142L17.1779 4.0222C17.1456 3.93168 17.0829 3.85517 17.0004 3.80575C16.918 3.75632 16.821 3.73704 16.7259 3.7512H15.2789C15.0969 3.7512 15.0049 3.9292 15.0049 4.1112L16.6359 8.9042L15.0979 11.0762C15.0049 11.2542 15.0979 11.5282 15.2799 11.5282H16.7219C16.793 11.527 16.863 11.5097 16.9265 11.4776C16.9901 11.4456 17.0456 11.3997 17.0889 11.3432L22.0599 4.2032C22.3309 3.9292 22.1489 3.6582 21.9669 3.6582" fill="#263B80"/>
<path d="M37.882 1.0382L36.614 9.1742C36.609 9.21095 36.6126 9.24835 36.6245 9.28349C36.6364 9.31862 36.6562 9.35054 36.6824 9.37677C36.7086 9.40299 36.7405 9.42281 36.7757 9.43468C36.8108 9.44655 36.8482 9.45015 36.885 9.4452H38.153C38.2528 9.4278 38.3467 9.38539 38.4257 9.32191C38.5048 9.25843 38.5664 9.17596 38.605 9.0822L39.869 1.1272C39.8744 1.09022 39.8712 1.05247 39.8596 1.01695C39.8479 0.981421 39.8282 0.949091 39.8019 0.922513C39.7756 0.895934 39.7435 0.875835 39.7081 0.863805C39.6727 0.851775 39.635 0.848143 39.598 0.853198H38.152C38.063 0.764198 37.97 0.853198 37.881 1.0352" fill="#139AD6"/>
</svg>
