<svg width="36" height="12" viewBox="0 0 36 12" fill="none" xmlns="http://www.w3.org/2000/svg">
<path d="M0.0250015 10.7471H0.0110016L0 10.7401V2.08008H0.029007C0.100007 2.15808 0.0790024 2.25408 0.0790024 2.34708V10.4981C0.0790024 10.5831 0.0990015 10.6761 0.0250015 10.7471Z" fill="#7C85A3"/>
<path d="M27.9421 2.29727C28.385 1.92557 28.948 1.72778 29.526 1.74084C30.104 1.75391 30.6575 1.97694 31.0831 2.36827C31.1581 2.43227 31.1931 2.43927 31.2721 2.36827C31.6946 1.96833 32.2534 1.74416 32.8351 1.74127C33.4027 1.72678 33.956 1.91995 34.3913 2.28451C34.8266 2.64907 35.1138 3.15995 35.1991 3.72127C35.2163 3.86194 35.2247 4.00355 35.2241 4.14527V10.5653C35.2241 10.8783 35.0961 11.0073 34.7861 11.0073H33.3861C33.0861 11.0073 32.9591 10.8753 32.9591 10.5763C32.9558 8.60694 32.9558 6.6376 32.9591 4.66827C32.9756 4.54787 32.9534 4.42534 32.8957 4.31838C32.838 4.21143 32.7478 4.12559 32.6381 4.07327C32.507 4.00959 32.3616 3.981 32.2161 3.99029C32.0706 3.99958 31.9301 4.04643 31.8081 4.12627C31.7231 4.19433 31.6571 4.28324 31.6166 4.38435C31.5762 4.48547 31.5625 4.59533 31.5771 4.70327V10.6533C31.5827 10.7014 31.5778 10.7502 31.5625 10.7962C31.5473 10.8422 31.5221 10.8844 31.4889 10.9196C31.4556 10.9549 31.415 10.9824 31.37 11.0004C31.3249 11.0183 31.2765 11.0261 31.2281 11.0233C30.7151 11.0343 30.2021 11.0343 29.6931 11.0233C29.4401 11.0233 29.3231 10.8773 29.3231 10.6233C29.3231 8.63993 29.3231 6.6576 29.3231 4.67627C29.3417 4.53757 29.3089 4.39686 29.2307 4.28076C29.1526 4.16466 29.0346 4.08123 28.8991 4.04627C28.7215 4.00181 28.5357 4.00181 28.3581 4.04627C28.2309 4.0802 28.1196 4.15756 28.0434 4.26495C27.9673 4.37235 27.9311 4.503 27.9411 4.63427V10.6133C27.9497 10.6677 27.9452 10.7235 27.9281 10.7759C27.911 10.8283 27.8818 10.876 27.8428 10.915C27.8038 10.954 27.7562 10.9832 27.7038 11.0003C27.6513 11.0174 27.5956 11.0218 27.5411 11.0133H26.0811C26.0282 11.021 25.9742 11.0164 25.9233 10.9997C25.8725 10.983 25.8263 10.9548 25.7882 10.9171C25.7502 10.8795 25.7215 10.8335 25.7043 10.7829C25.6871 10.7322 25.6819 10.6783 25.6891 10.6253V2.19327C25.6813 2.14179 25.6856 2.08918 25.7017 2.03966C25.7178 1.99014 25.7453 1.94507 25.7819 1.90805C25.8185 1.87103 25.8633 1.84309 25.9126 1.82646C25.962 1.80983 26.0145 1.80497 26.0661 1.81227C26.5541 1.81227 27.0421 1.81227 27.5301 1.81227C27.8181 1.81227 27.9301 1.92227 27.9401 2.21227L27.9511 2.30127" fill="#54C0EF"/>
<path d="M12.406 3.7355C12.3639 3.23777 12.1425 2.77225 11.783 2.4255C11.3331 2.0396 10.7555 1.83529 10.163 1.8525C9.36299 1.8385 8.55698 1.8385 7.75598 1.8385C7.70496 1.83218 7.65317 1.83758 7.60456 1.85429C7.55594 1.871 7.51177 1.89858 7.47542 1.93494C7.43907 1.97129 7.41149 2.01545 7.39478 2.06407C7.37807 2.11269 7.37266 2.16448 7.37898 2.2155V3.5255C7.37898 3.8535 7.51099 3.9675 7.82099 3.9675H9.72099C9.7778 3.96023 9.83552 3.96631 9.88956 3.98527C9.9436 4.00423 9.99248 4.03554 10.0323 4.07671C10.0721 4.11788 10.1018 4.16778 10.1189 4.22243C10.136 4.27708 10.1402 4.33497 10.131 4.3915C10.131 4.7045 10.017 4.8185 9.72099 4.8365C9.31142 4.81622 8.90099 4.82089 8.49198 4.8505C7.94282 4.87897 7.42559 5.11736 7.04721 5.5164C6.66884 5.91543 6.45825 6.4446 6.45899 6.9945V8.8495C6.45972 9.00283 6.47648 9.15566 6.50899 9.3055C6.58353 9.77027 6.82048 10.1935 7.17771 10.5001C7.53494 10.8066 7.98929 10.9764 8.45999 10.9795C9.48899 11.0115 10.522 10.9935 11.537 10.9795C11.6572 10.9831 11.7768 10.9615 11.8882 10.9162C11.9996 10.8709 12.1003 10.8027 12.1838 10.7162C12.2673 10.6297 12.3318 10.5267 12.3732 10.4137C12.4145 10.3008 12.4318 10.1805 12.424 10.0605V7.0605C12.424 6.3555 12.438 5.6535 12.424 4.9485C12.443 4.54385 12.437 4.13841 12.406 3.7345M10.163 8.5845C10.1643 8.63295 10.156 8.68118 10.1386 8.72641C10.1212 8.77164 10.095 8.81297 10.0615 8.84802C10.0281 8.88307 9.988 8.91115 9.94362 8.93062C9.89924 8.9501 9.85144 8.9606 9.80299 8.9615C9.57888 8.97576 9.35409 8.97576 9.12998 8.9615C9.08082 8.96306 9.03189 8.95423 8.98637 8.9356C8.94085 8.91698 8.89977 8.88896 8.8658 8.85339C8.83183 8.81782 8.80575 8.77549 8.78924 8.72916C8.77273 8.68283 8.76616 8.63354 8.76998 8.5845V7.3075C8.76616 7.25847 8.77273 7.20918 8.78924 7.16285C8.80575 7.11652 8.83183 7.07418 8.8658 7.03861C8.89977 7.00304 8.94085 6.97503 8.98637 6.9564C9.03189 6.93777 9.08082 6.92895 9.12998 6.9305C9.36098 6.9305 9.57199 6.9305 9.80299 6.9485C9.85056 6.94741 9.89786 6.95597 9.94203 6.97368C9.98621 6.99138 10.0263 7.01786 10.06 7.05151C10.0936 7.08516 10.1201 7.12528 10.1378 7.16945C10.1555 7.21362 10.1641 7.26093 10.163 7.3085V8.5845Z" fill="#233266"/>
<path d="M19.1821 5.52706V8.66406C19.1961 8.97573 19.1468 9.28701 19.0374 9.57916C18.9279 9.87132 18.7605 10.1383 18.5451 10.3641C18.3362 10.5777 18.0862 10.7468 17.8102 10.8613C17.5342 10.9758 17.2379 11.0332 16.9391 11.0301C16.0741 11.0411 15.2081 11.0301 14.3391 11.0301C14.2872 11.0367 14.2344 11.0315 14.1848 11.0148C14.1352 10.9982 14.09 10.9704 14.0526 10.9338C14.0153 10.8971 13.9867 10.8524 13.9691 10.8031C13.9516 10.7538 13.9454 10.7011 13.9511 10.6491C13.9511 10.1581 13.9511 9.66606 13.9511 9.17506C13.9427 9.11954 13.9475 9.06283 13.9652 9.00953C13.9828 8.95622 14.0127 8.90782 14.0526 8.86827C14.0924 8.82871 14.1411 8.79912 14.1945 8.78188C14.2479 8.76464 14.3047 8.76025 14.3601 8.76906C15.0831 8.76906 15.8061 8.76906 16.5291 8.76206C16.5921 8.76921 16.6558 8.75991 16.7141 8.73505C16.7723 8.71018 16.8232 8.67062 16.8616 8.62023C16.9 8.56984 16.9246 8.51034 16.9331 8.44755C16.9417 8.38477 16.9337 8.32085 16.9101 8.26206C16.8827 8.19012 16.8329 8.12887 16.7681 8.08729C16.7033 8.04572 16.6269 8.02601 16.5501 8.03106C16.1941 8.03106 15.8411 8.03106 15.4891 8.02406C15.1955 8.02711 14.9042 7.9717 14.6321 7.86104C14.3601 7.75038 14.1129 7.58669 13.9048 7.37951C13.6966 7.17233 13.5319 6.9258 13.42 6.65428C13.3081 6.38277 13.2514 6.09171 13.2531 5.79806C13.2461 4.59806 13.2531 3.39806 13.2531 2.20506C13.2475 2.15443 13.2532 2.10319 13.27 2.05509C13.2867 2.00699 13.3141 1.96325 13.3499 1.92709C13.3858 1.89093 13.4293 1.86326 13.4773 1.84612C13.5253 1.82899 13.5764 1.82281 13.6271 1.82806C14.1221 1.82806 14.6201 1.82806 15.1151 1.82806C15.1695 1.81996 15.2251 1.82472 15.2773 1.84195C15.3295 1.85919 15.377 1.88843 15.4159 1.92732C15.4547 1.96621 15.484 2.01367 15.5012 2.06589C15.5185 2.11812 15.5232 2.17366 15.5151 2.22806C15.5151 2.75906 15.5151 3.28906 15.5151 3.82006C15.5151 4.33306 15.5151 4.84206 15.5151 5.35106C15.5063 5.40761 15.5109 5.46544 15.5284 5.51992C15.5459 5.57441 15.5759 5.62404 15.6161 5.66485C15.6562 5.70566 15.7053 5.73652 15.7595 5.75496C15.8137 5.7734 15.8714 5.77891 15.9281 5.77106C16.1131 5.77106 16.3021 5.77106 16.4871 5.77106C16.5439 5.77874 16.6018 5.77315 16.6561 5.75471C16.7104 5.73627 16.7597 5.7055 16.8001 5.6648C16.8405 5.6241 16.8709 5.57459 16.889 5.52015C16.907 5.46571 16.9122 5.40783 16.9041 5.35106V2.27506C16.9041 1.94706 17.0181 1.83306 17.3491 1.83306C17.8081 1.83306 18.2711 1.83306 18.7341 1.83306C19.0511 1.83306 19.1681 1.95106 19.1681 2.27106V5.52706" fill="#233266"/>
<path d="M4.82199 2.06881C4.46735 1.88905 4.07217 1.80429 3.675 1.82281H0.807991C0.661991 1.82281 0.507991 1.82281 0.348991 1.83681C0.274084 1.83253 0.200076 1.85487 0.140053 1.89989C0.0800294 1.94491 0.0378617 2.0097 0.0209961 2.08281L0.0389938 2.10081V2.11481C0.0389938 4.94981 0.0389961 7.76581 0.0209961 10.6008V10.7508C0.0373249 10.8361 0.0852031 10.9121 0.155083 10.9636C0.224962 11.0151 0.311704 11.0384 0.397995 11.0288H1.85799C2.14999 11.0288 2.268 10.8968 2.268 10.6188C2.282 9.88181 2.282 9.15881 2.282 8.43981C2.282 8.32581 2.29999 8.29381 2.41399 8.29381C2.90499 8.30781 3.379 8.30781 3.87 8.29381C4.40217 8.29916 4.91481 8.09354 5.29579 7.72193C5.67677 7.35032 5.89509 6.84295 5.90299 6.31081C5.91699 5.45981 5.93499 4.61081 5.90299 3.77181C5.9001 3.41539 5.79701 3.06697 5.60551 2.76636C5.414 2.46574 5.14179 2.22506 4.81999 2.07181M3.64099 5.65781C3.64415 5.70944 3.63605 5.76114 3.61726 5.80933C3.59846 5.85752 3.56941 5.90105 3.53213 5.93691C3.49484 5.97276 3.45022 6.00009 3.40133 6.01699C3.35244 6.0339 3.30046 6.03998 3.24899 6.03481H2.394C2.294 6.03481 2.27999 6.00281 2.27999 5.90281V4.21181C2.27999 4.12981 2.28 4.09781 2.38 4.09781H3.24899C3.3017 4.09287 3.35485 4.09962 3.40466 4.11758C3.45446 4.13553 3.49969 4.16425 3.53712 4.20168C3.57456 4.23912 3.60328 4.28435 3.62123 4.33415C3.63919 4.38395 3.64593 4.4371 3.64099 4.48981V5.65781Z" fill="#233266"/>
<path d="M21.3739 7.46187C21.3739 6.39387 21.3739 5.32187 21.3739 4.25387C21.3739 4.11187 21.3309 4.07987 21.1989 4.08687C20.9529 4.09387 20.7079 4.08687 20.4619 4.08687C20.4092 4.0946 20.3554 4.0899 20.3048 4.07314C20.2542 4.05637 20.2082 4.02801 20.1705 3.99032C20.1328 3.95262 20.1044 3.90664 20.0877 3.85604C20.0709 3.80543 20.0662 3.75161 20.0739 3.69887V2.22187C20.0739 1.95787 20.1989 1.84487 20.4659 1.83687C20.9404 1.84549 21.4054 1.70334 21.7939 1.43087C22.0209 1.24094 22.219 1.01894 22.3819 0.771868C22.5067 0.571145 22.6631 0.391847 22.8449 0.240868C22.9285 0.180488 23.0196 0.131398 23.1159 0.0948678C23.1677 0.0680297 23.2257 0.0556938 23.2839 0.0591681C23.3421 0.0626425 23.3983 0.0817975 23.4464 0.114602C23.4946 0.147407 23.533 0.192639 23.5576 0.245502C23.5821 0.298365 23.5919 0.356888 23.5859 0.414868C23.5859 0.838868 23.5929 1.25887 23.5859 1.68287C23.5859 1.80387 23.6179 1.84287 23.7389 1.83987C23.9809 1.82887 24.2229 1.83287 24.4649 1.83987C24.513 1.8359 24.5614 1.84232 24.6067 1.85871C24.6521 1.8751 24.6934 1.90106 24.7279 1.93484C24.7623 1.96861 24.7891 2.00941 24.8063 2.05445C24.8236 2.09949 24.831 2.14772 24.8279 2.19587C24.8279 2.70487 24.8279 3.21387 24.8279 3.72687C24.8308 3.77637 24.8229 3.82591 24.8047 3.87205C24.7865 3.91819 24.7586 3.95982 24.7227 3.99407C24.6868 4.02831 24.644 4.05435 24.597 4.07037C24.5501 4.0864 24.5003 4.09203 24.4509 4.08687C24.2199 4.08687 23.9879 4.09387 23.7599 4.08687C23.6319 4.08687 23.5929 4.11487 23.5929 4.25087C23.5999 5.42987 23.5929 6.60487 23.5929 7.78287V10.6569C23.5929 10.9629 23.4829 11.0739 23.1759 11.0739H21.7759C21.4759 11.0739 21.3699 10.9599 21.3699 10.6609L21.3739 7.46187Z" fill="#54C0EF"/>
</svg>
