<svg width="113" height="131" viewBox="0 0 113 131" fill="none" xmlns="http://www.w3.org/2000/svg">
<mask id="mask0_1_3982" style="mask-type:luminance" maskUnits="userSpaceOnUse" x="0" y="0" width="113" height="131">
<path d="M112.452 0.953125H0.843018V130.744H112.452V0.953125Z" fill="white"/>
</mask>
<g mask="url(#mask0_1_3982)">
<mask id="mask1_1_3982" style="mask-type:luminance" maskUnits="userSpaceOnUse" x="0" y="0" width="113" height="131">
<path d="M112.452 0.953125H0.843018V130.744H112.452V0.953125Z" fill="white"/>
</mask>
<g mask="url(#mask1_1_3982)">
<g style="mix-blend-mode:multiply">
<mask id="mask2_1_3982" style="mask-type:luminance" maskUnits="userSpaceOnUse" x="0" y="110" width="113" height="21">
<path d="M112.452 110.551H0.843018V130.744H112.452V110.551Z" fill="white"/>
</mask>
<g mask="url(#mask2_1_3982)">
<mask id="mask3_1_3982" style="mask-type:luminance" maskUnits="userSpaceOnUse" x="0" y="110" width="113" height="21">
<path d="M112.452 120.648C112.452 126.224 87.467 130.748 56.652 130.748C25.837 130.748 0.843018 126.224 0.843018 120.648C0.843018 115.072 25.827 110.548 56.648 110.548C87.469 110.548 112.448 115.069 112.448 120.648" fill="white"/>
</mask>
<g mask="url(#mask3_1_3982)">
<path d="M112.452 110.551H0.843018V130.744H112.452V110.551Z" fill="url(#paint0_radial_1_3982)"/>
</g>
</g>
</g>
</g>
<path d="M64.5979 101.792L69.7909 103.274L66.2169 99.4883L65.1909 100.951L64.5979 101.792Z" fill="#E1EBF0"/>
<path d="M57.321 112.172L58.063 112.764L58.174 110.954L57.321 112.172Z" fill="#C6CED0"/>
<path d="M69.791 103.28V103.275L64.598 101.792L62.129 105.313L60.312 107.905L58.174 110.953L58.062 112.763L69.791 103.28Z" fill="#C2CBD4"/>
<path d="M56.6431 113.131L58.0601 112.783V112.764L57.3181 112.172L56.6431 113.131Z" fill="#304350"/>
<path d="M58.064 112.783L58.098 112.774L58.062 112.764L58.064 112.783Z" fill="#EFF7F9"/>
<path d="M70.4431 109.732L70.2991 108.315L58.0591 112.764L58.0961 112.774L70.4431 109.732Z" fill="#7A8694"/>
<path d="M69.349 98.9277L69.543 95.7827L69.002 95.5107L69.349 98.9277Z" fill="#C6CED0"/>
<path d="M73.7871 97.9212L69.5431 95.7832L69.3491 98.9282L69.5911 101.314L73.7871 97.9212Z" fill="#C2CBD4"/>
<path d="M73.7869 97.9209L69.5869 101.314L69.6049 101.489L76.1469 99.1119L73.7869 97.9209Z" fill="#EFF7F9"/>
<path d="M69.638 101.771L69.79 103.271V103.281L58.063 112.764L70.303 108.315L70.447 109.732L79.131 104.386L69.638 101.771Z" fill="#EFF7F9"/>
<path d="M81.3931 101.753L80.3101 101.207L76.1511 99.1069L69.6091 101.485L69.5911 101.309L69.3491 98.9239L69.0021 95.5059L68.8321 95.7489L67.0521 98.2879L66.2161 99.4799L69.7901 103.266L69.6371 101.766L79.1301 104.381L82.3391 102.406L82.4201 102.265L81.3931 101.753Z" fill="#7A8694"/>
<path d="M82.343 102.411L82.505 102.311L82.424 102.271L82.343 102.411Z" fill="white"/>
<path d="M81.428 82.4298L82.028 81.7688L81.356 81.0898L81.428 82.4298Z" fill="#EFF7F9"/>
<path d="M81.429 82.4306L81.657 86.6496L81.684 87.1496L85.621 85.4006L82.029 81.7676L81.429 82.4306Z" fill="#C6CED0"/>
<path d="M81.9819 92.7012L82.1519 95.8512L85.8179 93.7582L81.9819 92.7012Z" fill="#F0F7FB"/>
<path d="M85.9521 85.7373L85.6211 85.4023L81.6831 87.1533L81.8651 90.5283L81.8931 91.0573L81.9821 92.7033L85.8191 93.7603L87.4341 87.2373L85.9521 85.7373Z" fill="#9DABB9"/>
<path d="M82.1519 95.8534L81.9819 92.7034L81.8929 91.0534L79.9719 90.5234L80.7499 100.011L82.3279 99.1114L82.3159 98.8914L85.8159 93.7574L82.1519 95.8534Z" fill="#444950"/>
<path d="M87.9131 87.7194L87.4351 87.2354L85.8191 93.7534L87.2621 94.9074L90.2541 90.2584L90.1541 89.9864L87.9131 87.7194Z" fill="#525A66"/>
<path d="M90.2529 90.2632L90.3209 90.1562L90.1589 89.9912L90.2529 90.2632Z" fill="#EFF7F9"/>
<path d="M85.8191 93.7529L82.3191 98.8869L82.3311 99.1079L82.5031 102.308L85.5891 97.5079L85.8191 93.7529Z" fill="#475875"/>
<path d="M85.8189 93.7529L85.5869 97.5089L87.2619 94.9089L85.8189 93.7529Z" fill="#9DABB9"/>
<path d="M81.356 81.0898L82.028 81.7688L85.621 85.4018L85.952 85.7368L91.378 82.6368L83.197 80.3838L81.356 81.0898Z" fill="#F0F7FB"/>
<path d="M91.813 77.0882L91.652 77.1502L83.197 80.3852L91.378 82.6392L91.678 81.4132L92.385 76.8682L91.813 77.0882Z" fill="#9DABB9"/>
<path d="M85.9519 85.7376L87.4339 87.2376L87.9119 87.7216L91.3779 82.6416L85.9519 85.7376Z" fill="#444950"/>
<path d="M91.3779 82.6391L91.4779 82.7191L91.6779 81.4131L91.3779 82.6391Z" fill="#525A66"/>
<path d="M91.3781 82.6387L87.9121 87.7197L90.1591 89.9907L90.3221 90.1557L91.3041 83.8417L91.3781 82.6387Z" fill="#475875"/>
<path d="M91.304 83.8417L91.479 82.7187L91.379 82.6387L91.304 83.8417Z" fill="#9DABB9"/>
<path d="M81.5841 57.4453L81.3571 57.0373L81.0571 57.5373L72.8811 53.9053L76.6931 64.8623L76.1671 65.7463L84.5161 62.7113L84.5471 62.7673L87.1431 59.9133L81.5841 57.4453ZM83.0331 60.0533L80.9151 58.8033L79.7431 59.7533L80.3971 58.6533L80.5441 58.4063L80.8781 57.8463L80.9181 58.8023L81.7711 57.7793L83.0331 60.0533Z" fill="#EFF7F9"/>
<path d="M88.2431 57.9922L87.1431 59.9132L91.4721 58.6762L91.4601 58.4372L91.4001 58.4282L88.2431 57.9922Z" fill="#E1EBF0"/>
<path d="M87.143 59.9131L84.543 62.7711L85.243 64.0231L86.312 65.9451L91.712 63.5451L91.663 62.5831L87.143 59.9131Z" fill="#C6CED0"/>
<path d="M87.1431 59.9128L91.6701 62.5838L91.4701 58.6768L87.1431 59.9128Z" fill="#D1DADF"/>
<path d="M90.088 72.7346L90.266 72.6346L89.99 72.5586L90.088 72.7346Z" fill="#F0F7FB"/>
<path d="M86.312 65.945L89.99 72.553L90.266 72.629L91.85 66.234L91.714 63.542L86.312 65.945Z" fill="#9DABB9"/>
<path d="M90.0881 72.7338L90.1371 72.8208L90.2661 72.6318L90.0881 72.7338Z" fill="#444950"/>
<path d="M90.2661 72.6323L92.2541 74.2213L91.8541 66.2373L90.2661 72.6323Z" fill="#525A66"/>
<path d="M90.137 72.8208L90.16 72.8618L90.242 73.0118L90.266 72.6318L90.137 72.8208Z" fill="#475875"/>
<path d="M90.2659 72.6318L90.2429 73.0108L91.6919 75.6168L92.3919 76.8678L92.2579 74.2208L90.2659 72.6318Z" fill="#9DABB9"/>
<path d="M72.2549 54.0873L72.8799 53.9094L72.1599 53.4854L72.2549 54.0873Z" fill="#E5EDF0"/>
<path d="M72.2551 54.0872L72.3781 54.8772L72.4511 55.3422L73.1811 60.0102L72.8811 53.9102L72.2551 54.0872Z" fill="#F0F7FB"/>
<path d="M72.8801 53.9087L81.0561 57.5407L81.3561 57.0407L77.5431 54.4247L74.6541 52.4427L74.3331 52.2227L72.8801 53.9087Z" fill="white"/>
<path d="M73.1811 60.0102L74.3811 67.7012L74.5101 68.5242L76.1651 65.7532L76.6921 64.8702L72.8801 53.9092L73.1811 60.0102Z" fill="#304350"/>
<path d="M69.0841 35.7854L64.9841 36.6654L62.4131 37.2174L63.8561 39.2704L71.1091 36.6344L71.0761 35.8284L70.4911 35.4834L69.0841 35.7854Z" fill="#EFF7F9"/>
<path d="M63.8569 39.2698L66.2779 42.7158L66.9509 43.6728L67.3609 44.2568L71.1539 37.6868L71.1099 36.6338L63.8569 39.2698Z" fill="#7A8694"/>
<path d="M75.761 37.1743L77.128 37.7013L79.028 38.4323L77.643 27.3193L77.587 27.3883L75.761 37.1743Z" fill="#75746B"/>
<path d="M77.7031 27.2433L78.1821 26.6583L75.4141 24.4463L76.0141 29.3013L77.5801 27.3883L77.6371 27.3193L79.0201 38.4323L82.6671 39.8323L84.1081 36.5133L80.0231 29.0973L77.7031 27.2433Z" fill="#B6C1CE"/>
<path d="M82.6699 39.8385L85.7269 41.0165L86.8219 41.4395L84.1109 36.5195L82.6699 39.8385Z" fill="#75746B"/>
<path d="M68.2829 13.8695L69.1829 13.2075L67.9829 11.5195L68.2829 13.8695Z" fill="#E1E6E5"/>
<path d="M68.283 13.8691L68.483 15.4381L71.343 16.2531L69.178 13.2061L68.283 13.8691Z" fill="#444950"/>
<path d="M69.0669 19.9451L70.1019 27.9671L70.3589 29.9581L70.4209 30.4311L75.4129 24.4461L68.6909 17.0361L69.0669 19.9451Z" fill="#EFF7F9"/>
<path d="M68.4861 15.4385L68.6861 17.0075V17.0365L75.4081 24.4475L76.0081 22.8255L71.3431 16.2535L68.4861 15.4385Z" fill="white"/>
<path d="M70.4211 30.4322L70.6471 32.1842L71.0571 35.3612L70.4911 35.4832L71.0771 35.8282L71.1101 36.6342L71.1541 37.6872L67.3601 44.2532L71.3601 49.9532L71.6741 50.4012L71.5971 48.5382L73.1431 40.2882L71.3531 42.4342L71.1741 38.1172L73.1431 40.2882L74.4771 36.6782L75.7641 37.1782L77.5871 27.3922L76.0211 29.3042L74.0681 31.6902L75.4171 24.4502L70.4211 30.4322Z" fill="white"/>
<path d="M75.4141 24.4462L78.1821 26.6582L77.7031 27.2432L80.0231 29.0972L78.4791 26.2972L76.0131 22.8252L75.4141 24.4462Z" fill="#98A4B1"/>
<path d="M74.0649 31.6873L76.0179 29.3013L75.4179 24.4473L74.0649 31.6873Z" fill="#75746B"/>
<path d="M56.6431 0.953125V5.81712L58.0111 2.22812L56.6431 0.953125Z" fill="#C6CED0"/>
<path d="M56.6431 5.81749V6.44449L65.3231 9.04449L58.0161 2.22949L56.6431 5.81749Z" fill="#7A8694"/>
<path d="M56.6431 14.8254V15.0914L65.0781 13.2184L67.9781 11.5184L65.6191 9.31836L56.6431 14.8254Z" fill="#474A52"/>
<path d="M55.8801 17.7133L56.6481 18.1633L56.8381 18.0513L56.6481 17.4383V15.2383L55.8801 17.7133Z" fill="white"/>
<path d="M56.6431 17.4369L56.8331 18.0509L57.3721 17.7349L57.9801 17.3779L56.6431 15.9609V17.4369Z" fill="#E1EBF0"/>
<path d="M56.6431 15.9618L57.9801 17.3788L59.7361 16.3527L64.6671 13.4618L65.0821 13.2188L56.6431 15.0907V15.9618Z" fill="#7A8694"/>
<path d="M85.843 44.2278L86.521 44.4208L86.212 43.1758L85.843 44.2278Z" fill="#444950"/>
<path d="M86.2131 43.1764L86.5211 44.4224L87.5321 44.0424L86.8221 41.4424L86.2131 43.1764Z" fill="#EFF7F9"/>
<path d="M86.522 44.422L87.843 45.175L87.534 44.043L86.522 44.422Z" fill="#808890"/>
<path d="M83.7219 50.2852L83.0959 52.0712L84.172 50.7812L83.7219 50.2852Z" fill="#EFF7F9"/>
<path d="M83.921 49.7185L83.7209 50.2855L84.171 50.7855L86.521 44.4255L85.8429 44.2285L85.4859 45.2535L83.921 49.7185Z" fill="white"/>
<path d="M83.096 52.0713L81.356 57.0373L81.583 57.4453L87.143 59.9132L85.58 57.6222L85.019 57.5443L82.97 57.2603L84.177 50.7812L83.096 52.0713Z" fill="white"/>
<path d="M86.5221 44.4219L84.1721 50.7819L90.8161 56.0909L89.5161 51.3109L86.5221 44.4219Z" fill="#98A4B1"/>
<path d="M86.522 44.4219L89.513 51.3109L87.843 45.1749L86.522 44.4219Z" fill="#E1EBF0"/>
<path d="M82.9651 57.2603L85.0141 57.5443L84.1721 50.7812L82.9651 57.2603Z" fill="#75746B"/>
<path d="M84.1721 50.7812L85.0141 57.5443L85.5761 57.6213L87.1431 59.9123L88.2521 57.9923L91.4001 58.4282L91.4361 58.3463L90.8211 56.0913L84.1721 50.7812Z" fill="#B6C1CE"/>
<path d="M91.396 58.4277L91.455 58.4357L91.431 58.3457L91.396 58.4277Z" fill="#75746B"/>
<path d="M48.0349 41.2676L45.5669 44.7806L51.7109 46.6216L48.0349 41.2676Z" fill="#7A8694"/>
<path d="M61.9361 37.0623L59.7231 36.3533L56.6481 35.3633L53.5721 36.3533L50.8821 37.2193L48.0361 41.2693L51.7121 46.6243L61.9361 37.0623Z" fill="#EFF7F9"/>
<path d="M51.712 46.6213L45.567 44.7793L43.843 47.2293L43.685 47.4543L43.528 47.6783L41.613 50.4043L41.583 50.5933L41.196 53.0713L51.712 46.6213Z" fill="#98A4B1"/>
<path d="M66.2779 42.7165L63.8569 39.2705L62.4139 37.2165L61.9359 37.0635L51.7119 46.6225L66.2779 42.7165Z" fill="#CBD5DC"/>
<path d="M57.5271 50.6381L51.7121 46.6221L41.1991 53.0721L41.0061 54.3071L57.5271 50.6381Z" fill="#474A52"/>
<path d="M66.9499 43.6728L66.2769 42.7148L51.7119 46.6208L57.5269 50.6368L66.9499 43.6728Z" fill="#E1E6E5"/>
<path d="M66.9501 43.6729L57.5271 50.6368L72.3791 54.8778L72.2551 54.0868L72.1611 53.4869L72.0281 52.6358L71.3651 49.9529L67.3651 44.2528L66.9501 43.6729Z" fill="#444950"/>
<path d="M72.028 52.6331L72.161 53.4851L72.88 53.9091L74.332 52.2221L71.679 50.4041L71.365 49.9531L72.028 52.6331Z" fill="#EFF7F9"/>
<path d="M40.9341 73.2387L43.5251 72.2967L39.8801 70.9277L40.9341 73.2387Z" fill="#474A52"/>
<path d="M40.9341 73.2389L41.2661 73.9659L43.5251 72.2969L40.9341 73.2389Z" fill="#DEE6E8"/>
<path d="M58.5969 76.6013L40.5139 57.4453L40.3829 58.2873L39.9829 60.8543L43.5259 72.2983L58.5969 76.6013Z" fill="#E1EBF0"/>
<path d="M58.5969 76.6007L57.5269 50.6377L41.0049 54.3067L40.5579 57.1687L40.5139 57.4447L58.5969 76.6007Z" fill="#7A8694"/>
<path d="M69.3661 63.6907L57.5261 50.6377L58.5971 76.6007L69.3661 63.6907Z" fill="#EFF7F9"/>
<path d="M69.3661 63.6907L72.4511 55.3417L72.3781 54.8777L57.5261 50.6377L69.3661 63.6907Z" fill="white"/>
<path d="M49.478 83.9756L53.024 85.8136L66.133 81.0486L58.597 76.6016L49.478 83.9756Z" fill="#EFF7F9"/>
<path d="M66.1329 81.0484L69.3659 63.6914L58.5969 76.6014L66.1329 81.0484Z" fill="white"/>
<path d="M69.366 63.6908L74.383 67.7008L73.183 60.0098L72.453 55.3418L69.366 63.6908Z" fill="#98A4B1"/>
<path d="M66.1331 81.0484L67.0671 82.2914L68.5901 81.5014L69.9261 78.5744L70.5261 77.2674L70.9451 76.3484L69.3661 63.6914L66.1331 81.0484Z" fill="#75746B"/>
<path d="M74.3839 67.7014L69.3669 63.6914L70.9429 76.3484L73.9769 69.6994L74.5129 68.5254L74.3839 67.7014Z" fill="#B6C1CE"/>
<path d="M58.2899 86.8379L64.7109 83.5109L66.1339 81.0469L53.0249 85.8129L55.0049 86.8389L56.6479 87.6899L58.2899 86.8379Z" fill="#7A8694"/>
<path d="M66.1329 81.0479L64.7109 83.5118L66.6419 82.5118L66.1329 81.0479Z" fill="white"/>
<path d="M66.643 82.5097L67.067 82.2897L66.134 81.0527L66.643 82.5097Z" fill="#E3D6C0"/>
<path d="M58.676 25.444L58.888 25.569L58.805 25.29L58.676 25.444Z" fill="white"/>
<path d="M58.2899 86.8379L56.6479 87.6889L58.0709 88.5889L58.1779 88.6569L58.2899 86.8379Z" fill="#C6CED0"/>
<path d="M68.591 81.5015L67.067 82.2905L66.643 82.5115L64.711 83.5115L58.29 86.8385L58.178 88.6585L59.409 89.4375L69.25 81.4805L68.591 81.5015Z" fill="#C2CBD4"/>
<path d="M75.832 81.2686L73.895 81.3306L70.979 81.4246L70.479 81.4416L75.279 84.2716L75.832 81.2686Z" fill="white"/>
<path d="M78.8079 81.1719L75.8329 81.2719L75.2729 84.2719L79.9729 90.5279L78.8079 81.1719Z" fill="#75746B"/>
<path d="M78.8081 81.1718L79.9731 90.5257L81.6561 86.6527L81.4291 82.4338L81.3561 81.0938L78.8081 81.1718Z" fill="#B6C1CE"/>
<path d="M81.6559 86.6533L79.9729 90.5263H81.8649L81.6829 87.1533L81.6559 86.6533Z" fill="#75746B"/>
<path d="M60.01 89.8186L63.489 92.0186L69.796 93.7556L75.273 84.2676L60.01 89.8186Z" fill="#7A8694"/>
<path d="M67.9221 94.8268L68.6941 95.3148L69.7941 93.7568L67.9221 94.8268Z" fill="#DEE6E8"/>
<path d="M75.2731 84.2705L69.7951 93.7585L68.6951 95.3165L69.0031 95.5105L69.5441 95.7835L73.7881 97.9215L76.1521 99.1115L80.3111 101.212L80.7521 100.019L75.2731 84.2705Z" fill="white"/>
<path d="M79.9729 90.5265L75.2729 84.2715L80.7509 100.014L79.9729 90.5265Z" fill="#E3D6C0"/>
<path d="M79.9729 90.5264L81.8939 91.0554L81.8659 90.5264H79.9729Z" fill="white"/>
<path d="M81.3931 101.753L80.7511 100.014L80.3101 101.207L81.3931 101.753Z" fill="#F6FBFB"/>
<path d="M82.328 99.1133L80.75 100.013L81.393 101.752L82.42 102.269L82.5 102.31L82.328 99.1133Z" fill="#C6CED0"/>
<path d="M70.5229 77.2663L77.198 73.4533L75.3589 70.0783L73.976 69.6973L70.9429 76.3473L70.5229 77.2663Z" fill="#444950"/>
<path d="M73.9761 69.6994L75.3591 70.0804L75.3011 69.9744L74.5121 68.5244L73.9761 69.6994Z" fill="white"/>
<path d="M70.9801 81.4242L69.9271 78.5742L68.5911 81.5012L69.2501 81.4802L70.4771 81.4402L70.9801 81.4242Z" fill="#F6FBFB"/>
<path d="M70.5231 77.2661L69.9231 78.5741L70.9761 81.4241L73.8911 81.3301L78.1131 75.1411L77.2721 73.5971L77.1951 73.4551L70.5231 77.2661Z" fill="#C6CED0"/>
<path d="M73.895 81.3297L75.832 81.2677L78.808 81.1677L81.356 81.0857L78.22 75.3267L78.12 75.1367L73.895 81.3297Z" fill="#EFF7F9"/>
<path d="M80.394 58.6533L80.914 58.8013L80.541 58.4062L80.394 58.6533Z" fill="#E1EBF0"/>
<path d="M80.543 58.4056L80.916 58.8056L80.877 57.8496L80.543 58.4056Z" fill="#7A8694"/>
<path d="M80.3939 58.6533L79.7429 59.7533L80.9169 58.8033L80.3939 58.6533Z" fill="#C2CBD4"/>
<path d="M81.7681 57.7773L80.9141 58.8003L83.0331 60.0533L81.7681 57.7773Z" fill="white"/>
<path d="M77.198 73.4527L77.276 73.5957L80.914 71.5177L75.302 69.9717L75.36 70.0777L77.198 73.4527Z" fill="#EFF7F9"/>
<path d="M76.1659 65.7529L74.5129 68.5239L75.3019 69.9739L80.9149 71.5199L85.2429 64.0199L84.5429 62.7669L84.5119 62.7109L76.1659 65.7529Z" fill="#7A8694"/>
<path d="M77.2761 73.5985L78.1171 75.1425L78.2171 75.3325L80.9171 71.5205L77.2761 73.5985Z" fill="#DEE6E8"/>
<path d="M80.914 71.5204L78.22 75.3314L81.356 81.0904L83.197 80.3904L91.652 77.1534L90.16 72.8634L90.137 72.8214L90.088 72.7344L89.988 72.5564L86.31 65.9454L85.243 64.0234L80.914 71.5204Z" fill="white"/>
<path d="M90.1599 72.8633L91.6519 77.1533L91.8129 77.0923L91.6919 75.6213L90.2429 73.0123L90.1599 72.8633Z" fill="#E3D6C0"/>
<path d="M91.813 77.0892L92.388 76.8682L91.688 75.6182L91.813 77.0892Z" fill="#444950"/>
<path d="M71.1709 38.1172L71.3489 42.4332L73.1429 40.2882L71.1709 38.1172Z" fill="#EFF7F9"/>
<path d="M77.1281 37.7008L75.7611 37.1738L74.4731 36.6738L73.1431 40.2868L80.9701 46.5428L77.1281 37.7008Z" fill="#98A4B1"/>
<path d="M77.1279 37.7012L80.9669 46.5432L85.7269 41.0162L82.6699 39.8372L79.0239 38.4372L77.1279 37.7012Z" fill="#E1EBF0"/>
<path d="M74.332 52.2231L74.653 52.4431L73.143 40.2881L71.605 48.5421L71.682 50.4051L74.332 52.2231Z" fill="#75746B"/>
<path d="M73.1431 40.2871L74.6571 52.4421L77.5431 54.4241L80.9651 46.5421L73.1431 40.2871Z" fill="#B6C1CE"/>
<path d="M85.727 41.0166L80.967 46.5436L85.485 45.2536L85.843 44.2286L86.212 43.1766L86.821 41.4386L85.727 41.0166Z" fill="#E5EDF0"/>
<path d="M77.543 54.424L81.354 57.036L83.094 52.07L83.72 50.285L83.92 49.718L80.967 46.543L77.543 54.424Z" fill="#75746B"/>
<path d="M83.921 49.7179L85.486 45.2529L80.968 46.5419L83.921 49.7179Z" fill="#F0F7FB"/>
<path d="M59.7361 16.3529L65.8131 18.0879L64.6671 13.4619L59.7361 16.3529Z" fill="#444950"/>
<path d="M65.082 13.2185L64.667 13.4615L65.813 18.0875L68.688 17.0085L68.488 15.4385L68.288 13.8705L67.988 11.5195L65.082 13.2185Z" fill="#EFF7F9"/>
<path d="M69.0669 19.9448L68.6909 17.0358V17.0068L65.8159 18.0868L69.0669 19.9448Z" fill="#808890"/>
<path d="M59.736 16.3535L57.985 17.3805L57.376 17.7375L63.463 24.4485L65.813 18.0885L59.736 16.3535Z" fill="white"/>
<path d="M59.8569 28.7693L60.2569 30.0923L61.3159 33.5923L59.7229 36.3533L61.9349 37.0653L62.4129 37.2193L61.5909 34.5013L63.4629 24.4463L59.8569 28.7693Z" fill="white"/>
<path d="M63.4631 24.4459L70.3631 29.9579L70.1061 27.9659L65.8161 18.0859L63.4631 24.4459Z" fill="#98A4B1"/>
<path d="M70.103 27.9669L69.068 19.9449L65.813 18.0869L70.103 27.9669Z" fill="#E1EBF0"/>
<path d="M61.5911 34.4983L62.4141 37.2173L64.9851 36.6653L63.4631 24.4473L61.5911 34.4983Z" fill="#75746B"/>
<path d="M64.9849 36.6643L69.0849 35.7843L70.6489 32.1843L70.4219 30.4323L70.3609 29.9593L63.4609 24.4473L64.9849 36.6643Z" fill="#B6C1CE"/>
<path d="M69.084 35.7855L70.492 35.4855L71.058 35.3635L70.648 32.1865L69.084 35.7855Z" fill="#75746B"/>
<path d="M48.6911 101.794L47.7061 100.394L47.5991 100.241L47.5741 100.205L47.4741 100.057L47.0741 99.4932L43.5051 103.273L48.6911 101.794Z" fill="#E1EBF0"/>
<path d="M55.2331 112.764L55.9751 112.172L55.1211 110.953L55.2331 112.764Z" fill="#C6CED0"/>
<path d="M52.9701 107.891L58.6771 103.277L47.7221 100.153L47.7071 100.395L48.6911 101.795L43.5051 103.276L55.2341 112.76L55.1211 110.953L54.4701 110.024L52.9701 107.891Z" fill="#C2CBD4"/>
<path d="M55.2329 112.764V112.783L56.6499 113.131L55.9769 112.172L55.2329 112.764Z" fill="#304350"/>
<path d="M55.197 112.774L55.231 112.783V112.764L55.197 112.774Z" fill="#EFF7F9"/>
<path d="M42.9931 108.315L42.8491 109.732L55.1971 112.774L55.2331 112.764L42.9931 108.315Z" fill="#7A8694"/>
<path d="M43.752 95.7845L43.945 98.9295L44.291 95.5295L44.285 95.5195L43.752 95.7845Z" fill="#C6CED0"/>
<path d="M43.7521 95.7832L39.5081 97.9212L43.7081 101.313L43.9501 98.9282L43.7521 95.7832Z" fill="#C2CBD4"/>
<path d="M39.5081 97.9209L37.1431 99.1119L43.6851 101.489L43.7031 101.314L39.5081 97.9209Z" fill="#EFF7F9"/>
<path d="M42.9931 108.316L55.2331 112.765L43.5041 103.281V103.271L43.6571 101.771L34.1641 104.385L42.8481 109.732L42.9931 108.316Z" fill="#EFF7F9"/>
<path d="M43.657 101.771L43.505 103.271L47.074 99.4904L44.291 95.5264L43.946 98.9264L43.703 101.311L43.686 101.487L37.143 99.1124L32.984 101.212L31.9 101.758L30.874 102.275L30.955 102.415L34.163 104.391L43.657 101.771Z" fill="#7A8694"/>
<path d="M30.7939 102.311L30.9559 102.411L30.8749 102.271L30.7939 102.311Z" fill="white"/>
<path d="M31.2671 81.7698L31.8671 82.4308L31.9401 81.0898L31.2671 81.7698Z" fill="#EFF7F9"/>
<path d="M31.643 86.6534L31.87 82.4344L31.27 81.7734L27.677 85.4064L31.612 87.1534L31.643 86.6534Z" fill="#C6CED0"/>
<path d="M31.143 95.8531L31.313 92.7031L27.4771 93.7531L31.143 95.8531Z" fill="#F0F7FB"/>
<path d="M31.3131 92.7013L31.4021 91.0553L31.4301 90.5263L31.6121 87.1513L27.6751 85.4023L27.3431 85.7373L25.8611 87.2373L27.4771 93.7603L31.3131 92.7013Z" fill="#9DABB9"/>
<path d="M27.4761 93.7534L25.8611 87.2314L25.3821 87.7154L23.1361 89.9864L23.0361 90.2584L26.0281 94.9064L27.4761 93.7534Z" fill="#525A66"/>
<path d="M22.9729 90.1533L23.0409 90.2603L23.1359 89.9883L22.9729 90.1533Z" fill="#EFF7F9"/>
<path d="M30.967 99.1128L30.979 98.8928L27.479 93.7578L27.71 97.5138L30.797 102.314L30.967 99.1128Z" fill="#475875"/>
<path d="M27.476 93.7529L26.033 94.9109L27.708 97.5109L27.476 93.7529Z" fill="#9DABB9"/>
<path d="M27.343 85.7368L27.674 85.4018L31.267 81.7688L31.939 81.0898L30.098 80.3848L21.917 82.6388L27.343 85.7368Z" fill="#F0F7FB"/>
<path d="M30.098 80.3851L21.643 77.1531L21.482 77.0911L20.907 76.8711L21.614 81.4161L21.914 82.6411L30.098 80.3851Z" fill="#9DABB9"/>
<path d="M27.343 85.7367L21.917 82.6367L25.383 87.7167L25.861 87.2327L27.343 85.7367Z" fill="#444950"/>
<path d="M21.8169 82.7191L21.9169 82.6391L21.6169 81.4131L21.8169 82.7191Z" fill="#525A66"/>
<path d="M25.382 87.7187L21.916 82.6377L21.991 83.8377L22.972 90.1507L23.136 89.9857L25.382 87.7187Z" fill="#475875"/>
<path d="M21.8171 82.7196L21.9921 83.8426L21.9171 82.6426L21.8171 82.7196Z" fill="#9DABB9"/>
<path d="M27.7191 57.6221L25.0471 57.9921L26.1561 59.9131L27.7191 57.6221Z" fill="#B6C1CE"/>
<path d="M26.1561 59.9132L25.0431 57.9922L21.8431 58.4372L21.8311 58.6772L26.1561 59.9132Z" fill="#E1EBF0"/>
<path d="M26.9831 65.9451L28.0521 64.0231L28.7521 62.7711L26.1561 59.9131L21.6291 62.5841L21.5811 63.5451L26.9831 65.9451Z" fill="#C6CED0"/>
<path d="M26.156 59.9128L21.827 58.6768L21.627 62.5838L26.156 59.9128Z" fill="#D1DADF"/>
<path d="M23.0291 72.6317L23.2061 72.7317L23.3061 72.5537L23.0291 72.6317Z" fill="#F0F7FB"/>
<path d="M23.0291 72.6319L23.3061 72.5559L26.9831 65.9449L21.5831 63.5449L21.4431 66.2369L23.0291 72.6319Z" fill="#9DABB9"/>
<path d="M23.1581 72.8208L23.2071 72.7338L23.0291 72.6338L23.1581 72.8208Z" fill="#444950"/>
<path d="M23.029 72.6323L21.443 66.2373L21.043 74.2213L23.029 72.6323Z" fill="#525A66"/>
<path d="M23.0521 73.0118L23.1351 72.8628L23.1571 72.8208L23.0291 72.6318L23.0521 73.0118Z" fill="#475875"/>
<path d="M21.6019 75.6168L23.0519 73.0108L23.0279 72.6318L21.0429 74.2208L20.9089 76.8678L21.6019 75.6168Z" fill="#9DABB9"/>
<path d="M41.5291 50.4633L41.5861 50.5933L41.6151 50.4043L41.5291 50.4633Z" fill="#B6C1CE"/>
<path d="M32.0181 57.1689H40.5581L41.0061 54.3069L41.1991 53.0709L41.5861 50.5929L41.5301 50.4629L41.1501 50.7239L37.7951 53.0239L34.4951 55.2889L31.9431 57.0369L32.0181 57.1689Z" fill="#75746B"/>
<path d="M39.4501 64.2531L39.9811 60.8531L40.3811 58.2861L33.7671 60.1081L34.5781 61.4691L39.4501 64.2531Z" fill="#444950"/>
<path d="M40.3831 58.2869L40.5151 57.4449L40.5581 57.1689H32.0181L32.4181 57.8449L32.7521 58.4049L32.8991 58.6519L33.5541 59.7519L33.7671 60.1099L40.3831 58.2869Z" fill="white"/>
<path d="M39.4501 64.2527L34.5791 61.4717L37.1291 65.7507L38.7821 68.5257L39.4501 64.2527Z" fill="#C6CED0"/>
<path d="M46.0149 36.1725L45.3609 36.0315L44.7359 35.8975L44.4409 38.2675L46.0149 36.1725Z" fill="#75746B"/>
<path d="M44.4431 38.267L44.7381 35.897L44.2321 35.789L43.5391 35.64L43.2781 35.584L44.4431 38.267Z" fill="#B6C1CE"/>
<path d="M44.4431 38.2673L43.2781 35.5843L42.5551 35.4293L42.2391 35.3613L42.1191 38.2673H44.4431Z" fill="#75746B"/>
<path d="M48.035 41.2668L50.881 37.2158L47.576 36.5068L43.843 47.2298L45.565 44.7798L48.035 41.2668Z" fill="white"/>
<path d="M47.577 36.5069L46.016 36.1719L44.442 38.2719L43.688 47.4529L43.843 47.2299L47.577 36.5069Z" fill="#E3D6C0"/>
<path d="M44.443 38.2676L42.092 38.9146L41.772 46.6736L43.532 47.6796L43.69 47.4556L44.443 38.2676Z" fill="#444950"/>
<path d="M42.1181 38.2676L42.0911 38.9146L44.4421 38.2676H42.1181Z" fill="white"/>
<path d="M41.7701 46.6729L41.7331 47.5788L41.6431 49.8308L41.6201 50.4039L43.5351 47.6778L41.7701 46.6729Z" fill="#C6CED0"/>
<path d="M42.2379 35.3607L42.5539 35.4287L42.2729 35.0917L42.2929 34.9307H41.8859L35.7109 27.3877L37.5339 37.1737L39.6219 36.3737L40.3159 36.1057L42.2379 35.3607Z" fill="white"/>
<path d="M35.592 27.2429L35.025 26.5499L34.816 26.2949L33.272 29.0949L35.592 27.2429Z" fill="#98A4B1"/>
<path d="M37.534 37.1744L35.711 27.3884L41.886 34.9314H42.293L42.786 31.1174L38.964 22.3174L35.025 26.5534L35.593 27.2464L35.655 27.3224L34.271 38.4324L37.534 37.1744Z" fill="#75746B"/>
<path d="M30.6251 39.8381L34.2711 38.4321L35.6551 27.3201L35.5931 27.2441L33.2731 29.0981L29.1841 36.5191L30.6251 39.8381Z" fill="#B6C1CE"/>
<path d="M27.1039 41.1955L30.6249 39.8385L29.1829 36.5195L26.4729 41.4385L27.1039 41.1955Z" fill="#75746B"/>
<path d="M45.1821 11.7065L45.2621 11.9245L45.2841 11.7625L45.3151 11.5195L45.1821 11.7065Z" fill="white"/>
<path d="M38.9641 22.3161L44.4921 17.8981L44.5121 17.7441L44.5421 17.5091L45.0161 13.8381L45.2631 11.9251L45.1831 11.7061L41.0381 17.5391L38.9641 22.3161Z" fill="#98A4B1"/>
<path d="M38.964 22.3161L41.038 17.5391L38.238 21.4761L38.964 22.3161Z" fill="#E1EBF0"/>
<path d="M42.7861 31.1184L44.1651 20.4354L44.4921 17.8984L38.9631 22.3164L42.7861 31.1184Z" fill="#B6C1CE"/>
<path d="M37.866 22.0026L38.966 22.3156L38.243 21.4766L37.866 22.0026Z" fill="#E5EDF0"/>
<path d="M38.964 22.3159L37.864 22.0029L34.814 26.2949L35.023 26.5499L38.964 22.3159Z" fill="#F0F7FB"/>
<path d="M56.6429 0.953125L56.2329 1.33612L56.6429 1.21312V0.953125Z" fill="#7A8694"/>
<path d="M56.2369 1.33587L51.6689 5.59587L56.6429 8.65287V14.8279L65.6159 9.32287L65.3229 9.04887L56.6429 6.44887V1.21387L56.2369 1.33587Z" fill="#98A4B1"/>
<path d="M56.6429 9.31973V8.65273L51.6689 5.59473L49.3989 7.70973L56.6429 9.31973Z" fill="#474A52"/>
<path d="M55.8799 17.7136L56.6479 15.2346V11.5166L52.6079 15.7956L55.8799 17.7136Z" fill="#E1EBF0"/>
<path d="M49.1819 13.7859L48.5039 14.7729L50.0669 14.3049L52.6079 15.7949L56.6479 11.5159V9.32094L49.3999 7.71094L45.3159 11.5189L49.1819 13.7859Z" fill="#7A8694"/>
<path d="M27.372 44.0055L26.472 41.4385L26.157 42.5955L27.372 44.0055Z" fill="#E1EBF0"/>
<path d="M27.5329 44.4647L27.3719 44.0047L26.1569 42.5947L25.7839 43.9657L27.5329 44.4647Z" fill="#E5EDF0"/>
<path d="M22.5311 57.1694H30.9841L31.9391 57.0374L29.9001 51.2194L28.4001 46.9264L27.6431 44.7734L24.7031 47.9324L22.1851 57.1694H22.5311Z" fill="#75746B"/>
<path d="M27.6431 44.7728L27.5351 44.4648L25.7861 43.9648L24.7041 47.9308L27.6431 44.7728Z" fill="#F0F7FB"/>
<path d="M25.043 57.9921L27.715 57.6221L26.157 59.9131L31.712 57.4451L31.939 57.0371L30.984 57.1691H22.184L21.843 58.4371L25.043 57.9921Z" fill="white"/>
<path d="M56.643 24.8639L58.672 25.4429L56.643 23.2939L54.614 25.4429L56.643 24.8639Z" fill="#E1EBF0"/>
<path d="M56.643 27.0843L58.672 25.4433L56.643 24.8643L54.614 25.4433L56.643 27.0843Z" fill="#C2CBD4"/>
<path d="M54.49 25.2904L54.619 25.4444L54.646 24.7764L54.49 25.2904Z" fill="#EFF7F9"/>
<path d="M53.0371 30.0923L56.6471 31.4043L60.2571 30.0923L59.8571 28.7693L63.4631 24.4473L57.3761 17.7363L56.8371 18.0513L56.6471 18.1633L58.6471 24.7773L58.6741 25.4443L58.8021 25.2913L58.8861 25.5693L58.6741 25.4443L56.6431 27.0843L54.6141 25.4443L54.4021 25.5693L53.0371 30.0923Z" fill="#EFF7F9"/>
<path d="M54.406 25.569L54.618 25.444L54.49 25.29L54.406 25.569Z" fill="white"/>
<path d="M53.5721 36.3528L56.6481 35.3628L59.7231 36.3528L61.3161 33.5928L60.2581 30.0928L56.6431 31.4038L53.0321 30.0908L51.9741 33.5908L53.5721 36.3528Z" fill="#7A8694"/>
<path d="M50.8811 37.2158L53.5721 36.3498L51.9781 33.5898L51.7961 34.1898L50.8811 37.2158Z" fill="white"/>
<path d="M55.0051 86.8379L55.1171 88.6569L56.6471 87.6889L55.0051 86.8379Z" fill="#C6CED0"/>
<path d="M55.005 86.8378L53.024 85.8128L49.478 83.9748L58.597 76.6008L43.524 72.3008L43.165 78.1318L43.365 78.5768L44.701 81.5048L44.042 81.4828L53.882 89.4398L55.114 88.6608L55.005 86.8378Z" fill="#C2CBD4"/>
<path d="M48.7051 92.7134L49.7951 92.0244L43.4951 93.7584L45.3631 94.8244L45.9531 94.4514L48.7051 92.7134Z" fill="#EFF7F9"/>
<path d="M53.2831 89.8174L53.8831 89.4364L44.0431 81.4804L42.8161 81.4404L38.0161 84.2704L53.2831 89.8174Z" fill="#EFF7F9"/>
<path d="M42.8181 81.4406L42.3181 81.4246L39.4031 81.3306L37.4651 81.2676L38.0251 84.2676L42.8181 81.4406Z" fill="white"/>
<path d="M37.463 81.268L34.487 81.168L33.323 90.526L38.023 84.271L37.463 81.268Z" fill="#75746B"/>
<path d="M34.4871 81.1718L31.9431 81.0898L31.8701 82.4298L31.6431 86.6528L33.3261 90.5298L34.4871 81.1718Z" fill="#B6C1CE"/>
<path d="M31.6431 86.6533L31.6161 87.1533L31.4341 90.5283H33.3261L31.6431 86.6533Z" fill="#75746B"/>
<path d="M43.5 93.7529L44.6 95.3059L45.37 94.8189L43.5 93.7529Z" fill="#DEE6E8"/>
<path d="M38.022 84.2705L33.322 90.5255L32.543 100.014L38.022 84.2705Z" fill="#E3D6C0"/>
<path d="M33.3221 90.5264L31.4011 91.0554L31.3121 92.7014L31.1431 95.8534L27.4761 93.7534L30.9761 98.8874L30.9641 99.1084L32.5421 100.008L33.3221 90.5264Z" fill="#444950"/>
<path d="M31.4301 90.5264L31.4021 91.0554L33.3231 90.5264H31.4301Z" fill="white"/>
<path d="M31.9021 101.753L32.9851 101.207L32.5431 100.013L31.9021 101.753Z" fill="#F6FBFB"/>
<path d="M31.902 101.753L32.543 100.013L30.965 99.1133L30.793 102.313L30.873 102.272L31.902 101.753Z" fill="#C6CED0"/>
<path d="M42.7719 77.2662L41.2659 73.9662L40.9339 73.2382L39.8799 70.9272L39.3189 69.6982L37.9349 70.0792L36.0969 73.4532L42.7719 77.2662Z" fill="#444950"/>
<path d="M39.3181 69.6995L39.8791 70.9295L43.5241 72.2985L39.9811 60.8535L39.4501 64.2535L38.7821 68.5265L37.9921 69.9765L37.9351 70.0825L39.3181 69.6995Z" fill="white"/>
<path d="M44.7039 81.5012L43.3679 78.5742L42.3149 81.4242L42.8149 81.4402L44.0419 81.4802L44.7039 81.5012Z" fill="#F6FBFB"/>
<path d="M43.368 78.5739L43.168 78.1279L43.527 72.2979L41.269 73.9669L42.774 77.2669L36.097 73.4529L36.019 73.5958L35.178 75.1398L39.4 81.3279L42.315 81.4219L43.368 78.5739Z" fill="#C6CED0"/>
<path d="M34.4871 81.1725L37.4631 81.2725L39.4001 81.3345L35.1781 75.1455L35.0781 75.3365L31.9431 81.0905L34.4871 81.1725Z" fill="#EFF7F9"/>
<path d="M32.3811 58.8013L32.9011 58.6533L32.7551 58.4062L32.3811 58.8013Z" fill="#E1EBF0"/>
<path d="M32.3811 58.8007L32.7551 58.4057L32.4211 57.8447L32.3811 58.8007Z" fill="#7A8694"/>
<path d="M32.9011 58.6533L32.3811 58.8013L33.5551 59.7513L32.9011 58.6533Z" fill="#C2CBD4"/>
<path d="M37.129 65.753L34.579 61.473L33.769 60.112L33.555 59.754L32.38 58.804L30.262 60.053L31.527 57.78L32.38 58.803L32.42 57.847L32.02 57.172L31.941 57.04L31.714 57.448L26.158 59.915L28.751 62.773L28.782 62.717L37.129 65.753Z" fill="#EFF7F9"/>
<path d="M31.527 57.7773L30.262 60.0533L32.381 58.8033L31.527 57.7773Z" fill="white"/>
<path d="M36.0191 73.5986L36.0971 73.4556L37.9351 70.0806L37.9931 69.9746L32.3801 71.5206L36.0191 73.5986Z" fill="#EFF7F9"/>
<path d="M32.3811 71.5198L37.9931 69.9738L38.7831 68.5247L37.1301 65.7528L28.7811 62.7188L28.7491 62.7747L28.0491 64.0268L32.3811 71.5198Z" fill="#7A8694"/>
<path d="M36.0191 73.5985L32.3801 71.5205L35.0751 75.3325L35.1751 75.1425L36.0191 73.5985Z" fill="#DEE6E8"/>
<path d="M23.1349 72.8633L23.0519 73.0123L21.6029 75.6183L21.4819 77.0893L21.6429 77.1503L23.1349 72.8633Z" fill="#E3D6C0"/>
<path d="M31.9431 81.0905L35.0791 75.3325L32.3851 71.5205L28.0561 64.0205L26.9831 65.9455L23.3061 72.5535L23.2061 72.7315L23.1571 72.8185L23.1341 72.8605L21.6431 77.1535L30.0981 80.3895L31.9431 81.0905Z" fill="white"/>
<path d="M20.907 76.8682L21.482 77.0892L21.603 75.6172L20.907 76.8682Z" fill="#444950"/>
<path d="M41.643 49.8321L41.736 47.5791L39.636 49.8321H41.643Z" fill="#75746B"/>
<path d="M41.732 47.5793L41.769 46.6733L42.09 38.9143L42.117 38.2673L42.237 35.3613L40.315 36.1023L39.637 49.8323L41.732 47.5793Z" fill="#F0F7FB"/>
<path d="M39.637 49.8325L40.315 36.1025L39.621 36.3705L34.937 49.8325H39.637Z" fill="#304350"/>
<path d="M39.622 36.3701L37.534 37.1751L34.271 38.4331L30.625 39.8331L27.104 41.1901L34.938 49.8271L39.622 36.3701Z" fill="#EFF7F9"/>
<path d="M27.3719 44.0053L27.5329 44.4653L27.6409 44.7733L28.3949 46.9253L34.9369 49.8313L27.1039 41.1943L26.4719 41.4383L27.3719 44.0053Z" fill="#C6CED0"/>
<path d="M39.637 49.8311L41.149 50.7231L41.529 50.4631L41.615 50.4031L41.639 49.8311H39.637Z" fill="white"/>
<path d="M39.6369 49.832L37.7939 53.023L41.1489 50.723L39.6369 49.832Z" fill="#E7F0F4"/>
<path d="M34.49 55.288L37.79 53.023L39.632 49.832H34.932L34.49 55.288Z" fill="#D1DADF"/>
<path d="M34.4899 55.288L34.9369 49.832L29.8999 51.219L31.9429 57.037L34.4899 55.288Z" fill="#F0F7FB"/>
<path d="M34.938 49.8318L28.396 46.9258L29.896 51.2198L34.938 49.8318Z" fill="#9DABB9"/>
<path d="M48.5039 14.7735L49.1819 13.7865L45.3149 11.5195L45.2839 11.7625L48.5039 14.7735Z" fill="#EFF7F9"/>
<path d="M56.2379 19.5167L56.6479 18.1617L55.8799 17.7117L52.6089 15.7937L50.0669 14.3037L48.5039 14.7727L56.2379 19.5167Z" fill="#98A4B1"/>
<path d="M48.5041 14.7727L45.2841 11.7617L45.2631 11.9247L45.0161 13.8377L48.5041 14.7727Z" fill="#CBD5DC"/>
<path d="M56.0019 20.2964L56.2379 19.5174L48.5039 14.7734L44.5429 17.5094L44.5129 17.7444L56.0019 20.2964Z" fill="#474A52"/>
<path d="M48.504 14.7729L45.016 13.8379L44.543 17.5089L48.504 14.7729Z" fill="#E1E6E5"/>
<path d="M44.736 35.8971L45.36 36.0311L51.796 34.1941L51.978 33.5941L53.037 30.0941L54.406 25.5711L54.49 25.2921L54.646 24.7781L54.655 24.7461L44.23 35.7881L44.736 35.8971Z" fill="#E1EBF0"/>
<path d="M44.1641 20.4351L43.5371 35.6401L44.2301 35.7891L54.6551 24.7441L54.6461 24.7761L54.6181 25.4441L56.6471 23.2941L58.6761 25.4441L58.6491 24.7771L56.6491 18.1631L56.2391 19.5171L56.0041 20.2961L44.5111 17.7441L44.4911 17.8981L44.1641 20.4351Z" fill="#7A8694"/>
<path d="M46.0151 36.1723L47.5761 36.5073L50.8811 37.2163L51.7961 34.1943L45.3611 36.0313L46.0151 36.1723Z" fill="#C2CBD4"/>
<path d="M42.5539 35.4295L43.2769 35.5845L43.5379 35.6405L44.1649 20.4355L42.7859 31.1185L42.2939 34.9315L42.2729 35.0925L42.5539 35.4295Z" fill="#EFF7F9"/>
<path d="M47.574 100.202L47.722 100.148L47.47 100.054L47.574 100.202Z" fill="#474A52"/>
<path d="M47.721 100.153L45.957 94.4534L45.367 94.8274L44.597 95.3144L43.497 93.7604L38.02 84.2734L32.543 100.014L32.984 101.207L37.143 99.1074L39.507 97.9164L43.751 95.7794L44.283 95.5114L44.29 95.5204L47.073 99.4854L47.473 100.05L47.721 100.153Z" fill="white"/>
<path d="M47.574 100.202L47.6 100.238L47.722 100.148L47.574 100.202Z" fill="#DEE6E8"/>
<path d="M48.705 92.7129L45.957 94.4529L47.721 100.153L58.676 103.28L48.705 92.7129Z" fill="#E1EBF0"/>
<path d="M58.071 88.5915L56.648 87.6915L55.117 88.6585L53.885 89.4385L53.285 89.8195L38.022 84.2715L43.499 93.7535L49.799 92.0195L48.709 92.7085L58.68 103.272L58.071 88.5915Z" fill="#7A8694"/>
<path d="M47.6001 100.238L47.7061 100.39L47.7211 100.148L47.6001 100.238Z" fill="#C6CED0"/>
<path d="M66.4841 93.9174L66.4981 93.9264L66.5091 93.9334L66.7231 94.0694L67.9231 94.8284L69.7961 93.7584L63.4901 92.0214L60.0111 89.8214L75.2731 84.2714L70.4731 81.4404L69.2471 81.4804L59.4051 89.4384L58.1741 88.6584L58.0681 88.5914L58.6681 103.276L66.4841 93.9174Z" fill="#EFF7F9"/>
<path d="M62.129 105.313L58.677 103.276L52.97 107.89L54.47 110.028L60.312 107.904L62.129 105.313Z" fill="#EFF7F9"/>
<path d="M65.19 100.948L66.498 93.926L66.484 93.917L58.677 103.277L62.129 105.314L64.598 101.793L65.19 100.948Z" fill="white"/>
<path d="M67.9219 94.8274L66.7219 94.0684L68.8309 95.7534L69.0009 95.5104L68.6939 95.3154L67.9219 94.8274Z" fill="#98A4B1"/>
<path d="M66.5089 93.9328L66.4979 93.9258L65.1899 100.948L66.2159 99.4848L67.0519 98.2918L66.5089 93.9328Z" fill="#75746B"/>
<path d="M66.7231 94.0676L66.5081 93.9316L67.0511 98.2916L68.8311 95.7526L66.7231 94.0676Z" fill="#B6C1CE"/>
<path d="M58.174 110.953L60.312 107.903L54.47 110.027L55.121 110.955L55.974 112.17L56.648 113.13L57.321 112.17L58.174 110.953Z" fill="#7A8694"/>
<mask id="mask4_1_3982" style="mask-type:luminance" maskUnits="userSpaceOnUse" x="0" y="0" width="113" height="131">
<path d="M112.452 0.953125H0.843018V130.744H112.452V0.953125Z" fill="white"/>
</mask>
<g mask="url(#mask4_1_3982)">
<g style="mix-blend-mode:screen">
<mask id="mask5_1_3982" style="mask-type:luminance" maskUnits="userSpaceOnUse" x="38" y="35" width="37" height="53">
<path d="M74.512 35.3613H38.771V87.6893H74.512V35.3613Z" fill="white"/>
</mask>
<g mask="url(#mask5_1_3982)">
<mask id="mask6_1_3982" style="mask-type:luminance" maskUnits="userSpaceOnUse" x="38" y="35" width="37" height="53">
<path d="M74.512 68.5253L68.591 81.5013L56.648 87.6893L44.693 81.5013L38.771 68.5253L41.604 50.4043L50.881 37.2163L56.648 35.3613L62.413 37.2163L71.679 50.4043L74.512 68.5253Z" fill="white"/>
</mask>
<g mask="url(#mask6_1_3982)">
<path d="M47.4669 20.0252L16.3191 74.958L65.8168 103.024L96.9646 48.0913L47.4669 20.0252Z" fill="url(#paint1_linear_1_3982)"/>
</g>
</g>
</g>
</g>
</g>
<defs>
<radialGradient id="paint0_radial_1_3982" cx="0" cy="0" r="1" gradientUnits="userSpaceOnUse" gradientTransform="translate(10.9436 109.904) scale(55.816 10.0986)">
<stop stop-color="#F9FAFB"/>
<stop offset="0.147" stop-color="#DEE5EC"/>
<stop offset="0.247" stop-color="#D2DCE6"/>
<stop offset="0.268" stop-color="#D4DDE7"/>
<stop offset="0.527" stop-color="#EBF0F4"/>
<stop offset="0.768" stop-color="#FAFBFC"/>
<stop offset="0.973" stop-color="white"/>
<stop offset="1" stop-color="white"/>
</radialGradient>
<linearGradient id="paint1_linear_1_3982" x1="89.2963" y1="144.214" x2="89.7947" y2="143.335" gradientUnits="userSpaceOnUse">
<stop stop-color="white"/>
<stop offset="1" stop-color="#231F20"/>
</linearGradient>
</defs>
</svg>
