<svg width="113" height="113" viewBox="0 0 113 113" fill="none" xmlns="http://www.w3.org/2000/svg">
<mask id="mask0_1_4298" style="mask-type:luminance" maskUnits="userSpaceOnUse" x="0" y="0" width="113" height="113">
<path d="M112.452 0.178711H0.843018V112.744H112.452V0.178711Z" fill="white"/>
</mask>
<g mask="url(#mask0_1_4298)">
<mask id="mask1_1_4298" style="mask-type:luminance" maskUnits="userSpaceOnUse" x="0" y="0" width="113" height="113">
<path d="M112.452 0.178711H0.843018V112.744H112.452V0.178711Z" fill="white"/>
</mask>
<g mask="url(#mask1_1_4298)">
<g style="mix-blend-mode:multiply">
<mask id="mask2_1_4298" style="mask-type:luminance" maskUnits="userSpaceOnUse" x="0" y="92" width="113" height="21">
<path d="M112.452 92.5508H0.843018V112.744H112.452V92.5508Z" fill="white"/>
</mask>
<g mask="url(#mask2_1_4298)">
<mask id="mask3_1_4298" style="mask-type:luminance" maskUnits="userSpaceOnUse" x="0" y="92" width="113" height="21">
<path d="M112.452 102.648C112.452 108.224 87.467 112.748 56.652 112.748C25.837 112.748 0.843018 108.224 0.843018 102.648C0.843018 97.0718 25.827 92.5479 56.648 92.5479C87.469 92.5479 112.448 97.0689 112.448 102.648" fill="white"/>
</mask>
<g mask="url(#mask3_1_4298)">
<path d="M112.452 92.5508H0.843018V112.744H112.452V92.5508Z" fill="url(#paint0_radial_1_4298)"/>
</g>
</g>
</g>
</g>
<path d="M97.8811 8.4461L99.6341 9.9331V3.5791L98.0281 8.0391L97.8811 8.4461Z" fill="#F0F7FB"/>
<path d="M97.8811 8.44531L97.4431 9.65331L99.6311 9.93231L97.8811 8.44531Z" fill="#304350"/>
<path d="M100.856 0.178711L99.634 3.57871V9.93171L100.856 7.36571V0.178711Z" fill="#383E47"/>
<path d="M97.4431 9.6543L96.0081 13.6413L95.1531 16.0153L81.4531 12.0923L87.9531 24.1343L87.8801 24.1163L90.1181 30.0003L90.5871 28.7003L91.6731 31.5563L91.8861 30.6453V25.0933L90.9691 27.6373L91.5831 25.0193L90.8121 24.8313L89.8561 24.5983L92.8241 22.4883L93.6091 20.3083L94.3261 24.3473L99.6341 9.9323L97.4431 9.6543Z" fill="#EFF7F9"/>
<path d="M93.6109 20.3076L92.8259 22.4876L92.1169 24.4576L91.8889 25.0926V26.5326L94.3279 24.3476L93.6109 20.3076Z" fill="#7A8694"/>
<path d="M99.634 9.93319L100.857 10.5402V7.36719L99.634 9.93319Z" fill="#808890"/>
<path d="M94.3281 24.3476L100.857 17.1886V10.5396L99.6341 9.93262L94.3281 24.3476Z" fill="#DEE6E8"/>
<path d="M91.8879 36.7551V37.7791L99.6339 38.7641L91.8879 34.5791V36.7551Z" fill="#E3D6C0"/>
<path d="M94.328 24.3475L91.888 26.5325V31.3635L91.675 31.5555L91.888 31.6705V34.5785L99.634 38.7595L100.857 38.0595V17.1885L94.328 24.3475Z" fill="white"/>
<path d="M91.8879 37.7783V39.4383L94.3279 53.1783L99.6339 38.7633L91.8879 37.7783Z" fill="#444950"/>
<path d="M91.8879 39.4385V59.5915L94.3279 53.1785L91.8879 39.4385Z" fill="white"/>
<path d="M99.634 38.7625L100.857 39.4625V38.0625L99.634 38.7625Z" fill="#F6FBFB"/>
<path d="M99.6341 38.7627L94.3281 53.1787L100.857 46.2707V39.4637L99.6341 38.7627Z" fill="#C6CED0"/>
<path d="M91.8879 59.5917V60.6557L99.6339 67.5927L94.3279 53.1787L91.8879 59.5917Z" fill="#E7F0F4"/>
<path d="M91.8879 60.6553V63.6783L92.9219 66.5493L92.9909 66.7433L99.6339 67.5883L91.8879 60.6553Z" fill="#D1DADF"/>
<path d="M94.3281 53.1785L100.857 57.5785V46.2695L94.3281 53.1785Z" fill="#EFF7F9"/>
<path d="M94.3281 53.1787L99.6341 67.5937L100.857 65.9607V57.5787L94.3281 53.1787Z" fill="#525A66"/>
<path d="M92.9919 66.748L95.8019 74.553L96.4299 76.299L99.6349 67.593L92.9919 66.748Z" fill="#F0F7FB"/>
<path d="M99.634 67.593L96.429 76.299L96.902 77.612L97.338 78.823L100.857 75.1V65.96L99.634 67.593Z" fill="#444950"/>
<path d="M97.343 78.8226L98.351 81.6226L100.862 81.3826V75.0996L97.343 78.8226Z" fill="#475875"/>
<path d="M98.3429 81.6223L97.3349 78.8223L96.8989 77.6113L94.4209 86.2783L96.9879 87.2033L99.9429 86.0653L100.854 88.5963V81.3783L98.3429 81.6223Z" fill="#9DABB9"/>
<path d="M34.2269 21.9672L33.8669 23.3422L42.8229 26.4902L39.3849 20.6182L39.1929 20.6682L34.2269 21.9672Z" fill="#7A8694"/>
<path d="M42.822 26.4907L50.932 17.5967L46.594 18.7317L44.36 19.3167L39.384 20.6167L42.822 26.4907Z" fill="#EFF7F9"/>
<path d="M42.8219 26.4908L33.8669 23.3428L32.4189 28.8788L31.1549 33.7098L30.7749 35.1618L42.8219 26.4908Z" fill="#98A4B1"/>
<path d="M42.822 26.4906L61.691 20.5566L60.614 17.1396L56.643 16.1016L53.237 16.9926L50.928 17.5926L42.822 26.4906Z" fill="#CBD5DC"/>
<path d="M64.47 18.1476L60.615 17.1396L61.691 20.5556L64.47 18.1476Z" fill="#E5EDF0"/>
<path d="M49.037 31.5243L42.822 26.4893L30.775 35.1583L30.46 36.3633L49.037 31.5243Z" fill="#474A52"/>
<path d="M49.037 31.5247L61.691 20.5557L42.822 26.4897L49.037 31.5247Z" fill="#E1E6E5"/>
<path d="M77.7999 31.3455L76.1909 21.2145L71.5589 20.0025L68.4429 19.1875L64.4689 18.1475L61.6909 20.5565L77.7999 31.3455Z" fill="#F3F6F1"/>
<path d="M77.8 31.3458L79.206 22.4948L79.068 21.9678L77.882 21.6568L76.988 21.4228L76.188 21.2148L77.8 31.3458Z" fill="#E7F0F4"/>
<path d="M49.0371 31.5247L65.1461 36.9247L61.6911 20.5557L49.0371 31.5247Z" fill="#444950"/>
<path d="M65.1429 36.9196L77.7969 31.3456L61.6919 20.5566L65.1429 36.9196Z" fill="#EFF7F9"/>
<path d="M77.8 31.3461L80.966 29.2251L79.272 22.7481L79.206 22.4951L77.8 31.3461Z" fill="#A3B1BC"/>
<path d="M65.1431 36.9197L81.2561 47.7087L77.8011 31.3457L65.1431 36.9197Z" fill="#808890"/>
<path d="M80.967 29.2246L77.801 31.3456L81.256 47.7086L84.168 41.4596L82.243 34.0856L81.934 32.9046L81.477 31.1576L80.967 29.2246Z" fill="#475875"/>
<path d="M84.3351 46.679L84.9351 44.389L84.8651 44.123L84.8301 43.986L84.7781 43.786L84.6881 43.444L84.1691 41.46L81.2561 47.709L84.3351 46.679Z" fill="white"/>
<path d="M32.298 59.4333L34.073 58.6763L31.843 57.6943L32.298 59.4333Z" fill="#474A52"/>
<path d="M32.2981 59.4337L32.4651 60.0707L34.0721 58.6787L32.2981 59.4337Z" fill="#DEE6E8"/>
<path d="M50.1809 64.072L29.8269 38.779L30.4599 36.361L30.7749 35.161L31.1549 33.709L27.8159 38.17L29.6629 39.413L29.3259 40.7L34.0719 58.679L50.1809 64.072Z" fill="#E1EBF0"/>
<path d="M49.0369 31.5244L30.4599 36.3634L29.8269 38.7784L50.1809 64.0684L49.0369 31.5244Z" fill="#7A8694"/>
<path d="M32.4641 60.0708L33.7431 64.9548L34.0731 58.6768L32.4641 60.0708Z" fill="#C6CED0"/>
<path d="M33.7429 64.9557L34.0239 66.0287L34.2239 66.8087L35.4099 67.1187L36.3029 67.3527L41.7319 68.7737L44.4669 69.4887L50.1779 64.0727L34.0719 58.6787L33.7429 64.9557Z" fill="#C2CBD4"/>
<path d="M49.0371 31.5244L50.1811 64.0714L61.6911 47.8874L49.0371 31.5244Z" fill="#EFF7F9"/>
<path d="M65.1431 36.9194L49.0381 31.5244L61.6921 47.8884L65.1431 36.9194Z" fill="white"/>
<path d="M53.23 71.7783L58.236 69.6443L50.181 64.0703L44.47 69.4863L44.851 69.5863L53.23 71.7783Z" fill="#EFF7F9"/>
<path d="M50.1809 64.0717L58.2359 69.6457L61.6909 47.8877L50.1809 64.0717Z" fill="white"/>
<path d="M65.1429 36.9199L61.6919 47.8889L73.2019 58.6789L65.1429 36.9199Z" fill="#98A4B1"/>
<path d="M81.2561 47.7089L65.1431 36.9199L73.2011 58.6789L81.2561 47.7089Z" fill="#E1EBF0"/>
<path d="M58.2361 69.6457L59.6691 71.8787L60.0541 71.7787L64.1151 70.7157L61.6911 47.8887L58.2361 69.6457Z" fill="#75746B"/>
<path d="M81.9629 55.744L80.8759 59.899L82.8249 65.024L85.4779 50.609L82.1429 55.069L83.6349 49.369V49.359L81.2559 47.709L73.2009 58.679L81.9629 55.744Z" fill="#E5EDF0"/>
<path d="M83.6341 49.3547L84.0341 47.8127L84.3341 46.6777L81.2561 47.7087L83.6341 49.3547Z" fill="#EFF7F9"/>
<path d="M79.0679 66.8087L79.2119 66.2577L73.2009 58.6787L69.2429 69.3787L74.1059 68.1067L79.0679 66.8087Z" fill="#75746B"/>
<path d="M79.2119 66.2581L80.8759 59.8991L81.9629 55.7441L73.2009 58.6791L79.2119 66.2581Z" fill="#F0F7FB"/>
<path d="M58.236 69.6455L53.23 71.7785L56.643 72.6785L56.756 72.6495L58.236 69.6455Z" fill="#7A8694"/>
<path d="M58.236 69.6455L56.76 72.6455L58.955 72.0705L58.236 69.6455Z" fill="white"/>
<path d="M58.2361 69.6455L58.9551 72.0695L59.6691 71.8825L58.2361 69.6455Z" fill="#E3D6C0"/>
<path d="M12.4431 0.178711L15.2431 1.18871L15.6881 0.178711H12.4431Z" fill="#DEE6E8"/>
<path d="M28.489 0.178711L29.043 0.285711L28.932 0.178711H28.489Z" fill="#7A8694"/>
<path d="M28.9321 0.178711L29.0431 0.285711L29.2241 0.178711H28.9321Z" fill="#EFF7F9"/>
<path d="M15.6879 0.178711L15.2429 1.18871L16.3869 1.59971L16.5029 0.178711H15.6879Z" fill="#EFF7F9"/>
<path d="M16.5029 0.178711L16.3879 1.59971L21.2759 3.35971L29.0429 0.285711L28.4889 0.178711H16.5029Z" fill="#98A4B1"/>
<path d="M29.225 0.178711L29.043 0.285711L29.669 0.178711H29.225Z" fill="#CBD5DC"/>
<path d="M21.2761 3.36013L23.8821 4.29913L34.6081 2.76213L29.0431 0.286133L21.2761 3.36013Z" fill="#474A52"/>
<path d="M29.669 0.178711L29.043 0.285711L34.604 2.76171L40.031 0.178711H29.669Z" fill="#E1E6E5"/>
<path d="M53.5669 0.178711L60.3429 2.67871L59.6249 0.178711H53.5669Z" fill="#F3F6F1"/>
<path d="M59.625 0.178711L60.343 2.67871L61.067 0.178711H59.625Z" fill="#E7F0F4"/>
<path d="M40.0309 0.178711L34.6079 2.76171L49.0229 5.41471L47.0099 0.178711H40.0309Z" fill="#444950"/>
<path d="M47.01 0.178711L49.022 5.41471L60.343 2.67871L53.567 0.178711H47.01Z" fill="#EFF7F9"/>
<path d="M61.066 0.178711L60.343 2.67871L67.124 0.178711H61.066Z" fill="#A3B1BC"/>
<path d="M59.159 9.14671H62.8319L60.3429 2.67871L49.0229 5.41571L59.159 9.14671Z" fill="#808890"/>
<path d="M67.124 0.178711L60.343 2.67871L62.83 9.15171H64.77L72.376 0.178711H67.124Z" fill="#475875"/>
<path d="M72.3771 0.178711L64.7771 9.14671H71.9991L77.8531 8.06771L75.5731 0.178711H72.3771Z" fill="white"/>
<path d="M75.573 0.178711L77.853 8.06771L84.543 0.178711H75.573Z" fill="#A3B1BC"/>
<path d="M77.8521 8.06771L78.6291 8.17871L78.1521 8.35071L77.8521 8.06771ZM100.852 0.178711L92.9221 3.03471L91.6361 0.178711H84.5431L77.8521 8.06771L76.8431 8.82071L76.5481 8.92671L88.6641 6.69771L88.1061 4.76771L91.2631 3.63071L88.6641 6.69771L98.0271 8.03871L99.6341 3.57871L100.852 0.178711Z" fill="white"/>
<path d="M91.636 0.178711L92.922 3.03471L100.856 0.178711H91.636Z" fill="#EFF7F9"/>
<path d="M34.6071 2.7627L23.8821 4.2987L34.9601 8.2867L34.6071 2.7627Z" fill="#7A8694"/>
<path d="M46.884 9.14702H51.536L49.023 5.41602L46.884 9.14702Z" fill="#98A4B1"/>
<path d="M51.5359 9.14702H57.8499L59.834 12.093L63.7699 9.14702H59.159L49.0229 5.41602L51.5359 9.14702Z" fill="#E1EBF0"/>
<path d="M73.4801 9.14638L74.2491 9.43938L74.6401 9.14638H75.9401L76.0551 9.61838L75.2621 9.39138L74.7431 9.57838L74.2521 9.43838L74.3961 9.70438L74.2761 9.74738L71.9981 10.5684L77.8531 21.4224L78.7761 20.7664L76.8671 12.9374L76.1671 10.0814L81.4541 12.0924L88.6611 6.69238L76.5531 8.92638L76.8431 8.82038L77.8531 8.06838L71.9951 9.14638H73.4801Z" fill="#EFF7F9"/>
<path d="M78.152 8.35138L78.6291 8.17838L77.8521 8.06738L78.152 8.35138Z" fill="#B6C1CE"/>
<path d="M37.3521 9.14648L38.9131 9.70848L38.8771 9.14648H37.3521Z" fill="#7A8694"/>
<path d="M46.4799 9.1467H43.5909L34.6079 2.7627L34.9609 8.2857L37.3529 9.1467H38.8769L38.9129 9.70869L43.5769 11.3897L46.4799 9.1467Z" fill="#EFF7F9"/>
<path d="M48.8519 9.1467H46.8839L49.0219 5.4157L34.6069 2.7627L43.5899 9.1467H46.4799L43.5799 11.3897L47.7699 12.9007L48.8519 9.1467Z" fill="white"/>
<path d="M57.85 9.14648H54.116L59.834 12.0925L57.85 9.14648Z" fill="#98A4B1"/>
<path d="M49.9901 9.14648H48.8521L47.7671 12.9005L50.9361 14.0425L49.9901 9.14648Z" fill="#75746B"/>
<path d="M56.643 16.1015L57.285 15.8695L59.829 12.0925L54.116 9.14746H49.99L50.936 14.0425L55.612 15.7285L56.643 16.1015Z" fill="#B6C1CE"/>
<path d="M59.834 12.0925L74.249 9.43948L73.48 9.14648H63.77L59.834 12.0925Z" fill="#E5EDF0"/>
<path d="M62.548 13.9784L61.478 14.3634L68.443 19.1874L71.559 20.0024L70.867 10.9784L71.994 10.5724L74.272 9.75138L74.248 9.44238L59.833 12.0924L62.548 13.9784Z" fill="#F0F7FB"/>
<path d="M74.643 9.14648L74.252 9.43848L74.743 9.57848L75.267 9.38948L76.059 9.61648L75.943 9.14648H74.643Z" fill="white"/>
<path d="M74.272 9.74848L74.392 9.70548L74.249 9.43848L74.272 9.74848Z" fill="#304350"/>
<path d="M60.6149 17.1398L64.4699 18.1478L68.4439 19.1878L61.479 14.3598L62.549 13.9748L59.834 12.0928L57.2899 15.8698L56.6479 16.1018L60.6149 17.1398Z" fill="#75746B"/>
<path d="M70.8679 10.9783L71.5599 20.0053L76.1919 21.2173L76.9919 21.4253H77.8569L71.9949 10.5693L70.8679 10.9783Z" fill="#304350"/>
<path d="M77.8521 21.4226L78.8641 21.1326L78.775 20.7666L77.8521 21.4226Z" fill="#C6CED0"/>
<path d="M76.988 21.4229L77.882 21.6569L77.852 21.4229H76.988Z" fill="#D1DADF"/>
<path d="M79.0681 21.9668L82.2681 22.7478L81.4511 12.0928L76.8611 12.9368L78.7701 20.7668L78.8601 21.1328L78.9791 21.6238L77.8471 21.4238L77.8771 21.6578L79.0681 21.9668Z" fill="#F0F7FB"/>
<path d="M77.8521 21.4229L78.984 21.6229L78.8641 21.1309L77.8521 21.4229Z" fill="#9DABB9"/>
<path d="M81.019 66.333L79.0679 66.809L78.45 69.342L80.3629 69.895L81.019 66.333Z" fill="white"/>
<path d="M78.45 69.3418L77.781 72.0848L80.363 69.8948L78.45 69.3418Z" fill="#A3B1BC"/>
<path d="M80.3631 69.8944L77.7801 72.0844L76.6121 76.8714L74.1021 68.1074L69.2431 69.3784L68.9431 69.4584L76.4821 77.4354L76.2201 78.5104L75.9501 79.6104L82.0791 81.8194L80.3631 69.8944Z" fill="white"/>
<path d="M83.4781 65.7334L83.9351 65.6224L82.8251 65.0224L83.0581 65.8344L82.0291 66.0854L82.8291 65.0224L80.8761 59.8984L79.2121 66.2584L79.0681 66.8084L81.0191 66.3334L80.3631 69.8944L83.4781 65.7334Z" fill="#EFF7F9"/>
<path d="M86.424 65.0146L85.538 65.2307L83.938 65.6217L83.482 65.7337L80.363 69.8947L91.063 81.2177L86.424 65.0146Z" fill="white"/>
<path d="M91.064 81.2175L80.363 69.8945L82.071 81.8255L87.999 83.9625L91.064 81.2175Z" fill="#B6C1CE"/>
<path d="M88.936 64.4027L92.922 66.5537L91.888 63.6787L88.936 64.4027Z" fill="#304350"/>
<path d="M88.9361 64.4023L86.425 65.0143L91.064 81.2143L95.802 74.5493L92.9921 66.7443L92.9221 66.5503L88.9361 64.4023Z" fill="#EFF7F9"/>
<path d="M91.064 81.2178L87.999 83.9628L90.399 84.8278L91.064 81.2178Z" fill="#E1EBF0"/>
<path d="M95.801 74.5527L91.064 81.2177L92.764 85.6787L94.424 86.2787L96.905 77.6127L96.432 76.2987L95.801 74.5527Z" fill="#C6CED0"/>
<path d="M91.0639 81.2178L90.3999 84.8278L92.7609 85.6788L91.0639 81.2178Z" fill="#D1DADF"/>
<path d="M99.9431 86.0664L96.9851 87.2024L100.854 88.5974L99.9431 86.0664Z" fill="#525A66"/>
<path d="M60.0531 71.7783L59.6691 71.8783L58.9551 72.0643L56.7551 72.6393L56.6431 72.6783L57.6711 73.0493L58.2961 73.2743L60.0531 71.7783Z" fill="#A3B1BC"/>
<path d="M66.7001 70.0439L64.115 70.7199L60.053 71.7789L58.3 73.2659L67.6431 76.6359L66.7001 70.0439Z" fill="white"/>
<path d="M76.4739 77.4367L68.9349 69.4597L69.2349 69.3797L73.1969 58.6797L61.6909 47.8877L64.1149 70.7197L66.6999 70.0437L67.6439 76.6357L75.2439 79.3747L76.2079 78.5117L76.4739 77.4367Z" fill="#B6C1CE"/>
<path d="M78.4501 69.3416L79.068 66.8086L74.1021 68.1086L76.612 76.8726L77.7811 72.0856L78.4501 69.3416Z" fill="#EFF7F9"/>
<path d="M75.2429 79.3785L75.9139 79.6195H75.9429L76.2129 78.5195L75.2429 79.3785Z" fill="#E1EBF0"/>
<path d="M91.264 3.63184L88.106 4.76784L88.663 6.69784L91.264 3.63184Z" fill="#A3B1BC"/>
<path d="M81.4559 12.0931L76.1699 10.0791L76.8699 12.9351L81.4559 12.0931Z" fill="#E5EDF0"/>
<path d="M81.4561 12.0923L95.1561 16.0153L96.0101 13.6413L88.6631 6.69727L81.4561 12.0923Z" fill="white"/>
<path d="M96.0111 13.6403L97.4431 9.65327L97.8781 8.44527L98.0251 8.03727L88.6611 6.69727L96.0111 13.6403Z" fill="#B6C1CE"/>
<path d="M82.2731 22.7487L83.3311 23.0067L87.0681 23.9178L87.8821 24.1177L87.9551 24.1358L81.4551 12.0938L82.2731 22.7487Z" fill="#304350"/>
<path d="M92.1169 24.4573L92.8259 22.4883L89.8579 24.5973L90.8139 24.8303L92.1169 24.4573Z" fill="#C6CED0"/>
<path d="M90.814 24.831L91.584 25.019L91.884 25.093L92.112 24.458L90.814 24.831Z" fill="#9DABB9"/>
<path d="M79.2721 22.7468L83.3311 23.0068L82.2731 22.7478L79.0681 21.9668L79.2061 22.4938L79.2721 22.7468Z" fill="#7A8694"/>
<path d="M83.331 23.0071L79.272 22.7471L80.967 29.2251L81.472 31.1581L87.072 23.9181L83.331 23.0071Z" fill="#EFF7F9"/>
<path d="M84.776 43.7863L84.909 43.8753L84.687 43.4443L84.776 43.7863Z" fill="#98A4B1"/>
<path d="M84.8281 43.9851L84.9091 43.8761L84.7761 43.7871L84.8281 43.9851Z" fill="#E1EBF0"/>
<path d="M84.1679 41.4609L84.6869 43.4449L84.9089 43.8769L85.1849 43.6909L85.3689 43.1789L86.2799 44.9459L91.8879 41.1689V36.7559L87.9579 35.9969L88.2299 35.2439L82.2429 34.0859L84.1679 41.4609Z" fill="#B6C1CE"/>
<path d="M84.8281 43.985L84.8641 44.122L84.9091 43.876L84.8281 43.985Z" fill="#E5EDF0"/>
<path d="M84.9089 43.8783L85.0469 44.0783L85.1849 43.6943L84.9089 43.8783Z" fill="#75746B"/>
<path d="M84.864 44.1219L84.933 44.3879L85.033 44.1079L85.043 44.0789L84.905 43.8789L84.864 44.1219Z" fill="#F0F7FB"/>
<path d="M90.9709 27.6366L91.8879 25.0926L91.588 25.0186L90.9709 27.6366Z" fill="#7A8694"/>
<path d="M90.588 28.699L90.119 29.999L87.881 24.115L87.067 23.915L81.467 31.155L81.924 32.902L89.898 30.602L89.308 32.239L91.669 31.557L90.588 28.699Z" fill="white"/>
<path d="M85.0349 44.1077L86.2799 44.9467L85.3699 43.1787L85.1859 43.6897L85.0429 44.0787L85.0349 44.1077Z" fill="#98A4B1"/>
<path d="M85.0351 44.1074L84.9351 44.3874L85.5091 45.9784L86.2811 44.9464L85.0351 44.1074Z" fill="#E1EBF0"/>
<path d="M89.313 32.2376L89.903 30.6006L81.929 32.9006L82.239 34.0816L88.23 35.2386L87.958 35.9926L91.888 36.7516V31.8036L91.675 31.5556L89.313 32.2376Z" fill="#75746B"/>
<path d="M85.5071 45.9782L85.8931 47.0482L86.2801 44.9482L85.5071 45.9782Z" fill="#E5EDF0"/>
<path d="M86.28 44.9469L91.888 53.0379V41.1699L86.28 44.9469Z" fill="#75746B"/>
<path d="M86.2799 44.9463L85.893 47.0463L86.8429 49.6883L89.0139 55.7103L85.477 50.6103L82.825 65.0233L85.5379 65.2313L86.424 65.0143L88.936 64.4023L91.8879 63.6823L90.521 59.8893L91.8879 59.9893V53.0373L86.2799 44.9463Z" fill="#F0F7FB"/>
<path d="M90.521 59.8896L91.888 63.6786V59.9947L90.521 59.8896Z" fill="#304350"/>
<path d="M91.675 31.5545L91.888 31.3635V30.6445L91.675 31.5545Z" fill="#7A8694"/>
<path d="M91.888 31.8037V31.6697L91.675 31.5547L91.888 31.8037Z" fill="#E3D6C0"/>
<path d="M84.0379 47.8125L83.6379 49.3545V49.3645L85.4839 50.6085L84.0379 47.8125Z" fill="#98A4B1"/>
<path d="M83.6321 49.3643L82.1431 55.0683L85.4811 50.6083L83.6321 49.3643Z" fill="#E1EBF0"/>
<path d="M85.5069 45.9787L84.9339 44.3877L84.3339 46.6777L84.0339 47.8127L85.4739 50.6077L86.8429 49.6877L85.8929 47.0487L85.5069 45.9787Z" fill="#B6C1CE"/>
<path d="M85.478 50.6075L89.015 55.7075L86.843 49.6875L85.478 50.6075Z" fill="#75746B"/>
<path d="M82.0291 66.0865L83.0581 65.8355L82.8251 65.0225L82.0291 66.0865Z" fill="white"/>
<path d="M83.935 65.6214L85.535 65.2304L82.822 65.0234L83.935 65.6214Z" fill="#304350"/>
<path d="M15.4141 80.3298L13.6611 78.8428V85.2008L15.2671 80.7368L15.4141 80.3298Z" fill="#F0F7FB"/>
<path d="M15.4141 80.3298L15.8491 79.1218L13.6611 78.8428L15.4141 80.3298Z" fill="#304350"/>
<path d="M13.661 85.2008V78.8428L12.438 81.4088V88.5968L13.661 85.2008Z" fill="#383E47"/>
<path d="M15.8491 79.1207L17.2841 75.1337L18.1391 72.7597L31.8431 76.6787L25.3431 64.6407L25.4161 64.6587L23.1751 58.7787L22.7061 60.0787L21.6201 57.2227L21.4071 58.1337V63.6787L22.3241 61.1347L21.7101 63.7527L22.4811 63.9407L23.4371 64.1737L20.4691 66.2837L19.6841 68.4637L18.9671 64.4247L13.6611 78.8427L15.8491 79.1207Z" fill="#EFF7F9"/>
<path d="M19.684 68.4671L20.469 66.2871L21.178 64.3171L21.406 63.6821V62.2441L18.967 64.4291L19.684 68.4671Z" fill="#7A8694"/>
<path d="M13.661 78.8424L12.438 78.2354V81.4084L13.661 78.8424Z" fill="#808890"/>
<path d="M18.9671 64.4277L12.4431 71.5867V78.2357L13.6661 78.8427L18.9671 64.4277Z" fill="#DEE6E8"/>
<path d="M21.4071 52.0207V50.9987L13.6611 50.0137L21.4071 54.1937V52.0207Z" fill="#E3D6C0"/>
<path d="M18.967 64.4277L21.407 62.2427V57.4117L21.62 57.2207L21.407 57.1047V54.1937L13.661 50.0127L12.438 50.7127V71.5867L18.967 64.4277Z" fill="white"/>
<path d="M21.4071 50.9977V49.3367L18.9671 35.5977L13.6611 50.0127L21.4071 50.9977Z" fill="#444950"/>
<path d="M21.407 49.3366V29.1836L18.967 35.5976L21.407 49.3366Z" fill="white"/>
<path d="M13.661 50.0125L12.438 49.3125V50.7125L13.661 50.0125Z" fill="#F6FBFB"/>
<path d="M13.661 50.0127L18.967 35.5977L12.438 42.5057V49.3117L13.661 50.0127Z" fill="#C6CED0"/>
<path d="M21.4071 29.1837V28.1197L13.6611 21.1787L18.9671 35.5937L21.4071 29.1837Z" fill="#E7F0F4"/>
<path d="M21.4071 28.1197V25.0927L20.3731 22.2207L20.3041 22.0277L13.6611 21.1787L21.4071 28.1197Z" fill="#D1DADF"/>
<path d="M18.967 35.5973L12.438 31.1973V42.5053L18.967 35.5973Z" fill="#EFF7F9"/>
<path d="M18.9671 35.5977L13.6611 21.1787L12.4431 22.8157V31.2007L18.9671 35.5977Z" fill="#525A66"/>
<path d="M20.3029 22.0275L17.4929 14.2275L16.8649 12.4785L13.6599 21.1785L20.3029 22.0275Z" fill="#F0F7FB"/>
<path d="M13.661 21.1782L16.861 12.4722L16.388 11.1592L15.952 9.94824L12.438 13.6782V22.8182L13.661 21.1782Z" fill="#444950"/>
<path d="M15.957 9.95234L14.949 7.15234L12.438 7.39234V13.6783L15.957 9.95234Z" fill="#475875"/>
<path d="M12.4431 0.178711V7.39271L14.9531 7.15171L15.9611 9.95171L16.3971 11.1627L18.8791 2.49671L16.3111 1.57171L13.3501 2.70871L12.4431 0.178711Z" fill="#9DABB9"/>
<path d="M98.0499 87.5869L97.6069 88.5969H100.856L98.0499 87.5869Z" fill="#DEE6E8"/>
<path d="M84.363 88.5963H84.806L84.249 88.4893L84.363 88.5963Z" fill="#7A8694"/>
<path d="M84.0701 88.5963H84.3631L84.2491 88.4893L84.0701 88.5963Z" fill="#EFF7F9"/>
<path d="M98.05 87.5867L96.907 87.1787L96.791 88.6007H97.607L98.05 87.5867Z" fill="#EFF7F9"/>
<path d="M96.9071 87.1789L92.0191 85.4199L84.248 88.4929L84.806 88.6009H96.791L96.9071 87.1789Z" fill="#98A4B1"/>
<path d="M83.625 88.5963H84.07L84.249 88.4893L83.625 88.5963Z" fill="#CBD5DC"/>
<path d="M78.687 86.0125L84.248 88.4885L92.019 85.4155L89.412 84.4785L78.687 86.0125Z" fill="#474A52"/>
<path d="M84.2489 88.4897L78.6879 86.0137L73.2639 88.5977H83.6259L84.2489 88.4897Z" fill="#E1E6E5"/>
<path d="M52.949 86.1016L53.67 88.5966H59.728L52.949 86.1016Z" fill="#F3F6F1"/>
<path d="M52.949 86.1016L52.228 88.5966H53.67L52.949 86.1016Z" fill="#E7F0F4"/>
<path d="M78.687 86.0124L64.272 83.3594L66.284 88.5964H73.263L78.687 86.0124Z" fill="#444950"/>
<path d="M64.272 83.3594L52.949 86.1014L59.728 88.6014H66.284L64.272 83.3594Z" fill="#EFF7F9"/>
<path d="M52.9489 86.1016L46.1699 88.5966H52.2279L52.9489 86.1016Z" fill="#A3B1BC"/>
<path d="M54.1361 79.6289H50.4631L52.9501 86.1019L64.2731 83.3599L54.1361 79.6289Z" fill="#808890"/>
<path d="M52.9491 86.1019L50.4621 79.6289H48.5221L40.9221 88.5969H46.1751L52.9491 86.1019Z" fill="#475875"/>
<path d="M48.5221 79.6289H41.3011L35.4431 80.7069L37.7221 88.5969H40.9221L48.5221 79.6289Z" fill="#182631"/>
<path d="M35.4429 80.707L28.7529 88.597H37.7229L35.4429 80.707Z" fill="#A3B1BC"/>
<path d="M21.6591 88.5962L20.3731 85.7402L12.4431 88.5962H21.6591Z" fill="#EFF7F9"/>
<path d="M78.687 86.0123L89.412 84.4783L78.334 80.4883L78.687 86.0123Z" fill="#7A8694"/>
<path d="M66.411 79.6289H61.759L64.272 83.3599L66.411 79.6289Z" fill="#98A4B1"/>
<path d="M61.7591 79.6287H55.4431L53.4611 76.6787L49.5261 79.6287H54.1361L64.2721 83.3597L61.7591 79.6287Z" fill="#E1EBF0"/>
<path d="M41.3011 79.6285H39.8161L39.0471 79.3355L38.6561 79.6285H37.3561L37.2411 79.1565L38.0341 79.3835L38.5581 79.1955L39.0501 79.3355L38.9061 79.0695L39.0261 79.0265L41.3031 78.2055L35.4431 67.3525L34.5201 68.0085L36.4291 75.8375L37.1291 78.6935L31.8431 76.6785L24.6321 82.0785L36.7431 79.8485L36.4491 79.9545L35.4441 80.7065L41.3011 79.6285Z" fill="#EFF7F9"/>
<path d="M34.666 80.5958L35.443 80.7068L35.143 80.4238L34.666 80.5958Z" fill="#B6C1CE"/>
<path d="M74.4181 79.6284H75.9431L74.3821 79.0664L74.4181 79.6284Z" fill="#7A8694"/>
<path d="M66.8149 79.6287H69.7039L78.6869 86.0127L78.3339 80.4897L75.9429 79.6287H74.4179L74.3819 79.0667L69.7179 77.3857L66.8149 79.6287Z" fill="#EFF7F9"/>
<path d="M64.4429 79.6289H66.4109L64.2729 83.3599L78.688 86.0129L69.7049 79.6289H66.8149L69.715 77.3859L65.5279 75.8789L64.4429 79.6289Z" fill="white"/>
<path d="M55.4429 79.6287H59.1759L53.4609 76.6787L55.4429 79.6287Z" fill="#98A4B1"/>
<path d="M63.3051 79.6283H64.4431L65.5281 75.8783L62.3591 74.7363L63.3051 79.6283Z" fill="#75746B"/>
<path d="M56.6429 72.6787L55.9999 72.9107L53.4609 76.6787L59.1789 79.6237H63.3049L62.3589 74.7237L57.6759 73.0347L56.6429 72.6787Z" fill="#B6C1CE"/>
<path d="M53.461 76.6787L39.043 79.3357L39.812 79.6287H49.522L53.461 76.6787Z" fill="#E5EDF0"/>
<path d="M53.461 76.6785L50.743 74.8005L51.813 74.4155L44.848 69.5875L44.467 69.4875L41.732 68.7715L42.424 77.7985L41.297 78.2045L39.019 79.0255L39.043 79.3345L53.461 76.6785Z" fill="#F0F7FB"/>
<path d="M37.3521 79.6283H38.6521L39.0431 79.3353L38.5511 79.1953L38.0281 79.3843L37.2351 79.1562L37.3521 79.6283Z" fill="white"/>
<path d="M38.9021 79.0703L39.0461 79.3363L39.0231 79.0273L38.9021 79.0703Z" fill="#304350"/>
<path d="M53.2301 71.7789L44.8511 69.5869L51.8161 74.4149L50.7461 74.7999L53.4611 76.6789L56.0051 72.9019L56.6431 72.6789L53.2301 71.7789Z" fill="#75746B"/>
<path d="M42.4271 77.7995L41.7351 68.7725L36.3061 67.3525H35.4431L41.3001 78.2055L42.4271 77.7995Z" fill="#304350"/>
<path d="M34.4299 67.6426L34.5189 68.0076L35.4419 67.3516L34.4299 67.6426Z" fill="#C6CED0"/>
<path d="M35.4431 67.3531H36.3071L35.4131 67.1201L35.4431 67.3531Z" fill="#D1DADF"/>
<path d="M35.4131 67.1184L34.2271 66.8084L31.0271 66.0264L31.8431 76.6784L36.4331 75.8334L34.5201 68.0084L34.4301 67.6424L34.3111 67.1514L35.4431 67.3514L35.4131 67.1184Z" fill="#F0F7FB"/>
<path d="M34.4301 67.6424L35.4421 67.3514L34.3101 67.1514L34.4301 67.6424Z" fill="#9DABB9"/>
<path d="M32.2761 22.4429L34.2271 21.9669L34.8431 19.4339L32.9321 18.8789L32.2761 22.4429Z" fill="white"/>
<path d="M34.8431 19.4334L35.5121 16.6904L32.9321 18.8784L34.8431 19.4334Z" fill="#A3B1BC"/>
<path d="M32.9321 18.8792L35.5151 16.6892L36.6831 11.9022L39.1931 20.6662L39.3851 20.6162L44.3601 19.3162L36.8211 11.3392L37.0831 10.2642L37.3531 9.15919L31.2241 6.9502L32.9321 18.8792Z" fill="white"/>
<path d="M29.8171 23.0428L29.3601 23.1538L30.4701 23.7538L30.2371 22.9408L31.2661 22.6908L30.4661 23.7538L32.4191 28.8788L33.8671 23.3448L34.2271 21.9698L32.2761 22.4448L32.9321 18.8828L29.8171 23.0428Z" fill="#EFF7F9"/>
<path d="M26.871 23.7606L27.757 23.5446L29.357 23.1536L29.813 23.0426L32.932 18.8786L22.231 7.55762L26.871 23.7606Z" fill="white"/>
<path d="M22.231 7.5575L32.932 18.8785L31.224 6.9495L25.296 4.8125L22.231 7.5575Z" fill="#B6C1CE"/>
<path d="M24.359 24.3727L20.373 22.2217L21.407 25.0927L24.359 24.3727Z" fill="#304350"/>
<path d="M24.3589 24.3725L26.8699 23.7605L22.2309 7.56055L17.4929 14.2225L20.3029 22.0275L20.3729 22.2215L24.3589 24.3725Z" fill="#EFF7F9"/>
<path d="M22.231 7.55727L25.296 4.81227L22.896 3.94727L22.231 7.55727Z" fill="#E1EBF0"/>
<path d="M17.4941 14.2231L22.2311 7.55807L20.5311 3.09707L18.8711 2.49707L16.3931 11.1641L16.8661 12.4781L17.4941 14.2231Z" fill="#C6CED0"/>
<path d="M22.2309 7.55768L22.8949 3.94768L20.5339 3.09668L22.2309 7.55768Z" fill="#D1DADF"/>
<path d="M12.4431 0.178711L13.3541 2.70871L16.3111 1.57271L12.4431 0.178711Z" fill="#525A66"/>
<path d="M53.2429 16.9929L56.6489 16.1019L55.6139 15.7289L54.9959 15.5059L53.2429 16.9929Z" fill="#A3B1BC"/>
<path d="M46.5939 18.7316L50.9319 17.5966L53.2409 16.9966L54.9939 15.5096L45.6499 12.1436L46.5939 18.7316Z" fill="white"/>
<path d="M37.083 10.2634L36.821 11.3384L44.36 19.3154L46.594 18.7314L45.65 12.1394L38.043 9.40039L37.083 10.2634Z" fill="#B6C1CE"/>
<path d="M34.8431 19.4333L34.2251 21.9663L39.1911 20.6663L36.6811 11.9023L35.5121 16.6893L34.8431 19.4333Z" fill="#EFF7F9"/>
<path d="M37.352 9.15723L37.083 10.2622L38.047 9.39923L37.375 9.15723H37.352Z" fill="#E1EBF0"/>
<path d="M22.031 85.1441L25.188 84.0071L24.631 82.0791L22.031 85.1441Z" fill="#A3B1BC"/>
<path d="M20.373 85.7406L21.659 88.5966H28.752L35.442 80.7066L34.666 80.5956L35.143 80.4236L35.442 80.7066L36.449 79.9546L36.742 79.8486L24.631 82.0786L25.189 84.0086L22.031 85.1446L24.631 82.0786L15.268 80.7376L13.661 85.2016L12.438 88.6016L20.373 85.7406Z" fill="white"/>
<path d="M31.843 76.679L37.129 78.69L36.429 75.834L31.843 76.679Z" fill="#E5EDF0"/>
<path d="M31.8431 76.6788L18.1431 72.7598L17.2891 75.1338L24.6311 82.0788L31.8431 76.6788Z" fill="white"/>
<path d="M17.2841 75.1348L15.8491 79.1218L15.4141 80.3298L15.2671 80.7378L24.6311 82.0778L17.2841 75.1348Z" fill="#B6C1CE"/>
<path d="M31.0221 66.0266L29.9641 65.7686L26.2271 64.8577L25.4131 64.6576L25.3401 64.6396L31.8431 76.6786L31.0221 66.0266Z" fill="#304350"/>
<path d="M21.178 64.3173L20.469 66.2873L23.437 64.1783L22.481 63.9453L21.178 64.3173Z" fill="#C6CED0"/>
<path d="M21.178 64.3176L22.478 63.9446L21.708 63.7566L21.408 63.6826L21.178 64.3176Z" fill="#9DABB9"/>
<path d="M29.9641 65.7686L31.0221 66.0266L34.2221 66.8086L34.0221 66.0286L29.9641 65.7686Z" fill="#7A8694"/>
<path d="M29.964 65.7692L34.023 66.0292L33.743 64.9552L32.466 60.0712L32.299 59.4342L31.843 57.6952L31.823 57.6182L26.228 64.8582L29.964 65.7692Z" fill="#EFF7F9"/>
<path d="M28.608 45.3304L28.518 44.9884L28.386 44.8994L28.608 45.3304Z" fill="#98A4B1"/>
<path d="M28.386 44.9001L28.518 44.9891L28.467 44.7891L28.386 44.9001Z" fill="#E1EBF0"/>
<path d="M28.386 44.9001L28.11 45.0861L27.926 45.5971L27.015 43.8301L21.407 47.6071V52.0211L25.337 52.7801L25.065 53.5331L31.057 54.6901L28.608 45.3311L28.386 44.9001Z" fill="#B6C1CE"/>
<path d="M28.386 44.8993L28.467 44.7903L28.431 44.6533L28.386 44.8993Z" fill="#E5EDF0"/>
<path d="M28.1091 45.0862L28.3851 44.9012L28.2481 44.7012L28.1091 45.0862Z" fill="#75746B"/>
<path d="M28.26 44.6677L28.248 44.7007L28.386 44.9007L28.431 44.6547L28.362 44.3887L28.26 44.6677Z" fill="#F0F7FB"/>
<path d="M21.407 63.6788L21.707 63.7538L22.321 61.1348L21.407 63.6788Z" fill="#7A8694"/>
<path d="M22.7071 60.0782L23.1761 58.7782L25.4131 64.6582L26.2271 64.8582L31.8221 57.6182L31.8421 57.6952L34.0721 58.6772L29.3261 40.6982L29.2571 40.9632L28.3571 44.3872L28.4261 44.6542L28.4621 44.7912L28.5141 44.9912L28.6031 45.3332L31.0521 54.6922L31.3611 55.8732L23.3921 58.1782L23.9821 56.5412L21.6211 57.2232L22.7071 60.0782Z" fill="white"/>
<path d="M27.9249 45.5971L28.1089 45.0861L28.2479 44.7021L28.2599 44.6681L27.0139 43.8301L27.9249 45.5971Z" fill="#98A4B1"/>
<path d="M27.7881 42.7969L27.0151 43.8299L28.2601 44.6679L28.3601 44.3879L27.7881 42.7969Z" fill="#E1EBF0"/>
<path d="M23.982 56.5373L23.392 58.1783L31.366 55.8783L31.057 54.6973L25.065 53.5403L25.337 52.7863L21.407 52.0273V56.9793L21.621 57.2273L23.982 56.5373Z" fill="#75746B"/>
<path d="M27.0151 43.8286L27.7871 42.7966L27.4021 41.7266L27.0151 43.8286Z" fill="#E5EDF0"/>
<path d="M27.015 43.8283L21.407 35.7373V47.6053L27.015 43.8283Z" fill="#75746B"/>
<path d="M27.015 43.8289L27.402 41.7289L26.451 39.0899L24.28 33.0679L27.817 38.1679L30.47 23.7519L27.757 23.5439L26.871 23.7609L24.359 24.3729L21.407 25.0929L22.774 28.8859L21.407 28.7789V35.7359L27.015 43.8289Z" fill="#F0F7FB"/>
<path d="M22.774 28.8858L21.407 25.0928V28.7788L22.774 28.8858Z" fill="#304350"/>
<path d="M21.407 57.4117V58.1317L21.62 57.2197L21.407 57.4117Z" fill="#7A8694"/>
<path d="M21.407 57.1047L21.62 57.2197L21.407 56.9717V57.1047Z" fill="#E3D6C0"/>
<path d="M29.6631 39.411L27.8171 38.168L29.2571 40.963L29.3261 40.698L29.6631 39.411Z" fill="#98A4B1"/>
<path d="M27.8169 38.168L26.4509 39.088L27.4019 41.727L27.7879 42.797L28.3609 44.388L29.2609 40.964L27.8169 38.168Z" fill="#B6C1CE"/>
<path d="M32.4191 28.8789L30.4701 23.7549L27.8171 38.1679L31.1551 33.7069L32.4191 28.8789Z" fill="#E5EDF0"/>
<path d="M24.28 33.0645L26.451 39.0875L27.817 38.1674L24.28 33.0645Z" fill="#75746B"/>
<path d="M31.2661 22.6885L30.2371 22.9395L30.4701 23.7515L31.2661 22.6885Z" fill="white"/>
<path d="M27.7571 23.5443L30.4701 23.7523L29.3601 23.1523L27.7571 23.5443Z" fill="#304350"/>
<mask id="mask4_1_4298" style="mask-type:luminance" maskUnits="userSpaceOnUse" x="0" y="0" width="113" height="113">
<path d="M112.452 0.178711H0.843018V112.744H112.452V0.178711Z" fill="white"/>
</mask>
<g mask="url(#mask4_1_4298)">
<g style="mix-blend-mode:screen">
<mask id="mask5_1_4298" style="mask-type:luminance" maskUnits="userSpaceOnUse" x="28" y="16" width="57" height="57">
<path d="M84.9341 16.1016H28.3611V72.6746H84.9341V16.1016Z" fill="white"/>
</mask>
<g mask="url(#mask5_1_4298)">
<mask id="mask6_1_4298" style="mask-type:luminance" maskUnits="userSpaceOnUse" x="28" y="16" width="57" height="57">
<path d="M84.9341 44.3876L79.0681 66.8086L56.6431 72.6786L34.2271 66.8086L28.3611 44.3876L34.2271 21.9666L56.6431 16.1016L79.0641 21.9666L84.9341 44.3876Z" fill="white"/>
</mask>
<g mask="url(#mask6_1_4298)">
<path d="M44.1395 -9.21739L3.00513 56.9248L69.1473 98.0592L110.282 31.917L44.1395 -9.21739Z" fill="url(#paint1_linear_1_4298)"/>
</g>
</g>
</g>
</g>
</g>
<defs>
<radialGradient id="paint0_radial_1_4298" cx="0" cy="0" r="1" gradientUnits="userSpaceOnUse" gradientTransform="translate(10.9436 91.9043) scale(55.816 10.0986)">
<stop stop-color="#F9FAFB"/>
<stop offset="0.147" stop-color="#DEE5EC"/>
<stop offset="0.247" stop-color="#D2DCE6"/>
<stop offset="0.268" stop-color="#D4DDE7"/>
<stop offset="0.527" stop-color="#EBF0F4"/>
<stop offset="0.768" stop-color="#FAFBFC"/>
<stop offset="0.973" stop-color="white"/>
<stop offset="1" stop-color="white"/>
</radialGradient>
<linearGradient id="paint1_linear_1_4298" x1="85.1979" y1="127.854" x2="85.7326" y2="126.994" gradientUnits="userSpaceOnUse">
<stop stop-color="white"/>
<stop offset="1" stop-color="#231F20"/>
</linearGradient>
</defs>
</svg>
