<svg width="113" height="116" viewBox="0 0 113 116" fill="none" xmlns="http://www.w3.org/2000/svg">
<mask id="mask0_1_5794" style="mask-type:luminance" maskUnits="userSpaceOnUse" x="0" y="0" width="113" height="116">
<path d="M112.452 0.939453H0.843018V115.744H112.452V0.939453Z" fill="white"/>
</mask>
<g mask="url(#mask0_1_5794)">
<mask id="mask1_1_5794" style="mask-type:luminance" maskUnits="userSpaceOnUse" x="0" y="0" width="113" height="116">
<path d="M112.452 0.939453H0.843018V115.744H112.452V0.939453Z" fill="white"/>
</mask>
<g mask="url(#mask1_1_5794)">
<g style="mix-blend-mode:multiply">
<mask id="mask2_1_5794" style="mask-type:luminance" maskUnits="userSpaceOnUse" x="0" y="95" width="113" height="21">
<path d="M112.452 95.5518H0.843018V115.745H112.452V95.5518Z" fill="white"/>
</mask>
<g mask="url(#mask2_1_5794)">
<mask id="mask3_1_5794" style="mask-type:luminance" maskUnits="userSpaceOnUse" x="0" y="95" width="113" height="21">
<path d="M112.452 105.649C112.452 111.225 87.467 115.749 56.647 115.749C25.827 115.749 0.843018 111.225 0.843018 105.649C0.843018 100.073 25.827 95.5488 56.643 95.5488C87.459 95.5488 112.448 100.07 112.448 105.649" fill="white"/>
</mask>
<g mask="url(#mask3_1_5794)">
<path d="M112.452 95.5518H0.843018V115.745H112.452V95.5518Z" fill="url(#paint0_radial_1_5794)"/>
</g>
</g>
</g>
</g>
<path d="M84.6431 57.9644L89.7221 56.0394V44.3594L84.6431 57.9644Z" fill="#808890"/>
<path d="M84.6431 57.9641L89.7211 62.2101V56.0391L84.6431 57.9641Z" fill="#475875"/>
<path d="M84.6431 57.9648L87.2431 71.8868L89.7231 71.1798V62.2108L84.6431 57.9648Z" fill="white"/>
<path d="M87.2429 71.8867L89.7229 73.9607V71.1797L87.2429 71.8867Z" fill="#A3B1BC"/>
<mask id="mask4_1_5794" style="mask-type:luminance" maskUnits="userSpaceOnUse" x="0" y="0" width="113" height="116">
<path d="M112.452 0.939453H0.843018V115.744H112.452V0.939453Z" fill="white"/>
</mask>
<g mask="url(#mask4_1_5794)">
<path d="M87.243 71.8867L86.243 78.7867L82.421 77.2037L80.384 79.5687L87.309 82.6447L89.286 80.6667L88.697 79.8037L89.725 80.2287V73.9607L87.243 71.8867Z" fill="white"/>
<path d="M89.2221 12.5155L82.1431 15.8675V23.3395L89.7201 12.3975V12.3125L89.6201 12.3525L89.2221 12.5155Z" fill="#182631"/>
<path d="M82.1431 23.3396V27.0916L79.3601 31.1116L82.1431 30.9366V30.7696L89.7201 30.2916V12.3916L82.1431 23.3396Z" fill="#7A8694"/>
<path d="M82.1431 30.7691V30.9331L79.3601 31.1081L82.1431 34.6611V37.9771L84.5551 41.0561L89.7201 33.8891V30.2891L82.1431 30.7691Z" fill="#EFF7F9"/>
<path d="M84.5571 41.0557L89.7211 43.9747V33.8887L84.5571 41.0557Z" fill="white"/>
<path d="M84.5571 41.0557L82.1431 45.6737V49.1537L89.7191 44.1207V43.9747L84.5571 41.0557Z" fill="#98A4B1"/>
<path d="M82.143 49.154V50.88L81.957 51.003L82.143 51.248V54.671L84.643 57.964L89.721 44.364V44.126L82.143 49.154Z" fill="#E1EBF0"/>
<path d="M82.1429 42.0106L76.9709 42.9956L76.9059 43.3446L76.1709 43.4846L76.2139 44.1346L76.3299 45.8676L76.3569 46.2676L76.5749 47.4266L81.9569 51.0026L82.1429 50.6466V45.6746L84.5549 41.0566L82.1429 41.5156V42.0106Z" fill="#B6C1CE"/>
<path d="M82.1431 64.439L84.6431 57.959L82.1431 54.666V64.439Z" fill="#E5EDF0"/>
<path d="M82.1431 64.4398V65.1658L87.2431 71.8818L84.6431 57.9648L82.1431 64.4398Z" fill="#EFF7F9"/>
<path d="M82.1431 65.1709V73.2399L81.7031 74.7539L82.1431 77.0959L82.2221 77.1289L87.2431 71.8879L82.1431 65.1709Z" fill="white"/>
<path d="M82.2241 77.1237L82.4181 77.2037L86.2431 78.7867L87.2431 71.8867L82.2241 77.1237Z" fill="#B6C1CE"/>
<path d="M79.9339 79.3047L79.3879 79.8517L80.3809 79.5687L79.9339 79.3047Z" fill="#E5EDF0"/>
<path d="M82.2241 77.1238L82.1451 77.0908L80.9561 78.2818L80.8291 78.4088L79.9341 79.3088L80.3811 79.5728L82.4181 77.2078L82.2241 77.1238Z" fill="#EFF7F9"/>
<path d="M77.0039 88.3184L78.3619 91.5974L79.2379 90.7204L77.0039 88.3184Z" fill="#75746B"/>
<path d="M80.381 79.5684L79.388 79.8524L78.776 80.4644L75.891 83.3534L75.569 83.6754L75.197 83.7814L75.224 84.0214L76.695 87.5734L76.971 88.2404L77.004 88.3194L79.238 90.7194L80.852 89.1044L80.381 79.5684Z" fill="#F0F7FB"/>
<path d="M88.6941 79.8037L89.2831 80.6677L89.7211 80.2287L88.6941 79.8037Z" fill="#B6C1CE"/>
<path d="M80.3811 79.5684L80.8521 89.1064L82.9641 86.9924L80.3811 79.5684Z" fill="#304350"/>
<path d="M80.3811 79.5684L82.9641 86.9924L87.3061 82.6444L80.3811 79.5684Z" fill="#EFF7F9"/>
<path d="M41.771 2.09545L40.566 0.939453H35.917L41.771 2.09545Z" fill="#7A8694"/>
<path d="M41.7709 2.09545L43.6479 0.939453H40.5659L41.7709 2.09545Z" fill="#EFF7F9"/>
<path d="M36.2981 4.22645L36.3271 4.29645L41.7711 2.09645L35.9161 0.939453H34.9331L36.2981 4.22645Z" fill="#98A4B1"/>
<path d="M41.771 2.09545L48.316 0.939453H43.648L41.771 2.09545Z" fill="#CBD5DC"/>
<path d="M45.2821 3.69375L41.7711 2.09375L36.3281 4.29375L36.6051 4.96075L45.2821 3.69375Z" fill="#474A52"/>
<path d="M41.771 2.09545L45.282 3.69545L50.937 0.939453H48.316L41.771 2.09545Z" fill="#E1E6E5"/>
<path d="M61.5291 3.63945L60.7671 0.939453H54.3611L61.5291 3.63945Z" fill="#F3F6F1"/>
<path d="M61.5291 3.63945L62.2911 0.939453H60.7671L61.5291 3.63945Z" fill="#E7F0F4"/>
<path d="M45.282 3.69345L54.382 5.40545L52.703 0.939453H50.937L45.282 3.69345Z" fill="#444950"/>
<path d="M54.3809 5.40445L61.5289 3.63945L54.3609 0.939453H52.7019L54.3809 5.40445Z" fill="#EFF7F9"/>
<path d="M61.5291 3.63945L68.697 0.939453H62.2911L61.5291 3.63945Z" fill="#A3B1BC"/>
<path d="M62.6501 8.51565H63.3631L61.5291 3.63965L54.3811 5.40465L62.6501 8.51565Z" fill="#808890"/>
<path d="M61.5291 3.63945L63.3631 8.51945H63.7431L70.0261 0.939453H68.697L61.5291 3.63945Z" fill="#475875"/>
<path d="M63.7429 8.51545H65.1429L72.5809 7.11545L70.8339 0.939453H70.0259L63.7429 8.51545Z" fill="white"/>
<path d="M72.58 7.11645L77.705 0.939453H70.834L72.58 7.11645Z" fill="#A3B1BC"/>
<path d="M72.5801 7.11645L75.6111 7.56045L75.2111 8.51545L75.6891 8.99345L75.0781 9.73045L74.8661 11.6565L77.8001 11.1045L79.2781 12.5825L77.7781 13.7345L81.5341 14.8345L81.1991 14.4995L83.0991 15.0545L82.1511 15.4475V15.8685L89.2271 12.5165L84.7141 14.3855L79.2571 9.11945L77.3081 10.6095L76.3621 9.66345L79.2571 9.11945L77.5181 2.96945L77.8761 2.10745L77.9651 1.89345L78.3651 0.939453H77.7091L72.5801 7.11645Z" fill="white"/>
<path d="M40.575 8.51541L42.599 9.92841L45.843 10.9394L45.691 8.51441H45.583L45.283 3.69141L36.606 4.96141L38.082 8.51441L40.575 8.51541Z" fill="#7A8694"/>
<path d="M45.5831 8.51538H45.6941L45.8431 10.9394L42.5991 9.92838L40.6531 9.32138L41.0531 15.7314L46.7531 11.2254L47.0881 11.3254L50.6511 8.51038H51.9141L45.2811 3.69238L45.5831 8.51538Z" fill="#EFF7F9"/>
<path d="M51.9211 8.5152H50.6581L47.0941 11.3302L46.7601 11.2302L41.0601 15.7362L41.7421 16.0012L42.7591 15.8862L46.1771 15.5002L47.3341 11.4082L47.7341 11.5342L50.9031 12.5232L52.0351 8.5232H52.6351L54.3801 5.4122L45.2801 3.7002L51.9211 8.5152Z" fill="white"/>
<path d="M52.637 8.5153H55.087L58.931 10.5393L57.597 8.5153H56.432L54.382 5.4043L52.637 8.5153Z" fill="#98A4B1"/>
<path d="M56.4311 8.5153H57.5971L58.9311 10.5393L61.5771 8.5153H62.6501L54.3811 5.4043L56.4311 8.5153Z" fill="#E1EBF0"/>
<path d="M67.2271 8.51523L68.0271 8.82723L68.4351 8.51523H70.7471L72.5771 7.11523L65.1431 8.51523H67.2271Z" fill="#EFF7F9"/>
<path d="M70.7509 8.51523H68.4429L68.0339 8.82723L71.2249 9.76123L74.9429 8.59923L75.1939 8.67223L75.2119 8.51523H74.0289L72.5799 7.11523L70.7509 8.51523Z" fill="white"/>
<path d="M74.029 8.51521H75.215L75.615 7.55921L72.583 7.11621L74.029 8.51521Z" fill="#B6C1CE"/>
<path d="M78.8739 1.45145L78.3619 0.939453L77.9619 1.89345L78.8739 1.45145Z" fill="#4A4D53"/>
<path d="M77.876 2.10717L79.268 1.84517L78.868 1.45117L77.96 1.89317L77.876 2.10717Z" fill="#E1EBF0"/>
<path d="M77.519 2.96968L79.258 9.11968L82.558 5.13968L79.268 1.84668L77.877 2.10868L77.519 2.96968Z" fill="#A3B1BC"/>
<path d="M79.2571 9.11965L87.7791 10.3666C85.8791 8.46665 84.2791 6.85865 82.5581 5.13965L79.2571 9.11965Z" fill="white"/>
<path d="M76.363 9.66314L77.309 10.6091L79.258 9.11914L76.363 9.66314Z" fill="#EFF7F9"/>
<path d="M79.2571 9.11914L84.7081 14.3851L89.2211 12.5161L89.6211 12.3491L89.6851 12.2761L87.7761 10.3661L79.2571 9.11914Z" fill="#B6C1CE"/>
<path d="M89.625 12.3484L89.725 12.3084L89.692 12.2754L89.625 12.3484Z" fill="#E1EBF0"/>
<path d="M81.959 17.1867L82.145 17.0987V16.4307L81.959 17.1867Z" fill="white"/>
<path d="M81.8579 16.9765L81.9579 17.1865L81.8789 16.8555L81.8579 16.9765Z" fill="#DEE6E8"/>
<path d="M81.9591 17.1866L79.3591 31.1086L82.1431 27.0886V17.0986L81.9591 17.1866Z" fill="#E1EBF0"/>
<path d="M81.9589 17.1861L81.8199 17.1731L81.7849 17.3611L74.3789 16.6611V16.6841L74.7059 21.5841L79.3429 30.3561L79.2429 30.8891L79.3589 31.1081L81.9589 17.1861Z" fill="#C2CBD4"/>
<path d="M79.2431 30.8891L79.3431 30.3551L74.7061 21.5801L75.1001 27.4801L75.2921 30.3521L77.1831 38.3121L78.4861 34.9391L79.0561 31.9031L79.3621 31.1121L79.2431 30.8891Z" fill="#EFF7F9"/>
<path d="M78.486 34.9394L77.186 38.3124L77.82 38.4934L77.837 38.4034L82.143 39.6274V40.3684L84.555 41.0554L82.143 37.9764V34.6604L79.359 31.1084L79.054 31.8994L78.486 34.9394Z" fill="white"/>
<path d="M81.959 51.0034L82.145 50.8804V50.6484L81.959 51.0034Z" fill="#98A4B1"/>
<path d="M82.1431 39.6286L77.8341 38.4006L77.8171 38.4896L77.1841 38.3096L75.9221 39.7596L76.1711 43.4846L76.9061 43.3446L76.9711 42.9966L82.1431 42.0106V41.5106L84.5551 41.0516L82.1431 40.3686V39.6286Z" fill="#75746B"/>
<path d="M82.143 51.9979V51.2479L81.957 51.0029L82.143 51.9979Z" fill="#E5EDF0"/>
<path d="M76.5761 47.4276L76.3591 46.2686L76.3081 47.0186L75.8081 54.5766L75.1101 64.9396L78.8611 59.6016L78.2411 56.2936L81.9591 51.0026L76.5761 47.4276Z" fill="#75746B"/>
<path d="M78.2429 56.2949L78.8639 59.6029L75.1109 64.9399L75.8029 54.5759L69.4099 57.4759L74.9729 66.9929L75.0169 66.3319L80.0549 65.9509L79.9269 65.2699L82.1449 65.1019V51.9979L81.9589 51.0039L78.2429 56.2949Z" fill="#F0F7FB"/>
<path d="M80.2881 67.198L80.6081 68.905L74.6331 72.086L74.5681 73.059L77.0681 76.525L80.4601 76.903L81.3731 77.003L82.1471 77.089L81.7071 74.747L82.1431 73.239V66.209L80.2881 67.198Z" fill="#EFF7F9"/>
<path d="M80.4579 76.9037L77.0659 76.5257L75.2229 76.3207L74.3569 76.2207L74.4679 77.2207L74.6049 78.4527L74.7679 79.9177L80.7039 78.2227L80.4579 76.9037Z" fill="white"/>
<path d="M81.371 77.0043L80.457 76.9043L80.704 78.2273L81.371 77.0043Z" fill="#A3B1BC"/>
<path d="M81.3711 77.0049L80.7041 78.2259L80.9551 78.2819L82.1451 77.0909L81.3711 77.0049Z" fill="white"/>
<path d="M75.0979 82.8857L75.1979 83.7857L75.5699 83.6797L75.8919 83.3567L75.0979 82.8857Z" fill="#E5EDF0"/>
<path d="M80.7041 78.2266L74.7681 79.9216L75.0971 82.8856L75.8911 83.3536L78.7761 80.4646L80.7041 78.2266Z" fill="#EFF7F9"/>
<path d="M79.9341 79.3047L80.8291 78.4047L80.7041 78.2217L78.7761 80.4607L79.3881 79.8477L79.9341 79.3047Z" fill="white"/>
<path d="M80.8291 78.4096L80.9561 78.2826L80.7041 78.2266L80.8291 78.4096Z" fill="#B6C1CE"/>
<path d="M40.6541 9.32162L42.5991 9.92863L40.5751 8.51562H38.0801L40.6541 9.32162Z" fill="#E1EBF0"/>
<path d="M51.6481 12.7516L53.6101 13.3636L52.6931 8.51562H52.0331L50.9021 12.5156L51.6481 12.7516Z" fill="#75746B"/>
<path d="M53.6101 13.3636L53.6291 13.3696L54.5381 13.6526L55.0921 13.8256L56.4801 14.2586L58.9311 10.5396L55.0871 8.51562H52.6941L53.6101 13.3636Z" fill="#B6C1CE"/>
<path d="M61.5769 8.51562L58.9309 10.5396L68.0309 8.82762L67.2309 8.51562H61.5809H61.5769Z" fill="#E5EDF0"/>
<path d="M56.48 14.2581L56.647 14.3101L59.847 14.6721L63.574 15.0931H63.595H68.354L64.003 12.0141L61.928 12.6621L58.928 10.5391L56.48 14.2581Z" fill="#75746B"/>
<path d="M61.9279 12.6621L64.0039 12.0141L68.3539 15.0961L68.0289 10.7581L68.1719 10.7131L68.0309 8.82715L58.9309 10.5391L61.9279 12.6621Z" fill="#F0F7FB"/>
<path d="M68.1721 10.7141L68.0281 10.7591L68.3541 15.0971H72.2541L69.6921 10.2391L68.9051 10.4851L68.0311 8.82812L68.1721 10.7141Z" fill="#304350"/>
<path d="M75.197 8.67359L74.943 8.60059L71.221 9.76259L68.03 8.82859L68.905 10.4856L69.692 10.2396L72.257 15.0976L74.684 13.3346L74.769 12.5656L77.776 13.7346L79.281 12.5836L77.803 11.1056L74.869 11.6576L75.081 9.73059L75.197 8.67359Z" fill="#EFF7F9"/>
<path d="M74.5651 14.4219L74.5741 14.3369L74.6851 13.3369L72.2581 15.0999L74.5651 14.4219Z" fill="#C6CED0"/>
<path d="M67.281 15.5137L68.353 15.0967H63.595L67.281 15.5137Z" fill="white"/>
<path d="M67.281 15.5138L68.881 15.6937L68.357 15.0938L67.281 15.5138Z" fill="#E7F0F4"/>
<path d="M68.354 15.0967L68.877 15.6967L71.299 15.9707L72.381 16.0927L72.258 15.0997L68.354 15.0967Z" fill="#D1DADF"/>
<path d="M74.4429 15.4949L74.5609 14.4219L72.2539 15.0979L74.4429 15.4949Z" fill="#9DABB9"/>
<path d="M40.243 16.1668L38.943 16.3138L38.786 18.6608L38.731 19.4788L38.666 20.4518L38.644 20.7838L46.486 24.5238L42.758 15.8828L41.741 15.9978L40.243 16.1668Z" fill="#7A8694"/>
<path d="M46.4819 24.5238L53.0749 14.7158L48.4339 15.2398L46.1719 15.4958L42.7529 15.8828L46.4819 24.5238Z" fill="#EFF7F9"/>
<path d="M46.4821 24.5232L38.6431 20.7832L38.2811 26.1992L38.1871 27.5992L37.8281 32.9762L46.4821 24.5232Z" fill="#98A4B1"/>
<path d="M60.7231 18.4475L59.8431 14.6735L56.6431 14.3115L54.7641 14.5235L53.6381 14.6515L53.0701 14.7155L46.4771 24.5235L60.7231 18.4475Z" fill="#CBD5DC"/>
<path d="M60.723 18.4478L63.574 15.0948L59.843 14.6738L60.723 18.4478Z" fill="#E5EDF0"/>
<path d="M51.1721 29.6784L46.4811 24.5234L37.8241 32.9744L37.7241 34.4294L51.1721 29.6784Z" fill="#474A52"/>
<path d="M60.723 18.4473L46.481 24.5233L51.172 29.6783L60.723 18.4473Z" fill="#E1E6E5"/>
<path d="M60.7229 18.4477L72.8819 29.4947L71.2979 15.9677L68.8769 15.6947L67.2769 15.5137L63.5909 15.0967H63.5699L60.7229 18.4477Z" fill="#F3F6F1"/>
<path d="M71.2981 15.9678L72.8811 29.4948L74.3811 16.6858V16.6628L74.3581 16.3138L72.3831 16.0908L71.2981 15.9678Z" fill="#E7F0F4"/>
<path d="M63.3311 35.2023L60.7231 18.4473L51.1721 29.6783L63.3311 35.2023Z" fill="#444950"/>
<path d="M60.7229 18.4473L63.3309 35.2023L72.8819 29.4943L60.7229 18.4473Z" fill="#EFF7F9"/>
<path d="M72.8821 29.4946L75.1031 27.4766L74.7091 21.5816L74.3811 16.6816L72.8821 29.4946Z" fill="#A3B1BC"/>
<path d="M63.3311 35.2021L75.4901 46.2491L72.8821 29.4941L63.3311 35.2021Z" fill="#808890"/>
<path d="M72.8821 29.4946L75.4901 46.2496L76.2171 44.1346L76.1731 43.4846L75.9241 39.7586L75.8741 39.0066L75.7431 37.0326L75.2961 30.3486L75.1041 27.4766L72.8821 29.4946Z" fill="#475875"/>
<path d="M75.49 46.2496L76.332 45.8666L76.217 44.1396L75.49 46.2496Z" fill="white"/>
<path d="M37.594 56.1162L37.767 58.7012L39.877 57.4802L37.594 56.1162Z" fill="#474A52"/>
<path d="M37.7671 58.7014L37.8431 59.8704L39.8751 57.4814L37.7671 58.7014Z" fill="#DEE6E8"/>
<path d="M39.8771 57.4816L52.0361 63.0056L37.4591 38.4346L37.1301 43.3636L39.8771 57.4816Z" fill="#E1EBF0"/>
<path d="M52.036 63.0047L51.173 29.6787L37.727 34.4297L37.46 38.4297L52.036 63.0047Z" fill="#7A8694"/>
<path d="M41.5339 76.5174L52.0339 63.0054L39.8769 57.4814L39.1499 76.2474L40.9139 76.4474L41.5339 76.5174Z" fill="#C2CBD4"/>
<path d="M60.7231 46.4337L51.1721 29.6787L52.0361 63.0047L60.7231 46.4337Z" fill="#EFF7F9"/>
<path d="M60.7231 46.4337L63.3311 35.2027L51.1721 29.6787L60.7231 46.4337Z" fill="white"/>
<path d="M41.5339 76.5179L44.1159 76.8099L58.1159 68.7099L52.0369 63.0029L41.5339 76.5179Z" fill="#EFF7F9"/>
<path d="M58.1151 68.7126L60.7231 46.4336L52.0361 63.0046L58.1151 68.7126Z" fill="white"/>
<path d="M63.3309 35.2021L60.7229 46.4331L69.4099 57.4811L63.3309 35.2021Z" fill="#98A4B1"/>
<path d="M75.4901 46.2491L63.3311 35.2021L69.4111 57.4801L75.4901 46.2491Z" fill="#E1EBF0"/>
<path d="M58.115 68.7126L62.305 77.5866L63.153 77.4866L60.723 46.4336L58.115 68.7126Z" fill="#75746B"/>
<path d="M60.7231 46.4336L63.1531 77.4906L62.3051 77.5906L60.1101 77.8386L59.6521 77.8896L59.2371 78.5206L61.6431 79.7856L62.3891 80.0186L65.5591 81.0066L64.8591 77.2976L63.9741 77.3976L69.4081 57.4806L60.7231 46.4336Z" fill="#B6C1CE"/>
<path d="M69.4099 57.4819L75.8029 54.5819L76.3029 47.0239L75.4839 46.2549L69.4099 57.4819Z" fill="#E5EDF0"/>
<path d="M75.49 46.2492L76.309 47.0182L76.359 46.2682L76.332 45.8682L75.49 46.2492Z" fill="#EFF7F9"/>
<path d="M63.9761 77.3975L64.8611 77.2975L65.5611 81.0075L65.9611 81.1335L67.1241 77.0395L71.5581 76.5395L73.0581 76.3695L74.3581 76.2225L74.5151 73.8755L74.5691 73.0585L74.6341 72.0845L74.9741 66.9975L69.4121 57.4805L63.9761 77.3975Z" fill="#75746B"/>
<path d="M58.115 68.7129L44.115 76.8129L44.415 76.8469L46.015 77.0269L49.702 77.4439L54.743 78.0139L58.115 68.7129Z" fill="#7A8694"/>
<path d="M58.115 68.7129L54.741 78.0129L56.647 78.2289L58.526 78.0159L59.652 77.8889L60.11 77.8369L58.115 68.7129Z" fill="white"/>
<path d="M58.115 68.7129L60.11 77.8349L62.305 77.5869L58.115 68.7129Z" fill="#E3D6C0"/>
<path d="M75.1971 8.6736L75.0811 9.7306L75.6921 8.9936L75.2141 8.5166L75.1971 8.6736Z" fill="#475875"/>
<path d="M74.769 12.5654L74.684 13.3334L74.574 14.3334L77.774 13.7334L74.769 12.5654Z" fill="#E5EDF0"/>
<path d="M74.5739 14.3395L74.5649 14.4245L74.4429 15.4935L72.2529 15.0935L72.3769 16.0865L74.3519 16.3105L77.9359 15.9105L77.7719 13.7305L74.5739 14.3395Z" fill="#F0F7FB"/>
<path d="M77.9431 15.9143L78.8761 15.8143L77.7761 13.7383L77.9431 15.9143Z" fill="#304350"/>
<path d="M78.8731 15.8104L81.5451 15.5104L82.0021 15.4594L82.1451 15.4444L83.0931 15.0514L81.1981 14.4964L81.5331 14.8314L77.7771 13.7314L78.8731 15.8104Z" fill="#EFF7F9"/>
<path d="M38.8281 15.313L41.0551 15.732L38.6931 14.083L38.8281 15.313Z" fill="#E1EBF0"/>
<path d="M38.531 12.6155L38.693 14.0845L41.055 15.7325L40.655 9.32246L38.082 8.52246L38.108 8.75646L38.208 9.65646L38.531 12.6155Z" fill="#7A8694"/>
<path d="M38.8281 15.3135L38.9381 16.3135L40.2381 16.1665L41.0541 15.7325L38.8281 15.3135Z" fill="#C2CBD4"/>
<path d="M40.2429 16.1664L41.7429 15.9974L41.0609 15.7324L40.2429 16.1664Z" fill="#EFF7F9"/>
<path d="M53.6289 13.369L53.6099 13.363L51.6479 12.751L54.0579 14.02L53.6289 13.369Z" fill="#98A4B1"/>
<path d="M54.543 13.6531L53.634 13.3701L54.063 14.0201L54.543 13.6531Z" fill="#E1EBF0"/>
<path d="M48.4341 15.2393L47.7341 11.5293L47.3291 11.4033L46.1731 15.4953L48.4341 15.2393Z" fill="#75746B"/>
<path d="M48.4339 15.2393L53.0749 14.7143L53.6429 14.6503L54.0579 14.0203L51.6429 12.7513L50.8969 12.5183L47.7329 11.5293L48.4339 15.2393Z" fill="#B6C1CE"/>
<path d="M55.0921 13.8253L54.5381 13.6523L54.0581 14.0203L55.0921 13.8253Z" fill="#E5EDF0"/>
<path d="M54.7681 14.5234L54.0581 14.0234L53.6421 14.6534L54.7681 14.5234Z" fill="#75746B"/>
<path d="M54.7681 14.5232L56.6471 14.3112L56.4801 14.2582L55.0921 13.8252L54.0581 14.0202L54.7681 14.5232Z" fill="#F0F7FB"/>
<path d="M74.6331 72.0854L80.6081 68.9044L80.2881 67.1974L82.1431 66.2094V65.1094L79.9251 65.2774L80.0531 65.9584L75.0151 66.3394L74.9711 66.9994L74.6331 72.0854Z" fill="#304350"/>
<path d="M75.223 76.3206L77.066 76.5256L74.566 73.0596L74.512 73.8776L75.223 76.3206Z" fill="#C6CED0"/>
<path d="M75.2229 76.3209L74.5139 73.8779L74.3569 76.2249L75.2229 76.3209Z" fill="#9DABB9"/>
<path d="M82.0021 15.4622L82.0801 15.7922L81.9681 16.3922L81.8811 16.8572L81.9601 17.1882L82.1451 16.4322V15.4482L82.0021 15.4622Z" fill="#474A52"/>
<path d="M81.9679 16.389L82.0799 15.789L82.0019 15.459L81.5439 15.51L81.9679 16.389Z" fill="#DEE6E8"/>
<path d="M74.3801 16.6626L81.7861 17.3626L81.8211 17.1746L81.9601 17.1876L81.8601 16.9776L81.8831 16.8556L81.9701 16.3916L81.5471 15.5146L78.8751 15.8146L77.9421 15.9146L74.3591 16.3146L74.3801 16.6626Z" fill="#C6CED0"/>
<path d="M75.7429 37.0336L77.1869 38.3096L75.2959 30.3496L75.7429 37.0336Z" fill="#7A8694"/>
<path d="M75.7429 37.0332L75.8749 39.0072L77.1869 38.3072L75.7429 37.0332Z" fill="white"/>
<path d="M75.874 39.0076L75.924 39.7596L77.186 38.3086L75.874 39.0076Z" fill="#E3D6C0"/>
<path d="M28.651 34.5723L23.573 36.4963V48.1773L28.651 34.5723Z" fill="#808890"/>
<path d="M28.651 34.5722L23.573 30.3252V36.4962L28.651 34.5722Z" fill="#475875"/>
<path d="M28.651 34.5724L26.051 20.6504L23.571 21.3574V30.3254L28.651 34.5724Z" fill="white"/>
<path d="M26.053 20.6502L23.573 18.5762V21.3572L26.053 20.6502Z" fill="#A3B1BC"/>
<path d="M26.053 20.6506L27.053 13.7506L30.875 15.3336L32.912 12.9686L25.988 9.89258L24.011 11.8706L24.601 12.7346L23.573 12.3086V18.5766L26.053 20.6506Z" fill="white"/>
<path d="M24.073 80.0212L31.15 76.6692V69.2002L23.573 80.1392V80.2242L23.673 80.1842L24.073 80.0212Z" fill="#182631"/>
<path d="M31.15 69.2007V65.4487L33.933 61.4287L31.15 61.6037V61.7677L23.573 62.2457V80.1397L31.15 69.2007Z" fill="#7A8694"/>
<path d="M31.15 61.7684V61.6044L33.933 61.4294L31.15 57.8764V54.5604L28.738 51.4814L23.573 58.6484V62.2484L31.15 61.7684Z" fill="#EFF7F9"/>
<path d="M28.738 51.4815L23.573 48.5625V58.6485L28.738 51.4815Z" fill="white"/>
<path d="M28.738 51.4818L31.15 46.8638V43.3838L23.573 48.4168V48.5628L28.738 51.4818Z" fill="#98A4B1"/>
<path d="M31.15 43.3832V41.6572L31.335 41.5342L31.15 41.2892V37.8662L28.65 34.5732L23.573 48.1782V48.4162L31.15 43.3832Z" fill="#E1EBF0"/>
<path d="M31.15 52.1687V52.9087L35.459 54.1397L35.476 54.0507L36.109 54.2317L37.371 52.7807L37.122 49.0557L36.387 49.1957L36.322 49.5447L31.15 50.5297V51.0297L28.738 51.4897L31.15 52.1687Z" fill="#75746B"/>
<path d="M31.15 51.0212V50.5262L36.322 49.5412L36.387 49.1922L37.122 49.0522L36.936 46.2682L36.718 45.1092L31.335 41.5332L31.15 41.8882V46.8622L28.738 51.4812L31.15 51.0212Z" fill="#B6C1CE"/>
<path d="M31.1499 28.0928L28.6499 34.5728L31.1499 37.8658V28.0928Z" fill="#E5EDF0"/>
<path d="M31.15 28.0924V27.3674L26.05 20.6504L28.65 34.5724L31.15 28.0924Z" fill="#EFF7F9"/>
<path d="M31.15 27.3671V19.3021L31.59 17.7881L31.15 15.4461L31.071 15.4131L26.053 20.6501L31.15 27.3671Z" fill="white"/>
<path d="M31.0709 15.413L30.8769 15.333L27.0549 13.75L26.0549 20.65L31.0709 15.413Z" fill="#B6C1CE"/>
<path d="M33.3611 13.2325L33.9071 12.6855L32.9141 12.9685L33.3611 13.2325Z" fill="#E5EDF0"/>
<path d="M31.1501 15.4468L32.3431 14.2558L32.4701 14.1288L33.3651 13.2288L32.9181 12.9658L30.8811 15.3298L31.0751 15.4098L31.1501 15.4468Z" fill="#EFF7F9"/>
<path d="M36.2981 4.22645L34.9331 0.939453L34.0571 1.81645L36.2981 4.22645Z" fill="#75746B"/>
<path d="M32.9141 12.9684L33.9071 12.6854L34.5181 12.0724L37.4041 9.18343L37.7261 8.86143L38.1061 8.75243L38.0811 8.51843L36.6041 4.96243L36.3271 4.29543L36.2981 4.22543L34.0571 1.81543L32.4431 3.43043L32.9141 12.9684Z" fill="#F0F7FB"/>
<path d="M24.601 12.739L24.012 11.875C23.862 12.024 23.727 12.16 23.574 12.313L24.601 12.739Z" fill="#B6C1CE"/>
<path d="M32.9141 12.9687L32.4431 3.43066L30.3311 5.54466L32.9141 12.9687Z" fill="#304350"/>
<path d="M32.914 12.9689L30.331 5.54492L25.988 9.89292L32.914 12.9689Z" fill="#EFF7F9"/>
<path d="M71.5239 90.4395L72.7239 91.5955H77.3729L71.5239 90.4395Z" fill="#7A8694"/>
<path d="M71.5241 90.4395L69.6431 91.5975H72.7251L71.5241 90.4395Z" fill="#EFF7F9"/>
<path d="M77.0039 88.3183L76.9709 88.2393L71.5239 90.4393L77.3789 91.5953H78.3619L77.0039 88.3183Z" fill="#98A4B1"/>
<path d="M71.524 90.4395L64.979 91.5955H69.643L71.524 90.4395Z" fill="#CBD5DC"/>
<path d="M68.0129 88.8392L71.5239 90.4392L76.9709 88.2392L76.6949 87.5732L68.0129 88.8392Z" fill="#474A52"/>
<path d="M71.5239 90.4398L68.0129 88.8398L62.3579 91.5938H64.9789L71.5239 90.4398Z" fill="#E1E6E5"/>
<path d="M51.7661 88.9014L52.5281 91.6014H58.9341L51.7661 88.9014Z" fill="#F3F6F1"/>
<path d="M51.7659 88.9014L51.0039 91.6014H52.5279L51.7659 88.9014Z" fill="#E7F0F4"/>
<path d="M68.0131 88.8399L58.9131 87.1279L60.5921 91.5939H62.3581L68.0131 88.8399Z" fill="#444950"/>
<path d="M58.9141 87.1328L51.7661 88.9018L58.9341 91.6018H60.5931L58.9141 87.1328Z" fill="#EFF7F9"/>
<path d="M51.7659 88.9014L44.5979 91.6014H51.0039L51.7659 88.9014Z" fill="#A3B1BC"/>
<path d="M50.6429 84.0215H49.9299L51.7639 88.9015L58.9119 87.1325L50.6429 84.0215Z" fill="#808890"/>
<path d="M51.766 88.9015L49.932 84.0215H49.555L43.269 91.5985H44.598L51.766 88.9015Z" fill="#475875"/>
<path d="M49.555 84.0215H48.155L40.717 85.4215L42.463 91.5985H43.271L49.555 84.0215Z" fill="white"/>
<path d="M40.7151 85.4209L35.5901 91.5979H42.4611L40.7151 85.4209Z" fill="#A3B1BC"/>
<path d="M40.7149 85.4209L37.6839 84.9769L38.0839 84.0219L37.6029 83.5399L38.2139 82.8029L38.4259 80.8769L35.4919 81.4289L34.0139 79.9509L35.5139 78.7989L31.7579 77.6989L32.0929 78.0339L30.1929 77.4789L31.1409 77.0859V76.6699L24.0649 80.0219L28.5769 78.1529L34.0289 83.4189L35.9779 81.9279L36.9239 82.8739L34.0239 83.4189L35.7629 89.5689L35.4049 90.4299L35.3159 90.6439L34.9159 91.5979H35.5719L40.7149 85.4209Z" fill="white"/>
<path d="M75.2151 84.0217H72.7151L70.6911 82.6087L67.4441 81.5957L67.5961 84.0217H67.7071L68.0071 88.8447L76.6881 87.5737L75.2171 84.0217H75.2151Z" fill="#7A8694"/>
<path d="M67.711 84.0217H67.6L67.449 81.5957L70.695 82.6087L72.641 83.2157L72.241 76.8057L66.536 81.3107L66.202 81.2107L62.638 84.0257H61.374L68.013 88.8397L67.711 84.0217Z" fill="#EFF7F9"/>
<path d="M61.3741 84.0211H62.6371L66.2011 81.2061L66.5351 81.3061L72.2351 76.8011L71.5531 76.5361L67.1181 77.0361L65.9611 81.1281L65.5611 81.0021L62.3911 80.0131L61.2601 84.0131H60.6601L58.9131 87.1321L68.0131 88.8441L61.3741 84.0211Z" fill="white"/>
<path d="M60.658 84.0211H58.208L54.364 81.9971L55.698 84.0211H56.863L58.913 87.1321L60.658 84.0211Z" fill="#98A4B1"/>
<path d="M56.8641 84.0211H55.6971L54.3631 81.9971L51.7171 84.0211H50.6431L58.9121 87.1321L56.8641 84.0211Z" fill="#E1EBF0"/>
<path d="M46.0681 84.021L45.2681 83.709L44.8601 84.021H42.5431L40.7131 85.421L48.1521 84.021H46.0681Z" fill="#EFF7F9"/>
<path d="M42.5431 84.0214H44.8551L45.2641 83.7094L42.0731 82.7754L38.3491 83.9394L38.0981 83.8664L38.0811 84.0234H39.2661L40.7151 85.4234L42.5431 84.0214Z" fill="white"/>
<path d="M39.2659 84.0215H38.0799L37.6799 84.9775L40.7119 85.4205L39.2659 84.0215Z" fill="#B6C1CE"/>
<path d="M34.4209 91.0856L34.9329 91.5975L35.3329 90.6436L34.4209 91.0856Z" fill="#4A4D53"/>
<path d="M35.4191 90.4297L34.0271 90.6917L34.4271 91.0857L35.3351 90.6437L35.4191 90.4297Z" fill="#E1EBF0"/>
<path d="M35.7761 89.568L34.0371 83.418L30.7371 87.397C31.7521 88.414 32.8291 89.497 34.0281 90.691L35.4191 90.429L35.7761 89.568Z" fill="#A3B1BC"/>
<path d="M30.7359 87.3979L34.0359 83.4179L25.5139 82.1709L30.7359 87.3979Z" fill="white"/>
<path d="M36.9321 82.8737L35.9861 81.9277L34.0371 83.4187L36.9321 82.8737Z" fill="#EFF7F9"/>
<path d="M34.0371 83.4183L28.5851 78.1533L24.0731 80.0213L23.6731 80.1883L23.6101 80.2613C24.2891 80.9423 24.9151 81.5683 25.5181 82.1713L34.0371 83.4183Z" fill="#B6C1CE"/>
<path d="M23.6701 80.1885L23.5701 80.2285L23.6031 80.2615L23.6701 80.1885Z" fill="#E1EBF0"/>
<path d="M31.3349 75.3506L31.1499 75.4386V76.1066L31.3349 75.3506Z" fill="white"/>
<path d="M31.4369 75.5616L31.3369 75.3516L31.4159 75.6836L31.4369 75.5616Z" fill="#DEE6E8"/>
<path d="M31.3351 75.3507L33.9351 61.4287L31.1521 65.4487V75.4397L31.3351 75.3507Z" fill="#E1EBF0"/>
<path d="M31.335 75.3507L31.474 75.3637L31.509 75.1757L38.915 75.8757L38.586 70.9567L33.948 62.1817L34.048 61.6487L33.932 61.4297L31.335 75.3507Z" fill="#C2CBD4"/>
<path d="M34.049 61.6475L33.949 62.1815L38.586 70.9565L38 62.1885L36.109 54.2285L34.809 57.6015L34.243 60.6395L33.937 61.4305L34.049 61.6475Z" fill="#EFF7F9"/>
<path d="M34.243 60.6394L34.813 57.6034L36.113 54.2304L35.479 54.0504L35.462 54.1394L31.15 52.9094V52.1694L28.738 51.4814L31.15 54.5604V57.8764L33.934 61.4294L34.243 60.6394Z" fill="white"/>
<path d="M31.3349 41.5342L31.1499 41.6572V41.8892L31.3349 41.5342Z" fill="#98A4B1"/>
<path d="M31.1499 40.5391V41.2891L31.3349 41.5331L31.1499 40.5391Z" fill="#E5EDF0"/>
<path d="M36.718 45.1106L36.936 46.2696L37.13 43.3636L37.459 38.4346L37.727 34.4346L37.827 32.9786L38.187 27.6016L34.433 32.9396L35.053 36.2476L31.335 41.5386L36.718 45.1106Z" fill="#75746B"/>
<path d="M35.0539 36.2392L34.4329 32.9392L38.1839 27.6012L38.2779 26.2012L33.2399 26.5822L33.3679 27.2632L31.1499 27.4312V40.5392L31.3359 41.5332L35.0539 36.2392Z" fill="#F0F7FB"/>
<path d="M33.007 25.3392L32.6869 23.6322L38.6619 20.4512L38.7269 19.4782L36.2269 16.0122L32.8349 15.6342L31.9209 15.5342L31.1479 15.4482L31.5879 17.7902L31.1479 19.3042V26.3292L33.007 25.3392Z" fill="#EFF7F9"/>
<path d="M32.8371 15.6343L36.2291 16.0123L38.0721 16.2123L38.9381 16.3123L38.8281 15.3123L38.6931 14.0823L38.5311 12.6143L32.5911 14.3143L32.8371 15.6343Z" fill="white"/>
<path d="M31.9231 15.5326L32.8371 15.6326L32.5911 14.3096L31.9231 15.5326Z" fill="#A3B1BC"/>
<path d="M31.9229 15.5329L32.5909 14.3119L32.3389 14.2559L31.1499 15.4469L31.9229 15.5329Z" fill="white"/>
<path d="M38.2061 9.65781L38.1061 8.75781L37.7261 8.86581L37.4041 9.18881L38.2061 9.65781Z" fill="#E5EDF0"/>
<path d="M32.5911 14.3117L38.5311 12.6117L38.2061 9.65366L37.4061 9.18066L34.5201 12.0697L32.5911 14.3117Z" fill="#EFF7F9"/>
<path d="M33.3609 13.2321L32.4609 14.1321L32.5859 14.3151L34.5139 12.0771L33.9019 12.6891L33.3609 13.2321Z" fill="white"/>
<path d="M32.4661 14.1289L32.3391 14.2559L32.5911 14.3119L32.4661 14.1289Z" fill="#B6C1CE"/>
<path d="M72.643 83.2154L70.698 82.6084L72.722 84.0214H75.222L72.643 83.2154Z" fill="#E1EBF0"/>
<path d="M61.6429 79.7858L59.6809 79.1738L60.5979 84.0218H61.2579L62.3889 80.0218L61.6429 79.7858Z" fill="#75746B"/>
<path d="M59.685 79.1733L59.666 79.1673L58.757 78.8833L58.203 78.7113L56.815 78.2783L54.364 81.9973L58.208 84.0213H60.601L59.685 79.1733Z" fill="#B6C1CE"/>
<path d="M51.7179 84.0211L54.3639 81.9971L45.2639 83.7091L46.0639 84.0211H51.7139H51.7179Z" fill="#E5EDF0"/>
<path d="M56.8151 78.2784L56.6481 78.2264L54.7431 78.0104L49.7011 77.4404H44.9431L49.2941 80.5224L51.3691 79.8744L54.3691 81.9974L56.8151 78.2784Z" fill="#75746B"/>
<path d="M51.3671 79.8745L49.2911 80.5225L44.9431 77.4395L45.2691 81.7775L45.1251 81.8225L45.2661 83.7085L54.3661 81.9965L51.3671 79.8745Z" fill="#F0F7FB"/>
<path d="M45.123 81.8235L45.267 81.7785L44.943 77.4395H41.043L43.608 82.2965L44.394 82.0515L45.269 83.7085L45.123 81.8235Z" fill="#304350"/>
<path d="M38.0979 83.8645L38.3489 83.9385L42.0739 82.7755L45.2649 83.7094L44.3899 82.0525L43.6029 82.2985L41.0369 77.4395L38.6099 79.2025L38.5249 79.9705L35.5179 78.8015L34.0129 79.9545L35.4909 81.4324L38.4249 80.8805L38.2129 82.8074L38.0979 83.8645Z" fill="#EFF7F9"/>
<path d="M38.7301 78.1155L38.7211 78.2005L38.6101 79.2005L41.0371 77.4395L38.7301 78.1155Z" fill="#C6CED0"/>
<path d="M46.0141 77.0234L44.9431 77.4394H49.7021L46.0141 77.0234Z" fill="white"/>
<path d="M46.0141 77.0238L44.4141 76.8438L44.9381 77.4437L46.0141 77.0238Z" fill="#E7F0F4"/>
<path d="M44.9429 77.4394L44.4199 76.8394L44.1199 76.8044L41.5389 76.5134L40.9189 76.4434L41.0419 77.4364L44.9429 77.4394Z" fill="#D1DADF"/>
<path d="M38.848 77.0391L38.73 78.1121L41.037 77.4361L38.848 77.0391Z" fill="#9DABB9"/>
<path d="M38.098 83.8646L38.214 82.8076L37.603 83.5446L38.081 84.0216L38.098 83.8646Z" fill="#475875"/>
<path d="M38.526 79.9711L38.611 79.2031L38.721 78.2031L35.521 78.8031L38.526 79.9711Z" fill="#E5EDF0"/>
<path d="M38.7211 78.2007L38.7301 78.1157L38.8431 77.0397L41.0331 77.4397L40.9091 76.4467L39.1451 76.2467L38.9341 76.2227L35.3501 76.6227L35.5141 78.8027L38.7211 78.2007Z" fill="#F0F7FB"/>
<path d="M35.3551 76.6221L34.4221 76.7221L35.5221 78.7981L35.3551 76.6221Z" fill="#304350"/>
<path d="M34.4219 76.7266L31.7499 77.0266L31.2929 77.0776L31.1499 77.0936L30.2019 77.4856L32.1019 78.0406L31.7669 77.7056L35.5229 78.8056L34.4219 76.7266Z" fill="#EFF7F9"/>
<path d="M74.4679 77.2247L72.2429 76.8057L74.6079 78.4557L74.4679 77.2247Z" fill="#E1EBF0"/>
<path d="M74.7679 79.9207L74.6049 78.4557L72.2429 76.8047L72.6429 83.2157L75.2259 84.0217L75.1999 83.7817L75.0999 82.8817L74.7679 79.9207Z" fill="#7A8694"/>
<path d="M74.468 77.2246L74.357 76.2246L73.057 76.3726L72.241 76.8066L74.468 77.2246Z" fill="#C2CBD4"/>
<path d="M73.0549 76.3701L71.5549 76.5391L72.2369 76.8041L73.0549 76.3701Z" fill="#EFF7F9"/>
<path d="M59.6661 79.1676L59.6851 79.1736L61.6471 79.7856L59.2371 78.5166L59.6661 79.1676Z" fill="#98A4B1"/>
<path d="M58.7571 78.8846L59.6661 79.1686L59.2371 78.5176L58.7571 78.8846Z" fill="#E1EBF0"/>
<path d="M58.2031 78.7116L58.7571 78.8846L59.2371 78.5166L58.2031 78.7116Z" fill="#E5EDF0"/>
<path d="M58.5261 78.0138L59.2361 78.5138L59.6521 77.8838L58.5261 78.0138Z" fill="#75746B"/>
<path d="M58.526 78.0137L56.647 78.2257L56.814 78.2787L58.203 78.7117L59.236 78.5167L58.526 78.0137Z" fill="#F0F7FB"/>
<path d="M38.6431 20.7832L38.6651 20.4512L32.6901 23.6322L33.0101 25.3392L31.1531 26.3272V27.4272L33.3711 27.2602L33.2431 26.5792L38.2811 26.1982L38.6431 20.7832Z" fill="#304350"/>
<path d="M38.782 18.6607L38.073 16.2177L36.23 16.0117L38.73 19.4777L38.782 18.6607Z" fill="#C6CED0"/>
<path d="M38.782 18.6609L38.939 16.3139L38.073 16.2139L38.782 18.6609Z" fill="#9DABB9"/>
<path d="M31.2929 77.0756L31.2149 76.7456L31.3269 76.1456L31.4139 75.6816L31.3349 75.3496L31.1499 76.1046V77.0896L31.2929 77.0756Z" fill="#474A52"/>
<path d="M31.7501 77.0245L31.3261 76.1475L31.2141 76.7475L31.2931 77.0775L31.7501 77.0245Z" fill="#DEE6E8"/>
<path d="M31.75 77.0244L34.422 76.7244L35.355 76.6244L38.938 76.2244L39.149 76.2484L39.877 57.4824L37.843 59.8704L37.998 62.1884L38.584 70.9564L38.913 75.8754L31.507 75.1754L31.472 75.3634L31.333 75.3504L31.433 75.5604L31.41 75.6824L31.322 76.1464L31.75 77.0244Z" fill="#C6CED0"/>
<path d="M37.8429 59.8705L37.7649 58.7015L37.5919 56.1165L37.5509 55.5045L36.1069 54.2285L37.9979 62.1885L37.8429 59.8705Z" fill="#7A8694"/>
<path d="M37.5531 55.5043L37.5941 56.1163L39.8771 57.4813L37.1301 43.3623L36.9361 46.2683L37.1221 49.0533L37.3711 52.7783L37.4211 53.5303L36.1091 54.2303L37.5531 55.5043Z" fill="white"/>
<path d="M37.4211 53.5293L37.3711 52.7773L36.1091 54.2283L37.4211 53.5293Z" fill="#E3D6C0"/>
<g style="mix-blend-mode:screen">
<mask id="mask5_1_5794" style="mask-type:luminance" maskUnits="userSpaceOnUse" x="36" y="14" width="41" height="65">
<path d="M76.359 14.3115H36.936V78.2255H76.359V14.3115Z" fill="white"/>
</mask>
<g mask="url(#mask5_1_5794)">
<mask id="mask6_1_5794" style="mask-type:luminance" maskUnits="userSpaceOnUse" x="36" y="14" width="41" height="65">
<path d="M76.3589 46.2685L74.3589 76.2235L56.6499 78.2235L38.9419 76.2235L36.9419 46.2685L38.9419 16.3135L56.6499 14.3135L74.3589 16.3135L76.3589 46.2685Z" fill="white"/>
</mask>
<g mask="url(#mask6_1_5794)">
<path d="M44.1287 -0.88468L12.2629 66.5781L69.1553 93.4509L101.021 25.9881L44.1287 -0.88468Z" fill="url(#paint1_linear_1_5794)"/>
</g>
</g>
</g>
</g>
</g>
<defs>
<radialGradient id="paint0_radial_1_5794" cx="0" cy="0" r="1" gradientUnits="userSpaceOnUse" gradientTransform="translate(10.9436 94.9053) scale(55.816 10.0986)">
<stop stop-color="#F9FAFB"/>
<stop offset="0.147" stop-color="#DEE5EC"/>
<stop offset="0.247" stop-color="#D2DCE6"/>
<stop offset="0.268" stop-color="#D4DDE7"/>
<stop offset="0.527" stop-color="#EBF0F4"/>
<stop offset="0.768" stop-color="#FAFBFC"/>
<stop offset="0.973" stop-color="white"/>
<stop offset="1" stop-color="white"/>
</radialGradient>
<linearGradient id="paint1_linear_1_5794" x1="95.6155" y1="126.413" x2="96.0617" y2="125.468" gradientUnits="userSpaceOnUse">
<stop stop-color="white"/>
<stop offset="1" stop-color="#231F20"/>
</linearGradient>
</defs>
</svg>
