<svg width="117" height="143" viewBox="0 0 117 143" fill="none" xmlns="http://www.w3.org/2000/svg">
<mask id="mask0_1_6411" style="mask-type:luminance" maskUnits="userSpaceOnUse" x="0" y="0" width="117" height="143">
<path d="M116.626 0.280273H0.843018V142.866H116.626V0.280273Z" fill="white"/>
</mask>
<g mask="url(#mask0_1_6411)">
<mask id="mask1_1_6411" style="mask-type:luminance" maskUnits="userSpaceOnUse" x="0" y="0" width="117" height="143">
<path d="M116.626 0.280273H0.843018V142.866H116.626V0.280273Z" fill="white"/>
</mask>
<g mask="url(#mask1_1_6411)">
<g style="mix-blend-mode:multiply">
<mask id="mask2_1_6411" style="mask-type:luminance" maskUnits="userSpaceOnUse" x="0" y="122" width="113" height="21">
<path d="M112.452 122.673H0.843018V142.866H112.452V122.673Z" fill="white"/>
</mask>
<g mask="url(#mask2_1_6411)">
<mask id="mask3_1_6411" style="mask-type:luminance" maskUnits="userSpaceOnUse" x="0" y="122" width="113" height="21">
<path d="M112.452 132.77C112.452 138.346 87.467 142.87 56.652 142.87C25.837 142.87 0.843018 138.346 0.843018 132.77C0.843018 127.194 25.827 122.67 56.648 122.67C87.469 122.67 112.448 127.191 112.448 132.77" fill="white"/>
</mask>
<g mask="url(#mask3_1_6411)">
<path d="M112.452 122.673H0.843018V142.866H112.452V122.673Z" fill="url(#paint0_radial_1_6411)"/>
</g>
</g>
</g>
</g>
<path d="M44.668 43.9199L38.497 46.4799L38.119 46.6359L37.981 46.6939L34.658 48.0709L33.858 49.9959L33.501 50.8549L32.915 52.2699L45.773 47.8059L44.668 43.9199Z" fill="#CBD5DC"/>
<path d="M53.7831 40.1426L48.5971 42.2926L48.5031 42.3306L42.7521 41.9606L38.4971 46.4806L44.6681 43.9226L45.7761 47.8066L53.7831 40.1426Z" fill="#E5EDF0"/>
<path d="M31.5891 55.4736L30.9431 57.0396L30.1651 58.9166L29.8181 59.7546L34.7821 58.3266L31.5891 55.4736Z" fill="#474A52"/>
<path d="M45.7761 47.8047L32.9181 52.2687L31.5891 55.4747L34.7791 58.3277L45.7761 47.8047Z" fill="#E1E6E5"/>
<path d="M59.7761 58.1541L57.0361 39.1111L56.6531 38.9521L56.3691 39.0701L53.7831 40.1421L45.7761 47.8041L59.7761 58.1541Z" fill="#F3F6F1"/>
<path d="M59.2429 40.0273L58.6119 39.7653L57.0349 39.1123L59.7739 58.1553L62.2059 41.2553L59.2429 40.0273Z" fill="#E7F0F4"/>
<path d="M48.7791 63.5027L45.7791 47.8027L34.7791 58.3257L48.7791 63.5027Z" fill="#444950"/>
<path d="M59.7761 58.1547L45.7761 47.8047L48.7761 63.5047L59.7761 58.1547Z" fill="#ABB9CA"/>
<path d="M70.5431 44.709L69.7001 44.359L67.8231 43.58L64.3761 42.152L62.6311 41.428L62.2071 41.252L59.7761 58.152L73.7761 47.802L70.5431 44.709Z" fill="#A3B1BC"/>
<path d="M75.054 46.58L70.543 44.709L73.777 47.809L75.054 46.58Z" fill="#4A4D53"/>
<path d="M59.7761 58.1543L48.7761 63.5023L62.7761 73.8523L59.7761 58.1543Z" fill="#808890"/>
<path d="M59.7761 58.1546L62.7761 73.8546L73.7761 47.8066L59.7761 58.1546Z" fill="#475875"/>
<path d="M75.2809 46.6741L75.0539 46.5801L73.7749 47.8041L76.0119 46.9771L75.2809 46.6741Z" fill="#E1EBF0"/>
<path d="M73.7749 47.8047L62.7749 73.8527L76.7749 68.6777L73.7749 47.8047Z" fill="#F6FBFB"/>
<path d="M80.243 51.9076L80.087 51.5306L80.029 51.3926L78.643 48.0696L76.099 47.0146L76.007 46.9766L73.77 47.8036L76.77 68.6766L82.024 56.2326L80.243 51.9076Z" fill="#A3B1BC"/>
<path d="M87.6431 69.7804L84.4221 62.0084L84.3831 61.9144L82.0281 56.2324L76.7781 68.6804L87.1091 71.6504L87.7651 70.0674L87.6431 69.7804Z" fill="#475875"/>
<path d="M35.7741 89.5499L30.7581 82.6689L33.2131 88.6029L35.7741 89.5499Z" fill="#E1EBF0"/>
<path d="M35.774 89.5501L34.78 58.3271L29.815 59.7541L28.577 62.7431L27.805 64.6051L26.187 68.5051L26.051 68.8331L25.77 69.5121L25.542 70.0621L30.758 82.6671L35.774 89.5501Z" fill="#7A8694"/>
<path d="M35.7741 89.5505L33.2131 88.6035L34.2601 91.1355L35.7741 89.5505Z" fill="#C2CBD4"/>
<path d="M48.7791 63.5021L34.7791 58.3271L35.7731 89.5501L45.7731 74.0252L48.7791 63.5021Z" fill="#D1DADF"/>
<path d="M35.774 89.5498L34.26 91.1348L34.648 92.0698L42.169 95.1798L42.774 94.8958L35.774 89.5498Z" fill="#98A4B1"/>
<path d="M35.7739 89.5504L42.7739 94.8984L45.7739 74.0254L35.7739 89.5504Z" fill="#E7F0F4"/>
<path d="M48.7791 63.502L45.7791 74.025L55.7791 84.375L48.7791 63.502Z" fill="#98A4B1"/>
<path d="M62.7791 73.852L48.7791 63.502L55.7791 84.375L62.7791 73.852Z" fill="#E1EBF0"/>
<path d="M45.7761 74.0244L42.7761 94.8974L43.1851 95.5974L48.0431 97.6134L45.7761 74.0244Z" fill="#7A8694"/>
<path d="M55.7791 84.3754L45.7791 74.0254L48.0431 97.6144L50.9361 98.8144L55.7791 84.3754Z" fill="#B6C1CE"/>
<path d="M62.7791 73.8525L55.7791 84.3755L69.779 79.2005L62.7791 73.8525Z" fill="#E5EDF0"/>
<path d="M62.7791 73.8527L69.779 79.2007L76.779 68.6777L62.7791 73.8527Z" fill="#808890"/>
<path d="M55.779 84.375L50.938 98.811L56.653 101.18L65.282 97.608L55.779 84.375Z" fill="#808890"/>
<path d="M69.7781 79.1992L55.7781 84.3742L65.2781 97.6032L70.3991 95.4802L69.7781 79.1992Z" fill="#9DABB9"/>
<path d="M76.7781 68.6807L69.7781 79.2037L81.2471 85.8037L83.2471 80.9697L76.7781 68.6807Z" fill="#304350"/>
<path d="M76.7781 68.6807L83.2501 80.9657L87.1091 71.6517L76.7781 68.6807Z" fill="#B6C1CE"/>
<path d="M69.7781 79.1992L70.3991 95.4802L73.7781 94.0802L69.7781 79.1992Z" fill="#304350"/>
<path d="M69.7781 79.1992L73.7781 94.0862L78.6481 92.0702L79.0321 91.1412L81.2431 85.7962L69.7781 79.1992Z" fill="#ABB9CA"/>
<path d="M42.168 95.1805L42.568 95.3475L42.768 94.8965L42.168 95.1805Z" fill="#7A8694"/>
<path d="M42.572 95.3504L42.935 95.5004L42.773 94.9004L42.572 95.3504Z" fill="#CBD5DC"/>
<path d="M42.9349 95.5004L43.1819 95.6004L42.7729 94.9004L42.9349 95.5004Z" fill="#E3D6C0"/>
<path d="M68.923 21.1894L68.908 21.0014L68.408 20.9014L68.923 21.1894Z" fill="#444950"/>
<path d="M76.319 22.474L68.908 21L68.923 21.189L76.319 22.474Z" fill="#ABB9CA"/>
<path d="M68.9231 21.1895L74.9781 25.8115L74.7061 26.4675L76.3061 28.1435L76.7431 23.3435L76.0651 23.2055L76.2311 22.8055L76.3631 22.4865L76.3241 22.4785L68.9231 21.1895Z" fill="#808890"/>
<path d="M56.7851 18.6805L56.8101 18.5945L56.6531 18.5625L56.7851 18.6805Z" fill="#7A8694"/>
<path d="M56.7849 18.6807L56.8429 18.7307L60.1429 21.6947L62.9079 24.1747L65.0649 23.7567L68.9219 21.1897L68.4089 20.9027L56.8089 18.5957L56.7849 18.6807Z" fill="#D1DADF"/>
<path d="M63.9249 25.08L65.0659 23.751L62.9089 24.169L63.9249 25.08Z" fill="#E7F0F4"/>
<path d="M72.1149 30.4145L68.9219 21.1895L65.0649 23.7555L72.1149 30.4145Z" fill="#98A4B1"/>
<path d="M72.115 30.4145L73.147 30.2295L73.37 29.6925L73.786 28.6865L76.301 28.1435L74.701 26.4675L74.973 25.8115L68.917 21.1895L72.115 30.4145Z" fill="#E1EBF0"/>
<path d="M63.925 25.0799L64.586 25.6729L64.694 25.7729L64.794 25.8629L65.067 23.7549L63.925 25.0799Z" fill="#75746B"/>
<path d="M64.7939 25.863L65.0339 26.078L68.7009 33.959L69.4309 33.659L69.6609 33.559L69.7319 33.529L69.9039 33.458L72.2039 32.505L70.7309 31.184L72.1159 30.411L65.0659 23.752L64.7939 25.863Z" fill="#B6C1CE"/>
<path d="M72.116 30.4155L72.991 30.6085L73.147 30.2305L72.116 30.4155Z" fill="#E5EDF0"/>
<path d="M72.755 31.1799L72.991 30.6109L72.116 30.4189L72.755 31.1799Z" fill="#9DABB9"/>
<path d="M76.2251 22.8014L76.7381 23.3394L76.8321 22.7994L76.3571 22.4814L76.2251 22.8014Z" fill="#F3F6F1"/>
<path d="M76.7429 23.3398L77.0759 22.9578L76.8369 22.7998L76.7429 23.3398Z" fill="#E7F0F4"/>
<path d="M76.0601 23.2027L76.7391 23.3407L76.2261 22.8027L76.0601 23.2027Z" fill="#EFF7F9"/>
<path d="M76.7429 23.34L77.7749 23.426L77.0749 22.958L76.7429 23.34Z" fill="#A3B1BC"/>
<path d="M76.738 23.3398L76.301 28.1398L81.318 25.7898L77.771 23.4218L76.738 23.3398Z" fill="#475875"/>
<path d="M76.301 28.143L84.001 30.176L84.408 27.859L81.314 25.793L76.301 28.143Z" fill="white"/>
<path d="M84.0051 30.1803L86.2851 29.1123L84.4121 27.8623L84.0051 30.1803Z" fill="#A3B1BC"/>
<path d="M86.2851 29.1094L84.0051 30.1804L88.7991 33.4134L92.5191 33.6134L92.5311 33.2804L86.2851 29.1094Z" fill="white"/>
<path d="M92.519 33.6113L93.075 33.6423L92.532 33.2803L92.519 33.6113Z" fill="#EFF7F9"/>
<path d="M73.7871 28.6875L73.3701 29.6935L79.1701 31.2235L76.3041 28.1445L73.7871 28.6875Z" fill="#E5EDF0"/>
<path d="M76.301 28.1436L79.167 31.2226L84.005 30.1806L76.301 28.1436Z" fill="#EFF7F9"/>
<path d="M73.319 32.5682L72.668 31.3802L72.755 31.1722L72.115 30.4102L70.73 31.1832L72.203 32.5032L73.319 32.5682Z" fill="#75746B"/>
<path d="M73.3701 29.6924L73.1471 30.2294L72.9911 30.6074L72.7551 31.1764L72.6691 31.3844L73.3191 32.5684L72.2031 32.5084L72.7241 33.7654L74.6811 38.4914L75.1331 39.5804L78.6851 34.6404L75.6651 32.6944L77.5391 32.7944L78.5301 32.8484L79.1671 31.2184L73.3701 29.6924Z" fill="#F0F7FB"/>
<path d="M79.167 31.2227L81.129 32.9937L80.66 32.9677L85.038 35.7887L86.027 33.2597L85.114 33.2097L84.006 30.1807L79.167 31.2227Z" fill="white"/>
<path d="M85.1131 33.2097L86.0261 33.2597L88.7991 33.4097L84.0051 30.1807L85.1131 33.2097Z" fill="#B6C1CE"/>
<path d="M78.53 32.8527L79.224 32.8907L79.166 31.2227L78.53 32.8527Z" fill="#304350"/>
<path d="M98.57 46.8085L99.364 43.0625L97.364 40.0625L98.57 46.8085Z" fill="#E1EBF0"/>
<path d="M98.5701 46.8085L101.12 45.6935L99.3641 43.0625L98.5701 46.8085Z" fill="#7A8694"/>
<path d="M93.1749 35.4805L93.2339 36.5725L94.781 36.2015L93.075 33.6475L93.1749 35.4805Z" fill="#C6CED0"/>
<path d="M93.2341 36.5673L93.5121 41.6843L98.5701 46.8093L97.3601 40.0613L94.7811 36.1973L93.2341 36.5673Z" fill="#C2CBD4"/>
<path d="M98.5701 46.8084L103.777 50.5494L104.235 50.3594L101.12 45.6934L98.5701 46.8084Z" fill="#EFF7F9"/>
<path d="M93.666 44.5167L98.643 52.6577L98.572 46.8087L93.512 41.6807L93.666 44.5167Z" fill="#EFF7F9"/>
<path d="M98.643 52.6575H98.696L101.221 51.6115L103.779 50.5515L98.572 46.8105L98.643 52.6575Z" fill="white"/>
<path d="M98.643 52.6573L98.636 52.6803L98.697 52.6553L98.643 52.6573Z" fill="#75746B"/>
<path d="M93.666 44.5166L93.71 45.3286L93.768 46.3986L93.988 50.4506L98.643 52.6576L93.666 44.5166Z" fill="#7A8694"/>
<path d="M95.343 54.0452L98.617 52.6882L98.643 52.6572L93.988 50.4502L94.009 50.8272L94.076 52.0662L94.209 54.5142L95.343 54.0452Z" fill="white"/>
<path d="M98.615 52.6892L98.633 52.6812L98.64 52.6582L98.615 52.6892Z" fill="#E3D6C0"/>
<path d="M103.536 60.3741L105.984 59.1521L105.067 54.5391L103.536 60.3741Z" fill="#808890"/>
<path d="M103.536 60.3743L106.628 62.3883L105.984 59.1523L103.536 60.3743Z" fill="#475875"/>
<path d="M103.536 60.374L105.636 67.262L107.301 69.118L107.912 68.874L106.623 62.388L103.536 60.374Z" fill="white"/>
<path d="M107.306 69.119L108.154 70.064L107.918 68.874L107.306 69.119Z" fill="#A3B1BC"/>
<path d="M101.219 51.6104L99.4111 56.1034L104.545 51.9164L104.236 50.3604L103.778 50.5504L101.219 51.6104Z" fill="#98A4B1"/>
<path d="M99.4111 56.103L103.536 60.374L105.067 54.539L104.545 51.915L99.4111 56.103Z" fill="#E1EBF0"/>
<path d="M98.694 52.6563L98.633 52.6814L98.615 52.6894L95.343 54.0453L99.413 56.1034L101.22 51.6104L98.694 52.6563Z" fill="#B6C1CE"/>
<path d="M103.536 60.3745L99.4111 56.1035L101.364 62.4925L102.583 63.8515L103.536 60.3745Z" fill="#E5EDF0"/>
<path d="M103.536 60.374L102.583 63.851L105.641 67.262L103.536 60.374Z" fill="#EFF7F9"/>
<path d="M99.4109 56.1029L95.3429 54.0449L94.2109 54.5139L97.9499 58.6799L99.4109 56.1029Z" fill="#75746B"/>
<path d="M99.4109 56.1035L97.95 58.6805L101.364 62.4885L99.4109 56.1035Z" fill="#F0F7FB"/>
<path d="M55.843 19.2869L56.006 19.4239L55.974 19.1699L55.843 19.2869Z" fill="#F3F6F1"/>
<path d="M55.9761 19.1705L56.0081 19.4245L56.0491 19.1055L55.9761 19.1705Z" fill="#E7F0F4"/>
<path d="M55.7081 19.4111L55.1931 19.8731L56.0091 19.4241L55.8431 19.2871L55.7081 19.4111Z" fill="#ABB9CA"/>
<path d="M51.293 23.3698L57.562 28.6168L56.008 19.4238L55.193 19.8728L53.851 21.0728L51.293 23.3698Z" fill="#808890"/>
<path d="M57.562 28.6175L60.143 21.6945L56.838 18.7305L56.009 19.4245L57.562 28.6175Z" fill="#475875"/>
<path d="M57.562 28.6173L64.586 25.6803L63.925 25.0873L62.909 24.1763L60.143 21.6943L57.562 28.6173Z" fill="#F6FBFB"/>
<path d="M43.471 33.4889L43.386 30.4609L41.103 32.5079L43.471 33.4889Z" fill="#7A8694"/>
<path d="M43.4711 33.4894L44.7391 34.0144L45.5591 34.3544L48.7671 28.7184L49.7671 24.7354L49.0781 25.3534L45.2701 28.7674L43.3821 30.4614L43.4711 33.4894Z" fill="#D1DADF"/>
<path d="M46.9271 34.9227L47.9271 35.3368L48.7681 28.7188L45.5601 34.3558L46.9271 34.9227Z" fill="#E7F0F4"/>
<path d="M48.7671 28.7186L53.9431 34.7806L50.7171 23.8906L50.4431 24.1366L49.7731 24.7366L48.7671 28.7186Z" fill="#98A4B1"/>
<path d="M53.9431 34.7801L57.5641 28.6181L51.2931 23.3701L50.7151 23.8881L53.9431 34.7801Z" fill="#E1EBF0"/>
<path d="M47.926 35.3349L49.38 35.9349L48.767 28.7139L47.926 35.3349Z" fill="#75746B"/>
<path d="M49.3799 35.9388L52.9709 37.4268L53.1019 37.4808L53.1369 37.4958L53.9369 34.7798L48.7629 28.7188L49.3799 35.9388Z" fill="#B6C1CE"/>
<path d="M53.9431 34.7802L61.1851 31.7492L57.5641 28.6182L53.9431 34.7802Z" fill="#E5EDF0"/>
<path d="M61.183 31.7479L64.694 25.7729L64.586 25.6729L57.562 28.6119L61.183 31.7479Z" fill="#808890"/>
<path d="M53.136 37.4953L53.236 37.5353L56.569 38.9163L53.943 34.7803L53.136 37.4953Z" fill="#75746B"/>
<path d="M56.5661 38.916L56.6531 38.952L57.7431 38.5L58.5661 38.159L59.9661 37.577L61.3551 37.001L61.1781 31.748L53.9431 34.78L56.5661 38.916Z" fill="#9DABB9"/>
<path d="M61.1831 31.7484L66.1831 35.0034L68.7021 33.9594L65.0331 26.0804L64.7941 25.8664L64.6941 25.7764L61.1831 31.7484Z" fill="#304350"/>
<path d="M61.3601 37.002L62.3341 36.602L61.1831 31.749L61.3601 37.002Z" fill="#304350"/>
<path d="M62.3341 36.598L66.0131 35.073L66.1821 35.003L61.1821 31.748L62.3341 36.598Z" fill="#ABB9CA"/>
<path d="M89.2661 52.5687L89.3611 52.5067L89.2711 52.4697L89.2661 52.5687Z" fill="#F3F6F1"/>
<path d="M89.2661 52.5679L89.5661 52.5909L89.3591 52.5059L89.2661 52.5679Z" fill="#E7F0F4"/>
<path d="M89.2659 52.5684V52.4684L89.2 52.4404L89.2659 52.5684Z" fill="#EFF7F9"/>
<path d="M90.12 52.8204L89.569 52.5924L89.269 52.5684L92.706 58.1494L94.213 54.5144L93.583 54.2534L90.12 52.8204Z" fill="#A3B1BC"/>
<path d="M88.5089 52.1537L85.0539 50.7227L84.7539 56.1627L89.2639 52.5687L89.2019 52.4417L88.5089 52.1537Z" fill="#808890"/>
<path d="M84.7561 56.1634L91.7951 60.3394L92.7021 58.1504L89.2661 52.5684L84.7561 56.1634Z" fill="#475875"/>
<path d="M84.7561 56.1631L89.1561 66.4631L89.2871 66.3781L91.7871 60.3351L84.7561 56.1631Z" fill="white"/>
<path d="M89.1589 66.4668L89.2359 66.5128L89.2899 66.3818L89.1589 66.4668Z" fill="#A3B1BC"/>
<path d="M89.1829 66.6438L89.2369 66.5128L89.1599 66.4668L89.1829 66.6438Z" fill="white"/>
<path d="M80.4519 48.8174L80.0249 51.3934L80.0819 51.5304L81.7429 49.3534L81.5819 49.2804L80.4519 48.8174Z" fill="#98A4B1"/>
<path d="M80.082 51.5305L80.238 51.9075L84.756 56.1635L85.056 50.7235L81.743 49.3525L80.082 51.5305Z" fill="#E1EBF0"/>
<path d="M80.0251 51.3923L80.4521 48.8163L78.6521 48.0693L80.0251 51.3923Z" fill="#B6C1CE"/>
<path d="M80.2429 51.9072L82.0359 56.2322L84.3909 61.9142L84.7609 56.1622L80.2429 51.9072Z" fill="#E5EDF0"/>
<path d="M84.387 61.915L84.426 62.008L89.16 66.467L84.76 56.167L84.387 61.915Z" fill="#EFF7F9"/>
<path d="M84.425 62.0078L87.6431 69.7798L89.1561 66.4668L84.425 62.0078Z" fill="white"/>
<path d="M89.1591 66.4668L87.6431 69.7798L87.7611 70.0638L89.1791 66.6438L89.1591 66.4668Z" fill="#B6C1CE"/>
<path d="M72.7241 33.7648L72.2031 32.5068L69.9031 33.4608L72.7241 33.7648Z" fill="#EFF7F9"/>
<path d="M74.2559 40.3588L74.6819 38.4908L72.7239 33.7648L69.9029 33.4648L69.7319 33.5358L74.2559 40.3588Z" fill="#808890"/>
<path d="M74.2561 40.3602L75.1881 39.7172L75.1341 39.5822L74.6821 38.4922L74.2561 40.3602Z" fill="#475875"/>
<path d="M74.2561 40.3598L75.5561 40.6078L75.1861 39.7168L74.2561 40.3598Z" fill="white"/>
<path d="M59.0201 39.6801L58.5671 38.1621L57.7441 38.5031L59.0201 39.6801Z" fill="#E1EBF0"/>
<path d="M59.0199 39.6801L59.9719 37.5801L58.5669 38.1621L59.0199 39.6801Z" fill="#7A8694"/>
<path d="M58.6141 39.765L59.0201 39.677L57.7431 38.5L56.6531 38.953L57.0361 39.111L58.6141 39.765Z" fill="#C2CBD4"/>
<path d="M62.334 36.5984L61.36 36.9984L59.971 37.5734L59.02 39.6734L66.402 36.4734L66.013 35.0674L62.334 36.5984Z" fill="#EFF7F9"/>
<path d="M66.1819 35.0032L66.0129 35.0732L66.4019 36.4792L69.4299 33.6572L68.7009 33.9572L66.1819 35.0032Z" fill="white"/>
<path d="M58.613 39.7657L59.244 40.0277L59.02 39.6787L58.613 39.7657Z" fill="#EFF7F9"/>
<path d="M59.02 39.6805L59.245 40.0305L62.207 41.2575L62.631 41.4335L66.402 36.4805L59.02 39.6805Z" fill="white"/>
<path d="M66.4021 36.4804L69.1511 42.4804L69.6611 33.5664L69.4301 33.6664L66.4021 36.4804Z" fill="#98A4B1"/>
<path d="M69.1511 42.4801L74.2511 40.3631L69.7271 33.5361L69.6561 33.5661L69.1511 42.4801Z" fill="#E1EBF0"/>
<path d="M62.6311 41.4305L64.3761 42.1545L66.4021 36.4805L62.6311 41.4305Z" fill="#75746B"/>
<path d="M64.376 42.1545L67.822 43.5805L69.151 42.4805L66.402 36.4805L64.376 42.1545Z" fill="#B6C1CE"/>
<path d="M76.5191 43.8804L74.2561 40.3574L69.1511 42.4804L76.5191 43.8804Z" fill="#E5EDF0"/>
<path d="M74.2561 40.3594L76.5191 43.8804L76.8561 43.7404L75.5561 40.6064L74.2561 40.3594Z" fill="#EFF7F9"/>
<path d="M67.823 43.5805L69.698 44.3575L69.151 42.4805L67.823 43.5805Z" fill="#75746B"/>
<path d="M69.6981 44.3595L70.5411 44.7095L75.0551 46.5795L75.2821 46.6735L76.5191 43.8805L69.1511 42.4805L69.6981 44.3595Z" fill="#F0F7FB"/>
<path d="M76.519 43.8802L77.319 44.8562L77.271 44.7402L76.999 44.0832L76.857 43.7402L76.519 43.8802Z" fill="white"/>
<path d="M76.519 43.8799L75.281 46.6709L76.012 46.9709L76.103 47.0089L76.519 43.8799Z" fill="#304350"/>
<path d="M76.519 43.8799L76.103 47.0119L78.643 48.0689L77.313 44.8589L76.519 43.8799Z" fill="#EFF7F9"/>
<path d="M92.5191 33.6127L88.7991 33.4127L86.0261 33.2617L85.0371 35.7907L93.1751 35.4777L93.0751 33.6447L92.5191 33.6127Z" fill="#A3B1BC"/>
<path d="M93.7101 45.3287L93.6661 44.5167L93.5121 41.6807L93.2341 36.5637L93.1751 35.4717L85.0371 35.7847L93.7101 45.3287Z" fill="white"/>
<path d="M75.665 32.6963L78.685 34.6423L77.543 32.7983L75.665 32.6963Z" fill="#E5EDF0"/>
<path d="M80.6601 32.9677L81.1291 32.9927L79.1671 31.2227L79.2241 32.8897L78.5301 32.8517L77.5391 32.7977L78.6861 34.6417L85.0381 35.7877L80.6601 32.9677Z" fill="#EFF7F9"/>
<path d="M78.6851 34.6426L87.2431 46.4716L85.0371 35.7886L78.6851 34.6426Z" fill="white"/>
<path d="M87.2429 46.4701L93.7649 46.3971L93.7069 45.3271L85.0339 35.7871L87.2429 46.4701Z" fill="#B6C1CE"/>
<path d="M75.1331 39.5806L75.1881 39.7146L75.5581 40.6066L76.8581 43.7416L77.0001 44.0836L77.4421 44.4706L78.6871 34.6406L75.1331 39.5806Z" fill="#304350"/>
<path d="M77.4431 44.4726L87.2491 46.4726L78.6851 34.6426L77.4431 44.4726Z" fill="#EFF7F9"/>
<path d="M93.7681 46.3984L87.2461 46.4714L94.0091 50.8284L93.9881 50.4504L93.7681 46.3984Z" fill="#E1EBF0"/>
<path d="M87.243 46.4707L77.437 44.4707L90.298 51.3837L87.243 46.4707Z" fill="#C6CED0"/>
<path d="M87.2429 46.4707L90.2979 51.3857L94.0729 52.0667L94.0059 50.8277L87.2429 46.4707Z" fill="#D1DADF"/>
<path d="M94.076 52.0667L90.301 51.3857L93.58 54.2537L94.209 54.5147L94.076 52.0667Z" fill="#B6C1CE"/>
<path d="M77.2701 44.7429L77.44 44.4719L76.998 44.0859L77.2701 44.7429Z" fill="#D1DADF"/>
<path d="M77.3179 44.8597L78.6479 48.0697L80.448 48.8177L81.5779 49.2857L77.4429 44.4727L77.2729 44.7427L77.3179 44.8597Z" fill="#F0F7FB"/>
<path d="M77.4431 44.4727L81.5851 49.2857L81.7491 49.3527L85.0581 50.7237L88.5121 52.1537L90.3051 51.3857L77.4431 44.4727Z" fill="#9DABB9"/>
<path d="M88.509 52.1537L89.204 52.4417L89.271 52.4697L89.361 52.5067L89.568 52.5917L90.119 52.8207L90.301 51.3857L88.509 52.1537Z" fill="#525A66"/>
<path d="M90.1201 52.8207L93.5801 54.2537L90.3021 51.3857L90.1201 52.8207Z" fill="#EFF7F9"/>
<path d="M7.58901 57.8099L7.48901 58.3099L7.77701 57.7969L7.58901 57.8099Z" fill="#444950"/>
<path d="M9.06311 50.3994L7.58911 57.8104L7.77811 57.7944L9.06311 50.3994Z" fill="#ABB9CA"/>
<path d="M7.77808 57.7945L12.4001 51.7395L13.0571 52.0105L14.7321 50.4165L9.93208 49.9795L9.79408 50.6575L9.39408 50.4915L9.07508 50.3595L9.06708 50.3995L7.77808 57.7945Z" fill="#808890"/>
<path d="M5.1521 70.0642L5.2711 69.9323L5.1831 69.9062L5.1521 70.0642Z" fill="#7A8694"/>
<path d="M5.27108 69.9319L5.31908 69.8789L8.28308 66.5729L10.7631 63.8069L10.3431 61.6509L7.77808 57.7939L7.49108 58.3069L5.18408 69.9069L5.27108 69.9319Z" fill="#D1DADF"/>
<path d="M11.673 62.7924L10.343 61.6514L10.761 63.8074L11.673 62.7924Z" fill="#E7F0F4"/>
<path d="M17.0031 54.6025L7.77808 57.7955L10.3431 61.6525L17.0031 54.6025Z" fill="#98A4B1"/>
<path d="M17.0031 54.602L16.8181 53.57L16.2811 53.347L15.2751 52.931L14.7321 50.416L13.0561 52.016L12.4001 51.744L7.77808 57.795L17.0031 54.602Z" fill="#E1EBF0"/>
<path d="M11.673 62.7924L12.266 62.1314L12.366 62.0234L12.456 61.9234L10.343 61.6514L11.673 62.7924Z" fill="#75746B"/>
<path d="M12.452 61.9247L12.667 61.6847L20.548 58.0177L20.16 57.0787L19.936 56.5407L19.398 55.2407L19.098 54.5137L17.777 55.9867L17.004 54.6017L10.343 61.6527L12.452 61.9247Z" fill="#B6C1CE"/>
<path d="M17.0031 54.6023L17.1961 53.7263L16.8181 53.5703L17.0031 54.6023Z" fill="#E5EDF0"/>
<path d="M17.0029 54.6026L17.7649 53.9626L17.1959 53.7266L17.0029 54.6026Z" fill="#9DABB9"/>
<path d="M9.07104 50.3588L9.39105 50.4908L9.92905 49.9778L9.38904 49.8838L9.07104 50.3588Z" fill="#F3F6F1"/>
<path d="M9.38794 49.8805L9.92794 49.9745L9.54294 49.6465L9.38794 49.8805Z" fill="#E7F0F4"/>
<path d="M9.39014 50.4925L9.79014 50.6595L9.92814 49.9795L9.39014 50.4925Z" fill="#EFF7F9"/>
<path d="M9.54297 49.6463L9.92397 49.9793L10.009 48.9473L9.54297 49.6463Z" fill="#A3B1BC"/>
<path d="M9.92896 49.9804L14.729 50.4174L12.379 45.4004L10.014 48.9464L9.92896 49.9804Z" fill="#475875"/>
<path d="M14.7319 50.4167L16.7649 42.7167L14.4429 42.3047L12.3779 45.4047L14.7319 50.4167Z" fill="white"/>
<path d="M16.7661 42.7126L15.6981 40.4326L14.4431 42.3056L16.7661 42.7126Z" fill="#A3B1BC"/>
<path d="M16.766 42.7125L19.999 37.9185L20.199 34.1985L19.866 34.1865L15.696 40.4325L16.766 42.7125Z" fill="white"/>
<path d="M19.8679 34.1866L20.2009 34.1996L20.2309 33.6426L19.8679 34.1866Z" fill="#EFF7F9"/>
<path d="M15.2749 52.9299L16.2809 53.3469L17.8099 47.5469L14.7319 50.4129L15.2749 52.9299Z" fill="#E5EDF0"/>
<path d="M17.8109 47.5509L16.7659 42.7119L14.7329 50.4169L17.8109 47.5509Z" fill="#EFF7F9"/>
<path d="M19.1579 53.3984L17.9739 54.0484L17.7659 53.9624L17.0039 54.6024L17.7769 55.9874L19.0969 54.5144L19.1579 53.3984Z" fill="#75746B"/>
<path d="M17.811 47.5514L19.582 45.5894L19.556 46.0584L22.377 41.6804L19.843 40.6914L19.793 41.6044L16.761 42.7124L17.811 47.5514Z" fill="white"/>
<path d="M19.7981 41.604L19.8481 40.691L19.9981 37.918L16.7651 42.712L19.7981 41.604Z" fill="#B6C1CE"/>
<path d="M17.811 47.5512L19.441 48.1872L19.479 47.4932L17.811 47.5512Z" fill="#304350"/>
<path d="M33.3971 28.1475L29.6511 27.3535L26.6511 29.3535L33.3971 28.1475Z" fill="#E1EBF0"/>
<path d="M33.3971 28.1477L32.2821 25.5977L29.6511 27.3537L33.3971 28.1477Z" fill="#7A8694"/>
<path d="M22.064 33.5425L23.156 33.4835L22.785 31.9365L20.231 33.6425L22.064 33.5425Z" fill="#C6CED0"/>
<path d="M23.1561 33.4805L28.2731 33.2025L33.3981 28.1445L26.6501 29.3545L22.7861 31.9345L23.1561 33.4805Z" fill="#C2CBD4"/>
<path d="M33.3971 28.1474L37.1431 22.9404L36.9531 22.4824L32.2871 25.5974L33.3971 28.1474Z" fill="#EFF7F9"/>
<path d="M31.1049 33.0511L39.243 28.0801L33.3939 28.1511L28.2729 33.2051L31.1049 33.0511Z" fill="#EFF7F9"/>
<path d="M39.2431 28.0804V28.0274L38.1981 25.5024L37.1431 22.9404L33.4011 28.1474L39.2431 28.0804Z" fill="white"/>
<path d="M39.2429 28.0804L39.2669 28.0874L39.2419 28.0264L39.2429 28.0804Z" fill="#75746B"/>
<path d="M37.0431 32.7291L39.2431 28.0801L31.1021 33.0541L31.914 33.0101L32.984 32.9521L37.0431 32.7291Z" fill="#7A8694"/>
<path d="M37.043 32.7291L37.42 32.7081L38.659 32.6411L41.107 32.5081L40.634 31.3801L39.277 28.1061L39.243 28.0801L37.043 32.7291Z" fill="#1A242B"/>
<path d="M39.2779 28.1021L39.2709 28.0841L39.2429 28.0801L39.2779 28.1021Z" fill="#E3D6C0"/>
<path d="M46.9631 23.1804L45.7431 20.7334L41.1301 21.6504L46.9631 23.1804Z" fill="#808890"/>
<path d="M46.963 23.1799L48.977 20.0889L45.741 20.7319L46.963 23.1799Z" fill="#475875"/>
<path d="M46.9631 23.1806L53.8511 21.0806L55.1931 19.8806L55.7081 19.4186L55.4631 18.8076L48.9771 20.0976L46.9631 23.1806Z" fill="white"/>
<path d="M56.6531 18.5635L55.4641 18.8005L55.7081 19.4115L55.8431 19.2875L55.9731 19.1705L56.0461 19.1055L56.0061 19.4235L56.8351 18.7295L56.7821 18.6815L56.6531 18.5635Z" fill="#A3B1BC"/>
<path d="M38.199 25.4979L42.692 27.3059L38.505 22.1719L36.949 22.4809L37.139 22.9389L38.199 25.4979Z" fill="#98A4B1"/>
<path d="M42.6921 27.3064L46.9631 23.1804L41.1281 21.6504L38.5051 22.1724L42.6921 27.3064Z" fill="#E1EBF0"/>
<path d="M39.243 28.0229L39.268 28.0839L39.276 28.1019L40.634 31.3799L42.692 27.3099L38.199 25.5029L39.243 28.0229Z" fill="#B6C1CE"/>
<path d="M49.0809 25.3537L49.7699 24.7357L50.4399 24.1357L46.9629 23.1807L42.6909 27.3057L49.0809 25.3537Z" fill="#E5EDF0"/>
<path d="M50.4431 24.1341L50.7171 23.8881L51.2951 23.3701L53.8511 21.0801L46.9631 23.1801L50.4431 24.1341Z" fill="#EFF7F9"/>
<path d="M40.634 31.3805L41.103 32.5125L43.385 30.4655L45.274 28.7715L42.692 27.3105L40.634 31.3805Z" fill="#75746B"/>
<path d="M45.2739 28.7675L49.0809 25.3535L42.6919 27.3065L45.2739 28.7675Z" fill="#F0F7FB"/>
<path d="M5.75903 70.741L5.87603 70.872L6.01303 70.709L5.75903 70.741Z" fill="#F3F6F1"/>
<path d="M5.75909 70.741L6.01309 70.709L5.69409 70.668L5.75909 70.741Z" fill="#E7F0F4"/>
<path d="M5.87598 70.871L6.46298 71.526L6.01298 70.708L5.87598 70.871Z" fill="#ABB9CA"/>
<path d="M5.2711 69.932L5.1521 70.064L5.6941 70.664L6.0131 70.705L5.3191 69.875L5.2711 69.932Z" fill="#A3B1BC"/>
<path d="M15.2059 69.1553L6.01294 70.7083L6.46294 71.5263L9.95794 75.4263L15.2059 69.1553Z" fill="#808890"/>
<path d="M8.28212 66.5732L5.31812 69.8802L6.01212 70.7092L15.2051 69.1562L8.28212 66.5732Z" fill="#475875"/>
<path d="M12.266 62.1309L11.673 62.7919L10.763 63.8069L8.28198 66.5729L15.205 69.1549L12.266 62.1309Z" fill="#F6FBFB"/>
<path d="M20.072 83.2471L17.042 83.3321L19.09 85.6171L20.072 83.2471Z" fill="#7A8694"/>
<path d="M20.0721 83.2472L20.5931 81.9902L20.9391 81.1562L15.3071 77.9512L11.3191 76.9512L17.0431 83.3322L20.0721 83.2472Z" fill="#D1DADF"/>
<path d="M21.5001 79.8012L21.9191 78.7912L15.3071 77.9512L20.9431 81.1562L21.5001 79.8012Z" fill="#E7F0F4"/>
<path d="M15.3071 77.9513L21.3681 72.7803L10.4751 76.0043L11.3191 76.9463L15.3071 77.9513Z" fill="#98A4B1"/>
<path d="M21.368 72.7802L15.206 69.1592L9.95703 75.4262L10.475 76.0032L21.368 72.7802Z" fill="#E1EBF0"/>
<path d="M21.918 78.7909L22.518 77.3379L15.304 77.9509L21.918 78.7909Z" fill="#75746B"/>
<path d="M22.5199 77.3383L24.0039 73.7583L24.0579 73.6273L24.0779 73.5793L21.3679 72.7793L15.3059 77.9543L22.5199 77.3383Z" fill="#B6C1CE"/>
<path d="M18.3371 65.5342L15.2051 69.1552L21.3681 72.7802L18.3371 65.5342Z" fill="#E5EDF0"/>
<path d="M18.337 65.5344L12.362 62.0234L12.262 62.1314L15.201 69.1554L18.337 65.5344Z" fill="#808890"/>
<path d="M24.0779 73.5802L24.1129 73.4972L25.4969 70.1572L21.3679 72.7802L24.0779 73.5802Z" fill="#75746B"/>
<path d="M25.0609 68.9054L24.6989 68.0314L23.5899 65.3574L18.3369 65.5344L21.3679 72.7804L25.4959 70.1604L25.5299 70.0794V70.0874L25.5379 70.0684L25.2699 69.4214L25.0609 68.9054Z" fill="#9DABB9"/>
<path d="M21.5921 60.5356L20.8831 58.8236L20.5481 58.0166L12.6671 61.6806L12.4521 61.9206L12.3621 62.0206L18.3371 65.5306L21.5921 60.5356Z" fill="#304350"/>
<path d="M23.1869 64.3799L18.3369 65.5309L23.5909 65.3539L23.1869 64.3799Z" fill="#304350"/>
<path d="M23.1869 64.3802L21.7049 60.8042L21.5919 60.5322L18.3369 65.5322L23.1869 64.3802Z" fill="#ABB9CA"/>
<path d="M39.0581 37.4454L39.1581 37.4504L39.0961 37.3564L39.0581 37.4454Z" fill="#F3F6F1"/>
<path d="M39.095 37.3564L39.157 37.4504L39.181 37.1504L39.095 37.3564Z" fill="#E7F0F4"/>
<path d="M39.03 37.5133L39.157 37.4513L39.057 37.4453L39.03 37.5133Z" fill="#EFF7F9"/>
<path d="M40.843 33.1368L39.41 36.5968L39.182 37.1488L39.158 37.4488L44.743 34.0138L43.475 33.4888L41.108 32.5068L40.843 33.1368Z" fill="#A3B1BC"/>
<path d="M38.743 38.2081L37.312 41.6631L42.752 41.9631L39.158 37.4531L39.031 37.5151L38.743 38.2081Z" fill="#808890"/>
<path d="M42.752 41.9616L46.928 34.9226L45.559 34.3556L44.739 34.0156L39.157 37.4526L42.752 41.9616Z" fill="#475875"/>
<path d="M53.056 37.5578L52.971 37.4268L49.38 35.9378L47.926 35.3378L46.926 34.9238L42.751 41.9628L53.056 37.5578Z" fill="white"/>
<path d="M53.056 37.5587L53.1019 37.4817L52.9709 37.4277L53.056 37.5587Z" fill="#A3B1BC"/>
<path d="M53.0559 37.5584L53.2329 37.5364L53.1329 37.4954L53.0979 37.4814L53.0559 37.5584Z" fill="white"/>
<path d="M35.943 44.9717L35.875 45.1347L35.407 46.2657L37.983 46.6927L38.121 46.6347L35.943 44.9717Z" fill="#98A4B1"/>
<path d="M37.3121 41.6621L35.9431 44.9721L38.1201 46.6351L38.4981 46.4791L42.7531 41.9611L37.3121 41.6621Z" fill="#E1EBF0"/>
<path d="M35.4059 46.2656L34.6589 48.0656L37.9819 46.6886L35.4059 46.2656Z" fill="#B6C1CE"/>
<path d="M53.0561 37.5586L42.7561 41.9586L48.5071 42.3286L48.6011 42.2896L53.0561 37.5586Z" fill="#EFF7F9"/>
<path d="M53.0559 37.5586L48.5969 42.2926L53.7829 40.1426L56.3689 39.0716L53.0559 37.5586Z" fill="white"/>
<path d="M53.2329 37.5352L53.0559 37.5582L56.3689 39.0702L56.6529 38.9532L56.5659 38.9162L53.2329 37.5352Z" fill="#B6C1CE"/>
<path d="M19.0969 54.5146L19.3969 55.2416L19.4969 54.3496L19.0969 54.5146Z" fill="#EFF7F9"/>
<path d="M26.749 52.0252L25.689 51.7832L19.495 54.3492L19.395 55.2412L19.934 56.5412L26.749 52.0252Z" fill="#808890"/>
<path d="M26.171 51.5802L25.689 51.7802L26.749 52.0212L26.384 51.4922L26.171 51.5802Z" fill="#475875"/>
<path d="M26.384 51.4961L26.748 52.0251L26.89 51.2861L26.384 51.4961Z" fill="white"/>
<path d="M25.061 68.905L25.273 69.417L26.005 68.624L25.061 68.905Z" fill="#E1EBF0"/>
<path d="M25.061 68.9052L26.005 68.6242L24.699 68.0322L25.061 68.9052Z" fill="#7A8694"/>
<path d="M25.2739 69.417L25.5419 70.064L25.7699 69.513L26.0519 68.835L26.0059 68.624L25.2739 69.417Z" fill="#C2CBD4"/>
<path d="M22.5211 60.5801L21.7051 60.8061L23.1871 64.3801L23.5871 65.3541L24.6951 68.0281L26.0011 68.6201L22.5211 60.5801Z" fill="#EFF7F9"/>
<path d="M20.8831 58.8232L21.5921 60.5352L21.7051 60.8072L22.5211 60.5812L20.8831 58.8232Z" fill="white"/>
<path d="M26.0051 68.6238L26.0511 68.8348L26.1871 68.5068L26.0051 68.6238Z" fill="#EFF7F9"/>
<path d="M22.521 60.5801L26.005 68.6221L26.186 68.5061L27.804 64.6061L22.521 60.5801Z" fill="white"/>
<path d="M20.883 58.8231L22.521 60.5801L29.055 57.5861L20.155 57.0771L20.544 58.0151L20.883 58.8231Z" fill="#98A4B1"/>
<path d="M29.055 57.5874L26.749 52.0264L19.937 56.5404L20.16 57.0794L29.055 57.5874Z" fill="#E1EBF0"/>
<path d="M22.521 60.5801L27.804 64.6041L28.576 62.7411L22.521 60.5801Z" fill="#75746B"/>
<path d="M30.162 58.9169L29.054 57.5869L22.521 60.5799L28.576 62.7409L29.815 59.7529L30.162 58.9169Z" fill="#B6C1CE"/>
<path d="M30.5431 49.7725L29.7271 50.1105L26.7451 52.0255L29.0511 57.5865L30.5431 49.7725Z" fill="#E5EDF0"/>
<path d="M29.731 50.1104L26.89 51.2864L26.749 52.0253L29.731 50.1104Z" fill="#EFF7F9"/>
<path d="M29.0549 57.587L30.1629 58.917L30.9429 57.04L29.0549 57.587Z" fill="#75746B"/>
<path d="M33.504 50.8541L30.815 49.6611L30.674 49.7201L30.546 49.7731L29.054 57.5871L30.943 57.0401L31.592 55.4741L32.921 52.2681L33.504 50.8541Z" fill="#F0F7FB"/>
<path d="M30.943 49.6074L30.813 49.6614L33.503 50.8534L33.859 49.9944L30.943 49.6074Z" fill="#304350"/>
<path d="M31.3311 49.4473L30.9441 49.6073L33.8601 49.9943L34.6601 48.0693L31.3311 49.4473Z" fill="#EFF7F9"/>
<path d="M20.201 34.198L20.001 37.918L19.843 40.691L22.372 41.68L22.06 33.542L20.226 33.642L20.201 34.198Z" fill="#A3B1BC"/>
<path d="M31.917 33.0068L31.105 33.0508L28.273 33.2048L23.156 33.4828L22.064 33.5418L22.377 41.6798L31.917 33.0068Z" fill="white"/>
<path d="M19.2849 51.0522L21.2309 48.0322L19.3869 49.1802L19.2849 51.0522Z" fill="#E5EDF0"/>
<path d="M19.556 46.0577L19.581 45.5887L17.811 47.5507L19.478 47.4937L19.44 48.1877L19.387 49.1787L21.23 48.0317L22.376 41.6807L19.556 46.0577Z" fill="#EFF7F9"/>
<path d="M25.6891 51.7799L26.1711 51.5799L21.2311 48.0279L19.2851 51.0479L19.3851 49.1739L19.4391 48.1829L17.8091 47.5469L16.2791 53.3469L16.8171 53.5699L17.1951 53.7269L17.7641 53.9619L17.9721 54.0479L19.1561 53.3979L19.0951 54.5139L19.4951 54.3489L25.6891 51.7799Z" fill="#F0F7FB"/>
<path d="M21.231 48.0327L33.06 39.4717L22.377 41.6807L21.231 48.0327Z" fill="white"/>
<path d="M33.059 39.4712L32.986 32.9492L31.916 33.0072L22.376 41.6802L33.059 39.4712Z" fill="#B6C1CE"/>
<path d="M26.171 51.5802L26.384 51.4922L26.89 51.2822L29.73 50.1062L30.546 49.7682L30.674 49.7152L31.061 49.2802L21.231 48.0352L26.171 51.5802Z" fill="#304350"/>
<path d="M31.061 49.2806L33.061 39.4746L21.231 48.0326L31.061 49.2806Z" fill="#EFF7F9"/>
<path d="M37.4161 32.708L37.0391 32.729L32.9861 32.949L33.0591 39.471L37.4161 32.708Z" fill="#E1EBF0"/>
<path d="M31.061 49.2799L37.974 36.4189L33.06 39.4739L31.061 49.2799Z" fill="#C6CED0"/>
<path d="M37.9741 36.4166L38.6551 32.6416L37.4161 32.7086L33.0591 39.4716L37.9741 36.4166Z" fill="#D1DADF"/>
<path d="M38.6551 32.6408L37.9741 36.4158L40.8431 33.1368L41.1041 32.5078L38.6551 32.6408Z" fill="#B6C1CE"/>
<path d="M30.6741 49.7193L30.8141 49.6613L30.9441 49.6073L31.3311 49.4473L31.0611 49.2773L30.6741 49.7193Z" fill="#D1DADF"/>
<path d="M34.658 48.0696L35.405 46.2696L35.873 45.1396L31.061 49.2806L31.331 49.4506L34.658 48.0696Z" fill="#F0F7FB"/>
<path d="M35.874 45.135L35.942 44.972L37.312 41.663L38.743 38.208L37.975 36.416L31.061 49.28L35.874 45.135Z" fill="#9DABB9"/>
<path d="M38.7431 38.208L39.0311 37.513L39.0591 37.446L39.0961 37.356L39.1811 37.149L39.4101 36.598L37.9751 36.416L38.7431 38.208Z" fill="#525A66"/>
<path d="M39.4091 36.5977L40.8431 33.1377L37.9751 36.4157L39.4091 36.5977Z" fill="#EFF7F9"/>
<path d="M44.388 119.139L44.888 119.239L44.375 118.951L44.388 119.139Z" fill="#444950"/>
<path d="M36.978 117.666L44.388 119.139L44.372 118.951L36.978 117.666Z" fill="#ABB9CA"/>
<path d="M44.372 118.95L38.317 114.328L38.589 113.672L36.989 111.996L36.552 116.796L37.23 116.934L37.064 117.334L36.932 117.653L36.973 117.661L44.372 118.95Z" fill="#808890"/>
<path d="M56.4851 121.545L56.6431 121.576L56.5101 121.458L56.4851 121.545Z" fill="#7A8694"/>
<path d="M56.5101 121.458L56.4571 121.41L53.1511 118.446L50.3861 115.966L48.2291 116.384L44.3721 118.951L44.8851 119.238L56.4851 121.545L56.5101 121.458Z" fill="#D1DADF"/>
<path d="M49.37 115.056L48.229 116.381L50.385 115.963L49.37 115.056Z" fill="#E7F0F4"/>
<path d="M41.179 109.726L44.372 118.951L48.229 116.385L41.179 109.726Z" fill="#98A4B1"/>
<path d="M41.1791 109.726L40.1471 109.911L39.9251 110.448L39.5081 111.454L36.9941 111.997L38.5881 113.673L38.3161 114.329L44.3721 118.951L41.1791 109.726Z" fill="#E1EBF0"/>
<path d="M49.37 115.055L48.709 114.462L48.601 114.362L48.501 114.272L48.228 116.38L49.37 115.055Z" fill="#75746B"/>
<path d="M48.5021 114.281L48.2621 114.066L44.5941 106.181L43.6471 106.573L43.2851 106.723L42.4111 107.085L41.0911 107.632L42.5641 108.953L41.1791 109.726L48.2291 116.385L48.5021 114.281Z" fill="#B6C1CE"/>
<path d="M40.1431 109.91L41.1741 109.726L40.3001 109.532L40.1431 109.91Z" fill="#E5EDF0"/>
<path d="M40.304 109.532L41.179 109.725L40.54 108.963L40.304 109.532Z" fill="#9DABB9"/>
<path d="M36.4619 117.34L36.9369 117.658L37.0689 117.338L36.5559 116.799L36.4619 117.34Z" fill="#F3F6F1"/>
<path d="M36.2241 117.18L36.4631 117.339L36.5571 116.798L36.2241 117.18Z" fill="#E7F0F4"/>
<path d="M37.0701 117.338L37.2361 116.938L36.5571 116.799L37.0701 117.338Z" fill="#EFF7F9"/>
<path d="M36.2239 117.18L36.5569 116.798L35.5249 116.714L36.2239 117.18Z" fill="#A3B1BC"/>
<path d="M36.5571 116.8L36.9941 112L31.9771 114.35L35.524 116.718L36.5571 116.8Z" fill="#475875"/>
<path d="M36.9941 111.996L29.2941 109.963L28.8821 112.28L31.9821 114.346L36.9941 111.996Z" fill="white"/>
<path d="M29.29 109.963L27.01 111.031L28.883 112.28L29.29 109.963Z" fill="#A3B1BC"/>
<path d="M29.2899 109.963L24.4959 106.73L20.7759 106.53L20.7639 106.863L27.0099 111.033L29.2899 109.963Z" fill="white"/>
<path d="M20.764 106.861L20.777 106.528L20.22 106.498L20.764 106.861Z" fill="#EFF7F9"/>
<path d="M39.508 111.453L39.925 110.453L34.125 108.923L36.991 112.001L39.508 111.453Z" fill="#E5EDF0"/>
<path d="M34.1281 108.917L29.2891 109.962L36.9891 111.996L34.1281 108.917Z" fill="#EFF7F9"/>
<path d="M39.9751 107.571L40.6251 108.755L40.5391 108.963L41.1791 109.725L42.5641 108.952L41.0911 107.632L39.9751 107.571Z" fill="#75746B"/>
<path d="M34.1281 108.918L32.1661 107.147L32.6351 107.173L28.2571 104.352L27.2681 106.881L28.1811 106.931L29.2891 109.963L34.1281 108.918Z" fill="white"/>
<path d="M28.1821 106.93L27.2691 106.88L24.4971 106.73L29.2901 109.963L28.1821 106.93Z" fill="#B6C1CE"/>
<path d="M34.129 108.917L34.765 107.288L34.071 107.25L34.129 108.917Z" fill="#304350"/>
<path d="M14.7249 93.3311L13.9309 97.0801L15.9309 100.08L14.7249 93.3311Z" fill="#E1EBF0"/>
<path d="M14.725 93.3311L12.175 94.4461L13.931 97.0801L14.725 93.3311Z" fill="#7A8694"/>
<path d="M20.1199 104.664L20.0609 103.572L18.5139 103.943L20.2199 106.497L20.1199 104.664Z" fill="#C6CED0"/>
<path d="M20.0611 103.572L19.7831 98.4551L14.7251 93.3301L15.9351 100.078L18.5141 103.942L20.0611 103.572Z" fill="#1A242B"/>
<path d="M14.7251 93.3308L9.51806 89.5898L9.06006 89.7798L12.1751 94.4458L14.7251 93.3308Z" fill="#EFF7F9"/>
<path d="M19.6291 95.6235L14.6541 87.4805L14.7251 93.3295L19.7831 98.4535L19.6291 95.6235Z" fill="#EFF7F9"/>
<path d="M14.6541 87.4805H14.6011L12.0761 88.5265L9.51807 89.5865L14.7251 93.3285L14.6541 87.4805Z" fill="white"/>
<path d="M14.6001 87.48H14.6541L14.6611 87.457L14.6001 87.48Z" fill="#75746B"/>
<path d="M19.6291 95.6235L19.5851 94.8115L19.5271 93.7415L19.3071 89.6895L14.6541 87.4805L19.6291 95.6235Z" fill="#7A8694"/>
<path d="M17.9541 86.094L14.6801 87.451L14.6541 87.482L19.3071 89.689L19.2861 89.312L19.2191 88.073L19.0861 85.625L17.9541 86.094Z" fill="white"/>
<path d="M14.662 87.4582L14.655 87.4812L14.68 87.4512L14.662 87.4582Z" fill="#E3D6C0"/>
<path d="M9.75904 79.7656L7.31104 80.9876L8.22804 85.6006L9.75904 79.7656Z" fill="#808890"/>
<path d="M9.75897 79.765L6.66797 77.751L7.31097 80.987L9.75897 79.765Z" fill="#475875"/>
<path d="M9.75893 79.7655L7.65393 72.8805L5.98893 71.0215L5.37793 71.2655L6.66793 77.7515L9.75893 79.7655Z" fill="white"/>
<path d="M5.37707 71.2652L5.98907 71.0212L5.14307 70.0752L5.37707 71.2652Z" fill="#A3B1BC"/>
<path d="M12.076 88.5291L13.884 84.0361L8.75 88.2251L9.059 89.7801L9.517 89.5901L12.076 88.5291Z" fill="#98A4B1"/>
<path d="M13.884 84.0376L9.75903 79.7666L8.22803 85.6016L8.75003 88.2246L13.884 84.0376Z" fill="#E1EBF0"/>
<path d="M14.6009 87.4802L14.6619 87.4552L14.6799 87.4472L17.9539 86.0912L13.8839 84.0332L12.0769 88.5302L14.6009 87.4802Z" fill="#B6C1CE"/>
<path d="M9.75903 79.7651L13.884 84.0361L11.931 77.6471L10.712 76.2881L9.75903 79.7651Z" fill="#E5EDF0"/>
<path d="M9.75905 79.7649L10.7121 76.2879L7.65405 72.8799L9.75905 79.7649Z" fill="#EFF7F9"/>
<path d="M13.884 84.0371L17.954 86.0951L19.086 85.6261L15.343 81.4551L13.884 84.0371Z" fill="#75746B"/>
<path d="M13.884 84.0374L15.343 81.4554L11.928 77.6484L13.884 84.0374Z" fill="#F0F7FB"/>
<path d="M57.3191 120.97L57.4491 120.852L57.2871 120.716L57.3191 120.97Z" fill="#F3F6F1"/>
<path d="M57.2429 121.035L57.3159 120.97L57.2829 120.716L57.2429 121.035Z" fill="#E7F0F4"/>
<path d="M57.2871 120.717L57.4501 120.853L58.1051 120.266L57.2871 120.717Z" fill="#ABB9CA"/>
<path d="M56.457 121.41L56.51 121.458L56.642 121.576L57.242 121.035L57.283 120.716L56.457 121.41Z" fill="#A3B1BC"/>
<path d="M55.7329 111.523L57.2859 120.716L58.1049 120.266L62.0049 116.772L55.7329 111.523Z" fill="#808890"/>
<path d="M53.1511 118.446L56.4571 121.41L57.2861 120.716L55.7331 111.523L53.1511 118.446Z" fill="#475875"/>
<path d="M48.709 114.462L49.37 115.055L50.386 115.965L53.151 118.446L55.733 111.522L48.709 114.462Z" fill="#F6FBFB"/>
<path d="M69.824 106.646L69.91 109.686L72.203 107.631L69.824 106.646Z" fill="#7A8694"/>
<path d="M69.8241 106.646L67.7431 105.78L64.5331 111.42L63.5281 115.407L69.9151 109.684L69.8241 106.646Z" fill="#D1DADF"/>
<path d="M64.5281 111.423L67.7381 105.783L65.3691 104.803L64.5281 111.423Z" fill="#E7F0F4"/>
<path d="M64.528 111.422L59.354 105.361L62.581 116.254L63.523 115.41L64.528 111.422Z" fill="#98A4B1"/>
<path d="M59.3539 105.36L55.7329 111.522L62.0039 116.771L62.5809 116.253L59.3539 105.36Z" fill="#E1EBF0"/>
<path d="M64.528 111.422L65.369 104.802L63.915 104.202L64.528 111.422Z" fill="#75746B"/>
<path d="M59.354 105.361L64.528 111.422L63.915 104.2L60.159 102.644L59.354 105.361Z" fill="#B6C1CE"/>
<path d="M52.1121 108.391L55.7331 111.523L59.3541 105.36L52.1121 108.391Z" fill="#E5EDF0"/>
<path d="M52.1121 108.392L48.6011 114.367L48.7091 114.467L55.7331 111.528L52.1121 108.392Z" fill="#808890"/>
<path d="M59.3541 105.361L60.1541 102.644L56.7241 101.223L59.3541 105.361Z" fill="#75746B"/>
<path d="M55.1981 101.785L54.1241 102.23L51.9341 103.138L52.1111 108.392L59.3541 105.361L56.7281 101.224L56.6411 101.188L55.8271 101.525L55.1981 101.785Z" fill="#9DABB9"/>
<path d="M47.113 105.137L44.822 106.086L44.594 106.186L48.262 114.067L48.502 114.282L48.602 114.372L52.112 108.397L47.113 105.137Z" fill="#304350"/>
<path d="M50.9609 103.542L52.1119 108.392L51.9349 103.138L50.9609 103.542Z" fill="#304350"/>
<path d="M50.961 103.541L47.346 105.041L47.113 105.141L52.113 108.396L50.961 103.541Z" fill="#ABB9CA"/>
<path d="M23.9331 87.6333L24.0231 87.6703L24.0281 87.5703L23.9331 87.6333Z" fill="#F3F6F1"/>
<path d="M23.933 87.6329L24.028 87.5719L23.728 87.5479L23.933 87.6329Z" fill="#E7F0F4"/>
<path d="M24.0229 87.6703L24.0899 87.6983L24.0279 87.5723L24.0229 87.6703Z" fill="#EFF7F9"/>
<path d="M19.7151 85.8862L23.1751 87.3192L23.7271 87.5482L24.0271 87.5722L20.5921 81.9902L20.0721 83.2472L19.0891 85.6172V85.6252L19.7151 85.8862Z" fill="#A3B1BC"/>
<path d="M24.786 87.9865L28.243 89.4175L28.543 83.9775L24.033 87.5775L24.094 87.7035L24.786 87.9865Z" fill="#808890"/>
<path d="M28.5429 83.9807L21.5039 79.8047L20.9429 81.1567L20.5969 81.9907L24.0329 87.5727L28.5429 83.9807Z" fill="#475875"/>
<path d="M24.004 73.7587L22.52 77.3387L21.92 78.7917L21.501 79.8017L28.543 83.9807L24.143 73.6807L24.004 73.7587Z" fill="white"/>
<path d="M24.0051 73.7579L24.1361 73.673L24.0591 73.627L24.0051 73.7579Z" fill="#A3B1BC"/>
<path d="M24.0781 73.5801L24.0581 73.6281L24.1351 73.6741L24.1121 73.4971L24.0781 73.5801Z" fill="white"/>
<path d="M31.5491 90.7874L31.7121 90.8554L32.8431 91.3234L33.2701 88.7474L33.2121 88.6094L31.5491 90.7874Z" fill="#98A4B1"/>
<path d="M28.5429 83.9805L28.2429 89.4205L31.5519 90.7905L33.2149 88.6125L33.0589 88.2355L28.5429 83.9805Z" fill="#E1EBF0"/>
<path d="M32.843 91.3231L34.643 92.0701L33.266 88.7471L32.843 91.3231Z" fill="#B6C1CE"/>
<path d="M28.543 83.9806L33.061 88.2356L28.908 78.2256L28.543 83.9806Z" fill="#E5EDF0"/>
<path d="M24.135 73.6719L28.543 83.9799L28.913 78.2279L28.874 78.1339L24.135 73.6719Z" fill="#EFF7F9"/>
<path d="M24.135 73.6724L28.869 78.1314L25.648 70.3594L24.135 73.6724Z" fill="white"/>
<path d="M25.497 70.1562L24.113 73.4952L24.136 73.6722L25.643 70.3592L25.529 70.0832V70.0752L25.497 70.1562Z" fill="#B6C1CE"/>
<path d="M41.092 107.632L42.411 107.085L40.793 106.91L41.092 107.632Z" fill="#EFF7F9"/>
<path d="M38.7671 99.9043L38.4561 101.269L40.7921 106.909L42.4111 107.084L43.2851 106.722L38.7671 99.9043Z" fill="#808890"/>
<path d="M38.0859 100.374L38.1619 100.557L38.4619 101.269L38.7719 99.9043L38.0859 100.374Z" fill="#475875"/>
<path d="M38.0859 100.375L38.7669 99.9047L37.8159 99.7227L38.0859 100.375Z" fill="white"/>
<path d="M55.1981 101.785L55.8271 101.524L54.8521 100.624L55.1981 101.785Z" fill="#E1EBF0"/>
<path d="M54.125 102.23L55.199 101.785L54.853 100.625L54.125 102.23Z" fill="#7A8694"/>
<path d="M54.8521 100.624L55.8281 101.524L56.6421 101.186L55.1421 100.563L54.8521 100.624Z" fill="#C2CBD4"/>
<path d="M47.3429 105.039L50.9579 103.539L51.9319 103.139L54.1219 102.232L54.8489 100.626L47.0559 104.003L47.3429 105.039Z" fill="#EFF7F9"/>
<path d="M44.822 106.085L47.113 105.136L47.346 105.036L47.059 103.998L44.822 106.085Z" fill="white"/>
<path d="M54.8521 100.624L55.1371 100.563L54.6941 100.379L54.8521 100.624Z" fill="#EFF7F9"/>
<path d="M47.0591 104.002L54.8531 100.626L54.6951 100.381L50.9881 98.8438L47.0591 104.002Z" fill="white"/>
<path d="M43.6431 106.572L44.5891 106.18L44.8171 106.08L47.0541 103.996L44.1541 97.665L43.6431 106.572Z" fill="#98A4B1"/>
<path d="M38.7671 99.9039L43.2851 106.722L43.6471 106.572L44.1561 97.6719L38.7671 99.9039Z" fill="#E1EBF0"/>
<path d="M47.0591 104.001L50.9881 98.8429L49.1691 98.0889L47.0591 104.001Z" fill="#75746B"/>
<path d="M44.157 97.6705L47.057 104.001L49.167 98.0895L45.484 96.5635L44.157 97.6705Z" fill="#B6C1CE"/>
<path d="M38.7669 99.9045L44.1559 97.6705L36.3779 96.1855L38.7669 99.9045Z" fill="#E5EDF0"/>
<path d="M37.816 99.7237L38.767 99.9057L36.378 96.1807L36.355 96.1907L37.816 99.7237Z" fill="#EFF7F9"/>
<path d="M44.1571 97.6702L45.4861 96.5632L43.6101 95.7852L44.1571 97.6702Z" fill="#75746B"/>
<path d="M36.3779 96.1854L44.1569 97.6704L43.6099 95.7854L37.6509 93.3154L36.3779 96.1854Z" fill="#F0F7FB"/>
<path d="M36.355 96.1952L36.378 96.1852L36.323 96.1182L36.355 96.1952Z" fill="white"/>
<path d="M36.3779 96.1848L37.6509 93.3148L36.8049 92.9648L36.3779 96.1848Z" fill="#304350"/>
<path d="M36.0251 95.3973L36.2971 96.0543L36.3241 96.1183L36.3781 96.1853L36.8061 92.9643L34.6431 92.0703L36.0251 95.3973Z" fill="#EFF7F9"/>
<path d="M20.7761 106.529L24.4961 106.729L27.2691 106.88L28.2581 104.351L20.1201 104.663L20.2201 106.497L20.7761 106.529Z" fill="#A3B1BC"/>
<path d="M19.585 94.8115L19.629 95.6235L19.783 98.4555L20.061 103.573L20.12 104.665L28.258 104.352L19.585 94.8115Z" fill="white"/>
<path d="M37.6291 107.443L34.6091 105.497L35.7551 107.341L37.6291 107.443Z" fill="#E5EDF0"/>
<path d="M32.6351 107.173L32.1661 107.147L34.1281 108.918L34.0711 107.251L34.7651 107.289L35.7551 107.343L34.6091 105.499L28.2571 104.353L32.6351 107.173Z" fill="#EFF7F9"/>
<path d="M40.7929 106.911L38.4569 101.27L38.1619 100.559L34.6099 105.499L37.6299 107.445L35.7559 107.345L34.7649 107.291L34.1289 108.921L39.9289 110.451L40.1519 109.913L40.3089 109.535L40.5439 108.966L40.6299 108.758L39.9799 107.574L41.0959 107.635L40.7929 106.911Z" fill="#F0F7FB"/>
<path d="M34.6091 105.498L26.0481 93.6689L28.2571 104.352L34.6091 105.498Z" fill="white"/>
<path d="M26.0491 93.6689L19.5271 93.7419L19.5851 94.8119L28.2581 104.352L26.0491 93.6689Z" fill="#B6C1CE"/>
<path d="M34.6091 105.498L38.1611 100.557L38.0861 100.374L37.8161 99.723L36.3551 96.195L36.3231 96.118L36.2961 96.054L35.8541 95.668L34.6091 105.498Z" fill="#304350"/>
<path d="M26.0491 93.6689L34.6101 105.498L35.8551 95.6679L26.0491 93.6689Z" fill="#EFF7F9"/>
<path d="M19.5271 93.7425L26.0491 93.6695L19.2861 89.3125L19.3071 89.6905L19.5271 93.7425Z" fill="#E1EBF0"/>
<path d="M26.0489 93.6689L35.8549 95.6689L22.9939 88.7539L26.0489 93.6689Z" fill="#C6CED0"/>
<path d="M26.049 93.6692L22.994 88.7542L19.219 88.0732L19.286 89.3122L26.049 93.6692Z" fill="#D1DADF"/>
<path d="M19.2189 88.073L22.9939 88.754L19.7149 85.886L19.0859 85.625L19.2189 88.073Z" fill="#B6C1CE"/>
<path d="M35.855 95.6675L36.297 96.0545L36.025 95.3975L35.855 95.6675Z" fill="#D1DADF"/>
<path d="M32.8431 91.3235L31.7131 90.8555L35.8551 95.6685L36.0251 95.3975L34.6431 92.0705L32.8431 91.3235Z" fill="#F0F7FB"/>
<path d="M35.8551 95.6674L31.7131 90.8543L31.5491 90.7874L28.2431 89.4164L24.7891 87.9854L22.9971 88.7543L35.8551 95.6674Z" fill="#9DABB9"/>
<path d="M24.786 87.9863L24.086 87.6983L24.02 87.6703L23.93 87.6333L23.723 87.5483L23.171 87.3193L22.99 88.7543L24.786 87.9863Z" fill="#525A66"/>
<path d="M23.1751 87.3197L19.7151 85.8867L22.9931 88.7547L23.1751 87.3197Z" fill="#EFF7F9"/>
<path d="M105.528 82.3451L105.717 82.3301L105.817 81.8301L105.528 82.3451Z" fill="#444950"/>
<path d="M104.243 89.7391L105.716 82.3301L105.528 82.3451L104.243 89.7391Z" fill="#ABB9CA"/>
<path d="M105.528 82.3457L100.906 88.4007L100.25 88.1297L98.574 89.7237L103.374 90.1607L103.512 89.4827L103.912 89.6487L104.231 89.7807L104.239 89.7397L105.528 82.3457Z" fill="#808890"/>
<path d="M108.036 70.2072L108.122 70.2322L108.154 70.0762L108.036 70.2072Z" fill="#7A8694"/>
<path d="M108.035 70.207L107.987 70.26L105.023 73.566L102.543 76.331L102.961 78.488L105.528 82.345L105.815 81.832L108.122 70.232L108.035 70.207Z" fill="#D1DADF"/>
<path d="M101.633 77.3471L102.962 78.4881L102.544 76.3311L101.633 77.3471Z" fill="#E7F0F4"/>
<path d="M96.303 85.5383L105.528 82.3453L102.962 78.4883L96.303 85.5383Z" fill="#98A4B1"/>
<path d="M96.303 85.5387L96.488 86.5707L97.025 86.7937L98.031 87.2097L98.574 89.7247L100.25 88.1297L100.906 88.4017L105.528 82.3457L96.303 85.5387Z" fill="#E1EBF0"/>
<path d="M101.633 77.3477L101.04 78.0087L100.94 78.1167L100.85 78.2167L102.958 78.4887L101.633 77.3477Z" fill="#75746B"/>
<path d="M100.854 78.2158L100.639 78.4558L92.7581 82.1228L92.8081 82.2448L93.1521 83.0748L93.2581 83.3298L93.5141 83.9468L94.2091 85.6258L95.5301 84.1528L96.3031 85.5378L102.962 78.4878L100.854 78.2158Z" fill="#B6C1CE"/>
<path d="M96.1101 86.4131L96.4881 86.5701L96.3031 85.5381L96.1101 86.4131Z" fill="#E5EDF0"/>
<path d="M95.543 86.18L96.112 86.416L96.305 85.541L95.543 86.18Z" fill="#9DABB9"/>
<path d="M103.377 90.1603L103.918 90.2603L104.235 89.7843L103.916 89.6523L103.377 90.1603Z" fill="#F3F6F1"/>
<path d="M103.759 90.4942L103.918 90.2562L103.377 90.1562L103.759 90.4942Z" fill="#E7F0F4"/>
<path d="M103.377 90.1604L103.916 89.6474L103.516 89.4814L103.377 90.1604Z" fill="#EFF7F9"/>
<path d="M103.292 91.1922L103.759 90.4922L103.377 90.1582L103.292 91.1922Z" fill="#A3B1BC"/>
<path d="M103.377 90.1606L98.5769 89.7236L100.927 94.7406L103.295 91.1926L103.377 90.1606Z" fill="#475875"/>
<path d="M98.574 89.7236L96.541 97.4236L98.858 97.8306L100.924 94.7366L98.574 89.7236Z" fill="white"/>
<path d="M96.543 97.4277L97.611 99.7077L98.861 97.8347L96.543 97.4277Z" fill="#A3B1BC"/>
<path d="M96.5431 97.4277L93.3101 102.222L93.1101 105.942L93.4431 105.954L97.6131 99.7077L96.5431 97.4277Z" fill="white"/>
<path d="M93.075 106.498L93.4389 105.954L93.1059 105.942L93.075 106.498Z" fill="#EFF7F9"/>
<path d="M98.0311 87.209L97.0251 86.792L95.4961 92.592L98.5741 89.726L98.0311 87.209Z" fill="#E5EDF0"/>
<path d="M95.4951 92.5896L96.5431 97.4286L98.5771 89.7236L95.4951 92.5896Z" fill="#EFF7F9"/>
<path d="M94.1489 86.7423L95.3329 86.0913L95.5409 86.1783L96.3029 85.5383L95.5299 84.1533L94.2099 85.6263L94.1489 86.7423Z" fill="#75746B"/>
<path d="M95.495 92.5889L93.724 94.5509L93.75 94.0819L90.929 98.4599L93.458 99.4489L93.508 98.5359L96.543 97.4279L95.495 92.5889Z" fill="white"/>
<path d="M93.5081 98.5357L93.4581 99.4487L93.3081 102.222L96.5431 97.4277L93.5081 98.5357Z" fill="#B6C1CE"/>
<path d="M93.8269 92.6471L95.4949 92.5891L93.8649 91.9521L93.8269 92.6471Z" fill="#304350"/>
<path d="M79.9089 111.992L83.6549 112.786L86.6549 110.786L79.9089 111.992Z" fill="#E1EBF0"/>
<path d="M79.9089 111.992L81.0239 114.542L83.6549 112.786L79.9089 111.992Z" fill="#7A8694"/>
<path d="M91.2431 106.597L90.1511 106.656L90.5221 108.203L93.0761 106.497L91.2431 106.597Z" fill="#C6CED0"/>
<path d="M90.1499 106.656L85.0329 106.934L79.9089 111.992L86.6559 110.782L90.5199 108.202L90.1499 106.656Z" fill="#C2CBD4"/>
<path d="M79.909 111.992L76.168 117.199L76.357 117.657L81.024 114.542L79.909 111.992Z" fill="#EFF7F9"/>
<path d="M82.2011 107.089L74.0601 112.064L79.9091 111.993L85.0331 106.935L82.2011 107.089Z" fill="#EFF7F9"/>
<path d="M74.0601 112.063V112.116L75.1061 114.641L76.1661 117.199L79.9071 111.992L74.0601 112.063Z" fill="white"/>
<path d="M74.0621 112.118V112.065L74.0391 112.057L74.0621 112.118Z" fill="#75746B"/>
<path d="M82.2011 107.088L81.3891 107.132L80.3191 107.19L76.2671 107.41L74.0601 112.063L82.2011 107.088Z" fill="#7A8694"/>
<path d="M72.6721 108.763L74.0291 112.037L74.0601 112.063L76.2671 107.41L75.8901 107.431L74.6511 107.498L72.2031 107.631L72.6721 108.763Z" fill="white"/>
<path d="M74.0361 112.055L74.0591 112.063L74.0281 112.037L74.0361 112.055Z" fill="#E3D6C0"/>
<path d="M66.343 116.958L67.565 119.406L72.178 118.488L66.343 116.958Z" fill="#808890"/>
<path d="M66.3431 116.958L64.3291 120.049L67.5651 119.406L66.3431 116.958Z" fill="#475875"/>
<path d="M66.3429 116.958L59.4549 119.063L57.5979 120.728L57.8429 121.339L64.3289 120.049L66.3429 116.958Z" fill="white"/>
<path d="M56.6531 121.58L57.8431 121.34L57.5991 120.729L56.6531 121.58Z" fill="#A3B1BC"/>
<path d="M75.107 114.641L70.614 112.833L74.801 117.967L76.357 117.658L76.167 117.2L75.107 114.641Z" fill="#98A4B1"/>
<path d="M70.614 112.833L66.343 116.958L72.178 118.489L74.801 117.967L70.614 112.833Z" fill="#E1EBF0"/>
<path d="M74.061 112.118L74.036 112.057L74.028 112.039L72.672 108.765L70.614 112.835L75.107 114.642L74.061 112.118Z" fill="#B6C1CE"/>
<path d="M66.343 116.958L70.614 112.833L64.225 114.786L62.865 116.005L66.343 116.958Z" fill="#E5EDF0"/>
<path d="M66.3431 116.958L62.8651 116.005L59.4551 119.063L66.3431 116.958Z" fill="#EFF7F9"/>
<path d="M70.614 112.833L72.672 108.763L72.203 107.631L68.032 111.371L70.614 112.833Z" fill="#75746B"/>
<path d="M70.6141 112.833L68.0321 111.371L64.2251 114.786L70.6141 112.833Z" fill="#F0F7FB"/>
<path d="M107.293 69.4306L107.547 69.3996L107.43 69.2676L107.293 69.4306Z" fill="#F3F6F1"/>
<path d="M107.293 69.4304L107.613 69.4704L107.547 69.3994L107.293 69.4304Z" fill="#E7F0F4"/>
<path d="M107.293 69.4303L107.43 69.2673L106.843 68.6143L107.293 69.4303Z" fill="#ABB9CA"/>
<path d="M107.988 70.2606L108.036 70.2076L108.154 70.0756L107.613 69.4756L107.293 69.4346L107.988 70.2606Z" fill="#A3B1BC"/>
<path d="M98.1001 70.98L107.293 69.427L106.843 68.609L103.349 64.709L98.1001 70.98Z" fill="#808890"/>
<path d="M105.023 73.5666L107.987 70.2606L107.293 69.4316L98.1001 70.9806L105.023 73.5666Z" fill="#475875"/>
<path d="M101.043 78.0085L101.636 77.3475L102.547 76.3315L105.027 73.5665L98.1011 70.9805L101.043 78.0085Z" fill="#F6FBFB"/>
<path d="M93.2241 56.8936L96.2641 56.8076L94.2091 54.5146L93.2241 56.8936Z" fill="#7A8694"/>
<path d="M93.2241 56.8937L92.3601 58.9807L98.0001 62.1907L101.987 63.1907L96.2641 56.8037L93.2241 56.8937Z" fill="#D1DADF"/>
<path d="M98.0001 62.1895L92.3601 58.9795L91.3801 61.3485L98.0001 62.1895Z" fill="#E7F0F4"/>
<path d="M98.0001 62.1895L91.9431 67.3635L102.836 64.1365L101.992 63.1945L98.0001 62.1895Z" fill="#98A4B1"/>
<path d="M91.9431 67.3628L98.1001 70.9798L103.349 64.7088L102.832 64.1318L91.9431 67.3628Z" fill="#E1EBF0"/>
<path d="M98 62.1896L91.38 61.3486L90.78 62.8036L98 62.1896Z" fill="#75746B"/>
<path d="M91.9431 67.3635L98.0041 62.1895L90.7821 62.8025L89.2261 66.5585L91.9431 67.3635Z" fill="#B6C1CE"/>
<path d="M94.969 74.6054L98.101 70.9804L91.938 67.3594L94.969 74.6054Z" fill="#E5EDF0"/>
<path d="M94.969 74.6055L100.944 78.1165L101.044 78.0085L98.101 70.9805L94.969 74.6055Z" fill="#808890"/>
<path d="M91.9429 67.3635L89.2259 66.5635L87.8049 69.9935L91.9429 67.3635Z" fill="#75746B"/>
<path d="M88.434 71.6913L88.929 72.8853L89.715 74.7853L94.969 74.6083L91.943 67.3633L87.805 69.9893L87.769 70.0763L88.149 70.9913L88.434 71.6913Z" fill="#9DABB9"/>
<path d="M91.7141 79.6045L92.7581 82.1235L100.643 78.4555L100.858 78.2155L100.947 78.1155L94.9731 74.6045L91.7141 79.6045Z" fill="#304350"/>
<path d="M90.1191 75.7565L94.9691 74.6055L89.7151 74.7825L90.1191 75.7565Z" fill="#304350"/>
<path d="M90.1191 75.7565L91.6271 79.3945L91.7141 79.6045L94.9691 74.6045L90.1191 75.7565Z" fill="#ABB9CA"/>
<path d="M74.2109 102.781L74.2479 102.691L74.1479 102.686L74.2109 102.781Z" fill="#F3F6F1"/>
<path d="M74.126 102.991L74.211 102.785L74.149 102.685L74.126 102.991Z" fill="#E7F0F4"/>
<path d="M74.1489 102.688H74.2489L74.2769 102.622L74.1489 102.688Z" fill="#EFF7F9"/>
<path d="M73.8971 103.542L74.1261 102.99L74.1491 102.69L68.5681 106.127L72.2031 107.634L72.4641 107.004L73.8971 103.542Z" fill="#A3B1BC"/>
<path d="M74.5639 101.932L75.9949 98.4807L70.5549 98.1807L74.1489 102.691L74.2759 102.63L74.5639 101.932Z" fill="#808890"/>
<path d="M70.5549 98.1807L66.3789 105.22L68.5679 106.127L74.1499 102.69L70.5549 98.1807Z" fill="#475875"/>
<path d="M70.555 98.1807L60.25 102.581L60.336 102.712L66.379 105.217L70.555 98.1807Z" fill="white"/>
<path d="M60.2041 102.658L60.3351 102.713L60.2501 102.582L60.2041 102.658Z" fill="#A3B1BC"/>
<path d="M60.074 102.604L60.204 102.658L60.25 102.582L60.074 102.604Z" fill="white"/>
<path d="M77.365 95.1683L77.433 95.0053L77.901 93.8743L75.325 93.4473L75.187 93.5053L77.365 95.1683Z" fill="#98A4B1"/>
<path d="M70.5549 98.1798L75.9949 98.4798L77.3649 95.1708L75.1869 93.5078L74.8099 93.6638L70.5549 98.1798Z" fill="#E1EBF0"/>
<path d="M77.9009 93.8742L78.6479 92.0742L75.3259 93.4512L77.9009 93.8742Z" fill="#B6C1CE"/>
<path d="M70.555 98.1801L74.81 93.6621L64.803 97.8091L70.555 98.1801Z" fill="#E5EDF0"/>
<path d="M60.25 102.581L70.55 98.1805L64.798 97.8105L64.704 97.8495L60.25 102.581Z" fill="#EFF7F9"/>
<path d="M60.25 102.581L64.709 97.8467L56.937 101.068L60.25 102.581Z" fill="white"/>
<path d="M60.2501 102.58L56.9371 101.067L56.6531 101.185L60.0731 102.603L60.2501 102.58Z" fill="#B6C1CE"/>
<path d="M93.292 86.0062L94.209 85.6252L93.509 83.9482L93.292 86.0062Z" fill="#EFF7F9"/>
<path d="M86.437 87.8501L87.986 88.2031L93.292 86.0031L93.514 83.9451L93.258 83.3281L86.437 87.8501Z" fill="#808890"/>
<path d="M86.97 88.6246L87.135 88.5566L87.985 88.2036L86.436 87.8516L86.97 88.6246Z" fill="#475875"/>
<path d="M86.23 88.9306L86.97 88.6246L86.436 87.8516L86.23 88.9306Z" fill="white"/>
<path d="M88.434 71.6912L88.144 70.9912L87.144 72.0762L88.434 71.6912Z" fill="#E1EBF0"/>
<path d="M88.9291 72.8854L88.4291 71.6914L87.1431 72.0804L88.9291 72.8854Z" fill="#7A8694"/>
<path d="M88.1431 70.9902L87.764 70.0752L87.071 71.7462L87.1421 72.0752L88.1431 70.9902Z" fill="#C2CBD4"/>
<path d="M91.6271 79.3951L90.1191 75.7571L89.7191 74.7831L88.9331 72.8831L87.1431 72.0801L90.4541 79.7231L91.6271 79.3951Z" fill="#EFF7F9"/>
<path d="M92.8081 82.2455L92.7571 82.1235L91.7141 79.6045L91.6271 79.3945L90.4541 79.7195L92.8081 82.2455Z" fill="white"/>
<path d="M86.8601 72.257L87.1431 72.08L87.0721 71.751L86.8601 72.257Z" fill="#EFF7F9"/>
<path d="M90.4541 79.7191L87.1431 72.0801L86.8601 72.2621L85.3711 75.8521L90.4541 79.7191Z" fill="white"/>
<path d="M93.1519 83.0747L92.8079 82.2457L90.4549 79.7197L84.2429 82.5657L93.1519 83.0747Z" fill="#98A4B1"/>
<path d="M86.4369 87.8504L93.2579 83.3304L93.1519 83.0744L84.2429 82.5654L86.4369 87.8504Z" fill="#E1EBF0"/>
<path d="M90.4539 79.7196L85.3709 75.8486L84.6289 77.6406L90.4539 79.7196Z" fill="#75746B"/>
<path d="M84.243 82.5657L90.452 79.7197L84.627 77.6396L83.136 81.2396L84.243 82.5657Z" fill="#B6C1CE"/>
<path d="M86.4371 87.8504L84.2431 82.5654L82.7861 90.1934L86.4371 87.8504Z" fill="#E5EDF0"/>
<path d="M82.8431 90.3315L86.2271 88.9315L86.4331 87.8525L82.7861 90.1955L82.8431 90.3315Z" fill="#EFF7F9"/>
<path d="M84.243 82.5653L83.143 81.2363L82.365 83.1123L84.243 82.5653Z" fill="#75746B"/>
<path d="M82.789 90.1934L84.243 82.5654L82.359 83.1124L79.946 88.9334L82.789 90.1934Z" fill="#F0F7FB"/>
<path d="M82.3889 90.5204L82.6319 90.4204L82.8429 90.3314L82.7859 90.1934L82.3889 90.5204Z" fill="white"/>
<path d="M82.7891 90.1936L79.9481 88.9336L79.6011 89.7706L82.7891 90.1936Z" fill="#304350"/>
<path d="M78.6431 92.0705L81.9701 90.6925L82.3851 90.5205L82.7851 90.1935L79.5971 89.7705L79.0291 91.1415L78.6431 92.0705Z" fill="#EFF7F9"/>
<path d="M93.105 105.941L93.305 102.221L93.456 99.448L90.927 98.459L91.24 106.597L93.073 106.497L93.105 105.941Z" fill="#A3B1BC"/>
<path d="M81.3889 107.132L82.2009 107.088L85.0329 106.934L90.1499 106.656L91.2419 106.597L90.9289 98.459L81.3889 107.132Z" fill="white"/>
<path d="M94.021 89.0879L92.075 92.1079L93.9189 90.9619L94.021 89.0879Z" fill="#E5EDF0"/>
<path d="M93.7499 94.08L93.7249 94.548L95.4949 92.587L93.8279 92.644L93.8659 91.95L93.9199 90.959L92.0759 92.105L90.9299 98.46L93.7499 94.08Z" fill="#EFF7F9"/>
<path d="M93.292 86.0059L87.986 88.2059L87.135 88.5589L92.076 92.1109L94.021 89.0909L93.921 90.9649L93.867 91.9559L95.497 92.5919L97.026 86.7919L96.489 86.5689L96.111 86.4119L95.543 86.1799L95.335 86.0929L94.151 86.7439L94.212 85.6279L93.292 86.0059Z" fill="#F0F7FB"/>
<path d="M92.0749 92.1084L80.2429 100.669L90.9289 98.4604L92.0749 92.1084Z" fill="white"/>
<path d="M80.2429 100.669L80.3159 107.191L81.3859 107.133L90.9259 98.46L80.2429 100.669Z" fill="#1A242B"/>
<path d="M87.1349 88.5557L86.9699 88.6237L86.2309 88.9307L82.8429 90.3317L82.6289 90.4207L82.2419 90.8627L92.0719 92.1077L87.1349 88.5557Z" fill="#304350"/>
<path d="M82.2429 90.8623L80.2429 100.668L92.0719 92.1073L82.2429 90.8623Z" fill="#EFF7F9"/>
<path d="M80.3189 107.19L80.2459 100.668L75.8889 107.431L76.2669 107.41L80.3189 107.19Z" fill="#E1EBF0"/>
<path d="M80.2431 100.669L82.2431 90.8633L75.3291 103.724L80.2431 100.669Z" fill="#C6CED0"/>
<path d="M80.243 100.669L75.328 103.724L74.647 107.499L75.886 107.432L80.243 100.669Z" fill="#D1DADF"/>
<path d="M74.6511 107.499L75.3321 103.724L72.4641 107.003L72.2031 107.632L74.6511 107.499Z" fill="#B6C1CE"/>
<path d="M82.3891 90.5199L81.9751 90.6919L82.2451 90.8619L82.6321 90.4199L82.3891 90.5199Z" fill="#D1DADF"/>
<path d="M77.9011 93.8744L77.4331 95.0044L82.2431 90.8634L81.9721 90.6934L78.6431 92.0704L77.9011 93.8744Z" fill="#F0F7FB"/>
<path d="M82.243 90.8623L77.43 95.0053L77.363 95.1683L75.994 98.4803L74.564 101.934L75.332 103.726L82.243 90.8623Z" fill="#9DABB9"/>
<path d="M74.564 101.932L74.276 102.632L74.248 102.698L74.211 102.788L74.126 102.995L73.897 103.547L75.332 103.728L74.564 101.932Z" fill="#525A66"/>
<path d="M73.8971 103.542L72.4641 107.002L75.3321 103.724L73.8971 103.542Z" fill="#EFF7F9"/>
<mask id="mask4_1_6411" style="mask-type:luminance" maskUnits="userSpaceOnUse" x="0" y="0" width="117" height="143">
<path d="M116.626 0.280273H0.843018V142.866H116.626V0.280273Z" fill="white"/>
</mask>
<g mask="url(#mask4_1_6411)">
<g style="mix-blend-mode:screen">
<mask id="mask5_1_6411" style="mask-type:luminance" maskUnits="userSpaceOnUse" x="25" y="38" width="63" height="64">
<path d="M87.765 38.9531H25.542V101.176H87.765V38.9531Z" fill="white"/>
</mask>
<g mask="url(#mask5_1_6411)">
<mask id="mask6_1_6411" style="mask-type:luminance" maskUnits="userSpaceOnUse" x="25" y="38" width="63" height="64">
<path d="M87.765 70.0641L78.648 92.0701L56.653 101.18L34.643 92.0701L25.543 70.0641L34.643 48.0691L56.653 38.9531L78.648 48.0691L87.765 70.0641Z" fill="white"/>
</mask>
<g mask="url(#mask6_1_6411)">
<path d="M56.6532 7.84215L-5.57007 70.0654L56.6532 132.289L118.876 70.0654L56.6532 7.84215Z" fill="url(#paint1_linear_1_6411)"/>
</g>
</g>
</g>
<g style="mix-blend-mode:screen">
<mask id="mask7_1_6411" style="mask-type:luminance" maskUnits="userSpaceOnUse" x="28" y="0" width="89" height="61">
<path d="M116.626 0.280273H28.437V60.8663H116.626V0.280273Z" fill="white"/>
</mask>
<g mask="url(#mask7_1_6411)">
<mask id="mask8_1_6411" style="mask-type:luminance" maskUnits="userSpaceOnUse" x="56" y="18" width="21" height="15">
<path d="M76.3581 22.4805L72.2031 32.5085L56.6531 18.5635L76.3581 22.4805Z" fill="white"/>
</mask>
<g mask="url(#mask8_1_6411)">
<path d="M72.8974 11.0664L51.3469 21.0127L60.1132 40.0063L81.6636 30.06L72.8974 11.0664Z" fill="url(#paint2_linear_1_6411)"/>
</g>
<mask id="mask9_1_6411" style="mask-type:luminance" maskUnits="userSpaceOnUse" x="56" y="18" width="21" height="15">
<path d="M76.3581 22.4805L72.2031 32.5085L56.6531 18.5635L76.3581 22.4805Z" fill="white"/>
</mask>
<g mask="url(#mask9_1_6411)">
<mask id="mask10_1_6411" style="mask-type:luminance" maskUnits="userSpaceOnUse" x="68" y="14" width="11" height="9">
<path d="M68.4141 14.973L78.9621 14.957L78.8091 22.907L68.4141 14.973Z" fill="white"/>
</mask>
<g mask="url(#mask10_1_6411)">
<path d="M77.1098 10.9439L65.3889 16.3535L70.2663 26.9213L81.9872 21.5117L77.1098 10.9439Z" fill="url(#paint3_linear_1_6411)"/>
</g>
</g>
<mask id="mask11_1_6411" style="mask-type:luminance" maskUnits="userSpaceOnUse" x="68" y="20" width="1" height="2">
<path d="M68.923 21.1894L68.907 21.0004L68.407 20.9004L68.923 21.1894Z" fill="white"/>
</mask>
<g mask="url(#mask11_1_6411)">
<path d="M68.8332 20.707L68.302 20.9521L68.5011 21.3834L69.0322 21.1383L68.8332 20.707Z" fill="url(#paint4_linear_1_6411)"/>
</g>
<mask id="mask12_1_6411" style="mask-type:luminance" maskUnits="userSpaceOnUse" x="68" y="21" width="9" height="2">
<path d="M68.923 21.189L76.308 22.472L68.908 21L68.923 21.189Z" fill="white"/>
</mask>
<g mask="url(#mask12_1_6411)">
<path d="M75.0086 18.1842L68.3469 21.2588L70.2067 25.2883L76.8684 22.2137L75.0086 18.1842Z" fill="url(#paint5_linear_1_6411)"/>
</g>
<mask id="mask13_1_6411" style="mask-type:luminance" maskUnits="userSpaceOnUse" x="68" y="21" width="9" height="5">
<path d="M74.9781 25.8115L76.3571 22.4805L76.3081 22.4705L68.9231 21.1895L74.9781 25.8115Z" fill="white"/>
</mask>
<g mask="url(#mask13_1_6411)">
<path d="M75.0519 18.3611L67.1641 22.001L70.2278 28.6403L78.1156 25.0004L75.0519 18.3611Z" fill="url(#paint6_linear_1_6411)"/>
</g>
<mask id="mask14_1_6411" style="mask-type:luminance" maskUnits="userSpaceOnUse" x="56" y="18" width="1" height="1">
<path d="M56.7851 18.6805L56.8111 18.5935L56.6531 18.5615L56.7851 18.6805Z" fill="white"/>
</mask>
<g mask="url(#mask14_1_6411)">
<path d="M56.7832 18.5031L56.6079 18.584L56.6808 18.742L56.8561 18.6611L56.7832 18.5031Z" fill="url(#paint7_linear_1_6411)"/>
</g>
<mask id="mask15_1_6411" style="mask-type:luminance" maskUnits="userSpaceOnUse" x="56" y="18" width="10" height="7">
<path d="M56.7849 18.6807L62.9089 24.1727L65.0649 23.7537L61.6119 19.5507L56.8119 18.5957L56.7849 18.6807Z" fill="white"/>
</mask>
<g mask="url(#mask15_1_6411)">
<path d="M63.611 15.445L54.6621 19.5752L58.2388 27.3246L67.1876 23.1944L63.611 15.445Z" fill="url(#paint8_linear_1_6411)"/>
</g>
<mask id="mask16_1_6411" style="mask-type:luminance" maskUnits="userSpaceOnUse" x="61" y="19" width="8" height="5">
<path d="M65.0651 23.7548L68.9231 21.1888L68.4111 20.9018L61.6111 19.5498L65.0651 23.7548Z" fill="white"/>
</mask>
<g mask="url(#mask16_1_6411)">
<path d="M67.6388 16.768L60.012 20.2881L62.8959 26.5367L70.5228 23.0166L67.6388 16.768Z" fill="url(#paint9_linear_1_6411)"/>
</g>
<mask id="mask17_1_6411" style="mask-type:luminance" maskUnits="userSpaceOnUse" x="62" y="23" width="4" height="3">
<path d="M62.9089 24.1739L63.9249 25.0839L65.0649 23.7549L62.9089 24.1739Z" fill="white"/>
</mask>
<g mask="url(#mask17_1_6411)">
<path d="M64.6857 22.9348L62.4031 23.9883L63.2873 25.9041L65.5699 24.8506L64.6857 22.9348Z" fill="url(#paint10_linear_1_6411)"/>
</g>
<mask id="mask18_1_6411" style="mask-type:luminance" maskUnits="userSpaceOnUse" x="65" y="21" width="8" height="10">
<path d="M65.0649 23.7555L72.1159 30.4155L68.9229 21.1895L65.0649 23.7555Z" fill="white"/>
</mask>
<g mask="url(#mask18_1_6411)">
<path d="M70.8779 18.5067L61.5549 22.8096L66.3037 33.0986L75.6266 28.7957L70.8779 18.5067Z" fill="url(#paint11_linear_1_6411)"/>
</g>
<mask id="mask19_1_6411" style="mask-type:luminance" maskUnits="userSpaceOnUse" x="68" y="21" width="7" height="10">
<path d="M72.1161 30.4155L73.1431 30.2305L74.9741 25.8115L68.9231 21.1895L72.1161 30.4155Z" fill="white"/>
</mask>
<g mask="url(#mask19_1_6411)">
<path d="M73.9156 18.8861L65.4131 22.8096L69.9861 32.7195L78.4886 28.796L73.9156 18.8861Z" fill="url(#paint12_linear_1_6411)"/>
</g>
<mask id="mask20_1_6411" style="mask-type:luminance" maskUnits="userSpaceOnUse" x="63" y="23" width="3" height="3">
<path d="M63.925 25.08L64.793 25.859L65.065 23.751L63.925 25.08Z" fill="white"/>
</mask>
<g mask="url(#mask20_1_6411)">
<path d="M64.8645 23.3213L63.123 24.125L64.1254 26.2968L65.8669 25.4931L64.8645 23.3213Z" fill="url(#paint13_linear_1_6411)"/>
</g>
<mask id="mask21_1_6411" style="mask-type:luminance" maskUnits="userSpaceOnUse" x="64" y="23" width="9" height="9">
<path d="M64.793 25.8629L70.731 31.1879L72.116 30.4149L65.065 23.7549L64.793 25.8629Z" fill="white"/>
</mask>
<g mask="url(#mask21_1_6411)">
<path d="M70.8308 20.9694L61.9651 25.0605L66.0788 33.9753L74.9445 29.8842L70.8308 20.9694Z" fill="url(#paint14_linear_1_6411)"/>
</g>
<mask id="mask22_1_6411" style="mask-type:luminance" maskUnits="userSpaceOnUse" x="72" y="30" width="2" height="1">
<path d="M72.116 30.4155L72.99 30.6085L73.147 30.2305L72.116 30.4155Z" fill="white"/>
</mask>
<g mask="url(#mask22_1_6411)">
<path d="M72.9661 29.837L71.9719 30.2959L72.2967 30.9996L73.2909 30.5407L72.9661 29.837Z" fill="url(#paint15_linear_1_6411)"/>
</g>
<mask id="mask23_1_6411" style="mask-type:luminance" maskUnits="userSpaceOnUse" x="70" y="30" width="3" height="3">
<path d="M70.731 31.188L72.203 32.508L72.755 31.176L72.116 30.415L70.731 31.188Z" fill="white"/>
</mask>
<g mask="url(#mask23_1_6411)">
<path d="M72.4003 29.6456L69.9351 30.7832L71.0869 33.2793L73.5521 32.1417L72.4003 29.6456Z" fill="url(#paint16_linear_1_6411)"/>
</g>
<mask id="mask24_1_6411" style="mask-type:luminance" maskUnits="userSpaceOnUse" x="72" y="30" width="1" height="2">
<path d="M72.755 31.1799L72.99 30.6119L72.116 30.4189L72.755 31.1799Z" fill="white"/>
</mask>
<g mask="url(#mask24_1_6411)">
<path d="M72.8356 30.0829L71.8259 30.5488L72.2688 31.5086L73.2785 31.0427L72.8356 30.0829Z" fill="url(#paint17_linear_1_6411)"/>
</g>
</g>
</g>
<g style="mix-blend-mode:screen">
<mask id="mask25_1_6411" style="mask-type:luminance" maskUnits="userSpaceOnUse" x="72" y="32" width="23" height="23">
<path d="M94.2091 32.5078H72.2031V54.5138H94.2091V32.5078Z" fill="white"/>
</mask>
<g mask="url(#mask25_1_6411)">
<mask id="mask26_1_6411" style="mask-type:luminance" maskUnits="userSpaceOnUse" x="72" y="32" width="23" height="23">
<path d="M94.2091 54.5138L78.6481 48.0688L72.2031 32.5078L93.0751 33.6418L94.2091 54.5138Z" fill="white"/>
</mask>
<g mask="url(#mask26_1_6411)">
<path d="M73.2835 27.7525L67.447 53.4336L93.1281 59.2701L98.9646 33.589L73.2835 27.7525Z" fill="url(#paint18_linear_1_6411)"/>
</g>
</g>
</g>
<g style="mix-blend-mode:screen">
<mask id="mask27_1_6411" style="mask-type:luminance" maskUnits="userSpaceOnUse" x="30" y="7" width="48" height="56">
<path d="M77.7341 7.2002H30.6611V62.3582H77.7341V7.2002Z" fill="white"/>
</mask>
<g mask="url(#mask27_1_6411)">
<mask id="mask28_1_6411" style="mask-type:luminance" maskUnits="userSpaceOnUse" x="41" y="18" width="32" height="21">
<path d="M72.203 32.5085L56.653 38.9535L41.092 32.5085L56.653 18.5635L72.203 32.5085Z" fill="white"/>
</mask>
<g mask="url(#mask28_1_6411)">
<path d="M48.2602 5.47086L32.5061 34.2549L65.0253 52.0533L80.7793 23.2693L48.2602 5.47086Z" fill="url(#paint19_linear_1_6411)"/>
</g>
<mask id="mask29_1_6411" style="mask-type:luminance" maskUnits="userSpaceOnUse" x="55" y="19" width="2" height="1">
<path d="M55.843 19.2869L56.006 19.4239L55.974 19.1699L55.843 19.2869Z" fill="white"/>
</mask>
<g mask="url(#mask29_1_6411)">
<path d="M55.8826 19.1012L55.738 19.3652L55.9705 19.4925L56.115 19.2284L55.8826 19.1012Z" fill="url(#paint20_linear_1_6411)"/>
</g>
<mask id="mask30_1_6411" style="mask-type:luminance" maskUnits="userSpaceOnUse" x="55" y="19" width="2" height="1">
<path d="M55.9761 19.1705L56.0081 19.4245L56.0491 19.1045L55.9761 19.1705Z" fill="white"/>
</mask>
<g mask="url(#mask30_1_6411)">
<path d="M55.9928 19.0734L55.8411 19.3506L56.0323 19.4552L56.184 19.178L55.9928 19.0734Z" fill="url(#paint21_linear_1_6411)"/>
</g>
<mask id="mask31_1_6411" style="mask-type:luminance" maskUnits="userSpaceOnUse" x="41" y="18" width="32" height="21">
<path d="M72.203 32.5085L56.653 38.9535L41.092 32.5085L56.653 18.5635L72.203 32.5085Z" fill="white"/>
</mask>
<g mask="url(#mask31_1_6411)">
<mask id="mask32_1_6411" style="mask-type:luminance" maskUnits="userSpaceOnUse" x="43" y="13" width="8" height="10">
<path d="M43.0781 19.5253L48.7671 13.3623L50.3201 22.5553L43.0781 19.5253Z" fill="white"/>
</mask>
<g mask="url(#mask32_1_6411)">
<path d="M44.7468 10.313L39.207 20.4375L48.6516 25.6053L54.1914 15.4808L44.7468 10.313Z" fill="url(#paint22_linear_1_6411)"/>
</g>
</g>
<mask id="mask33_1_6411" style="mask-type:luminance" maskUnits="userSpaceOnUse" x="55" y="19" width="2" height="1">
<path d="M55.1899 19.8801L56.0079 19.4291L55.8429 19.2871L55.1899 19.8801Z" fill="white"/>
</mask>
<g mask="url(#mask33_1_6411)">
<path d="M55.3777 18.9437L54.9419 19.7402L55.8192 20.2202L56.255 19.4237L55.3777 18.9437Z" fill="url(#paint23_linear_1_6411)"/>
</g>
<mask id="mask34_1_6411" style="mask-type:luminance" maskUnits="userSpaceOnUse" x="56" y="18" width="1" height="2">
<path d="M56.0491 19.1045L56.0081 19.4245L56.8381 18.7295L56.6531 18.5635L56.0491 19.1045Z" fill="white"/>
</mask>
<g mask="url(#mask34_1_6411)">
<path d="M56.1991 18.2143L55.645 19.2266L56.6459 19.7744L57.2 18.7621L56.1991 18.2143Z" fill="url(#paint24_linear_1_6411)"/>
</g>
<mask id="mask35_1_6411" style="mask-type:luminance" maskUnits="userSpaceOnUse" x="51" y="19" width="7" height="10">
<path d="M55.19 19.8807L51.29 23.3747L57.561 28.6217L56.007 19.4297L55.19 19.8807Z" fill="white"/>
</mask>
<g mask="url(#mask35_1_6411)">
<path d="M52.7355 16.7832L47.4199 26.498L56.1171 31.2569L61.4327 21.542L52.7355 16.7832Z" fill="url(#paint25_linear_1_6411)"/>
</g>
<mask id="mask36_1_6411" style="mask-type:luminance" maskUnits="userSpaceOnUse" x="56" y="18" width="5" height="11">
<path d="M56.0081 19.4245L57.5621 28.6165L60.1431 21.6945L56.8371 18.7295L56.0081 19.4245Z" fill="white"/>
</mask>
<g mask="url(#mask36_1_6411)">
<path d="M56.9613 16.9899L51.845 26.3379L59.189 30.3574L64.3053 21.0095L56.9613 16.9899Z" fill="url(#paint26_linear_1_6411)"/>
</g>
<mask id="mask37_1_6411" style="mask-type:luminance" maskUnits="userSpaceOnUse" x="57" y="21" width="8" height="8">
<path d="M57.562 28.6163L64.586 25.6803L60.143 21.6943L57.562 28.6163Z" fill="white"/>
</mask>
<g mask="url(#mask37_1_6411)">
<path d="M59.1802 18.7366L54.647 27.0215L62.9678 31.5744L67.501 23.2895L59.1802 18.7366Z" fill="url(#paint27_linear_1_6411)"/>
</g>
<mask id="mask38_1_6411" style="mask-type:luminance" maskUnits="userSpaceOnUse" x="41" y="18" width="32" height="21">
<path d="M72.203 32.5085L56.653 38.9535L41.092 32.5085L56.653 18.5635L72.203 32.5085Z" fill="white"/>
</mask>
<g mask="url(#mask38_1_6411)">
<mask id="mask39_1_6411" style="mask-type:luminance" maskUnits="userSpaceOnUse" x="63" y="10" width="8" height="16">
<path d="M63.251 13.362L64.804 25.586L70.493 10.332L63.251 13.362Z" fill="white"/>
</mask>
<g mask="url(#mask39_1_6411)">
<path d="M64.92 7.28682L56.8281 22.0713L68.8211 28.6353L76.9129 13.8508L64.92 7.28682Z" fill="url(#paint28_linear_1_6411)"/>
</g>
</g>
<mask id="mask40_1_6411" style="mask-type:luminance" maskUnits="userSpaceOnUse" x="41" y="18" width="32" height="21">
<path d="M72.203 32.5085L56.653 38.9535L41.092 32.5085L56.653 18.5635L72.203 32.5085Z" fill="white"/>
</mask>
<g mask="url(#mask40_1_6411)">
<mask id="mask41_1_6411" style="mask-type:luminance" maskUnits="userSpaceOnUse" x="64" y="10" width="11" height="19">
<path d="M64.804 25.586L70.493 10.332L74.114 28.617L64.804 25.586Z" fill="white"/>
</mask>
<g mask="url(#mask41_1_6411)">
<path d="M66.949 6.41162L57.104 24.4043L71.9684 32.5376L81.8133 14.5449L66.949 6.41162Z" fill="url(#paint29_linear_1_6411)"/>
</g>
</g>
<mask id="mask42_1_6411" style="mask-type:luminance" maskUnits="userSpaceOnUse" x="41" y="18" width="32" height="21">
<path d="M72.203 32.5085L56.653 38.9535L41.092 32.5085L56.653 18.5635L72.203 32.5085Z" fill="white"/>
</mask>
<g mask="url(#mask42_1_6411)">
<mask id="mask43_1_6411" style="mask-type:luminance" maskUnits="userSpaceOnUse" x="70" y="10" width="8" height="19">
<path d="M70.4929 10.332L74.1139 28.617L77.7349 13.362L70.4929 10.332Z" fill="white"/>
</mask>
<g mask="url(#mask43_1_6411)">
<path d="M72.1611 7.28789L62.793 24.4043L76.062 31.6667L85.4301 14.5503L72.1611 7.28789Z" fill="url(#paint30_linear_1_6411)"/>
</g>
</g>
<mask id="mask44_1_6411" style="mask-type:luminance" maskUnits="userSpaceOnUse" x="41" y="18" width="32" height="21">
<path d="M72.203 32.5085L56.653 38.9535L41.092 32.5085L56.653 18.5635L72.203 32.5085Z" fill="white"/>
</mask>
<g mask="url(#mask44_1_6411)">
<mask id="mask45_1_6411" style="mask-type:luminance" maskUnits="userSpaceOnUse" x="33" y="22" width="11" height="16">
<path d="M36.3501 34.7807L33.7681 22.5557L43.5921 37.8107L36.3501 34.7807Z" fill="white"/>
</mask>
<g mask="url(#mask45_1_6411)">
<path d="M36.0312 18.4182L27.344 34.2949L41.3285 41.9467L50.0157 26.07L36.0312 18.4182Z" fill="url(#paint31_linear_1_6411)"/>
</g>
</g>
<mask id="mask46_1_6411" style="mask-type:luminance" maskUnits="userSpaceOnUse" x="41" y="30" width="3" height="4">
<path d="M41.092 32.5081L43.471 33.4931L43.385 30.4531L41.092 32.5081Z" fill="white"/>
</mask>
<g mask="url(#mask46_1_6411)">
<path d="M41.6404 29.4515L39.812 32.793L42.9228 34.4951L44.7511 31.1536L41.6404 29.4515Z" fill="url(#paint32_linear_1_6411)"/>
</g>
<mask id="mask47_1_6411" style="mask-type:luminance" maskUnits="userSpaceOnUse" x="41" y="18" width="32" height="21">
<path d="M72.203 32.5085L56.653 38.9535L41.092 32.5085L56.653 18.5635L72.203 32.5085Z" fill="white"/>
</mask>
<g mask="url(#mask47_1_6411)">
<mask id="mask48_1_6411" style="mask-type:luminance" maskUnits="userSpaceOnUse" x="35" y="34" width="9" height="14">
<path d="M36.3499 34.7803L35.8359 47.0043L43.5919 37.8113L36.3499 34.7803Z" fill="white"/>
</mask>
<g mask="url(#mask48_1_6411)">
<path d="M37.6237 31.5127L30.689 44.1865L41.8056 50.2692L48.7403 37.5954L37.6237 31.5127Z" fill="url(#paint33_linear_1_6411)"/>
</g>
</g>
<mask id="mask49_1_6411" style="mask-type:luminance" maskUnits="userSpaceOnUse" x="43" y="26" width="6" height="9">
<path d="M43.385 30.4534L43.471 33.4934L45.557 34.3574L48.766 28.7184L47.537 26.7324L43.385 30.4534Z" fill="white"/>
</mask>
<g mask="url(#mask49_1_6411)">
<path d="M44.6247 24.4666L40.1741 32.6006L47.5264 36.6235L51.9771 28.4896L44.6247 24.4666Z" fill="url(#paint34_linear_1_6411)"/>
</g>
<mask id="mask50_1_6411" style="mask-type:luminance" maskUnits="userSpaceOnUse" x="47" y="24" width="3" height="5">
<path d="M47.5371 26.7325L48.7661 28.7185L49.7721 24.7305L47.5371 26.7325Z" fill="white"/>
</mask>
<g mask="url(#mask50_1_6411)">
<path d="M48.052 23.7889L45.8579 27.7988L49.2573 29.6589L51.4514 25.6489L48.052 23.7889Z" fill="url(#paint35_linear_1_6411)"/>
</g>
<mask id="mask51_1_6411" style="mask-type:luminance" maskUnits="userSpaceOnUse" x="45" y="28" width="4" height="8">
<path d="M45.5571 34.3577L47.9251 35.3387L48.7661 28.7188L45.5571 34.3577Z" fill="white"/>
</mask>
<g mask="url(#mask51_1_6411)">
<path d="M46.2962 27.3673L42.769 33.8135L48.0265 36.6902L51.5536 30.244L46.2962 27.3673Z" fill="url(#paint36_linear_1_6411)"/>
</g>
<mask id="mask52_1_6411" style="mask-type:luminance" maskUnits="userSpaceOnUse" x="48" y="23" width="6" height="12">
<path d="M49.7721 24.7307L48.7661 28.7187L53.9431 34.7807L50.7141 23.8867L49.7721 24.7307Z" fill="white"/>
</mask>
<g mask="url(#mask52_1_6411)">
<path d="M49.9582 21.7105L44.179 32.2695L52.7464 36.9587L58.5256 26.3996L49.9582 21.7105Z" fill="url(#paint37_linear_1_6411)"/>
</g>
<mask id="mask53_1_6411" style="mask-type:luminance" maskUnits="userSpaceOnUse" x="50" y="23" width="8" height="12">
<path d="M50.7141 23.8861L53.9431 34.7801L57.5641 28.6171L51.2931 23.3701L50.7141 23.8861Z" fill="white"/>
</mask>
<g mask="url(#mask53_1_6411)">
<path d="M52.2915 20.4889L45.9089 32.1504L55.9804 37.6627L62.363 26.0012L52.2915 20.4889Z" fill="url(#paint38_linear_1_6411)"/>
</g>
<mask id="mask54_1_6411" style="mask-type:luminance" maskUnits="userSpaceOnUse" x="47" y="28" width="3" height="8">
<path d="M47.925 35.3378L49.38 35.9378L48.766 28.7148L47.925 35.3378Z" fill="white"/>
</mask>
<g mask="url(#mask54_1_6411)">
<path d="M48.2599 28.1058L44.8831 34.2773L49.0448 36.5545L52.4217 30.383L48.2599 28.1058Z" fill="url(#paint39_linear_1_6411)"/>
</g>
<mask id="mask55_1_6411" style="mask-type:luminance" maskUnits="userSpaceOnUse" x="48" y="28" width="6" height="10">
<path d="M49.3801 35.9417L53.1361 37.4967L53.9431 34.7807L48.7681 28.7197L49.3801 35.9417Z" fill="white"/>
</mask>
<g mask="url(#mask55_1_6411)">
<path d="M49.959 26.5387L45.0701 35.4736L52.7488 39.6752L57.6376 30.7402L49.959 26.5387Z" fill="url(#paint40_linear_1_6411)"/>
</g>
<mask id="mask56_1_6411" style="mask-type:luminance" maskUnits="userSpaceOnUse" x="53" y="28" width="9" height="7">
<path d="M53.9431 34.7802L61.1851 31.7492L57.5641 28.6172L53.9431 34.7802Z" fill="white"/>
</mask>
<g mask="url(#mask56_1_6411)">
<path d="M55.6098 25.569L51.3459 33.3594L59.5117 37.8287L63.7755 30.0383L55.6098 25.569Z" fill="url(#paint41_linear_1_6411)"/>
</g>
<mask id="mask57_1_6411" style="mask-type:luminance" maskUnits="userSpaceOnUse" x="57" y="25" width="8" height="7">
<path d="M57.562 28.6158L61.183 31.7478L64.694 25.7738L64.586 25.6738L57.562 28.6158Z" fill="white"/>
</mask>
<g mask="url(#mask57_1_6411)">
<path d="M59.2056 22.6767L55.0061 30.3496L63.0491 34.7517L67.2486 27.0788L59.2056 22.6767Z" fill="url(#paint42_linear_1_6411)"/>
</g>
<mask id="mask58_1_6411" style="mask-type:luminance" maskUnits="userSpaceOnUse" x="53" y="34" width="4" height="5">
<path d="M53.136 37.4963L56.567 38.9173L53.943 34.7803L53.136 37.4963Z" fill="white"/>
</mask>
<g mask="url(#mask58_1_6411)">
<path d="M53.926 33.3359L51.3931 37.9639L55.7746 40.3619L58.3075 35.734L53.926 33.3359Z" fill="url(#paint43_linear_1_6411)"/>
</g>
<mask id="mask59_1_6411" style="mask-type:luminance" maskUnits="userSpaceOnUse" x="53" y="31" width="9" height="8">
<path d="M53.9431 34.78L56.5691 38.918L56.6551 38.954L61.3621 37.003L61.1851 31.749L53.9431 34.78Z" fill="white"/>
</mask>
<g mask="url(#mask59_1_6411)">
<path d="M55.6504 28.6239L50.907 37.293L59.6507 42.0772L64.3941 33.4081L55.6504 28.6239Z" fill="url(#paint44_linear_1_6411)"/>
</g>
<mask id="mask60_1_6411" style="mask-type:luminance" maskUnits="userSpaceOnUse" x="61" y="25" width="8" height="11">
<path d="M61.1831 31.7484L66.1831 35.0034L68.7021 33.9594L65.0331 26.0804L64.6941 25.7754L61.1831 31.7484Z" fill="white"/>
</mask>
<g mask="url(#mask60_1_6411)">
<path d="M62.9155 22.6117L57.2971 32.877L66.966 38.169L72.5844 27.9037L62.9155 22.6117Z" fill="url(#paint45_linear_1_6411)"/>
</g>
<mask id="mask61_1_6411" style="mask-type:luminance" maskUnits="userSpaceOnUse" x="65" y="26" width="8" height="8">
<path d="M68.701 33.9591L72.201 32.5081L65.033 26.0801L68.701 33.9591Z" fill="white"/>
</mask>
<g mask="url(#mask61_1_6411)">
<path d="M66.6855 23.0622L61.7151 32.1436L70.5482 36.9781L75.5186 27.8968L66.6855 23.0622Z" fill="url(#paint46_linear_1_6411)"/>
</g>
<mask id="mask62_1_6411" style="mask-type:luminance" maskUnits="userSpaceOnUse" x="61" y="31" width="2" height="7">
<path d="M61.3601 37.002L62.3341 36.602L61.1831 31.752L61.3601 37.002Z" fill="white"/>
</mask>
<g mask="url(#mask62_1_6411)">
<path d="M61.4488 31.2626L58.9709 35.791L62.0694 37.4864L64.5472 32.958L61.4488 31.2626Z" fill="url(#paint47_linear_1_6411)"/>
</g>
<mask id="mask63_1_6411" style="mask-type:luminance" maskUnits="userSpaceOnUse" x="61" y="31" width="6" height="6">
<path d="M62.3341 36.5982L66.1821 34.9982L61.1821 31.7432L62.3341 36.5982Z" fill="white"/>
</mask>
<g mask="url(#mask63_1_6411)">
<path d="M62.3351 29.6441L59.1411 35.4814L65.0302 38.7037L68.2242 32.8664L62.3351 29.6441Z" fill="url(#paint48_linear_1_6411)"/>
</g>
<mask id="mask64_1_6411" style="mask-type:luminance" maskUnits="userSpaceOnUse" x="41" y="18" width="32" height="21">
<path d="M72.203 32.5085L56.653 38.9535L41.092 32.5085L56.653 18.5635L72.203 32.5085Z" fill="white"/>
</mask>
<g mask="url(#mask64_1_6411)">
<mask id="mask65_1_6411" style="mask-type:luminance" maskUnits="userSpaceOnUse" x="70" y="28" width="8" height="10">
<path d="M70.4929 37.8102L74.1139 28.6172L77.7349 34.7802L70.4929 37.8102Z" fill="white"/>
</mask>
<g mask="url(#mask65_1_6411)">
<path d="M72.1619 25.5679L66.6221 35.6924L76.0667 40.8602L81.6065 30.7357L72.1619 25.5679Z" fill="url(#paint49_linear_1_6411)"/>
</g>
</g>
<mask id="mask66_1_6411" style="mask-type:luminance" maskUnits="userSpaceOnUse" x="41" y="18" width="32" height="21">
<path d="M72.203 32.5085L56.653 38.9535L41.092 32.5085L56.653 18.5635L72.203 32.5085Z" fill="white"/>
</mask>
<g mask="url(#mask66_1_6411)">
<mask id="mask67_1_6411" style="mask-type:luminance" maskUnits="userSpaceOnUse" x="64" y="37" width="11" height="11">
<path d="M64.804 47.0035L70.493 37.8105L74.114 40.9415L64.804 47.0035Z" fill="white"/>
</mask>
<g mask="url(#mask67_1_6411)">
<path d="M66.9495 33.8901L60.9331 44.8857L71.9691 50.9243L77.9855 39.9286L66.9495 33.8901Z" fill="url(#paint50_linear_1_6411)"/>
</g>
</g>
<mask id="mask68_1_6411" style="mask-type:luminance" maskUnits="userSpaceOnUse" x="41" y="18" width="32" height="21">
<path d="M72.203 32.5085L56.653 38.9535L41.092 32.5085L56.653 18.5635L72.203 32.5085Z" fill="white"/>
</mask>
<g mask="url(#mask68_1_6411)">
<mask id="mask69_1_6411" style="mask-type:luminance" maskUnits="userSpaceOnUse" x="70" y="34" width="8" height="7">
<path d="M70.4929 37.8103L74.1139 40.9413L77.7349 34.7803L70.4929 37.8103Z" fill="white"/>
</mask>
<g mask="url(#mask69_1_6411)">
<path d="M72.1613 31.732L67.8979 39.5215L76.0637 43.9908L80.3271 36.2013L72.1613 31.732Z" fill="url(#paint51_linear_1_6411)"/>
</g>
</g>
</g>
</g>
</g>
</g>
<defs>
<radialGradient id="paint0_radial_1_6411" cx="0" cy="0" r="1" gradientUnits="userSpaceOnUse" gradientTransform="translate(10.9436 122.026) scale(55.816 10.0986)">
<stop stop-color="#F9FAFB"/>
<stop offset="0.147" stop-color="#DEE5EC"/>
<stop offset="0.247" stop-color="#D2DCE6"/>
<stop offset="0.268" stop-color="#D4DDE7"/>
<stop offset="0.527" stop-color="#EBF0F4"/>
<stop offset="0.768" stop-color="#FAFBFC"/>
<stop offset="0.973" stop-color="white"/>
<stop offset="1" stop-color="white"/>
</radialGradient>
<linearGradient id="paint1_linear_1_6411" x1="68.6623" y1="160.974" x2="69.3468" y2="160.289" gradientUnits="userSpaceOnUse">
<stop stop-color="white"/>
<stop offset="1" stop-color="#231F20"/>
</linearGradient>
<linearGradient id="paint2_linear_1_6411" x1="56.1016" y1="159.659" x2="57.0067" y2="159.241" gradientUnits="userSpaceOnUse">
<stop stop-color="white"/>
<stop offset="1" stop-color="#231F20"/>
</linearGradient>
<linearGradient id="paint3_linear_1_6411" x1="59.4866" y1="161.995" x2="60.3891" y2="161.578" gradientUnits="userSpaceOnUse">
<stop stop-color="white"/>
<stop offset="1" stop-color="#231F20"/>
</linearGradient>
<linearGradient id="paint4_linear_1_6411" x1="58.3361" y1="160.468" x2="59.2438" y2="160.049" gradientUnits="userSpaceOnUse">
<stop stop-color="white"/>
<stop offset="1" stop-color="#231F20"/>
</linearGradient>
<linearGradient id="paint5_linear_1_6411" x1="58.289" y1="161.979" x2="59.2016" y2="161.558" gradientUnits="userSpaceOnUse">
<stop stop-color="white"/>
<stop offset="1" stop-color="#231F20"/>
</linearGradient>
<linearGradient id="paint6_linear_1_6411" x1="57.3768" y1="161.785" x2="58.2839" y2="161.366" gradientUnits="userSpaceOnUse">
<stop stop-color="white"/>
<stop offset="1" stop-color="#231F20"/>
</linearGradient>
<linearGradient id="paint7_linear_1_6411" x1="58.1963" y1="154.969" x2="59.1027" y2="154.551" gradientUnits="userSpaceOnUse">
<stop stop-color="white"/>
<stop offset="1" stop-color="#231F20"/>
</linearGradient>
<linearGradient id="paint8_linear_1_6411" x1="57.3434" y1="157" x2="58.2472" y2="156.583" gradientUnits="userSpaceOnUse">
<stop stop-color="white"/>
<stop offset="1" stop-color="#231F20"/>
</linearGradient>
<linearGradient id="paint9_linear_1_6411" x1="57.7247" y1="159.035" x2="58.6323" y2="158.616" gradientUnits="userSpaceOnUse">
<stop stop-color="white"/>
<stop offset="1" stop-color="#231F20"/>
</linearGradient>
<linearGradient id="paint10_linear_1_6411" x1="56.2873" y1="158.39" x2="57.1958" y2="157.97" gradientUnits="userSpaceOnUse">
<stop stop-color="white"/>
<stop offset="1" stop-color="#231F20"/>
</linearGradient>
<linearGradient id="paint11_linear_1_6411" x1="56.104" y1="160.417" x2="57.0177" y2="159.995" gradientUnits="userSpaceOnUse">
<stop stop-color="white"/>
<stop offset="1" stop-color="#231F20"/>
</linearGradient>
<linearGradient id="paint12_linear_1_6411" x1="56.4187" y1="161.862" x2="57.3284" y2="161.442" gradientUnits="userSpaceOnUse">
<stop stop-color="white"/>
<stop offset="1" stop-color="#231F20"/>
</linearGradient>
<linearGradient id="paint13_linear_1_6411" x1="56.024" y1="158.314" x2="56.9313" y2="157.895" gradientUnits="userSpaceOnUse">
<stop stop-color="white"/>
<stop offset="1" stop-color="#231F20"/>
</linearGradient>
<linearGradient id="paint14_linear_1_6411" x1="55.4086" y1="160.578" x2="56.3217" y2="160.157" gradientUnits="userSpaceOnUse">
<stop stop-color="white"/>
<stop offset="1" stop-color="#231F20"/>
</linearGradient>
<linearGradient id="paint15_linear_1_6411" x1="54.3803" y1="162.259" x2="55.288" y2="161.84" gradientUnits="userSpaceOnUse">
<stop stop-color="white"/>
<stop offset="1" stop-color="#231F20"/>
</linearGradient>
<linearGradient id="paint16_linear_1_6411" x1="53.7784" y1="161.759" x2="54.6856" y2="161.341" gradientUnits="userSpaceOnUse">
<stop stop-color="white"/>
<stop offset="1" stop-color="#231F20"/>
</linearGradient>
<linearGradient id="paint17_linear_1_6411" x1="54.1341" y1="161.962" x2="55.0418" y2="161.543" gradientUnits="userSpaceOnUse">
<stop stop-color="white"/>
<stop offset="1" stop-color="#231F20"/>
</linearGradient>
<linearGradient id="paint18_linear_1_6411" x1="161.747" y1="145.814" x2="161.969" y2="144.838" gradientUnits="userSpaceOnUse">
<stop stop-color="white"/>
<stop offset="1" stop-color="#231F20"/>
</linearGradient>
<linearGradient id="paint19_linear_1_6411" x1="129.825" y1="132.407" x2="130.297" y2="131.544" gradientUnits="userSpaceOnUse">
<stop stop-color="white"/>
<stop offset="1" stop-color="#231F20"/>
</linearGradient>
<linearGradient id="paint20_linear_1_6411" x1="138.188" y1="127.1" x2="138.668" y2="126.223" gradientUnits="userSpaceOnUse">
<stop stop-color="white"/>
<stop offset="1" stop-color="#231F20"/>
</linearGradient>
<linearGradient id="paint21_linear_1_6411" x1="138.336" y1="127.245" x2="138.816" y2="126.367" gradientUnits="userSpaceOnUse">
<stop stop-color="white"/>
<stop offset="1" stop-color="#231F20"/>
</linearGradient>
<linearGradient id="paint22_linear_1_6411" x1="134.181" y1="118.094" x2="134.658" y2="117.223" gradientUnits="userSpaceOnUse">
<stop stop-color="white"/>
<stop offset="1" stop-color="#231F20"/>
</linearGradient>
<linearGradient id="paint23_linear_1_6411" x1="137.762" y1="126.923" x2="138.242" y2="126.047" gradientUnits="userSpaceOnUse">
<stop stop-color="white"/>
<stop offset="1" stop-color="#231F20"/>
</linearGradient>
<linearGradient id="paint24_linear_1_6411" x1="138.396" y1="127.235" x2="138.876" y2="126.357" gradientUnits="userSpaceOnUse">
<stop stop-color="white"/>
<stop offset="1" stop-color="#231F20"/>
</linearGradient>
<linearGradient id="paint25_linear_1_6411" x1="132.949" y1="128.069" x2="133.432" y2="127.185" gradientUnits="userSpaceOnUse">
<stop stop-color="white"/>
<stop offset="1" stop-color="#231F20"/>
</linearGradient>
<linearGradient id="paint26_linear_1_6411" x1="135.186" y1="131.114" x2="135.667" y2="130.235" gradientUnits="userSpaceOnUse">
<stop stop-color="white"/>
<stop offset="1" stop-color="#231F20"/>
</linearGradient>
<linearGradient id="paint27_linear_1_6411" x1="135.44" y1="134.507" x2="135.92" y2="133.629" gradientUnits="userSpaceOnUse">
<stop stop-color="white"/>
<stop offset="1" stop-color="#231F20"/>
</linearGradient>
<linearGradient id="paint28_linear_1_6411" x1="144.827" y1="135.886" x2="145.312" y2="134.999" gradientUnits="userSpaceOnUse">
<stop stop-color="white"/>
<stop offset="1" stop-color="#231F20"/>
</linearGradient>
<linearGradient id="paint29_linear_1_6411" x1="144.611" y1="138.823" x2="145.093" y2="137.942" gradientUnits="userSpaceOnUse">
<stop stop-color="white"/>
<stop offset="1" stop-color="#231F20"/>
</linearGradient>
<linearGradient id="paint30_linear_1_6411" x1="147.258" y1="143.015" x2="147.736" y2="142.142" gradientUnits="userSpaceOnUse">
<stop stop-color="white"/>
<stop offset="1" stop-color="#231F20"/>
</linearGradient>
<linearGradient id="paint31_linear_1_6411" x1="119.371" y1="117.471" x2="119.857" y2="116.582" gradientUnits="userSpaceOnUse">
<stop stop-color="white"/>
<stop offset="1" stop-color="#231F20"/>
</linearGradient>
<linearGradient id="paint32_linear_1_6411" x1="119.909" y1="121.688" x2="120.39" y2="120.809" gradientUnits="userSpaceOnUse">
<stop stop-color="white"/>
<stop offset="1" stop-color="#231F20"/>
</linearGradient>
<linearGradient id="paint33_linear_1_6411" x1="110.632" y1="124.01" x2="111.117" y2="123.123" gradientUnits="userSpaceOnUse">
<stop stop-color="white"/>
<stop offset="1" stop-color="#231F20"/>
</linearGradient>
<linearGradient id="paint34_linear_1_6411" x1="123.1" y1="124.247" x2="123.576" y2="123.377" gradientUnits="userSpaceOnUse">
<stop stop-color="white"/>
<stop offset="1" stop-color="#231F20"/>
</linearGradient>
<linearGradient id="paint35_linear_1_6411" x1="127.814" y1="124.534" x2="128.295" y2="123.656" gradientUnits="userSpaceOnUse">
<stop stop-color="white"/>
<stop offset="1" stop-color="#231F20"/>
</linearGradient>
<linearGradient id="paint36_linear_1_6411" x1="122.042" y1="125.803" x2="122.522" y2="124.927" gradientUnits="userSpaceOnUse">
<stop stop-color="white"/>
<stop offset="1" stop-color="#231F20"/>
</linearGradient>
<linearGradient id="paint37_linear_1_6411" x1="126.662" y1="128.117" x2="127.142" y2="127.241" gradientUnits="userSpaceOnUse">
<stop stop-color="white"/>
<stop offset="1" stop-color="#231F20"/>
</linearGradient>
<linearGradient id="paint38_linear_1_6411" x1="128.454" y1="130.492" x2="128.932" y2="129.617" gradientUnits="userSpaceOnUse">
<stop stop-color="white"/>
<stop offset="1" stop-color="#231F20"/>
</linearGradient>
<linearGradient id="paint39_linear_1_6411" x1="122.476" y1="127.223" x2="122.956" y2="126.347" gradientUnits="userSpaceOnUse">
<stop stop-color="white"/>
<stop offset="1" stop-color="#231F20"/>
</linearGradient>
<linearGradient id="paint40_linear_1_6411" x1="123.355" y1="130.077" x2="123.834" y2="129.201" gradientUnits="userSpaceOnUse">
<stop stop-color="white"/>
<stop offset="1" stop-color="#231F20"/>
</linearGradient>
<linearGradient id="paint41_linear_1_6411" x1="127.778" y1="134.772" x2="128.256" y2="133.9" gradientUnits="userSpaceOnUse">
<stop stop-color="white"/>
<stop offset="1" stop-color="#231F20"/>
</linearGradient>
<linearGradient id="paint42_linear_1_6411" x1="132.352" y1="136.399" x2="132.83" y2="135.525" gradientUnits="userSpaceOnUse">
<stop stop-color="white"/>
<stop offset="1" stop-color="#231F20"/>
</linearGradient>
<linearGradient id="paint43_linear_1_6411" x1="121.625" y1="134.952" x2="122.106" y2="134.073" gradientUnits="userSpaceOnUse">
<stop stop-color="white"/>
<stop offset="1" stop-color="#231F20"/>
</linearGradient>
<linearGradient id="paint44_linear_1_6411" x1="124.532" y1="136.706" x2="125.016" y2="135.822" gradientUnits="userSpaceOnUse">
<stop stop-color="white"/>
<stop offset="1" stop-color="#231F20"/>
</linearGradient>
<linearGradient id="paint45_linear_1_6411" x1="132.643" y1="140.497" x2="133.12" y2="139.624" gradientUnits="userSpaceOnUse">
<stop stop-color="white"/>
<stop offset="1" stop-color="#231F20"/>
</linearGradient>
<linearGradient id="paint46_linear_1_6411" x1="135.052" y1="143.624" x2="135.529" y2="142.752" gradientUnits="userSpaceOnUse">
<stop stop-color="white"/>
<stop offset="1" stop-color="#231F20"/>
</linearGradient>
<linearGradient id="paint47_linear_1_6411" x1="127.488" y1="139.785" x2="127.969" y2="138.906" gradientUnits="userSpaceOnUse">
<stop stop-color="white"/>
<stop offset="1" stop-color="#231F20"/>
</linearGradient>
<linearGradient id="paint48_linear_1_6411" x1="128.736" y1="141.394" x2="129.215" y2="140.518" gradientUnits="userSpaceOnUse">
<stop stop-color="white"/>
<stop offset="1" stop-color="#231F20"/>
</linearGradient>
<linearGradient id="paint49_linear_1_6411" x1="135.088" y1="150.102" x2="135.57" y2="149.222" gradientUnits="userSpaceOnUse">
<stop stop-color="white"/>
<stop offset="1" stop-color="#231F20"/>
</linearGradient>
<linearGradient id="paint50_linear_1_6411" x1="124.597" y1="150.802" x2="125.079" y2="149.922" gradientUnits="userSpaceOnUse">
<stop stop-color="white"/>
<stop offset="1" stop-color="#231F20"/>
</linearGradient>
<linearGradient id="paint51_linear_1_6411" x1="131.078" y1="152.544" x2="131.556" y2="151.672" gradientUnits="userSpaceOnUse">
<stop stop-color="white"/>
<stop offset="1" stop-color="#231F20"/>
</linearGradient>
</defs>
</svg>
