<svg width="42" height="12" viewBox="0 0 42 12" fill="none" xmlns="http://www.w3.org/2000/svg">
<path d="M5.84092 8.57916C5.58092 8.57216 5.24592 8.57915 4.91492 8.54716C4.76892 8.52916 4.73692 8.49016 4.73292 8.33715C4.7457 8.0539 4.791 7.77306 4.86792 7.50015C4.94447 7.19171 5.00158 6.87876 5.03892 6.56316C5.05435 6.4738 5.0514 6.38225 5.03025 6.29408C5.0091 6.20591 4.97019 6.12297 4.91591 6.05035C4.86162 5.97772 4.7931 5.91692 4.71453 5.87167C4.63596 5.82642 4.54898 5.79766 4.45892 5.78716C4.0356 5.72861 3.60764 5.71086 3.18092 5.73416C3.1134 5.73966 3.04898 5.76486 2.99565 5.80663C2.94232 5.84841 2.90243 5.90492 2.88092 5.96915C2.76082 6.2493 2.66318 6.53854 2.58892 6.83416C2.43892 7.37916 2.28892 7.92016 2.14692 8.46816C2.12592 8.56116 2.08592 8.58616 1.99392 8.58616C1.39392 8.58616 0.793922 8.58615 0.188922 8.56516C-0.0110782 8.55416 -0.0210781 8.55116 0.0219219 8.36515C0.188922 7.60715 0.398919 6.86515 0.609919 6.11415C1.12592 4.26215 1.64992 2.41416 2.16592 0.559155C2.19792 0.452155 2.23692 0.420155 2.34792 0.424155C3.47992 0.449155 4.60892 0.467155 5.73792 0.495155C6.24243 0.489767 6.74641 0.529256 7.24392 0.613155C7.52884 0.669744 7.79256 0.804027 8.00592 1.00116C8.14719 1.12883 8.25532 1.28892 8.32099 1.46765C8.38666 1.64638 8.40792 1.83839 8.38292 2.02715C8.35594 2.51001 8.21871 2.98027 7.98175 3.40185C7.74478 3.82342 7.41439 4.18511 7.01592 4.45916C6.91699 4.5301 6.82186 4.60621 6.73092 4.68715C6.59592 4.81215 6.59592 4.85416 6.71292 4.98715C6.76255 5.05196 6.81999 5.1104 6.88392 5.16116C7.03823 5.28567 7.15373 5.45171 7.2168 5.63969C7.27988 5.82767 7.2879 6.02977 7.23992 6.22216C7.18292 6.66016 7.07992 7.08416 7.01892 7.52216C6.97293 7.83263 6.94456 8.14547 6.93392 8.45916C6.93392 8.56915 6.89492 8.59416 6.79192 8.59116C6.49992 8.58416 6.20792 8.59116 5.84092 8.59116M4.90092 2.29116C4.61992 2.30516 4.28892 2.31916 3.96092 2.33716C3.90792 2.33716 3.86092 2.33715 3.83992 2.41215C3.70389 2.8417 3.59435 3.27919 3.51192 3.72216C3.46892 4.00015 3.52592 4.06715 3.81192 4.08215H3.84792C4.3193 4.09722 4.79109 4.07112 5.25792 4.00416C5.46155 3.99275 5.65526 3.91253 5.80733 3.77664C5.95939 3.64074 6.0608 3.45722 6.09492 3.25616C6.12209 3.10814 6.13149 2.9574 6.12292 2.80715C6.12858 2.75221 6.12329 2.6967 6.10736 2.64381C6.09143 2.59093 6.06519 2.54172 6.03013 2.49904C5.99508 2.45636 5.95191 2.42105 5.90313 2.39516C5.85435 2.36926 5.80091 2.35328 5.74592 2.34816C5.46646 2.29591 5.18198 2.27545 4.89792 2.28715" fill="#37398B"/>
<path d="M19.056 0.463078C19.779 0.488078 20.498 0.488078 21.218 0.538078C21.5962 0.549482 21.9681 0.637954 22.311 0.798078C22.541 0.913672 22.738 1.08562 22.8837 1.29789C23.0294 1.51017 23.1189 1.75586 23.144 2.01208C23.194 2.47897 23.1291 2.95101 22.955 3.38708C22.7753 3.95456 22.4794 4.47837 22.086 4.92508C21.5709 5.50694 20.8521 5.86884 20.078 5.93608C19.43 5.99708 18.778 6.01408 18.134 6.07508H18.12C17.75 6.09608 17.72 6.11108 17.62 6.46008C17.42 7.12608 17.232 7.79508 17.043 8.46008C17.018 8.54908 16.986 8.58508 16.89 8.58108C16.29 8.58108 15.69 8.58108 15.095 8.56008C14.874 8.54908 14.867 8.54608 14.917 8.33208C15.117 7.43208 15.369 6.55208 15.617 5.66808C16.0837 3.97674 16.5503 2.28774 17.017 0.601078C17.045 0.491078 17.088 0.455078 17.202 0.455078C17.822 0.462078 18.441 0.455078 19.057 0.455078M18.993 4.25508C19.2847 4.25113 19.5759 4.22976 19.865 4.19108C20.0463 4.1791 20.222 4.12289 20.3766 4.02737C20.5313 3.93184 20.6601 3.7999 20.752 3.64308C20.8443 3.47543 20.9082 3.29363 20.941 3.10508C20.967 3.01299 20.9729 2.91638 20.9582 2.82181C20.9436 2.72724 20.9087 2.63695 20.856 2.55708C20.8001 2.4917 20.7314 2.4384 20.6542 2.4004C20.577 2.36241 20.4929 2.34052 20.407 2.33608C19.9063 2.28871 19.4025 2.28403 18.901 2.32208C18.776 2.32908 18.734 2.38608 18.701 2.49308C18.601 2.83108 18.512 3.17308 18.434 3.51508C18.3794 3.70687 18.3459 3.90403 18.334 4.10308C18.334 4.19208 18.37 4.23808 18.473 4.24508C18.658 4.25608 18.847 4.25608 18.996 4.25608" fill="#37398B"/>
<path d="M31.1749 2.64401C31.4419 2.64401 31.7129 2.64401 31.9749 2.64401C32.0529 2.64401 32.0749 2.66201 32.0749 2.74401C32.0749 3.53801 32.0889 4.32901 32.0999 5.12301C32.0999 5.48601 32.1069 5.84601 32.1429 6.20901C32.1429 6.24801 32.1359 6.30201 32.1819 6.31601C32.2279 6.33001 32.2599 6.28001 32.2889 6.24801C32.4178 6.08044 32.5332 5.90288 32.6339 5.71701C33.1969 4.74801 33.7169 3.75501 34.2439 2.76501C34.262 2.72373 34.2928 2.68933 34.3319 2.66684C34.3709 2.64434 34.4162 2.63494 34.4609 2.64001C34.8849 2.65101 35.3089 2.65101 35.7319 2.65801C35.7889 2.65801 35.8459 2.65801 35.9029 2.66501C36.0489 2.67601 36.0529 2.67901 35.9849 2.80701C35.5849 3.57301 35.1619 4.32001 34.7349 5.06801C33.9049 6.51701 33.0789 7.96801 32.1889 9.38001C31.9775 9.72148 31.7437 10.0485 31.4889 10.359C31.3185 10.5756 31.1041 10.7536 30.8598 10.8814C30.6156 11.0091 30.3471 11.0836 30.0719 11.1C29.6719 11.128 29.2779 11.157 28.8789 11.15C28.5369 11.15 28.4789 11.068 28.5509 10.733C28.6079 10.462 28.6789 10.195 28.7509 9.93301C28.7693 9.83862 28.8185 9.75304 28.891 9.68982C28.9635 9.62661 29.0549 9.58937 29.1509 9.58401C29.3736 9.55963 29.5931 9.51203 29.8059 9.44201C29.9391 9.40284 30.0561 9.32173 30.1395 9.21075C30.223 9.09977 30.2683 8.96484 30.2689 8.82601C30.3016 8.36241 30.3077 7.89731 30.2869 7.43301C30.2479 6.47901 30.1939 5.52401 30.1479 4.57001C30.1269 4.08901 30.1049 3.60501 30.0799 3.12101V2.92101C30.0799 2.67901 30.0869 2.66801 30.3329 2.66101C30.6109 2.65001 30.8919 2.66101 31.1729 2.66101V2.64401" fill="#37398B"/>
<path d="M27.35 8.58084C27.0014 8.57328 26.6527 8.59234 26.307 8.63784C26.232 8.64884 26.186 8.63784 26.161 8.55284C26.1344 8.4718 26.101 8.39319 26.061 8.31784C25.99 8.16784 25.929 8.13984 25.769 8.19284C25.5427 8.2714 25.3216 8.36426 25.107 8.47084C24.5292 8.74644 23.8911 8.87131 23.252 8.83384C23.0093 8.8248 22.7753 8.74042 22.5827 8.5924C22.3901 8.44439 22.2483 8.24008 22.177 8.00784C22.136 7.74539 22.1506 7.47725 22.22 7.22084C22.2876 6.72842 22.5288 6.2763 22.9 5.94584C23.2077 5.71082 23.5587 5.53887 23.933 5.43984C24.581 5.23984 25.251 5.15484 25.909 5.02284C26.1696 4.9797 26.4241 4.9055 26.667 4.80184C26.7717 4.76057 26.8649 4.69467 26.9387 4.60972C27.0125 4.52476 27.0648 4.42327 27.091 4.31384C27.1101 4.2649 27.1186 4.21249 27.1159 4.16005C27.1133 4.1076 27.0995 4.05631 27.0756 4.00956C27.0517 3.9628 27.0182 3.92163 26.9772 3.88876C26.9363 3.85589 26.8888 3.83206 26.838 3.81884C26.6081 3.71604 26.3536 3.68091 26.1044 3.71758C25.8552 3.75424 25.6216 3.86117 25.431 4.02584C25.3332 4.12361 25.2155 4.19928 25.086 4.24776C24.9564 4.29623 24.818 4.31637 24.68 4.30684C24.32 4.29284 23.957 4.33184 23.594 4.29584H23.558C23.334 4.27084 23.294 4.19584 23.408 4.00384C23.5717 3.70012 23.7938 3.43174 24.0615 3.21413C24.3292 2.99652 24.6373 2.83398 24.968 2.73584C25.9749 2.45189 27.0359 2.41757 28.059 2.63584C28.4019 2.71837 28.7076 2.91256 28.928 3.18784C29.0133 3.29435 29.0704 3.42064 29.094 3.55505C29.1176 3.68945 29.107 3.82764 29.063 3.95684C28.921 4.68284 28.732 5.39584 28.554 6.11484C28.383 6.80884 28.209 7.49984 28.066 8.20184C28.0435 8.28415 28.035 8.3697 28.041 8.45484C28.048 8.55484 28.02 8.58984 27.916 8.58684C27.706 8.57984 27.499 8.58684 27.35 8.58684M24.907 7.58784C24.96 7.58784 25.014 7.58784 25.064 7.58784C25.3219 7.59451 25.5771 7.53458 25.805 7.41384C26.0265 7.26415 26.2081 7.06268 26.3341 6.8269C26.4601 6.59112 26.5267 6.32816 26.528 6.06084C26.528 5.99684 26.514 5.97584 26.446 5.98284C25.8523 6.02683 25.2739 6.19152 24.746 6.46684C24.6017 6.53553 24.4825 6.6477 24.4052 6.7876C24.3279 6.9275 24.2964 7.08809 24.315 7.24684C24.3128 7.3231 24.3384 7.39758 24.3869 7.45643C24.4355 7.51529 24.5037 7.55452 24.579 7.56684C24.6867 7.58991 24.7973 7.59699 24.907 7.58784Z" fill="#37398B"/>
<path d="M12.6929 8.58886H11.9489C11.7849 8.58886 11.7849 8.58886 11.8389 8.42486C11.8669 8.32486 11.8999 8.22486 11.9239 8.13286C11.9419 8.06186 11.9559 7.97986 11.8919 7.92586C11.8607 7.90698 11.8249 7.897 11.7884 7.897C11.7519 7.897 11.7161 7.90698 11.6849 7.92586C11.4675 8.01689 11.262 8.13409 11.0729 8.27486C10.7923 8.48579 10.4729 8.63938 10.1329 8.72686C9.69577 8.83558 9.23643 8.81473 8.81092 8.66686C8.59835 8.59575 8.41547 8.45595 8.29109 8.26947C8.16671 8.083 8.1079 7.86044 8.12392 7.63686C8.14199 7.12528 8.21951 6.61753 8.35492 6.12386C8.60792 5.03786 8.93492 3.96986 9.23792 2.89386C9.25002 2.83546 9.28092 2.78262 9.32588 2.74344C9.37085 2.70425 9.42741 2.68087 9.48692 2.67686C9.85493 2.64316 10.2249 2.63614 10.5939 2.65586C10.7733 2.6513 10.9525 2.66809 11.1279 2.70586C11.2209 2.72686 11.2419 2.76686 11.2129 2.86586C10.9209 3.89186 10.6469 4.91686 10.4329 5.95986C10.3832 6.17386 10.3547 6.39226 10.3479 6.61186C10.3407 6.67916 10.3476 6.74724 10.3682 6.81172C10.3887 6.8762 10.4226 6.93567 10.4675 6.98632C10.5124 7.03697 10.5674 7.07768 10.6289 7.10584C10.6905 7.13401 10.7572 7.149 10.8249 7.14986C11.0627 7.17515 11.3026 7.12983 11.5148 7.01956C11.727 6.9093 11.902 6.73898 12.0179 6.52986C12.2219 6.08356 12.3891 5.62136 12.5179 5.14786C12.6999 4.54286 12.8739 3.93386 13.0559 3.32486C13.1106 3.08974 13.2289 2.8742 13.3979 2.70186C13.4145 2.68255 13.4353 2.66734 13.4587 2.65745C13.4821 2.64755 13.5075 2.64325 13.5329 2.64486C14.0029 2.64486 14.4699 2.65186 14.9399 2.65886C15.1749 2.66586 15.1859 2.67986 15.1289 2.90486C14.6516 4.76753 14.1496 6.62053 13.6229 8.46386C13.6215 8.47899 13.6169 8.49366 13.6096 8.50698C13.6023 8.5203 13.5924 8.53199 13.5804 8.54135C13.5684 8.5507 13.5547 8.55752 13.54 8.56139C13.5253 8.56526 13.51 8.5661 13.4949 8.56386C13.2279 8.56386 12.9569 8.56386 12.6949 8.56386V8.59186" fill="#37398B"/>
<path d="M37.1379 8.6097C36.6289 9.0657 36.1229 9.5247 35.6139 9.9807C35.4534 10.1337 35.2845 10.2776 35.1079 10.4117C35.9409 7.3597 36.7749 4.3117 37.6179 1.2207L37.6959 1.3707C37.9846 1.94737 38.2752 2.52437 38.5679 3.1017C38.5819 3.1337 38.6039 3.1627 38.6209 3.1947C38.6379 3.2267 38.6569 3.2837 38.6779 3.3267C39.1089 4.1817 39.5399 5.0397 39.9709 5.8937C39.9959 5.9467 40.0279 5.9937 39.9599 6.0467C39.4219 6.5307 38.8852 7.01604 38.3499 7.5027C37.9439 7.8697 37.5419 8.2397 37.1359 8.6097" fill="#F36F20"/>
<path d="M37.139 8.6087C37.545 8.2387 37.947 7.8677 38.353 7.5017C38.8864 7.0137 39.423 6.52837 39.963 6.0457C40.031 5.9887 39.999 5.9457 39.974 5.8927C39.543 5.0377 39.112 4.1797 38.681 3.3257C38.66 3.2827 38.642 3.2367 38.624 3.1937C38.788 2.6057 38.948 2.0187 39.112 1.4307C39.13 1.3627 39.151 1.2917 39.169 1.2207C39.219 1.2207 39.219 1.2597 39.233 1.2847C40.0024 2.81804 40.7727 4.34804 41.544 5.8747C41.583 5.9497 41.558 5.9817 41.508 6.0247C40.0514 7.34604 38.596 8.66604 37.142 9.9847C36.989 10.1197 36.842 10.2557 36.686 10.3947C36.658 10.3627 36.679 10.3417 36.686 10.3167C36.828 9.7857 36.974 9.2587 37.117 8.7287C37.128 8.6897 37.131 8.6507 37.138 8.6107" fill="#37398B"/>
</svg>
