<svg width="31" height="11" viewBox="0 0 31 11" fill="none" xmlns="http://www.w3.org/2000/svg">
<path fill-rule="evenodd" clip-rule="evenodd" d="M8.7749 9.81333L11.4879 0.861328H13.9079L11.1909 9.81333H8.7749Z" fill="#005A9B"/>
<path fill-rule="evenodd" clip-rule="evenodd" d="M7.688 0.864328L5.509 4.66433C5.07326 5.32339 4.72596 6.03682 4.476 6.78633H4.44C4.479 5.98633 4.369 5.01333 4.358 4.46133L4.116 0.868328H0.0390015L0 1.11033C0.22667 1.08983 0.455144 1.11542 0.671667 1.18554C0.88819 1.25566 1.08828 1.36887 1.25991 1.51835C1.43153 1.66783 1.57113 1.85049 1.67031 2.05534C1.76949 2.26019 1.82619 2.48299 1.837 2.71033L2.631 9.81033H5.141L10.215 0.861328L7.688 0.864328Z" fill="#005A9B"/>
<path fill-rule="evenodd" clip-rule="evenodd" d="M26.528 9.81291L26.46 8.48091H23.437L22.817 9.81291H20.189L24.957 0.878906H28.183L28.991 9.81291H26.528ZM26.25 4.53191C26.2126 3.8324 26.2126 3.13141 26.25 2.43191H26.214C26.064 2.87391 25.434 4.20891 25.153 4.86391L24.253 6.82591H26.379L26.25 4.53191Z" fill="#005A9B"/>
<path fill-rule="evenodd" clip-rule="evenodd" d="M16.453 10.068C15.163 10.0815 13.8961 9.72543 12.802 9.04197L13.956 7.27897C14.7121 7.83835 15.6255 8.1449 16.566 8.15497C16.7726 8.17623 16.981 8.13993 17.1683 8.0501C17.3555 7.96027 17.5143 7.82041 17.627 7.64597C17.965 7.06197 17.549 6.74597 16.605 6.21397L16.135 5.91397C14.735 4.95297 14.127 4.04397 14.789 2.45597C15.209 1.43797 16.324 0.667969 18.161 0.667969C19.2987 0.690977 20.4006 1.0697 21.312 1.75097L19.981 3.30597C19.473 2.81606 18.8065 2.52413 18.102 2.48297C17.9042 2.46144 17.7043 2.49298 17.5227 2.57435C17.3411 2.65573 17.1845 2.784 17.069 2.94597C16.816 3.44597 17.151 3.78597 17.888 4.24597L18.444 4.59897C20.144 5.67097 20.552 6.79897 20.125 7.84997C19.8441 8.5741 19.3309 9.18463 18.6659 9.58598C18.0009 9.98733 17.2216 10.1568 16.45 10.068" fill="#005A9B"/>
<path fill-rule="evenodd" clip-rule="evenodd" d="M29.7109 2.07601H29.6109V1.43501H29.8569C30.0069 1.43501 30.0849 1.48801 30.0849 1.62001C30.0862 1.64238 30.083 1.66478 30.0754 1.68585C30.0678 1.70692 30.0559 1.7262 30.0405 1.7425C30.0252 1.7588 30.0066 1.77179 29.986 1.78065C29.9655 1.78951 29.9433 1.79406 29.9209 1.79401L30.0949 2.07501H29.9809L29.8139 1.80101H29.7139L29.7109 2.07601ZM29.8319 1.71301C29.9069 1.71301 29.9779 1.70601 29.9779 1.61301C29.9779 1.52001 29.9029 1.52401 29.8429 1.52401H29.7109V1.71301H29.8319ZM29.8319 2.32201C29.7562 2.32358 29.681 2.30963 29.6109 2.28104C29.5408 2.25246 29.4773 2.20983 29.4242 2.15578C29.3712 2.10173 29.3298 2.03741 29.3026 1.96677C29.2754 1.89613 29.2629 1.82066 29.2659 1.74501C29.2627 1.66888 29.2749 1.59289 29.3018 1.52161C29.3288 1.45033 29.3698 1.38523 29.4226 1.33023C29.4753 1.27523 29.5386 1.23146 29.6087 1.20156C29.6788 1.17166 29.7542 1.15625 29.8304 1.15625C29.9066 1.15625 29.982 1.17166 30.0521 1.20156C30.1222 1.23146 30.1855 1.27523 30.2382 1.33023C30.2909 1.38523 30.332 1.45033 30.3589 1.52161C30.3859 1.59289 30.3981 1.66888 30.3949 1.74501C30.3972 1.82023 30.3843 1.89513 30.357 1.96524C30.3297 2.03536 30.2885 2.09925 30.236 2.15311C30.1834 2.20697 30.1205 2.24968 30.0511 2.2787C29.9817 2.30772 29.9071 2.32245 29.8319 2.32201ZM29.8319 1.26801C29.7707 1.26815 29.7103 1.28083 29.6542 1.30527C29.5982 1.3297 29.5477 1.36538 29.506 1.41009C29.4643 1.4548 29.4322 1.50759 29.4117 1.5652C29.3912 1.62281 29.3828 1.68401 29.3869 1.74501C29.3822 1.80615 29.3902 1.8676 29.4105 1.92548C29.4308 1.98335 29.4628 2.03638 29.5046 2.08122C29.5465 2.12606 29.5972 2.16172 29.6535 2.18596C29.7098 2.21019 29.7706 2.22247 29.8319 2.22201C29.8924 2.22079 29.952 2.20732 30.0072 2.18242C30.0623 2.15751 30.1119 2.12169 30.1528 2.07711C30.1937 2.03253 30.2252 1.98013 30.2453 1.92305C30.2655 1.86597 30.2738 1.80541 30.2699 1.74501C30.2738 1.68462 30.2655 1.62406 30.2453 1.56698C30.2252 1.5099 30.1937 1.45749 30.1528 1.41292C30.1119 1.36834 30.0623 1.33252 30.0072 1.30761C29.952 1.28271 29.8924 1.26924 29.8319 1.26801Z" fill="#005A9B"/>
</svg>
